<?xml version="1.0" encoding="utf-8" ?>
<svg baseProfile="full" height="1000px" version="1.1" viewBox="0 0 1601.00234375 1000" width="1601.00234375px" xmlns="http://www.w3.org/2000/svg" xmlns:ev="http://www.w3.org/2001/xml-events" xmlns:xlink="http://www.w3.org/1999/xlink"><defs /><g id="Axis" transform="translate(700.0,500.0)"><circle cx="0" cy="0" fill="none" r="390.0" stroke="gray" stroke-width="3.0" /></g><g id="label_leaders" transform="translate(700.0,500.0)"><line stroke="gray" stroke-linecap="round" stroke-width="1.5" x1="100.83190656869813" x2="104.86518283144582" y1="-427.00642748993994" y2="-455.473522655936" /><line stroke="gray" stroke-linecap="round" stroke-width="1.5" x1="100.83190656869813" x2="94.33385036760426" y1="-427.00642748993994" y2="-399.48823549614383" /><line stroke="gray" stroke-linecap="round" stroke-width="1.5" x1="255.00179118097955" x2="265.20186282821845" y1="-357.0373215708578" y2="-380.83980967558176" /><line stroke="gray" stroke-linecap="round" stroke-width="1.5" x1="255.00179118097955" x2="238.56834241598312" y1="-357.0373215708578" y2="-334.0282497362914" /><line stroke="gray" stroke-linecap="round" stroke-width="1.5" x1="414.7771623868675" x2="431.368248882342" y1="-143.04358798037106" y2="-152.57982717906276" /><line stroke="gray" stroke-linecap="round" stroke-width="1.5" x1="414.7771623868675" x2="388.0470785886027" y1="-143.04358798037106" y2="-133.82522342163605" /><line stroke="gray" stroke-linecap="round" stroke-width="1.5" x1="434.70742000904954" x2="452.09571680941144" y1="-59.42239888355079" y2="-63.383892142453995" /><line stroke="gray" stroke-linecap="round" stroke-width="1.5" x1="434.70742000904954" x2="406.6929418306886" y1="-59.42239888355079" y2="-55.59295539994419" /><line stroke="gray" stroke-linecap="round" stroke-width="1.5" x1="437.9996207985389" x2="455.8297508298212" y1="25.649457700624342" y2="21.241623842882497" /><line stroke="gray" stroke-linecap="round" stroke-width="1.5" x1="437.9996207985389" x2="409.77297856929977" y1="25.649457700624342" y2="23.99649264880633" /><line stroke="gray" stroke-linecap="round" stroke-width="1.5" x1="437.1996648255225" x2="454.68765141854334" y1="36.851262888139836" y2="39.308013747349214" /><line stroke="gray" stroke-linecap="round" stroke-width="1.5" x1="437.1996648255225" x2="368.21927326416227" y1="36.851262888139836" y2="31.036952521344435" /><line stroke="gray" stroke-linecap="round" stroke-width="1.5" x1="436.04914041417527" x2="453.0326944798025" y1="48.60771177558986" y2="55.90512986210907" /><line stroke="gray" stroke-linecap="round" stroke-width="1.5" x1="436.04914041417527" x2="407.94819580970625" y1="48.60771177558986" y2="45.475214794496296" /><line stroke="gray" stroke-linecap="round" stroke-width="1.5" x1="416.2725857032316" x2="432.92348913136084" y1="138.6315147863058" y2="147.87361577205925" /><line stroke="gray" stroke-linecap="round" stroke-width="1.5" x1="416.2725857032316" x2="389.44613018013445" y1="138.6315147863058" y2="129.69748383341053" /><line stroke="gray" stroke-linecap="round" stroke-width="1.5" x1="378.12526597929445" x2="396.2460259727094" y1="222.53729064605741" y2="232.07329976481918" /><line stroke="gray" stroke-linecap="round" stroke-width="1.5" x1="378.12526597929445" x2="353.75719328285106" y1="222.53729064605741" y2="208.1959985822004" /><line stroke="gray" stroke-linecap="round" stroke-width="1.5" x1="371.5997929394839" x2="386.4637846570633" y1="233.2705647683237" y2="248.82193575287852" /><line stroke="gray" stroke-linecap="round" stroke-width="1.5" x1="371.5997929394839" x2="312.96960338680975" y1="233.2705647683237" y2="196.4656534382104" /><line stroke="gray" stroke-linecap="round" stroke-width="1.5" x1="365.09301417933165" x2="375.2223744313184" y1="243.32828338984834" y2="266.30717331687606" /><line stroke="gray" stroke-linecap="round" stroke-width="1.5" x1="365.09301417933165" x2="307.489449719926" y1="243.32828338984834" y2="204.9364875661167" /><line stroke="gray" stroke-linecap="round" stroke-width="1.5" x1="355.5566834740372" x2="361.44217121781173" y1="257.0622635412349" y2="285.65390914250327" /><line stroke="gray" stroke-linecap="round" stroke-width="1.5" x1="355.5566834740372" x2="299.45774008146685" y1="257.0622635412349" y2="216.50355084917342" /><line stroke="gray" stroke-linecap="round" stroke-width="1.5" x1="349.11302532693094" x2="349.11302532693094" y1="265.7473575542712" y2="297.31075427520614" /><line stroke="gray" stroke-linecap="round" stroke-width="1.5" x1="349.11302532693094" x2="294.0307479975707" y1="265.7473575542712" y2="223.81833002904173" /><line stroke="gray" stroke-linecap="round" stroke-width="1.5" x1="131.8652455352421" x2="155.99265186432692" y1="418.4651951117683" y2="439.80269626164306" /><line stroke="gray" stroke-linecap="round" stroke-width="1.5" x1="131.8652455352421" x2="111.05984012857057" y1="418.4651951117683" y2="352.4406865496893" /><line stroke="gray" stroke-linecap="round" stroke-width="1.5" x1="120.47200658722859" x2="142.2362434368718" y1="421.8863094825984" y2="446.83092155835277" /><line stroke="gray" stroke-linecap="round" stroke-width="1.5" x1="120.47200658722859" x2="112.7082550516072" y1="421.8863094825984" y2="394.69808064927537" /><line stroke="gray" stroke-linecap="round" stroke-width="1.5" x1="59.2987613527055" x2="59.2987613527055" y1="434.7243027506455" y2="466.70246087670495" /><line stroke="gray" stroke-linecap="round" stroke-width="1.5" x1="59.2987613527055" x2="55.4772856210867" y1="434.7243027506455" y2="406.7087365733817" /><line stroke="gray" stroke-linecap="round" stroke-width="1.5" x1="-7.403551447702977" x2="-7.6996935056106794" y1="438.6875310810204" y2="468.68336648642173" /><line stroke="gray" stroke-linecap="round" stroke-width="1.5" x1="-7.403551447702977" x2="-6.926433687739897" y1="438.6875310810204" y2="410.41655685579906" /><line stroke="gray" stroke-linecap="round" stroke-width="1.5" x1="-30.589055378618678" x2="-79.2186227882849" y1="437.6823873438864" y2="461.6431098442843" /><line stroke="gray" stroke-linecap="round" stroke-width="1.5" x1="-30.589055378618678" x2="-28.617760698663254" y1="437.6823873438864" y2="409.4761890483915" /><line stroke="gray" stroke-linecap="round" stroke-width="1.5" x1="-96.04886465300599" x2="-128.7965099217512" y1="428.10767115162577" y2="448.9697743554544" /><line stroke="gray" stroke-linecap="round" stroke-width="1.5" x1="-96.04886465300599" x2="-89.85904893092338" y1="428.10767115162577" y2="400.5185101218544" /><line stroke="gray" stroke-linecap="round" stroke-width="1.5" x1="-209.61472163932834" x2="-223.2276843733342" y1="385.4390107034664" y2="408.1730317613743" /><line stroke="gray" stroke-linecap="round" stroke-width="1.5" x1="-209.61472163932834" x2="-196.10621735590496" y1="385.4390107034664" y2="360.59960779146525" /><line stroke="gray" stroke-linecap="round" stroke-width="1.5" x1="-268.88075949306324" x2="-279.6359898727856" y1="346.70549415091983" y2="369.8191937609812" /><line stroke="gray" stroke-linecap="round" stroke-width="1.5" x1="-268.88075949306324" x2="-251.55288832573248" y1="346.70549415091983" y2="324.36225119452723" /><line stroke="gray" stroke-linecap="round" stroke-width="1.5" x1="-295.24024374538726" x2="-307.04985349520274" y1="324.55317125729084" y2="346.1900493411101" /><line stroke="gray" stroke-linecap="round" stroke-width="1.5" x1="-295.24024374538726" x2="-276.2136502595734" y1="324.55317125729084" y2="303.6375224429321" /><line stroke="gray" stroke-linecap="round" stroke-width="1.5" x1="-319.6105232251012" x2="-332.3949441541053" y1="300.5838916904515" y2="320.6228178031481" /><line stroke="gray" stroke-linecap="round" stroke-width="1.5" x1="-319.6105232251012" x2="-299.01340061726137" y1="300.5838916904515" y2="281.21292978151126" /><line stroke="gray" stroke-linecap="round" stroke-width="1.5" x1="-339.4731206872608" x2="-353.0520455147512" y1="277.9560447819987" y2="296.48644776746517" /><line stroke="gray" stroke-linecap="round" stroke-width="1.5" x1="-339.4731206872608" x2="-317.59596402074845" y1="277.9560447819987" y2="260.0433218960477" /><line stroke="gray" stroke-linecap="round" stroke-width="1.5" x1="-408.87509512194225" x2="-425.23009892681955" y1="159.13113802465782" y2="169.73988055963588" /><line stroke="gray" stroke-linecap="round" stroke-width="1.5" x1="-408.87509512194225" x2="-382.52536676963933" y1="159.13113802465782" y2="148.87602024084654" /><line stroke="gray" stroke-linecap="round" stroke-width="1.5" x1="-436.69625428629746" x2="-453.54796677476565" y1="42.4021696652123" y2="51.32236194623858" /><line stroke="gray" stroke-linecap="round" stroke-width="1.5" x1="-436.69625428629746" x2="-408.5536067878472" y1="42.4021696652123" y2="39.66958539789862" /><line stroke="gray" stroke-linecap="round" stroke-width="1.5" x1="-437.5966349285422" x2="-455.10050032568387" y1="31.792256906614245" y2="33.91174070038823" /><line stroke="gray" stroke-linecap="round" stroke-width="1.5" x1="-437.5966349285422" x2="-409.395962899814" y1="31.792256906614245" y2="29.74342257263244" /><line stroke="gray" stroke-linecap="round" stroke-width="1.5" x1="-438.2472708203756" x2="-456.0239559162667" y1="20.99743123556662" y2="16.276429652703087" /><line stroke="gray" stroke-linecap="round" stroke-width="1.5" x1="-438.2472708203756" x2="-410.0046689230626" y1="20.99743123556662" y2="19.644263444830106" /><line stroke="gray" stroke-linecap="round" stroke-width="1.5" x1="-320.35045673019584" x2="-333.16447499940364" y1="-299.7951756996015" y2="-319.7815207462416" /><line stroke="gray" stroke-linecap="round" stroke-width="1.5" x1="-320.35045673019584" x2="-269.8062735572094" y1="-299.7951756996015" y2="-252.4941590892199" /><line stroke="gray" stroke-linecap="round" stroke-width="1.5" x1="-284.6273299112946" x2="-296.0124231077464" y1="-333.8994542786302" y2="-356.1594178972055" /><line stroke="gray" stroke-linecap="round" stroke-width="1.5" x1="-284.6273299112946" x2="-239.7194623030681" y1="-333.8994542786302" y2="-281.2175403813352" /><line stroke="gray" stroke-linecap="round" stroke-width="1.5" x1="-106.89375134339373" x2="-111.16950139712947" y1="-425.5294213373932" y2="-453.89804942655275" /><line stroke="gray" stroke-linecap="round" stroke-width="1.5" x1="-106.89375134339373" x2="-100.00504292348613" y1="-425.5294213373932" y2="-398.106414184539" /><line stroke="gray" stroke-linecap="round" stroke-width="1.5" x1="-95.72414880728333" x2="-74.0321955139356" y1="-428.18039403401116" y2="-459.6335075985776" /><line stroke="gray" stroke-linecap="round" stroke-width="1.5" x1="-95.72414880728333" x2="-80.62100532880085" y1="-428.18039403401116" y2="-360.6230429753116" /></g><g id="NC_012920.1" transform="translate(700.0,500.0)"><path d="M 84.93326655868039,-382.6370901149968 L99.70307968958562,-398.18214616606326 L92.961784293083,-418.80676529999647 z" data-gbdraw-feature-id="fb8ff22d9" data-gbdraw-feature-part="block" fill="#e8b441" id="fb8ff22d9" stroke="gray" stroke-linecap="round" stroke-linejoin="round" stroke-miterlimit="4" stroke-width="2.0" /><path d="M 95.20341576060196,-380.2119305433668A391.95000000000005,391.95000000000005 0 0 1 212.6503135808646,-329.2486091602514 L234.17800600730922,-337.12073078860146 L232.75158700393138,-360.37161201619557A429.0,429.0 0 0 0 104.20274361856929,-416.15236178875966 z" data-gbdraw-feature-id="f24a47546" data-gbdraw-feature-part="block" fill="#71ee7d" id="f24a47546" stroke="gray" stroke-linecap="round" stroke-linejoin="round" stroke-miterlimit="4" stroke-width="2.0" /><path d="M 223.60940241077984,-321.90625600241754 L242.9178457625273,-330.8785968222983 L244.7466096038386,-352.33520557478533 z" data-gbdraw-feature-id="fc39ea03d" data-gbdraw-feature-part="block" fill="#e8b441" id="fc39ea03d" stroke="gray" stroke-linecap="round" stroke-linejoin="round" stroke-miterlimit="4" stroke-width="2.0" /><path d="M 231.95480759272203,-315.9458335452825 A391.95000000000005,391.95000000000005 0 0 1 309.93952792027255,-239.9214278311936 A391.95000000000005,391.95000000000005 0 0 1 363.9939063343981,-145.37275759723852 L 386.10484598150464,-139.32972954326218 L 398.40129051526156,-159.11446105170384 A429.0,429.0 0 0 0 339.2372942410943,-262.6005677754357 A429.0,429.0 0 0 0 253.88088393233255,-345.8113600993141 z" data-gbdraw-feature-id="fbdb78069" data-gbdraw-feature-part="block" fill="#71ee7d" id="fbdb78069" stroke="gray" stroke-linecap="round" stroke-linejoin="round" stroke-miterlimit="4" stroke-width="2.0" /><path d="M 368.6796866616743,-133.04168949261614 L389.91084063138993,-128.293655272281 L403.530005301335,-145.6177695939082 z" data-gbdraw-feature-id="f6bb0489e" data-gbdraw-feature-part="block" fill="#e8b441" id="f6bb0489e" stroke="gray" stroke-linecap="round" stroke-linejoin="round" stroke-miterlimit="4" stroke-width="2.0" /><path d="M 372.4067172955156,-122.22127234314793A391.95000000000005,391.95000000000005 0 0 1 391.922927377667,4.606679467905065 L410.05184422891494,18.633589816933192 L428.97036827406333,5.042136731040369A429.0,429.0 0 0 0 407.6093423134996,-133.77452694274896 z" data-gbdraw-feature-id="f406d90f1" data-gbdraw-feature-part="block" fill="#54bcf8" id="f406d90f1" stroke="gray" stroke-linecap="round" stroke-linejoin="round" stroke-miterlimit="4" stroke-width="2.0" /><path d="M 391.5459415202466,17.792643958211745 L409.42397667398984,29.355288270706215 L428.55774693758326,19.474535675654643 z" data-gbdraw-feature-id="fcf9fcd75" data-gbdraw-feature-part="block" fill="#e8b441" id="fcf9fcd75" stroke="gray" stroke-linecap="round" stroke-linejoin="round" stroke-miterlimit="4" stroke-width="2.0" /><path d="M 349.3246875044938,34.25292250141236 L368.60865494463195,26.007405193698883 L386.1978489633014,37.86850876545033 z" data-gbdraw-feature-id="fbb5964e6" data-gbdraw-feature-part="block" fill="#e8b441" id="fbb5964e6" stroke="gray" stroke-linecap="round" stroke-linejoin="round" stroke-miterlimit="4" stroke-width="2.0" /><path d="M 390.064701766597,38.39701727655066 L407.3279812678426,50.73106840254913 L426.9364894957778,42.02658607383654 z" data-gbdraw-feature-id="f5a6329de" data-gbdraw-feature-part="block" fill="#e8b441" id="f5a6329de" stroke="gray" stroke-linecap="round" stroke-linejoin="round" stroke-miterlimit="4" stroke-width="2.0" /><path d="M 388.9450082415029,48.441542750177554 A391.95000000000005,391.95000000000005 0 0 1 373.9015513292163,117.568841168081 A391.95000000000005,391.95000000000005 0 0 1 346.67688588609394,182.86590522106698 L 356.4120393120255,203.61773954752374 L 379.4473377857744,200.15173705788422 A429.0,429.0 0 0 0 409.24547906680385,128.68231371630753 A429.0,429.0 0 0 0 425.7109542941822,53.0205940549207 z" data-gbdraw-feature-id="fbe3a7c0c" data-gbdraw-feature-part="block" fill="#54bcf8" id="fbe3a7c0c" stroke="gray" stroke-linecap="round" stroke-linejoin="round" stroke-miterlimit="4" stroke-width="2.0" /><path d="M 340.32693540008137,194.42834037554525 L351.0435409018109,212.7396484346974 L372.4971432239696,212.80713871950223 z" data-gbdraw-feature-id="f9da385a4" data-gbdraw-feature-part="block" fill="#e8b441" id="f9da385a4" stroke="gray" stroke-linecap="round" stroke-linejoin="round" stroke-miterlimit="4" stroke-width="2.0" /><path d="M 294.8129862220962,190.48964054459796 L315.51307878884506,192.35441959618194 L325.93213476776185,210.59688037986106 z" data-gbdraw-feature-id="f0c728fec" data-gbdraw-feature-part="block" fill="#e8b441" id="f0c728fec" stroke="gray" stroke-linecap="round" stroke-linejoin="round" stroke-miterlimit="4" stroke-width="2.0" /><path d="M 289.35213879699984,198.68653646787877 L310.2964895072599,200.66094344558172 L319.89486455890534,219.65900420615486 z" data-gbdraw-feature-id="fe111b113" data-gbdraw-feature-part="block" fill="#e8b441" id="fe111b113" stroke="gray" stroke-linecap="round" stroke-linejoin="round" stroke-miterlimit="4" stroke-width="2.0" /><path d="M 281.84963221081273,209.19317585100524 L302.14355587411535,212.73927063131836 L311.600426721954,231.27467774638907 z" data-gbdraw-feature-id="fcd230250" data-gbdraw-feature-part="block" fill="#e8b441" id="fcd230250" stroke="gray" stroke-linecap="round" stroke-linejoin="round" stroke-miterlimit="4" stroke-width="2.0" /><path d="M 276.6081631056003,216.0761997614398 L296.808523765454,220.12138888615954 L305.8056914334136,238.88424306959175 z" data-gbdraw-feature-id="faa41e395" data-gbdraw-feature-part="block" fill="#e8b441" id="faa41e395" stroke="gray" stroke-linecap="round" stroke-linejoin="round" stroke-miterlimit="4" stroke-width="2.0" /><path d="M 307.7779389854691,242.68815952546362 A391.95000000000005,391.95000000000005 0 0 1 230.13919752320777,317.270786968126 A391.95000000000005,391.95000000000005 0 0 1 135.13742563394356,367.9166735730122 L 128.47846507692543,389.84998350195843 L 147.9116101466049,402.6948665973267 A429.0,429.0 0 0 0 251.89364903037662,347.26155787556075 A429.0,429.0 0 0 0 336.87137600399603,265.6288313214029 z" data-gbdraw-feature-id="f48b7bf2f" data-gbdraw-feature-part="block" fill="#54bcf8" id="f48b7bf2f" stroke="gray" stroke-linecap="round" stroke-linejoin="round" stroke-miterlimit="4" stroke-width="2.0" /><path d="M 101.10351644931796,336.1236066710913 L115.66113601936992,350.9575860979625 L111.77555429674597,371.60332070859533 z" data-gbdraw-feature-id="f5770d33c" data-gbdraw-feature-part="block" fill="#e8b441" id="f5770d33c" stroke="gray" stroke-linecap="round" stroke-linejoin="round" stroke-miterlimit="4" stroke-width="2.0" /><path d="M 112.47185421007502,375.466222862387 L107.6100860822972,396.11841032494385 L123.10352202097762,410.9580548742544 z" data-gbdraw-feature-id="f7f51ee0f" data-gbdraw-feature-part="block" fill="#e8b441" id="f7f51ee0f" stroke="gray" stroke-linecap="round" stroke-linejoin="round" stroke-miterlimit="4" stroke-width="2.0" /><path d="M 102.75357388380873,378.2413324242932A391.95000000000005,391.95000000000005 0 0 1 15.491744824036822,391.6437262899879 L2.4126786404767055,410.4679093507528 L16.956138613373632,428.6647750437678A429.0,429.0 0 0 0 112.46659828078566,413.9954882255945 z" data-gbdraw-feature-id="f77c8cbef" data-gbdraw-feature-part="block" fill="#54bcf8" id="f77c8cbef" stroke="gray" stroke-linecap="round" stroke-linejoin="round" stroke-miterlimit="4" stroke-width="2.0" /><path d="M -1.4120071800051257,391.94745660065666 L-12.372903406506824,410.28848007992286 L-1.5454804955279982,428.99721617982317 z" data-gbdraw-feature-id="fc5d8f111" data-gbdraw-feature-part="block" fill="#e8b441" id="fc5d8f111" stroke="gray" stroke-linecap="round" stroke-linejoin="round" stroke-miterlimit="4" stroke-width="2.0" /><path d="M -11.963070605141578,391.7673894566729A391.95000000000005,391.95000000000005 0 0 1 -29.51195654274228,390.8373663315975 L-44.66295343787584,408.0379225209419 L-32.30164397713085,427.78219200473353A429.0,429.0 0 0 0 -13.093908125030582,428.80012776352254 z" data-gbdraw-feature-id="f31dbd2ba" data-gbdraw-feature-part="block" fill="#54bcf8" id="f31dbd2ba" stroke="gray" stroke-linecap="round" stroke-linejoin="round" stroke-miterlimit="4" stroke-width="2.0" /><path d="M -35.844633192200575,390.30752589633295A391.95000000000005,391.95000000000005 0 0 1 -121.86737768635554,372.522676834379 L-140.6832184902243,385.61374153449435 L-133.38717955720506,407.73626320180784A429.0,429.0 0 0 0 -39.23293185215983,427.2022671502151 z" data-gbdraw-feature-id="f00bf02dc" data-gbdraw-feature-part="block" fill="#54bcf8" id="f00bf02dc" stroke="gray" stroke-linecap="round" stroke-linejoin="round" stroke-miterlimit="4" stroke-width="2.0" /><path d="M -134.19445454469707,368.26166087369353A391.95000000000005,391.95000000000005 0 0 1 -225.52734686031366,320.5654665090234 L-247.35001151366845,327.5785362767043 L-246.8458522849204,350.8676747859957A429.0,429.0 0 0 0 -146.8795024867331,403.07246463787345 z" data-gbdraw-feature-id="fb3d5165e" data-gbdraw-feature-part="block" fill="#54bcf8" id="fb3d5165e" stroke="gray" stroke-linecap="round" stroke-linejoin="round" stroke-miterlimit="4" stroke-width="2.0" /><path d="M -236.1869468610326,312.79470684853953 L-255.71394858128653,321.09204618919966 L-258.5130761663043,342.36236570486915 z" data-gbdraw-feature-id="f0854cefc" data-gbdraw-feature-part="block" fill="#e8b441" id="f0854cefc" stroke="gray" stroke-linecap="round" stroke-linejoin="round" stroke-miterlimit="4" stroke-width="2.0" /><path d="M -244.17341408474394,306.6009562186658A391.95000000000005,391.95000000000005 0 0 1 -272.87421260438623,281.36180727941075 L-295.52499004613776,284.87665029487795 L-298.6682924028108,307.9581970222406A429.0,429.0 0 0 0 -267.25448307782915,335.5831361597336 z" data-gbdraw-feature-id="f9b1f5604" data-gbdraw-feature-part="block" fill="#54bcf8" id="f9b1f5604" stroke="gray" stroke-linecap="round" stroke-linejoin="round" stroke-miterlimit="4" stroke-width="2.0" /><path d="M -282.18775771626457,272.0199843670806 L-302.4563941283485,277.50649591654087 L-308.86222237601095,297.7333162226753 z" data-gbdraw-feature-id="faaf9f51c" data-gbdraw-feature-part="block" fill="#e8b441" id="faaf9f51c" stroke="gray" stroke-linecap="round" stroke-linejoin="round" stroke-miterlimit="4" stroke-width="2.0" /><path d="M -288.80634308692663,264.98244978254024A391.95000000000005,391.95000000000005 0 0 1 -308.80996991761003,241.37357970474903 L-331.7286480314932,241.75572320050193 L-338.0009620988766,264.1899877365412A429.0,429.0 0 0 0 -316.1064451697704,290.03054205054156 z" data-gbdraw-feature-id="f63cda8a2" data-gbdraw-feature-part="block" fill="#54bcf8" id="f63cda8a2" stroke="gray" stroke-linecap="round" stroke-linejoin="round" stroke-miterlimit="4" stroke-width="2.0" /><path d="M -316.14362930426074,231.68514874788625 A391.95000000000005,391.95000000000005 0 0 1 -362.81783185907705,148.2835910850507 A391.95000000000005,391.95000000000005 0 0 1 -387.9194287398909,56.06531286024111 L -407.99966623023994,45.01108731204831 L -424.58842946654727,61.365019051010165 A429.0,429.0 0 0 0 -397.1140448208803,162.3004479537868 A429.0,429.0 0 0 0 -346.0278529698376,253.58573494793515 z" data-gbdraw-feature-id="fa61b27c5" data-gbdraw-feature-part="block" fill="#54bcf8" id="fa61b27c5" stroke="gray" stroke-linecap="round" stroke-linejoin="round" stroke-miterlimit="4" stroke-width="2.0" /><path d="M -389.5863796307754,42.979708074687466 L-409.0376198159241,34.32129368662511 L-426.4129528297044,47.042466549409156 z" data-gbdraw-feature-id="fe68573e6" data-gbdraw-feature-part="block" fill="#e8b441" id="fe68573e6" stroke="gray" stroke-linecap="round" stroke-linejoin="round" stroke-miterlimit="4" stroke-width="2.0" /><path d="M -390.57748970546675,32.772351691266735 L-409.70307293507676,25.161829276807712 L-427.49774992638146,35.87023568198349 z" data-gbdraw-feature-id="fa5493a05" data-gbdraw-feature-part="block" fill="#e8b441" id="fa5493a05" stroke="gray" stroke-linecap="round" stroke-linejoin="round" stroke-miterlimit="4" stroke-width="2.0" /><path d="M -391.2129104985769,24.02625978450523 L-410.2319619552727,14.123137587934195 L-428.19323537157663,26.297398769110195 z" data-gbdraw-feature-id="fcb99f355" data-gbdraw-feature-part="block" fill="#e8b441" id="fcb99f355" stroke="gray" stroke-linecap="round" stroke-linejoin="round" stroke-miterlimit="4" stroke-width="2.0" /><path d="M -391.7179304180989,13.485751330996548 A391.95000000000005,391.95000000000005 0 0 1 -375.3220879983637,-112.95190463444409 A391.95000000000005,391.95000000000005 0 0 1 -319.2127701195116,-227.43792536124639 L -326.0953773205549,-249.3020868648414 L -349.3871115735948,-248.93703273370247 A429.0,429.0 0 0 0 -410.8002953215921,-123.62895034615771 A429.0,429.0 0 0 0 -428.74599349244653,14.760523844871843 z" data-gbdraw-feature-id="f088dccd3" data-gbdraw-feature-part="block" fill="#54bcf8" id="f088dccd3" stroke="gray" stroke-linecap="round" stroke-linejoin="round" stroke-miterlimit="4" stroke-width="2.0" /><path d="M -231.17696527475022,-264.11779706478876A351.0,351.0 0 0 0 -271.51477355135916,-222.44263922043842 L-293.56329692277984,-224.4310948260686 L-300.1746663151137,-245.9226955825958A388.04999999999995,388.04999999999995 0 0 1 -255.57897827597384,-291.996897866072 z" data-gbdraw-feature-id="f6b2a293e" data-gbdraw-feature-part="block" fill="#54bcf8" id="f6b2a293e" stroke="gray" stroke-linecap="round" stroke-linejoin="round" stroke-miterlimit="4" stroke-width="2.0" /><path d="M -224.18778941419646,-270.0756099272496 L-243.37797177536203,-278.0573474654304 L-247.85205607458383,-298.58359097512596 z" data-gbdraw-feature-id="fc01139b2" data-gbdraw-feature-part="block" fill="#e8b441" id="fc01139b2" stroke="gray" stroke-linecap="round" stroke-linejoin="round" stroke-miterlimit="4" stroke-width="2.0" /><path d="M -249.88528436838328,-301.9638176274307 A391.95000000000005,391.95000000000005 0 0 1 -185.0817023892183,-345.4990100430229 A391.95000000000005,391.95000000000005 0 0 1 -112.93530123157431,-375.32708433542814 L -104.97900180796893,-396.82380826306587 L -123.61077746739475,-410.8057639492248 A429.0,429.0 0 0 0 -202.57698768969163,-378.15812044509966 A429.0,429.0 0 0 0 -273.50628139823044,-330.50766108475005 z" data-gbdraw-feature-id="f2e5a9636" data-gbdraw-feature-part="block" fill="#54bcf8" id="f2e5a9636" stroke="gray" stroke-linecap="round" stroke-linejoin="round" stroke-miterlimit="4" stroke-width="2.0" /><path d="M -100.24123213017461,-378.9148953010748 L-95.01542333599656,-399.3266769867515 L-109.71677148576325,-414.73272122505693 z" data-gbdraw-feature-id="f7e1a704e" data-gbdraw-feature-part="block" fill="#e8b441" id="f7e1a704e" stroke="gray" stroke-linecap="round" stroke-linejoin="round" stroke-miterlimit="4" stroke-width="2.0" /><path d="M -72.15656603455196,-343.50317317035274 L-85.26377949113734,-359.55363095355705 L-79.77309244931021,-379.7618414494455 z" data-gbdraw-feature-id="f94185e65" data-gbdraw-feature-part="block" fill="#e8b441" id="f94185e65" stroke="gray" stroke-linecap="round" stroke-linejoin="round" stroke-miterlimit="4" stroke-width="2.0" /><path d="M 140.86760332671165,-382.07784770623607A407.2188151041667,407.2188151041667 0 0 1 194.96155591230269,-357.51525155032976" fill="none" id="id1" stroke="none" /><text><textPath dominant-baseline="auto" font-family="'Liberation Sans', 'Arial', 'Helvetica', 'Nimbus Sans L', sans-serif" font-size="14.0" font-style="normal" font-weight="normal" startOffset="50%" text-anchor="middle" xlink:href="#id1">s-rRNA</textPath></text><path d="M 309.5717931304306,-264.3679522164996A407.09348958333334,407.09348958333334 0 0 1 341.1802954363397,-222.08357721161528" fill="none" id="id2" stroke="none" /><text><textPath dominant-baseline="auto" font-family="'Liberation Sans', 'Arial', 'Helvetica', 'Nimbus Sans L', sans-serif" font-size="14.0" font-style="normal" font-weight="normal" startOffset="50%" text-anchor="middle" xlink:href="#id2">l-rRNA</textPath></text><path d="M 137.38600378660348,391.4138635445604A414.82493489583334,414.82493489583334 1 0 0 320.74513369280373,263.0632734224179" fill="none" id="id3" stroke="none" /><text><textPath dominant-baseline="auto" font-family="'Liberation Sans', 'Arial', 'Helvetica', 'Nimbus Sans L', sans-serif" font-size="14.0" font-style="normal" font-weight="normal" startOffset="50%" text-anchor="middle" xlink:href="#id3">cytochrome c oxidase subunit I</textPath></text><path d="M -406.0839252417104,-5.780498780262109A406.1250651041667,406.1250651041667 0 0 1 -334.25258047115733,-230.67895646165078" fill="none" id="id4" stroke="none" /><text><textPath dominant-baseline="auto" font-family="'Liberation Sans', 'Arial', 'Helvetica', 'Nimbus Sans L', sans-serif" font-size="14.0" font-style="normal" font-weight="normal" startOffset="50%" text-anchor="middle" xlink:href="#id4">NADH dehydrogenase subunit 5</textPath></text><path d="M -230.56580317257553,-334.3306430963946A406.1250651041667,406.1250651041667 0 0 1 -137.80650528786973,-382.03001924745126" fill="none" id="id5" stroke="none" /><text><textPath dominant-baseline="auto" font-family="'Liberation Sans', 'Arial', 'Helvetica', 'Nimbus Sans L', sans-serif" font-size="14.0" font-style="normal" font-weight="normal" startOffset="50%" text-anchor="middle" xlink:href="#id5">cytochrome b</textPath></text></g><g id="tick" transform="translate(700.0,500.0)"><path d="M 2.077613294753485e-14,-339.3 L2.1253745199202315e-14,-347.1 z" stroke="gray" stroke-width="2.0" /><path d="M 125.6053930525602,-315.1948210807276 L128.49287335261906,-322.44067903660635 z" stroke="gray" stroke-width="2.0" /><path d="M 233.36380424389148,-246.30433384091867 L238.72848939892347,-251.9665024349628 z" stroke="gray" stroke-width="2.0" /><path d="M 307.96408838198914,-142.41702941379728 L315.04372259766706,-145.69098411296503 z" stroke="gray" stroke-width="2.0" /><path d="M 338.80646240421004,-18.294016320770453 L346.5951167123528,-18.71456842009851 z" stroke="gray" stroke-width="2.0" /><path d="M 321.5086042115224,108.42835154127656 L328.8996066071896,110.92095732383464 z" stroke="gray" stroke-width="2.0" /><path d="M 258.52832675208373,219.7443839254324 L264.47150667741903,224.79597895820095 z" stroke="gray" stroke-width="2.0" /><path d="M 158.8143530235081,299.8374414140511 L162.46525769071516,306.73025615920176 z" stroke="gray" stroke-width="2.0" /><path d="M 36.53481257179562,337.32728539260467 L37.37469332057253,345.08193563151514 z" stroke="gray" stroke-width="2.0" /><path d="M -90.93587550046064,326.88707002107736 L-93.02635539702295,334.40171530891826 z" stroke="gray" stroke-width="2.0" /><path d="M -205.4856938461073,270.0002215269163 L-210.2095029000408,276.2071231712132 z" stroke="gray" stroke-width="2.0" /><path d="M -290.8385218262292,174.74966157888255 L-297.52446485671726,178.76689517839708 z" stroke="gray" stroke-width="2.0" /><path d="M -334.8667721155881,54.66932350858936 L-342.56485883088897,55.926089566258085 z" stroke="gray" stroke-width="2.0" /><path d="M -331.31457173612586,-73.17885319754284 L-338.93099867258854,-74.86112568484268 z" stroke="gray" stroke-width="2.0" /><path d="M -280.6866446825614,-190.62921469923108 L-287.1392112269881,-195.01149549691456 z" stroke="gray" stroke-width="2.0" /><path d="M -190.17659684901807,-280.99350884126494 L-194.54847263865068,-287.4531297341676 z" stroke="gray" stroke-width="2.0" /><path d="M -72.64479308677528,-331.4320805796862 L-74.31478833014943,-339.0512088688744 z" stroke="gray" stroke-width="2.0" /><path d="M 92.1409958641368,-300.64770762692206A314.45032552083336,314.45032552083336 0 0 1 139.89262064034398,-281.6186462408604" fill="none" id="id6" stroke="none" /><text dominant-baseline="text-after-edge"><textPath dominant-baseline="text-after-edge" font-family="'Liberation Sans', 'Arial', 'Helvetica', 'Nimbus Sans L', sans-serif" font-size="14.0" font-style="normal" font-weight="normal" startOffset="50%" text-anchor="middle" xlink:href="#id6">1 kbp</textPath></text><path d="M 196.90764362185197,-245.16603986573628A314.45032552083336,314.45032552083336 0 0 1 234.1927704758533,-209.83982814757152" fill="none" id="id7" stroke="none" /><text dominant-baseline="text-after-edge"><textPath dominant-baseline="text-after-edge" font-family="'Liberation Sans', 'Arial', 'Helvetica', 'Nimbus Sans L', sans-serif" font-size="14.0" font-style="normal" font-weight="normal" startOffset="50%" text-anchor="middle" xlink:href="#id7">2 kbp</textPath></text><path d="M 273.63275426096357,-154.932640252844A314.45032552083336,314.45032552083336 0 0 1 295.265951225302,-108.15278668243202" fill="none" id="id8" stroke="none" /><text dominant-baseline="text-after-edge"><textPath dominant-baseline="text-after-edge" font-family="'Liberation Sans', 'Arial', 'Helvetica', 'Nimbus Sans L', sans-serif" font-size="14.0" font-style="normal" font-weight="normal" startOffset="50%" text-anchor="middle" xlink:href="#id8">3 kbp</textPath></text><path d="M 311.5194413443334,-42.832754810687774A314.45032552083336,314.45032552083336 0 0 1 314.3203482600851,9.040237265519158" fill="none" id="id9" stroke="none" /><text dominant-baseline="text-after-edge"><textPath dominant-baseline="text-after-edge" font-family="'Liberation Sans', 'Arial', 'Helvetica', 'Nimbus Sans L', sans-serif" font-size="14.0" font-style="normal" font-weight="normal" startOffset="50%" text-anchor="middle" xlink:href="#id9">4 kbp</textPath></text><path d="M 288.7136854251378,124.59299766998402A314.45032552083336,314.45032552083336 1 0 0 305.20140759570506,75.70408193590602" fill="none" id="id10" stroke="none" /><text dominant-baseline="text-before-edge"><textPath dominant-baseline="text-before-edge" font-family="'Liberation Sans', 'Arial', 'Helvetica', 'Nimbus Sans L', sans-serif" font-size="14.0" font-style="normal" font-weight="normal" startOffset="50%" text-anchor="middle" xlink:href="#id10">5 kbp</textPath></text><path d="M 222.0986561072018,222.6009752349099A314.45032552083336,314.45032552083336 1 0 0 255.47790547669848,183.33043128023556" fill="none" id="id11" stroke="none" /><text dominant-baseline="text-before-edge"><textPath dominant-baseline="text-before-edge" font-family="'Liberation Sans', 'Arial', 'Helvetica', 'Nimbus Sans L', sans-serif" font-size="14.0" font-style="normal" font-weight="normal" startOffset="50%" text-anchor="middle" xlink:href="#id11">6 kbp</textPath></text><path d="M 123.9969767466258,288.9701662418714A314.45032552083336,314.45032552083336 1 0 0 169.38585344386897,264.92912235775475" fill="none" id="id12" stroke="none" /><text dominant-baseline="text-before-edge"><textPath dominant-baseline="text-before-edge" font-family="'Liberation Sans', 'Arial', 'Helvetica', 'Nimbus Sans L', sans-serif" font-size="14.0" font-style="normal" font-weight="normal" startOffset="50%" text-anchor="middle" xlink:href="#id12">7 kbp</textPath></text><path d="M 8.118280195722345,314.34551173322296A314.45032552083336,314.45032552083336 1 0 0 59.371960393808585,308.79439363297075" fill="none" id="id13" stroke="none" /><text dominant-baseline="text-before-edge"><textPath dominant-baseline="text-before-edge" font-family="'Liberation Sans', 'Arial', 'Helvetica', 'Nimbus Sans L', sans-serif" font-size="14.0" font-style="normal" font-weight="normal" startOffset="50%" text-anchor="middle" xlink:href="#id13">8 kbp</textPath></text><path d="M -108.77466051159413,295.0374221192042A314.45032552083336,314.45032552083336 1 0 0 -59.21229171985186,308.8250503593276" fill="none" id="id14" stroke="none" /><text dominant-baseline="text-before-edge"><textPath dominant-baseline="text-before-edge" font-family="'Liberation Sans', 'Arial', 'Helvetica', 'Nimbus Sans L', sans-serif" font-size="14.0" font-style="normal" font-weight="normal" startOffset="50%" text-anchor="middle" xlink:href="#id14">9 kbp</textPath></text><path d="M -215.17990174635898,229.29591602247385A314.45032552083336,314.45032552083336 1 0 0 -163.66988971612986,268.4979970511288" fill="none" id="id15" stroke="none" /><text dominant-baseline="text-before-edge"><textPath dominant-baseline="text-before-edge" font-family="'Liberation Sans', 'Arial', 'Helvetica', 'Nimbus Sans L', sans-serif" font-size="14.0" font-style="normal" font-weight="normal" startOffset="50%" text-anchor="middle" xlink:href="#id15">10 kbp</textPath></text><path d="M -284.05263414549535,134.881830708081A314.45032552083336,314.45032552083336 1 0 0 -252.45177651770703,187.47561909008803" fill="none" id="id16" stroke="none" /><text dominant-baseline="text-before-edge"><textPath dominant-baseline="text-before-edge" font-family="'Liberation Sans', 'Arial', 'Helvetica', 'Nimbus Sans L', sans-serif" font-size="14.0" font-style="normal" font-weight="normal" startOffset="50%" text-anchor="middle" xlink:href="#id16">11 kbp</textPath></text><path d="M -313.8897581155467,18.767710843936896A314.45032552083336,314.45032552083336 1 0 0 -303.5608709998706,82.03538759558575" fill="none" id="id17" stroke="none" /><text dominant-baseline="text-before-edge"><textPath dominant-baseline="text-before-edge" font-family="'Liberation Sans', 'Arial', 'Helvetica', 'Nimbus Sans L', sans-serif" font-size="14.0" font-style="normal" font-weight="normal" startOffset="50%" text-anchor="middle" xlink:href="#id17">12 kbp</textPath></text><path d="M -312.3931711927422,-35.9098010618287A314.45032552083336,314.45032552083336 0 0 1 -298.45574487619945,-99.01098712037476" fill="none" id="id18" stroke="none" /><text dominant-baseline="text-after-edge"><textPath dominant-baseline="text-after-edge" font-family="'Liberation Sans', 'Arial', 'Helvetica', 'Nimbus Sans L', sans-serif" font-size="14.0" font-style="normal" font-weight="normal" startOffset="50%" text-anchor="middle" xlink:href="#id18">13 kbp</textPath></text><path d="M -277.1034652819039,-148.63605467355072A314.45032552083336,314.45032552083336 0 0 1 -240.3307471656581,-202.78101288571025" fill="none" id="id19" stroke="none" /><text dominant-baseline="text-after-edge"><textPath dominant-baseline="text-after-edge" font-family="'Liberation Sans', 'Arial', 'Helvetica', 'Nimbus Sans L', sans-serif" font-size="14.0" font-style="normal" font-weight="normal" startOffset="50%" text-anchor="middle" xlink:href="#id19">14 kbp</textPath></text><path d="M -202.07410592882638,-240.9254302335549A314.45032552083336,314.45032552083336 0 0 1 -148.55691955901526,-277.14589816790425" fill="none" id="id20" stroke="none" /><text dominant-baseline="text-after-edge"><textPath dominant-baseline="text-after-edge" font-family="'Liberation Sans', 'Arial', 'Helvetica', 'Nimbus Sans L', sans-serif" font-size="14.0" font-style="normal" font-weight="normal" startOffset="50%" text-anchor="middle" xlink:href="#id20">15 kbp</textPath></text><path d="M -98.36105099816496,-298.67057248194783A314.45032552083336,314.45032552083336 0 0 1 -35.58288258178754,-312.4305773885277" fill="none" id="id21" stroke="none" /><text dominant-baseline="text-after-edge"><textPath dominant-baseline="text-after-edge" font-family="'Liberation Sans', 'Arial', 'Helvetica', 'Nimbus Sans L', sans-serif" font-size="14.0" font-style="normal" font-weight="normal" startOffset="50%" text-anchor="middle" xlink:href="#id21">16 kbp</textPath></text></g><g id="gc_content" transform="translate(700.0,500.0)"><path d="M1.750080823707655e-14 -285.8098881940702L1.750080823707655e-14 -285.8098881940702L11.146876690183918 -293.80648725727576L21.799327197054506 -286.87698065897354L33.233195160205604 -290.86268722968873L43.377917705027826 -283.7764345907927L53.7483381212187 -280.0676633949395L62.903480572718294 -271.67749324978587L73.4894381928314 -270.3159017100868L86.5141632210885 -276.37367524027286L96.71858482208685 -272.30007007592434L108.60867782056991 -272.5431762244794L114.77051941306374 -258.9937349771576L126.72704666949309 -258.99337781875056L133.16813251593462 -247.8844446836286L137.99480689490244 -235.0348880588496L148.16664599346504 -231.76207635497778L156.1267243699747 -224.94075117356232L161.50715998099236 -214.82259363349112L167.14579618748076 -205.60554172928488L170.2383943111592 -193.901719498422L172.69047609888355 -182.2665379235648L185.79489253986404 -181.7699756631114L192.55262693994848 -174.5953951425775L199.51697344509526 -167.5758460288151L213.20454839716703 -165.70302594496624L216.76917680136074 -155.65946456053527L226.72630817478134 -150.11787806885215L233.33318003747277 -142.07096437081117L239.65434754488973 -133.73799149736084L247.36542263754896 -125.98876540185134L259.98710551505354 -120.23022375069512L267.2719262722726 -111.50258396274882L273.08160372143453 -101.95203879599103L278.54886278143545 -92.12034980192512L280.62802231725584 -81.14295250006492L289.63007734405124 -71.96795300831967L287.82375110509906 -60.033266729338344L293.6279699293357 -49.7104134778084L290.2929246849706 -37.888863283002145L292.7781179927774 -26.971808226613643L288.54647812815034 -15.58020452950966L280.09148971060154 -4.487943285211965L275.01042088451 6.023572548580619L267.6515533712322 16.03028288219514L269.36486430422053 26.41248715494014L263.7907830450175 36.00797266208091L256.63894441659727 45.00154523678789L252.89639121198388 54.3013064942653L261.0572402434329 66.4996957494965L260.7703873393141 77.06491563198377L255.26810500145416 86.08883079273191L245.91880208645915 93.46167880200508L242.77993052950671 102.96433905630634L250.13186266832125 117.462227434056L242.13326912556803 125.12172200446487L238.86412621490626 135.14431499143527L242.70362033191375 149.73888141720653L238.94975228615922 160.23928538481582L233.21361381372742 169.55448812543878L228.60270519350698 179.83574680264815L222.58253931856757 189.19111723498105L225.48494503626284 206.8844904379631L214.78710029665913 212.61928591965932L200.53009470115921 214.1572060977732L194.74935574307537 224.4672306363697L185.308509204832 230.70473768788057L174.92297875347046 235.53678971335438L164.79662768172315 240.43679421099714L153.20397285359115 242.7740745536119L140.09209676409202 241.85171491003294L131.70882377968218 248.66289464346116L115.33270576773134 239.2586925899936L107.6933721881237 246.93162981895074L98.9450564166206 252.60067306591574L89.50509018416577 256.76649891600937L80.63151624671227 262.9934858681475L70.27876557112297 264.64087120251037L61.02792942515399 270.8106592330043L50.83236698854519 273.5504278692976L40.14970842279666 273.4068845315681L29.007535878106165 267.8276592896511L19.450674373811285 277.5525849051633L8.833136673654046 275.5662286288981L-1.6168363660335225 275.07162860151317L-11.878385271295423 271.02791034502064L-21.990503061058945 268.4948975183972L-32.5307356900299 270.6025065853285L-41.97392411621814 264.18615691381603L-52.69548321720866 266.12104439736964L-63.91511651074794 268.84601815372184L-75.07702407359767 269.8792780105352L-88.32928715449505 276.46182216226185L-98.53225223293981 272.32059061621703L-109.49722375232547 270.144662165039L-119.4011047482918 265.22343191117767L-127.96633232231738 257.6785409967767L-132.2063087033028 242.6619367242024L-141.956858725779 238.56041495781562L-146.09425339246272 225.58762950624046L-152.7264909969123 217.3038746717352L-153.9724031637571 202.3137581265423L-153.10774507789296 186.09191854987773L-166.34301706921684 187.23362588884532L-170.70024094868893 178.05794687613533L-172.7890532807054 167.06951261175124L-182.76054520525958 163.76942439990168L-192.72484641584927 159.94862789396214L-200.15267609216585 153.68055271261446L-208.92520950333255 148.17335026365237L-213.33561874852393 139.45507003449922L-231.99939503516907 139.39630663205023L-240.43628917492063 132.32704755532365L-243.0231002327356 121.98347792930981L-252.07000760020364 114.7753679327112L-263.83381521227693 108.25201097821731L-262.4130836805406 96.21549300374224L-270.6770239881777 87.75541945944073L-270.7716470686068 76.57130387845223L-271.02543638788325 65.65608149598371L-276.41390034251026 55.96010775042094L-270.85915250433874 44.21963558812211L-271.7143478258685 33.840933595092714L-263.99528884064404 22.756173731198597L-260.88431121632567 12.549144718326504L-263.0665715226278 2.668627261048365L-268.02773336162664 -7.447022246879647L-273.85291433405826 -18.017712886431823L-276.1129231982088 -28.71367212802956L-275.4508871300671 -39.25015796647159L-275.6285243251692 -50.00300812516086L-277.85030371684076 -61.369973798741725L-277.1566280837916 -72.33813134482133L-279.0503357817046 -84.25372754868361L-282.2233466908444 -97.03066806504144L-273.0419890819892 -105.61070154668492L-270.0013712688357 -116.38627207430534L-254.5663765469517 -121.37601861057034L-245.3080845565164 -128.59478009184096L-242.44716610518026 -139.0590494295524L-237.00082371688137 -148.15079189192102L-232.78064682436803 -158.0937060667542L-220.517743705234 -162.31395599940646L-214.6994546997024 -170.95087252940652L-199.9266157738536 -171.96830548222547L-199.74117761414874 -185.43847308503823L-192.12109460421453 -192.43097760635922L-188.11816112499733 -203.28362273091622L-183.56364087306468 -214.10410484486852L-175.31450510565517 -220.90948884454266L-167.9336646549233 -228.9245105989954L-158.7800027773518 -234.60378854951753L-154.77864552119024 -248.49370006834738L-144.3066616848941 -252.53847240216123L-138.42778001799724 -265.103702350433L-123.13210519970961 -259.3244941045374L-109.9750530498302 -256.2635282542891L-98.81954089262578 -256.71329018789424L-88.19864724220629 -257.88556368948264L-78.72126311383025 -262.2534238761958L-68.56358756215818 -264.4382088206208L-59.16475119599661 -269.93120570176694L-48.33001339829218 -268.8730957693106L-39.42260320822917 -279.8902680246453L-28.0114570365362 -273.646438485893L-17.98069052060811 -280.1824636959048L-7.36193680325287 -281.293887812013L-5.250242471122964e-14 -285.8098881940702zM 1.698587103657612e-14 -277.40032552083335A 277.40032552083335 277.40032552083335 0 0 1 163.0518203222772 -224.42157759149663A 277.40032552083335 277.40032552083335 0 0 1 263.8233872089853 -85.72141483107994A 277.40032552083335 277.40032552083335 0 0 1 263.8233872089853 85.72141483108001A 277.40032552083335 277.40032552083335 0 0 1 163.0518203222772 224.42157759149663A 277.40032552083335 277.40032552083335 0 0 1 1.698587103657612e-14 277.40032552083335A 277.40032552083335 277.40032552083335 0 0 1 -163.0518203222773 224.42157759149657A 277.40032552083335 277.40032552083335 0 0 1 -263.82338720898537 85.72141483107985A 277.40032552083335 277.40032552083335 0 0 1 -263.82338720898537 -85.7214148310799A 277.40032552083335 277.40032552083335 0 0 1 -163.05182032227722 -224.4215775914966A 277.40032552083335 277.40032552083335 0 0 1 -5.0957613109728355e-14 -277.40032552083335z" fill="#a1a1a1" fill-opacity="1.0" fill-rule="evenodd" stroke="none" /></g><g id="skew" transform="translate(700.0,500.0)"><clipPath id="clipper_circle_390b8eaa8d1a"><path d="M 1.220974851990144e-14 -199.40032552083332A 199.40032552083332 199.40032552083332 0 0 1 117.20457064346428 -161.3182520302507A 199.40032552083332 199.40032552083332 0 0 1 189.64097893796333 -61.61808926983403A 199.40032552083332 199.40032552083332 0 0 1 189.64097893796333 61.61808926983409A 199.40032552083332 199.40032552083332 0 0 1 117.20457064346428 161.3182520302507A 199.40032552083332 199.40032552083332 0 0 1 1.220974851990144e-14 199.40032552083332A 199.40032552083332 199.40032552083332 0 0 1 -117.20457064346435 161.31825203025065A 199.40032552083332 199.40032552083332 0 0 1 -189.64097893796335 61.61808926983397A 199.40032552083332 199.40032552083332 0 0 1 -189.64097893796335 -61.61808926983401A 199.40032552083332 199.40032552083332 0 0 1 -117.20457064346431 -161.31825203025068A 199.40032552083332 199.40032552083332 0 0 1 -3.662924555970432e-14 -199.40032552083332z" fill="white" stroke="none" /></clipPath><path d="M1.259687691926626e-14 -205.7226120712796L1.259687691926626e-14 -205.7226120712796L7.653478990538876 -201.7284159506107L15.312615368107268 -201.5124972934194L22.781225970271958 -199.38524033447405L31.670226076299166 -207.18522958456433L41.2935407027822 -215.16917289329967L51.80672050147391 -223.75105210691683L59.344172973319466 -218.28543016521542L68.65248102377561 -219.31366828823417L77.07632515834631 -216.99954337027884L85.95538245167766 -215.69688000136253L94.50325339500424 -213.25816672638453L103.92289471085144 -212.38829627318293L111.23827776487498 -207.06334308630326L116.46992480803371 -198.3733761831153L121.73515075205782 -190.4179656258638L126.58002618906225 -182.37112377419865L137.41562668709105 -182.77815877739823L142.56139711713885 -175.3643462924763L149.10458699804775 -169.8302895830847L155.03024220506134 -163.62700571853324L163.53516517321773 -159.9924658166841L166.56254310778647 -151.02911599812194L175.34361351624477 -147.2724544351624L179.87524931795505 -139.7994242086555L182.49009599838422 -131.0440490196614L180.51672858150056 -119.5220284259891L181.17458943596807 -110.31285236210311L182.8585689802018 -102.04337202317224L182.58192975953168 -92.99307748761788L184.93396488105864 -85.52213361775921L179.7063669981886 -74.97130190337855L179.10973041821615 -66.86866466100282L180.03091915041443 -59.538965916767665L182.41019386253421 -52.743491451406335L185.37117163090645 -46.061458434728564L193.97344261927805 -40.45829913084204L192.15461391011448 -32.53125140441908L193.27898490415893 -25.226660423977787L194.61353254838266 -17.92852182459995L192.16783692930454 -10.376193890061312L193.88134074523495 -3.1065865736388902L193.75005522090518 4.243721056682179L192.49067716946678 11.528720712978723L186.09366152246648 18.247355523795058L179.45367011111168 24.495787050938226L179.1210913498295 31.408817993567414L179.42467028532445 38.52563481472966L184.12178929468453 46.9017559426124L183.62621705847167 54.266663748970906L184.82090025159962 62.330604164706386L186.09112573146294 70.72411248531857L187.73579658399677 79.61981111997676L186.90612119327187 87.77134221214041L189.09219127512998 97.7128862769878L185.86505920659405 105.15855396686264L178.78870484365027 110.30581512013404L175.79153383999744 117.88549471056925L172.85575239599717 125.67220299776397L167.92064044075855 132.0987595124071L163.48456264144062 138.9589100362387L157.47223508371872 144.48220970221735L149.20696494236591 147.70104115409455L142.50669173006628 152.190797080251L139.21614561020337 160.45990265671557L135.47837947281158 168.6673975888806L131.131606886949 176.57095675025928L123.26369338634457 179.8406174770705L112.28708819290311 177.93529379556728L104.19802016249018 179.88502170086548L95.78723205738474 180.84384712991857L88.77000066059382 184.15413180403291L84.02298682789959 192.65747425408907L75.96768852204306 193.94085916864975L67.43033714302193 193.43985412801533L58.24214807859253 189.9667308843698L50.40210536878398 189.79355950321911L42.30589221158506 187.7318576457809L34.976495317888016 188.22328816072667L28.202712809397873 192.05160255106327L20.511616168307004 189.3845161371249L13.102316926004693 186.96431091127778L5.853095497787029 182.5982673788667L-1.0759637554425503 183.0532196970922L-8.01906770795084 182.9702534614056L-15.48455166772808 189.0599365372032L-22.56918968866293 187.73873912798453L-30.376958059476753 191.1942230191558L-37.93881481152548 191.59738946172948L-44.708052363555346 188.05538522844967L-53.917468508621795 193.8170519252086L-61.6508455386184 192.9609718873773L-68.80302613401965 190.15581485648366L-75.8057933409518 187.02328452240113L-83.21330183164302 184.84014481251933L-90.58843525640353 182.41279096173685L-97.92498896806545 179.73928558897336L-104.75233227817772 176.0377066694206L-109.92632559884137 169.73986749196231L-115.17494773985212 163.87440217879734L-114.14898351527248 149.98733127999574L-118.14679133050629 143.59928727328983L-124.45017447993105 140.07956463048322L-127.75975882443245 133.26659776951755L-131.59604925616378 127.2400501850214L-138.16700230642832 123.80971184656144L-141.68106583634366 117.58573168183693L-144.62752465523016 111.04741820308347L-150.21184274875824 106.53282120559703L-155.97276753310462 101.95762595764035L-161.27115964362434 96.89940793673672L-164.34050298908096 90.4468024728202L-168.27416122647375 84.46385307563328L-176.51051908216692 80.37076669502662L-176.65017848986568 72.48023550659381L-172.86584246716708 63.382404654540125L-176.37005434061217 57.1804280640413L-179.1882971115312 50.67251943890919L-183.01060801670138 44.33443426829315L-188.81987332870492 38.22666097400361L-190.62876157624726 31.12146771330402L-194.6945910233741 24.248431409180323L-193.54040656446628 16.68302163697453L-192.74440934675962 9.271456283682754L-195.31951407485286 1.9813805184671212L-199.16361745801572 -5.533665756810882L-197.22424172923593 -12.976052383312751L-192.6528975546983 -20.034455724947975L-188.61139916028603 -26.876033286553792L-182.32814044099328 -33.07696658115416L-180.16730491950793 -39.794315983790476L-176.08425376284146 -45.958149962050946L-170.29141011630722 -51.41612186786401L-165.09994703151588 -56.76269644523579L-158.61422228987547 -61.35085430499656L-153.83630218173707 -66.31238069825048L-149.14392944338968 -71.11110509299986L-149.31604176449667 -78.27407559601167L-145.69252366757303 -83.56403655143563L-144.19327151809009 -90.13617347765445L-142.19891867319498 -96.57484141579863L-142.34215381480695 -104.77214986400635L-144.1181331008716 -114.75166825813693L-142.63539559403995 -122.68885354334004L-140.8360210798224 -130.75129032664998L-135.48881514712141 -135.70735273603796L-130.25614634680926 -140.75696442064165L-124.0466572834767 -144.68496261219073L-119.66002848041542 -150.78065394988985L-114.21156955789053 -155.69140183719975L-109.65870392085716 -162.02510982026826L-103.64394870950082 -166.39807266559816L-95.28605039512743 -166.7517862797305L-86.61879919697711 -165.88407585010677L-81.32000827927297 -171.2654061537883L-76.95812746616966 -179.32759044351653L-71.63845179930179 -186.1022880621174L-67.88899920541381 -198.50182940249172L-60.980373114303866 -203.15110563392975L-52.65461111299166 -203.079966261141L-44.396559531184 -202.55332104014107L-35.214259462731526 -195.90656594568497L-27.801670292369334 -197.38465541108053L-20.76904149840712 -202.8946309144799L-13.109693282319572 -204.28059522675804L-5.373028752600483 -205.29925582584585zM 1.220974851990144e-14 -199.40032552083332A 199.40032552083332 199.40032552083332 0 0 1 117.20457064346428 -161.3182520302507A 199.40032552083332 199.40032552083332 0 0 1 189.64097893796333 -61.61808926983403A 199.40032552083332 199.40032552083332 0 0 1 189.64097893796333 61.61808926983409A 199.40032552083332 199.40032552083332 0 0 1 117.20457064346428 161.3182520302507A 199.40032552083332 199.40032552083332 0 0 1 1.220974851990144e-14 199.40032552083332A 199.40032552083332 199.40032552083332 0 0 1 -117.20457064346435 161.31825203025065A 199.40032552083332 199.40032552083332 0 0 1 -189.64097893796335 61.61808926983397A 199.40032552083332 199.40032552083332 0 0 1 -189.64097893796335 -61.61808926983401A 199.40032552083332 199.40032552083332 0 0 1 -117.20457064346431 -161.31825203025068A 199.40032552083332 199.40032552083332 0 0 1 -3.662924555970432e-14 -199.40032552083332z" fill="#6dded3" fill-opacity="1.0" fill-rule="evenodd" stroke="none" /><path clip-path="url(#clipper_circle_390b8eaa8d1a)" clip-rule="nonzero" d="M1.259687691926626e-14 -205.7226120712796L1.259687691926626e-14 -205.7226120712796L7.653478990538876 -201.7284159506107L15.312615368107268 -201.5124972934194L22.781225970271958 -199.38524033447405L31.670226076299166 -207.18522958456433L41.2935407027822 -215.16917289329967L51.80672050147391 -223.75105210691683L59.344172973319466 -218.28543016521542L68.65248102377561 -219.31366828823417L77.07632515834631 -216.99954337027884L85.95538245167766 -215.69688000136253L94.50325339500424 -213.25816672638453L103.92289471085144 -212.38829627318293L111.23827776487498 -207.06334308630326L116.46992480803371 -198.3733761831153L121.73515075205782 -190.4179656258638L126.58002618906225 -182.37112377419865L137.41562668709105 -182.77815877739823L142.56139711713885 -175.3643462924763L149.10458699804775 -169.8302895830847L155.03024220506134 -163.62700571853324L163.53516517321773 -159.9924658166841L166.56254310778647 -151.02911599812194L175.34361351624477 -147.2724544351624L179.87524931795505 -139.7994242086555L182.49009599838422 -131.0440490196614L180.51672858150056 -119.5220284259891L181.17458943596807 -110.31285236210311L182.8585689802018 -102.04337202317224L182.58192975953168 -92.99307748761788L184.93396488105864 -85.52213361775921L179.7063669981886 -74.97130190337855L179.10973041821615 -66.86866466100282L180.03091915041443 -59.538965916767665L182.41019386253421 -52.743491451406335L185.37117163090645 -46.061458434728564L193.97344261927805 -40.45829913084204L192.15461391011448 -32.53125140441908L193.27898490415893 -25.226660423977787L194.61353254838266 -17.92852182459995L192.16783692930454 -10.376193890061312L193.88134074523495 -3.1065865736388902L193.75005522090518 4.243721056682179L192.49067716946678 11.528720712978723L186.09366152246648 18.247355523795058L179.45367011111168 24.495787050938226L179.1210913498295 31.408817993567414L179.42467028532445 38.52563481472966L184.12178929468453 46.9017559426124L183.62621705847167 54.266663748970906L184.82090025159962 62.330604164706386L186.09112573146294 70.72411248531857L187.73579658399677 79.61981111997676L186.90612119327187 87.77134221214041L189.09219127512998 97.7128862769878L185.86505920659405 105.15855396686264L178.78870484365027 110.30581512013404L175.79153383999744 117.88549471056925L172.85575239599717 125.67220299776397L167.92064044075855 132.0987595124071L163.48456264144062 138.9589100362387L157.47223508371872 144.48220970221735L149.20696494236591 147.70104115409455L142.50669173006628 152.190797080251L139.21614561020337 160.45990265671557L135.47837947281158 168.6673975888806L131.131606886949 176.57095675025928L123.26369338634457 179.8406174770705L112.28708819290311 177.93529379556728L104.19802016249018 179.88502170086548L95.78723205738474 180.84384712991857L88.77000066059382 184.15413180403291L84.02298682789959 192.65747425408907L75.96768852204306 193.94085916864975L67.43033714302193 193.43985412801533L58.24214807859253 189.9667308843698L50.40210536878398 189.79355950321911L42.30589221158506 187.7318576457809L34.976495317888016 188.22328816072667L28.202712809397873 192.05160255106327L20.511616168307004 189.3845161371249L13.102316926004693 186.96431091127778L5.853095497787029 182.5982673788667L-1.0759637554425503 183.0532196970922L-8.01906770795084 182.9702534614056L-15.48455166772808 189.0599365372032L-22.56918968866293 187.73873912798453L-30.376958059476753 191.1942230191558L-37.93881481152548 191.59738946172948L-44.708052363555346 188.05538522844967L-53.917468508621795 193.8170519252086L-61.6508455386184 192.9609718873773L-68.80302613401965 190.15581485648366L-75.8057933409518 187.02328452240113L-83.21330183164302 184.84014481251933L-90.58843525640353 182.41279096173685L-97.92498896806545 179.73928558897336L-104.75233227817772 176.0377066694206L-109.92632559884137 169.73986749196231L-115.17494773985212 163.87440217879734L-114.14898351527248 149.98733127999574L-118.14679133050629 143.59928727328983L-124.45017447993105 140.07956463048322L-127.75975882443245 133.26659776951755L-131.59604925616378 127.2400501850214L-138.16700230642832 123.80971184656144L-141.68106583634366 117.58573168183693L-144.62752465523016 111.04741820308347L-150.21184274875824 106.53282120559703L-155.97276753310462 101.95762595764035L-161.27115964362434 96.89940793673672L-164.34050298908096 90.4468024728202L-168.27416122647375 84.46385307563328L-176.51051908216692 80.37076669502662L-176.65017848986568 72.48023550659381L-172.86584246716708 63.382404654540125L-176.37005434061217 57.1804280640413L-179.1882971115312 50.67251943890919L-183.01060801670138 44.33443426829315L-188.81987332870492 38.22666097400361L-190.62876157624726 31.12146771330402L-194.6945910233741 24.248431409180323L-193.54040656446628 16.68302163697453L-192.74440934675962 9.271456283682754L-195.31951407485286 1.9813805184671212L-199.16361745801572 -5.533665756810882L-197.22424172923593 -12.976052383312751L-192.6528975546983 -20.034455724947975L-188.61139916028603 -26.876033286553792L-182.32814044099328 -33.07696658115416L-180.16730491950793 -39.794315983790476L-176.08425376284146 -45.958149962050946L-170.29141011630722 -51.41612186786401L-165.09994703151588 -56.76269644523579L-158.61422228987547 -61.35085430499656L-153.83630218173707 -66.31238069825048L-149.14392944338968 -71.11110509299986L-149.31604176449667 -78.27407559601167L-145.69252366757303 -83.56403655143563L-144.19327151809009 -90.13617347765445L-142.19891867319498 -96.57484141579863L-142.34215381480695 -104.77214986400635L-144.1181331008716 -114.75166825813693L-142.63539559403995 -122.68885354334004L-140.8360210798224 -130.75129032664998L-135.48881514712141 -135.70735273603796L-130.25614634680926 -140.75696442064165L-124.0466572834767 -144.68496261219073L-119.66002848041542 -150.78065394988985L-114.21156955789053 -155.69140183719975L-109.65870392085716 -162.02510982026826L-103.64394870950082 -166.39807266559816L-95.28605039512743 -166.7517862797305L-86.61879919697711 -165.88407585010677L-81.32000827927297 -171.2654061537883L-76.95812746616966 -179.32759044351653L-71.63845179930179 -186.1022880621174L-67.88899920541381 -198.50182940249172L-60.980373114303866 -203.15110563392975L-52.65461111299166 -203.079966261141L-44.396559531184 -202.55332104014107L-35.214259462731526 -195.90656594568497L-27.801670292369334 -197.38465541108053L-20.76904149840712 -202.8946309144799L-13.109693282319572 -204.28059522675804L-5.373028752600483 -205.29925582584585zM 1.220974851990144e-14 -199.40032552083332A 199.40032552083332 199.40032552083332 0 0 1 117.20457064346428 -161.3182520302507A 199.40032552083332 199.40032552083332 0 0 1 189.64097893796333 -61.61808926983403A 199.40032552083332 199.40032552083332 0 0 1 189.64097893796333 61.61808926983409A 199.40032552083332 199.40032552083332 0 0 1 117.20457064346428 161.3182520302507A 199.40032552083332 199.40032552083332 0 0 1 1.220974851990144e-14 199.40032552083332A 199.40032552083332 199.40032552083332 0 0 1 -117.20457064346435 161.31825203025065A 199.40032552083332 199.40032552083332 0 0 1 -189.64097893796335 61.61808926983397A 199.40032552083332 199.40032552083332 0 0 1 -189.64097893796335 -61.61808926983401A 199.40032552083332 199.40032552083332 0 0 1 -117.20457064346431 -161.31825203025068A 199.40032552083332 199.40032552083332 0 0 1 -3.662924555970432e-14 -199.40032552083332z" fill="#ad72e3" fill-opacity="1.0" fill-rule="evenodd" stroke="none" /></g><g id="label_text" transform="translate(700.0,500.0)"><text dominant-baseline="middle" font-family="'Liberation Sans', 'Arial', 'Helvetica', 'Nimbus Sans L', sans-serif" font-size="14.0" font-weight="normal" text-anchor="start" x="104.86518283144582" y="-455.473522655936">tRNA-Phe</text><text dominant-baseline="middle" font-family="'Liberation Sans', 'Arial', 'Helvetica', 'Nimbus Sans L', sans-serif" font-size="14.0" font-weight="normal" text-anchor="start" x="265.20186282821845" y="-380.83980967558176">tRNA-Val</text><text dominant-baseline="middle" font-family="'Liberation Sans', 'Arial', 'Helvetica', 'Nimbus Sans L', sans-serif" font-size="14.0" font-weight="normal" text-anchor="start" x="431.368248882342" y="-152.57982717906276">tRNA-Leu</text><text dominant-baseline="middle" font-family="'Liberation Sans', 'Arial', 'Helvetica', 'Nimbus Sans L', sans-serif" font-size="14.0" font-weight="normal" text-anchor="start" x="452.09571680941144" y="-63.383892142453995">NADH dehydrogenase subunit 1</text><text dominant-baseline="middle" font-family="'Liberation Sans', 'Arial', 'Helvetica', 'Nimbus Sans L', sans-serif" font-size="14.0" font-weight="normal" text-anchor="start" x="455.8297508298212" y="21.241623842882497">tRNA-Ile</text><text dominant-baseline="middle" font-family="'Liberation Sans', 'Arial', 'Helvetica', 'Nimbus Sans L', sans-serif" font-size="14.0" font-weight="normal" text-anchor="start" x="454.68765141854334" y="39.308013747349214">tRNA-Gln</text><text dominant-baseline="middle" font-family="'Liberation Sans', 'Arial', 'Helvetica', 'Nimbus Sans L', sans-serif" font-size="14.0" font-weight="normal" text-anchor="start" x="453.0326944798025" y="55.90512986210907">tRNA-Met</text><text dominant-baseline="middle" font-family="'Liberation Sans', 'Arial', 'Helvetica', 'Nimbus Sans L', sans-serif" font-size="14.0" font-weight="normal" text-anchor="start" x="432.92348913136084" y="147.87361577205925">NADH dehydrogenase subunit 2</text><text dominant-baseline="middle" font-family="'Liberation Sans', 'Arial', 'Helvetica', 'Nimbus Sans L', sans-serif" font-size="14.0" font-weight="normal" text-anchor="start" x="396.2460259727094" y="232.07329976481918">tRNA-Trp</text><text dominant-baseline="middle" font-family="'Liberation Sans', 'Arial', 'Helvetica', 'Nimbus Sans L', sans-serif" font-size="14.0" font-weight="normal" text-anchor="start" x="386.4637846570633" y="248.82193575287852">tRNA-Ala</text><text dominant-baseline="middle" font-family="'Liberation Sans', 'Arial', 'Helvetica', 'Nimbus Sans L', sans-serif" font-size="14.0" font-weight="normal" text-anchor="start" x="375.2223744313184" y="266.30717331687606">tRNA-Asn</text><text dominant-baseline="middle" font-family="'Liberation Sans', 'Arial', 'Helvetica', 'Nimbus Sans L', sans-serif" font-size="14.0" font-weight="normal" text-anchor="start" x="361.44217121781173" y="285.65390914250327">tRNA-Cys</text><text dominant-baseline="middle" font-family="'Liberation Sans', 'Arial', 'Helvetica', 'Nimbus Sans L', sans-serif" font-size="14.0" font-weight="normal" text-anchor="start" x="345.5279059410972" y="305.6688271918728">tRNA-Tyr</text><text dominant-baseline="middle" font-family="'Liberation Sans', 'Arial', 'Helvetica', 'Nimbus Sans L', sans-serif" font-size="14.0" font-weight="normal" text-anchor="start" x="155.99265186432692" y="439.80269626164306">tRNA-Ser</text><text dominant-baseline="middle" font-family="'Liberation Sans', 'Arial', 'Helvetica', 'Nimbus Sans L', sans-serif" font-size="14.0" font-weight="normal" text-anchor="start" x="106.0331184368718" y="455.18899447501946">tRNA-Asp</text><text dominant-baseline="hanging" font-family="'Liberation Sans', 'Arial', 'Helvetica', 'Nimbus Sans L', sans-serif" font-size="14.0" font-weight="normal" text-anchor="start" x="33.95482836326188" y="466.70246087670495">cytochrome c oxidase subunit II</text><text dominant-baseline="hanging" font-family="'Liberation Sans', 'Arial', 'Helvetica', 'Nimbus Sans L', sans-serif" font-size="14.0" font-weight="normal" text-anchor="end" x="-7.6996935056106794" y="467.93336648642173">tRNA-Lys</text><text dominant-baseline="hanging" font-family="'Liberation Sans', 'Arial', 'Helvetica', 'Nimbus Sans L', sans-serif" font-size="14.0" font-weight="normal" text-anchor="end" x="-79.2186227882849" y="460.8931098442843">ATP synthase F0 subunit 8</text><text dominant-baseline="middle" font-family="'Liberation Sans', 'Arial', 'Helvetica', 'Nimbus Sans L', sans-serif" font-size="14.0" font-weight="normal" text-anchor="end" x="-128.7965099217512" y="448.9697743554544">ATP synthase F0 subunit 6</text><text dominant-baseline="middle" font-family="'Liberation Sans', 'Arial', 'Helvetica', 'Nimbus Sans L', sans-serif" font-size="14.0" font-weight="normal" text-anchor="end" x="-223.2276843733342" y="408.1730317613743">cytochrome c oxidase subunit III</text><text dominant-baseline="middle" font-family="'Liberation Sans', 'Arial', 'Helvetica', 'Nimbus Sans L', sans-serif" font-size="14.0" font-weight="normal" text-anchor="end" x="-279.6359898727856" y="369.8191937609812">tRNA-Gly</text><text dominant-baseline="middle" font-family="'Liberation Sans', 'Arial', 'Helvetica', 'Nimbus Sans L', sans-serif" font-size="14.0" font-weight="normal" text-anchor="end" x="-307.04985349520274" y="346.1900493411101">NADH dehydrogenase subunit 3</text><text dominant-baseline="middle" font-family="'Liberation Sans', 'Arial', 'Helvetica', 'Nimbus Sans L', sans-serif" font-size="14.0" font-weight="normal" text-anchor="end" x="-332.3949441541053" y="320.6228178031481">tRNA-Arg</text><text dominant-baseline="middle" font-family="'Liberation Sans', 'Arial', 'Helvetica', 'Nimbus Sans L', sans-serif" font-size="14.0" font-weight="normal" text-anchor="end" x="-353.0520455147512" y="296.48644776746517">NADH dehydrogenase subunit 4L</text><text dominant-baseline="middle" font-family="'Liberation Sans', 'Arial', 'Helvetica', 'Nimbus Sans L', sans-serif" font-size="14.0" font-weight="normal" text-anchor="end" x="-425.23009892681955" y="169.73988055963588">NADH dehydrogenase subunit 4</text><text dominant-baseline="middle" font-family="'Liberation Sans', 'Arial', 'Helvetica', 'Nimbus Sans L', sans-serif" font-size="14.0" font-weight="normal" text-anchor="end" x="-453.54796677476565" y="51.32236194623858">tRNA-His</text><text dominant-baseline="middle" font-family="'Liberation Sans', 'Arial', 'Helvetica', 'Nimbus Sans L', sans-serif" font-size="14.0" font-weight="normal" text-anchor="end" x="-455.10050032568387" y="33.91174070038823">tRNA-Ser</text><text dominant-baseline="middle" font-family="'Liberation Sans', 'Arial', 'Helvetica', 'Nimbus Sans L', sans-serif" font-size="14.0" font-weight="normal" text-anchor="end" x="-456.0239559162667" y="16.276429652703087">tRNA-Leu</text><text dominant-baseline="middle" font-family="'Liberation Sans', 'Arial', 'Helvetica', 'Nimbus Sans L', sans-serif" font-size="14.0" font-weight="normal" text-anchor="end" x="-333.16447499940364" y="-319.7815207462416">NADH dehydrogenase subunit 6</text><text dominant-baseline="middle" font-family="'Liberation Sans', 'Arial', 'Helvetica', 'Nimbus Sans L', sans-serif" font-size="14.0" font-weight="normal" text-anchor="end" x="-296.0124231077464" y="-356.1594178972055">tRNA-Glu</text><text dominant-baseline="middle" font-family="'Liberation Sans', 'Arial', 'Helvetica', 'Nimbus Sans L', sans-serif" font-size="14.0" font-weight="normal" text-anchor="end" x="-111.16950139712947" y="-453.89804942655275">tRNA-Thr</text><text dominant-baseline="middle" font-family="'Liberation Sans', 'Arial', 'Helvetica', 'Nimbus Sans L', sans-serif" font-size="14.0" font-weight="normal" text-anchor="end" x="-40.577117388935605" y="-466.14587739024427">tRNA-Pro</text></g><g id="NC_012920.1_definition" transform="translate(700.0,500.0)"><text dominant-baseline="middle" font-family="'Liberation Sans', 'Arial', 'Helvetica', 'Nimbus Sans L', sans-serif" font-size="18.0" font-weight="bold" text-anchor="middle" x="2.388061258337339e-14" y="-60.0"><tspan font-style="italic">Homo sapiens</tspan></text><text dominant-baseline="middle" font-family="'Liberation Sans', 'Arial', 'Helvetica', 'Nimbus Sans L', sans-serif" font-size="18.0" font-weight="bold" text-anchor="middle" x="2.388061258337339e-14" y="-20.0"><tspan>mitochondrion</tspan></text><text dominant-baseline="middle" font-family="'Liberation Sans', 'Arial', 'Helvetica', 'Nimbus Sans L', sans-serif" font-size="18.0" font-weight="normal" text-anchor="middle" x="2.388061258337339e-14" y="20.0">NC_012920.1</text><text dominant-baseline="middle" font-family="'Liberation Sans', 'Arial', 'Helvetica', 'Nimbus Sans L', sans-serif" font-size="18.0" font-weight="normal" text-anchor="middle" x="2.388061258337339e-14" y="60.0">16,569 bp</text><text dominant-baseline="middle" font-family="'Liberation Sans', 'Arial', 'Helvetica', 'Nimbus Sans L', sans-serif" font-size="18.0" font-weight="normal" text-anchor="middle" x="2.388061258337339e-14" y="100.0">44.36% GC</text></g><g id="legend" transform="translate(1407.7620163690476,385.14285714285717)"><path d="M 0,-12.0 L 155.24032738095238,-12.0 L 155.24032738095238,217.7142857142857 L 0,217.7142857142857 z" fill="none" stroke="none" stroke-width="0" /><g data-legend-key="tRNA"><path d="M 0,-12.0 L 24.0,-12.0 L 24.0,12.0 L 0,12.0 z" fill="#e8b441" stroke="gray" stroke-width="2.0" transform="translate(0.0,0.0)" /><text dominant-baseline="central" font-family="'Liberation Sans', 'Arial', 'Helvetica', 'Nimbus Sans L', sans-serif" font-size="20.0" font-weight="normal" text-anchor="start" transform="translate(37.714285714285715,0.0)" x="0" y="0">tRNA</text></g><g data-legend-key="rRNA"><path d="M 0,-12.0 L 24.0,-12.0 L 24.0,12.0 L 0,12.0 z" fill="#71ee7d" stroke="gray" stroke-width="2.0" transform="translate(0.0,41.14285714285714)" /><text dominant-baseline="central" font-family="'Liberation Sans', 'Arial', 'Helvetica', 'Nimbus Sans L', sans-serif" font-size="20.0" font-weight="normal" text-anchor="start" transform="translate(37.714285714285715,41.14285714285714)" x="0" y="0">rRNA</text></g><g data-legend-key="CDS"><path d="M 0,-12.0 L 24.0,-12.0 L 24.0,12.0 L 0,12.0 z" fill="#54bcf8" stroke="gray" stroke-width="2.0" transform="translate(0.0,82.28571428571428)" /><text dominant-baseline="central" font-family="'Liberation Sans', 'Arial', 'Helvetica', 'Nimbus Sans L', sans-serif" font-size="20.0" font-weight="normal" text-anchor="start" transform="translate(37.714285714285715,82.28571428571428)" x="0" y="0">CDS</text></g><g data-legend-key="GC content"><path d="M 0,-12.0 L 24.0,-12.0 L 24.0,12.0 L 0,12.0 z" fill="#a1a1a1" stroke="none" stroke-width="0.0" transform="translate(0.0,123.42857142857142)" /><text dominant-baseline="central" font-family="'Liberation Sans', 'Arial', 'Helvetica', 'Nimbus Sans L', sans-serif" font-size="20.0" font-weight="normal" text-anchor="start" transform="translate(37.714285714285715,123.42857142857142)" x="0" y="0">GC content</text></g><g data-legend-key="GC skew (+)"><path d="M 0,-12.0 L 24.0,-12.0 L 24.0,12.0 L 0,12.0 z" fill="#6dded3" stroke="none" stroke-width="0.0" transform="translate(0.0,164.57142857142856)" /><text dominant-baseline="central" font-family="'Liberation Sans', 'Arial', 'Helvetica', 'Nimbus Sans L', sans-serif" font-size="20.0" font-weight="normal" text-anchor="start" transform="translate(37.714285714285715,164.57142857142856)" x="0" y="0">GC skew (+)</text></g><g data-legend-key="GC skew (-)"><path d="M 0,-12.0 L 24.0,-12.0 L 24.0,12.0 L 0,12.0 z" fill="#ad72e3" stroke="none" stroke-width="0.0" transform="translate(0.0,205.7142857142857)" /><text dominant-baseline="central" font-family="'Liberation Sans', 'Arial', 'Helvetica', 'Nimbus Sans L', sans-serif" font-size="20.0" font-weight="normal" text-anchor="start" transform="translate(37.714285714285715,205.7142857142857)" x="0" y="0">GC skew (-)</text></g></g></svg>