<?xml version="1.0" encoding="utf-8" ?>
<svg baseProfile="full" height="1000.0px" version="1.1" viewBox="0 0 1652.9740953148062 1000.0" width="1652.9740953148062px" xmlns="http://www.w3.org/2000/svg" xmlns:ev="http://www.w3.org/2001/xml-events" xmlns:xlink="http://www.w3.org/1999/xlink"><defs /><g id="Axis" transform="translate(901.00234375,500.0)"><circle cx="0" cy="0" fill="none" r="390.0" stroke="gray" stroke-width="3.0" /></g><g id="label_leaders" transform="translate(901.00234375,500.0)"><line stroke="gray" stroke-linecap="round" stroke-width="1.5" x1="96.35048849897821" x2="103.07261560355786" y1="-408.0283640459426" y2="-436.4954592119386" /><line stroke="gray" stroke-linecap="round" stroke-width="1.5" x1="96.35048849897821" x2="89.62836139439834" y1="-408.0283640459426" y2="-379.5612688799466" /><line stroke="gray" stroke-linecap="round" stroke-width="1.5" x1="243.6683782396027" x2="260.66849765166774" y1="-341.16899616770854" y2="-364.97148427243246" /><line stroke="gray" stroke-linecap="round" stroke-width="1.5" x1="243.6683782396027" x2="226.6682588275374" y1="-341.16899616770854" y2="-317.3665080629847" /><line stroke="gray" stroke-linecap="round" stroke-width="1.5" x1="396.34262183634" x2="423.99443266213115" y1="-136.68609518124345" y2="-146.22233437993484" /><line stroke="gray" stroke-linecap="round" stroke-width="1.5" x1="396.34262183634" x2="368.6908110105489" y1="-136.68609518124345" y2="-127.14985598255205" /><line stroke="gray" stroke-linecap="round" stroke-width="1.5" x1="415.38709023086955" x2="444.3675848981395" y1="-56.781403377615206" y2="-60.74289663651836" /><line stroke="gray" stroke-linecap="round" stroke-width="1.5" x1="415.38709023086955" x2="386.4065955635996" y1="-56.781403377615206" y2="-52.81991011871182" /><line stroke="gray" stroke-linecap="round" stroke-width="1.5" x1="418.5329709852705" x2="448.26586388048844" y1="24.509481802818815" y2="14.490178724892182" /><line stroke="gray" stroke-linecap="round" stroke-width="1.5" x1="418.5329709852705" x2="389.3329962653679" y1="24.509481802818815" y2="22.799517956110524" /><line stroke="gray" stroke-linecap="round" stroke-width="1.5" x1="417.76856861105483" x2="446.9152129327563" y1="35.21342898200029" y2="37.6701798412096" /><line stroke="gray" stroke-linecap="round" stroke-width="1.5" x1="417.76856861105483" x2="388.62192428935333" y1="35.21342898200029" y2="32.756678122790966" /><line stroke="gray" stroke-linecap="round" stroke-width="1.5" x1="416.6691786179897" x2="444.28570049927447" y1="46.44736903000809" y2="61.33894628919641" /><line stroke="gray" stroke-linecap="round" stroke-width="1.5" x1="416.6691786179897" x2="387.5992359237114" y1="46.44736903000809" y2="43.20685491163543" /><line stroke="gray" stroke-linecap="round" stroke-width="1.5" x1="397.7715818941991" x2="425.5230876077478" y1="132.47011412913665" y2="141.71221511489034" /><line stroke="gray" stroke-linecap="round" stroke-width="1.5" x1="397.7715818941991" x2="370.0200761806503" y1="132.47011412913665" y2="123.22801314338292" /><line stroke="gray" stroke-linecap="round" stroke-width="1.5" x1="361.3196986024369" x2="386.52804966772317" y1="212.64674439512152" y2="227.48256377152532" /><line stroke="gray" stroke-linecap="round" stroke-width="1.5" x1="361.3196986024369" x2="336.1113475371506" y1="212.64674439512152" y2="197.81092501871768" /><line stroke="gray" stroke-linecap="round" stroke-width="1.5" x1="355.08424658661795" x2="370.20303565071777" y1="222.90298411195377" y2="253.18365349088657" /><line stroke="gray" stroke-linecap="round" stroke-width="1.5" x1="355.08424658661795" x2="330.310927057319" y1="222.90298411195377" y2="207.35161312739885" /><line stroke="gray" stroke-linecap="round" stroke-width="1.5" x1="348.86665799358354" x2="353.7465261375634" y1="232.51369301696622" y2="275.7093492168993" /><line stroke="gray" stroke-linecap="round" stroke-width="1.5" x1="348.86665799358354" x2="324.5271237149614" y1="232.51369301696622" y2="216.291807457643" /><line stroke="gray" stroke-linecap="round" stroke-width="1.5" x1="339.75416420852446" x2="339.75416420852446" y1="245.63727405051338" y2="288.7046214891215" /><line stroke="gray" stroke-linecap="round" stroke-width="1.5" x1="339.75416420852446" x2="316.0503853102553" y1="245.63727405051338" y2="228.49978981443107" /><line stroke="gray" stroke-linecap="round" stroke-width="1.5" x1="333.59689086795623" x2="353.52469146173775" y1="253.9363638851925" y2="316.224954899136" /><line stroke="gray" stroke-linecap="round" stroke-width="1.5" x1="333.59689086795623" x2="310.3226891794942" y1="253.9363638851925" y2="236.21987338157442" /><line stroke="gray" stroke-linecap="round" stroke-width="1.5" x1="240.42308112083163" x2="257.1967844548431" y1="343.4636874028549" y2="367.4262702449145" /><line stroke="gray" stroke-linecap="round" stroke-width="1.5" x1="240.42308112083163" x2="223.64937778682014" y1="343.4636874028549" y2="319.5011045607953" /><line stroke="gray" stroke-linecap="round" stroke-width="1.5" x1="126.00456795589801" x2="134.79558432491413" y1="399.8667419956897" y2="427.7644216698075" /><line stroke="gray" stroke-linecap="round" stroke-width="1.5" x1="126.00456795589801" x2="117.21355158688186" y1="399.8667419956897" y2="371.9690623215718" /><line stroke="gray" stroke-linecap="round" stroke-width="1.5" x1="115.11769518335176" x2="78.60669969622307" y1="403.13580683892735" y2="435.7531928136805" /><line stroke="gray" stroke-linecap="round" stroke-width="1.5" x1="115.11769518335176" x2="107.08622807753652" y1="403.13580683892735" y2="375.01005287342076" /><line stroke="gray" stroke-linecap="round" stroke-width="1.5" x1="56.66326084814081" x2="-1.8198207128431019" y1="415.4032226283946" y2="449.2463079586866" /><line stroke="gray" stroke-linecap="round" stroke-width="1.5" x1="56.66326084814081" x2="52.710010091293775" y1="415.4032226283946" y2="386.4216024450182" /><line stroke="gray" stroke-linecap="round" stroke-width="1.5" x1="-7.074504716693956" x2="-145.77205590965394" y1="419.1903074774195" y2="424.8994520989891" /><line stroke="gray" stroke-linecap="round" stroke-width="1.5" x1="-7.074504716693956" x2="-6.580934620180424" y1="419.1903074774195" y2="389.9444720720181" /><line stroke="gray" stroke-linecap="round" stroke-width="1.5" x1="-29.229541806235627" x2="-210.54297883539996" y1="418.2298367952692" y2="396.75997975192024" /><line stroke="gray" stroke-linecap="round" stroke-width="1.5" x1="-29.229541806235627" x2="-27.190271447661047" y1="418.2298367952692" y2="389.0510109723435" /><line stroke="gray" stroke-linecap="round" stroke-width="1.5" x1="-91.7800262239835" x2="-238.6325870511225" y1="409.0806635448868" y2="379.74562327601404" /><line stroke="gray" stroke-linecap="round" stroke-width="1.5" x1="-91.7800262239835" x2="-85.37676858044976" y1="409.0806635448868" y2="380.54015213477845" /><line stroke="gray" stroke-linecap="round" stroke-width="1.5" x1="-200.2985117886915" x2="-279.43567337800346" y1="368.30838800553454" y2="350.81042522106117" /><line stroke="gray" stroke-linecap="round" stroke-width="1.5" x1="-200.2985117886915" x2="-186.3241970127363" y1="368.30838800553454" y2="342.6124539586368" /><line stroke="gray" stroke-linecap="round" stroke-width="1.5" x1="-256.9305035155937" x2="-311.80575277215695" y1="331.2963610775456" y2="322.3808656514659" /><line stroke="gray" stroke-linecap="round" stroke-width="1.5" x1="-256.9305035155937" x2="-239.00511954938952" y1="331.2963610775456" y2="308.1826614674843" /><line stroke="gray" stroke-linecap="round" stroke-width="1.5" x1="-282.1184551344811" x2="-338.7040396706867" y1="310.1285858680779" y2="293.9928970413364" /><line stroke="gray" stroke-linecap="round" stroke-width="1.5" x1="-282.1184551344811" x2="-262.435772218122" y1="310.1285858680779" y2="288.4917077842585" /><line stroke="gray" stroke-linecap="round" stroke-width="1.5" x1="-305.40561108176337" x2="-361.72371540005884" y1="287.2246076153203" y2="265.1569416726199" /><line stroke="gray" stroke-linecap="round" stroke-width="1.5" x1="-305.40561108176337" x2="-284.0982428667566" y1="287.2246076153203" y2="267.18568150262354" /><line stroke="gray" stroke-linecap="round" stroke-width="1.5" x1="-324.38542643449364" x2="-381.1349679922977" y1="265.6024427916876" y2="236.4072464488137" /><line stroke="gray" stroke-linecap="round" stroke-width="1.5" x1="-324.38542643449364" x2="-301.75388505534295" y1="265.6024427916876" y2="247.07203980622106" /><line stroke="gray" stroke-linecap="round" stroke-width="1.5" x1="-390.7028686720781" x2="-417.96120834687423" y1="152.0586430013397" y2="162.66738553631686" /><line stroke="gray" stroke-linecap="round" stroke-width="1.5" x1="-390.7028686720781" x2="-363.44452899728196" y1="152.0586430013397" y2="141.4499004663625" /><line stroke="gray" stroke-linecap="round" stroke-width="1.5" x1="-417.28753187357313" x2="-445.1130199828449" y1="40.51762879120287" y2="55.0149928814997" /><line stroke="gray" stroke-linecap="round" stroke-width="1.5" x1="-417.28753187357313" x2="-388.1744482544866" y1="40.51762879120287" y2="37.69081748018871" /><line stroke="gray" stroke-linecap="round" stroke-width="1.5" x1="-418.14789559838476" x2="-447.32100459362084" y1="30.379267710764722" y2="32.498751504539" /><line stroke="gray" stroke-linecap="round" stroke-width="1.5" x1="-418.14789559838476" x2="-388.97478660314863" y1="30.379267710764722" y2="28.25978391699044" /><line stroke="gray" stroke-linecap="round" stroke-width="1.5" x1="-418.76961433947" x2="-448.39444850036875" y1="20.064212069541437" y2="9.72977667010595" /><line stroke="gray" stroke-linecap="round" stroke-width="1.5" x1="-418.76961433947" x2="-389.55312961811165" y1="20.064212069541437" y2="18.664383320503664" /><line stroke="gray" stroke-linecap="round" stroke-width="1.5" x1="-399.3739508412996" x2="-425.37355854824534" y1="-127.55786878672454" y2="-142.16042236854278" /><line stroke="gray" stroke-linecap="round" stroke-width="1.5" x1="-399.3739508412996" x2="-371.51065194539495" y1="-127.55786878672454" y2="-118.6584825923019" /><line stroke="gray" stroke-linecap="round" stroke-width="1.5" x1="-306.11265865329824" x2="-327.4693557686446" y1="-286.4709456685081" y2="-306.45729071514813" /><line stroke="gray" stroke-linecap="round" stroke-width="1.5" x1="-306.11265865329824" x2="-284.75596153795186" y1="-286.4709456685081" y2="-266.48460062186797" /><line stroke="gray" stroke-linecap="round" stroke-width="1.5" x1="-271.97722635968154" x2="-290.95238168710114" y1="-319.0594785329133" y2="-341.3194421514886" /><line stroke="gray" stroke-linecap="round" stroke-width="1.5" x1="-271.97722635968154" x2="-253.00207103226188" y1="-319.0594785329133" y2="-296.7995149143379" /><line stroke="gray" stroke-linecap="round" stroke-width="1.5" x1="-102.142917950354" x2="-109.26916803991358" y1="-406.6170026112868" y2="-434.98563070044634" /><line stroke="gray" stroke-linecap="round" stroke-width="1.5" x1="-102.142917950354" x2="-95.01666786079443" y1="-406.6170026112868" y2="-378.2483745221273" /><line stroke="gray" stroke-linecap="round" stroke-width="1.5" x1="-91.4697421936263" x2="-58.373975819028885" y1="-409.1501542991662" y2="-439.07178371004255" /><line stroke="gray" stroke-linecap="round" stroke-width="1.5" x1="-91.4697421936263" x2="-85.08813227314074" y1="-409.1501542991662" y2="-380.6047946968988" /></g><g id="NC_012920.1" transform="translate(901.00234375,500.0)"><path d="M 80.49645412651051,-362.64858540749697 L94.72976692597209,-378.3203288988724 L88.52497186091313,-398.8182605924966 z" data-gbdraw-feature-id="fb8ff22d9" fill="#e8b441" id="fb8ff22d9" stroke="gray" stroke-linecap="round" stroke-linejoin="round" stroke-miterlimit="4" stroke-width="2.0" /><path d="M 90.2301029969884,-360.350113276176A371.475,371.475 0 0 1 201.5417151102224,-312.04905495038753 L222.49691782167145,-320.30473234071394 L221.64298853328918,-343.1720578063316A408.525,408.525 0 0 0 99.22943085495575,-396.29054452156885 z" data-gbdraw-feature-id="f24a47546" fill="#71ee7d" id="f24a47546" stroke="gray" stroke-linecap="round" stroke-linejoin="round" stroke-miterlimit="4" stroke-width="2.0" /><path d="M 211.92831422514206,-305.09025755453007 L230.80080357484778,-314.37396372664915 L233.06552141820083,-335.51920712689787 z" data-gbdraw-feature-id="fc39ea03d" fill="#e8b441" id="fc39ea03d" stroke="gray" stroke-linecap="round" stroke-linejoin="round" stroke-miterlimit="4" stroke-width="2.0" /><path d="M 219.83776540504252,-299.44120044963336 A371.475,371.475 0 0 1 293.74865705876573,-227.38821891463868 A371.475,371.475 0 0 1 344.9792992870788,-137.77865831977084 L 366.84545936485,-132.37979053991654 L 379.38668346794225,-151.52036177423616 A408.525,408.525 0 0 0 323.0464233795875,-250.06735885888082 A408.525,408.525 0 0 0 241.76384174465304,-329.306727003665 z" data-gbdraw-feature-id="fbdb78069" fill="#71ee7d" id="fbdb78069" stroke="gray" stroke-linecap="round" stroke-linejoin="round" stroke-miterlimit="4" stroke-width="2.0" /><path d="M 349.42030004501964,-126.09175048927052 L370.461606300608,-121.89420928482754 L384.27061868468036,-138.66783059056257 z" data-gbdraw-feature-id="f6bb0489e" fill="#e8b441" id="f6bb0489e" stroke="gray" stroke-linecap="round" stroke-linejoin="round" stroke-miterlimit="4" stroke-width="2.0" /><path d="M 352.9526350487349,-115.83657901178945A371.475,371.475 0 0 1 371.4493416191321,4.366032033014501 L389.59795176143933,17.70412334150422 L408.4967825155285,4.801489296149805A408.525,408.525 0 0 0 388.15526006671894,-127.38983361139049 z" data-gbdraw-feature-id="f406d90f1" fill="#54bcf8" id="f406d90f1" stroke="gray" stroke-linecap="round" stroke-linejoin="round" stroke-miterlimit="4" stroke-width="2.0" /><path d="M 371.092049052771,16.86317748278277 L389.0014030156673,27.891010233450082 L408.1038544701077,18.54506920022567 z" data-gbdraw-feature-id="fcf9fcd75" fill="#e8b441" id="fcf9fcd75" stroke="gray" stroke-linecap="round" stroke-linejoin="round" stroke-miterlimit="4" stroke-width="2.0" /><path d="M 369.70196094225594,36.25100964732808 L389.03288120805485,27.448448753244204 L406.5751224010636,39.86659591136605 z" data-gbdraw-feature-id="fbb5964e6" fill="#e8b441" id="fbb5964e6" stroke="gray" stroke-linecap="round" stroke-linejoin="round" stroke-miterlimit="4" stroke-width="2.0" /><path d="M 369.6881874952076,36.39120294120846 L387.00995844925654,48.20054004992791 L406.5599752243884,40.02077173849434 z" data-gbdraw-feature-id="f5a6329de" fill="#e8b441" id="f5a6329de" stroke="gray" stroke-linecap="round" stroke-linejoin="round" stroke-miterlimit="4" stroke-width="2.0" /><path d="M 368.6269854229169,45.911014397556336 A371.475,371.475 0 0 1 354.36938073739157,111.4271852861663 A371.475,371.475 0 0 1 328.5668993099547,173.31320867966795 L 338.6337665672451,193.4610351995475 L 361.33735120963513,190.5990405164852 A408.525,408.525 0 0 0 389.7133084749791,122.54065783439286 A408.525,408.525 0 0 0 405.39293147559624,50.49006570229948 z" data-gbdraw-feature-id="fbe3a7c0c" fill="#54bcf8" id="fbe3a7c0c" stroke="gray" stroke-linecap="round" stroke-linejoin="round" stroke-miterlimit="4" stroke-width="2.0" /><path d="M 322.548662655301,184.271636027569 L333.5330554886564,202.12793200446305 L354.7188704791892,202.650434371526 z" data-gbdraw-feature-id="f9da385a4" fill="#e8b441" id="f9da385a4" stroke="gray" stroke-linecap="round" stroke-linejoin="round" stroke-miterlimit="4" stroke-width="2.0" /><path d="M 312.01041041838516,201.60153624303285 L332.9953338140845,203.01258004874083 L343.12955896405083,221.70877607829595 z" data-gbdraw-feature-id="f0c728fec" fill="#e8b441" id="f0c728fec" stroke="gray" stroke-linecap="round" stroke-linejoin="round" stroke-miterlimit="4" stroke-width="2.0" /><path d="M 306.2310135601582,210.27658442850506 L327.48969868840095,211.7793598370256 L336.7737393220637,231.24905216678113 z" data-gbdraw-feature-id="fe111b113" fill="#e8b441" id="fe111b113" stroke="gray" stroke-linecap="round" stroke-linejoin="round" stroke-miterlimit="4" stroke-width="2.0" /><path d="M 298.29086075644346,221.39611110898053 L318.88501939220623,224.52693470323837 L328.04165526758476,243.4776130043644 z" data-gbdraw-feature-id="fcd230250" fill="#e8b441" id="fcd230250" stroke="gray" stroke-linecap="round" stroke-linejoin="round" stroke-miterlimit="4" stroke-width="2.0" /><path d="M 292.7436392867603,228.6806447475238 L313.2543786442787,232.31808853420532 L321.94116761457366,251.48868805567574 z" data-gbdraw-feature-id="faa41e395" fill="#e8b441" id="faa41e395" stroke="gray" stroke-linecap="round" stroke-linejoin="round" stroke-miterlimit="4" stroke-width="2.0" /><path d="M 291.6999869489148,230.01041984876028 A371.475,371.475 0 0 1 218.11700063766705,300.6969398877015 A371.475,371.475 0 0 1 128.07800787694651,348.69714584904887 L 122.06980054814768,370.4037847999605 L 140.85219238960784,383.4753388733634 A408.525,408.525 0 0 0 239.87145214483593,330.68771079513624 A408.525,408.525 0 0 0 320.79342396744164,252.9510916446996 z" data-gbdraw-feature-id="f48b7bf2f" fill="#54bcf8" id="f48b7bf2f" stroke="gray" stroke-linecap="round" stroke-linejoin="round" stroke-miterlimit="4" stroke-width="2.0" /><path d="M 107.00122157552819,355.73081706023834 L122.06980054814768,370.4037847999605 L117.67325942295618,391.2105310977424 z" data-gbdraw-feature-id="f5770d33c" fill="#e8b441" id="f5770d33c" stroke="gray" stroke-linecap="round" stroke-linejoin="round" stroke-miterlimit="4" stroke-width="2.0" /><path d="M 106.596458840892,355.85231569793393 L102.24236207344151,376.3595347505405 L117.2281266517946,391.3441477098013 z" data-gbdraw-feature-id="f7f51ee0f" fill="#e8b441" id="f7f51ee0f" stroke="gray" stroke-linecap="round" stroke-linejoin="round" stroke-miterlimit="4" stroke-width="2.0" /><path d="M 97.38584987495304,358.48245684988984A371.475,371.475 0 0 1 14.682474572034897,371.184725662899 L2.2923312498591026,389.99326304109525 L16.14686836137171,408.2057744166789A408.525,408.525 0 0 0 107.09887427192997,394.23661265119114 z" data-gbdraw-feature-id="f77c8cbef" fill="#54bcf8" id="f77c8cbef" stroke="gray" stroke-linecap="round" stroke-linejoin="round" stroke-miterlimit="4" stroke-width="2.0" /><path d="M -1.3382456109003802,371.47258946480144 L-11.75572770214425,389.8227839239172 L-1.4717189264232526,408.52234904396795 z" data-gbdraw-feature-id="fc5d8f111" fill="#e8b441" id="fc5d8f111" stroke="gray" stroke-linecap="round" stroke-linejoin="round" stroke-miterlimit="4" stroke-width="2.0" /><path d="M -11.33813408099239,371.30192881341384A371.475,371.475 0 0 1 -27.970287171106488,370.420488985917 L-42.43511015475139,387.6844869557642 L-30.759974605495056,407.36531465905307A408.525,408.525 0 0 0 -12.468971600881394,408.3346671202635 z" data-gbdraw-feature-id="f31dbd2ba" fill="#54bcf8" id="f31dbd2ba" stroke="gray" stroke-linecap="round" stroke-linejoin="round" stroke-miterlimit="4" stroke-width="2.0" /><path d="M -33.97215235380204,369.9183267823454A371.475,371.475 0 0 1 -115.5011713893071,353.0625369997473 L-133.66576578643637,366.3788518142464 L-127.02097326015662,388.27612336717607A408.525,408.525 0 0 0 -37.36045101376129,406.81306803622755 z" data-gbdraw-feature-id="f00bf02dc" fill="#54bcf8" id="f00bf02dc" stroke="gray" stroke-linecap="round" stroke-linejoin="round" stroke-miterlimit="4" stroke-width="2.0" /><path d="M -127.18429647146661,349.0241114250677A371.475,371.475 0 0 1 -213.74606754671518,303.8195093033281 L-235.01188742391298,311.23851427715374 L-235.0645729713219,334.12171758030047A408.525,408.525 0 0 0 -139.86934441350263,383.8349151892477 z" data-gbdraw-feature-id="fb3d5165e" fill="#54bcf8" id="fb3d5165e" stroke="gray" stroke-linecap="round" stroke-linejoin="round" stroke-miterlimit="4" stroke-width="2.0" /><path d="M -223.84882277127713,296.45468484898896 L-242.95862097984468,305.07557832703054 L-246.17495207654883,326.0223437053185 z" data-gbdraw-feature-id="f0854cefc" fill="#e8b441" id="f0854cefc" stroke="gray" stroke-linecap="round" stroke-linejoin="round" stroke-miterlimit="4" stroke-width="2.0" /><path d="M -231.41808648330206,290.58448835649665A371.475,371.475 0 0 1 -258.6195895578884,266.66380242153105 L-280.78383852364635,270.666651111523 L-284.41366935631294,293.2601921643609A408.525,408.525 0 0 0 -254.49915547638727,319.5666682975645 z" data-gbdraw-feature-id="f9b1f5604" fill="#54bcf8" id="f9b1f5604" stroke="gray" stroke-linecap="round" stroke-linejoin="round" stroke-miterlimit="4" stroke-width="2.0" /><path d="M -267.44660619377316,257.80998518372564 L-287.3694956088822,263.66412913685593 L-294.1210708535195,283.5233170393203 z" data-gbdraw-feature-id="faaf9f51c" fill="#e8b441" id="faaf9f51c" stroke="gray" stroke-linecap="round" stroke-linejoin="round" stroke-miterlimit="4" stroke-width="2.0" /><path d="M -273.7194445674603,251.1400830028553A371.475,371.475 0 0 1 -292.67810581743635,228.76451210823228 L-315.18161333158497,229.69664912161704 L-321.8690979987029,251.58092014002446A408.525,408.525 0 0 0 -301.01954665030405,276.18817527085656 z" data-gbdraw-feature-id="f63cda8a2" fill="#54bcf8" id="f63cda8a2" stroke="gray" stroke-linecap="round" stroke-linejoin="round" stroke-miterlimit="4" stroke-width="2.0" /><path d="M -299.6286635943367,219.58219321628022 A371.475,371.475 0 0 1 -343.86466153808044,140.53743334180177 A371.475,371.475 0 0 1 -367.6549809698966,53.136527860079255 L -387.64813893609494,42.76587868128105 L -404.32398169655295,58.43623405084831 A408.525,408.525 0 0 0 -378.16087449988373,154.55429021053789 A408.525,408.525 0 0 0 -329.51288725991355,241.48277941632915 z" data-gbdraw-feature-id="fa61b27c5" fill="#54bcf8" id="fa61b27c5" stroke="gray" stroke-linecap="round" stroke-linejoin="round" stroke-miterlimit="4" stroke-width="2.0" /><path d="M -369.2348523366304,40.73449944392021 L-388.6343181148922,32.60930516543954 L-406.0614255355594,44.7972579186419 z" data-gbdraw-feature-id="fe68573e6" fill="#e8b441" id="fe68573e6" stroke="gray" stroke-linecap="round" stroke-linejoin="round" stroke-miterlimit="4" stroke-width="2.0" /><path d="M -370.1741880044349,31.06036317008116 L-389.2665776105242,23.906726153736543 L-407.0944482253496,34.15824716079791 z" data-gbdraw-feature-id="fa5493a05" fill="#e8b441" id="fa5493a05" stroke="gray" stroke-linecap="round" stroke-linejoin="round" stroke-miterlimit="4" stroke-width="2.0" /><path d="M -370.77641517402435,22.77115666143406 L-389.76908499313316,13.418658040792584 L-407.7567400470241,25.042295646039026 z" data-gbdraw-feature-id="fcb99f355" fill="#e8b441" id="fcb99f355" stroke="gray" stroke-linecap="round" stroke-linejoin="round" stroke-miterlimit="4" stroke-width="2.0" /><path d="M -371.2550534559594,12.781271783854937 A371.475,371.475 0 0 1 -355.7157102671059,-107.05143200428657 A371.475,371.475 0 0 1 -302.53747615804457,-215.55683970804694 L -309.8293371216674,-236.86659084545502 L -332.71181761212773,-237.05594708050302 A408.525,408.525 0 0 0 -391.19391759033425,-117.72847771600017 A408.525,408.525 0 0 0 -408.283116530307,14.056044297730232 z" data-gbdraw-feature-id="f088dccd3" fill="#54bcf8" id="f088dccd3" stroke="gray" stroke-linecap="round" stroke-linejoin="round" stroke-miterlimit="4" stroke-width="2.0" /><path d="M -244.66228824911067,-279.5246685602348A371.475,371.475 0 0 0 -287.35313534185514,-235.4184598416307 L-309.8293371216674,-236.86659084545502 L-316.0130281056097,-258.89851620378806A408.525,408.525 0 0 1 -269.06430125033427,-307.403769361518 z" data-gbdraw-feature-id="f6b2a293e" fill="#54bcf8" id="f6b2a293e" stroke="gray" stroke-linecap="round" stroke-linejoin="round" stroke-miterlimit="4" stroke-width="2.0" /><path d="M -237.2654104633579,-285.8300205063392 L-256.86329474972246,-293.4642189608764 L-260.9296771237453,-314.3380015542155 z" data-gbdraw-feature-id="fc01139b2" fill="#e8b441" id="fc01139b2" stroke="gray" stroke-linecap="round" stroke-linejoin="round" stroke-miterlimit="4" stroke-width="2.0" /><path d="M -236.83157548346773,-286.1895883483858 A371.475,371.475 0 0 1 -175.413255249483,-327.4505542945068 A371.475,371.475 0 0 1 -107.03569594335774,-355.7204456014879 L -99.74251953251205,-377.0297465682336 L -117.71117217917818,-391.19912521528454 A408.525,408.525 0 0 0 -192.90854054995634,-360.10966469658354 A408.525,408.525 0 0 0 -260.45257251331486,-314.73343180570515 z" data-gbdraw-feature-id="f2e5a9636" fill="#54bcf8" id="f2e5a9636" stroke="gray" stroke-linecap="round" stroke-linejoin="round" stroke-miterlimit="4" stroke-width="2.0" /><path d="M -95.00474985471773,-359.1208336062425 L-90.27593666127939,-379.4077691085525 L-104.48028921030635,-394.93865953022464 z" data-gbdraw-feature-id="f7e1a704e" fill="#e8b441" id="f7e1a704e" stroke="gray" stroke-linecap="round" stroke-linejoin="round" stroke-miterlimit="4" stroke-width="2.0" /><path d="M -76.36569905323417,-363.54085827195667 L-89.98815777428743,-379.47612765546916 L-83.98222546799242,-399.79952655104944 z" data-gbdraw-feature-id="f94185e65" fill="#e8b441" id="f94185e65" stroke="gray" stroke-linecap="round" stroke-linejoin="round" stroke-miterlimit="4" stroke-width="2.0" /><path d="M 121.92545992580183,-365.550954251845A385.3483072916667,385.3483072916667 0 0 1 194.98459007307943,-332.3767855410272" fill="none" id="id1" stroke="none" /><text><textPath dominant-baseline="auto" font-family="'Liberation Sans', 'Arial', 'Helvetica', 'Nimbus Sans L', sans-serif" font-size="20.0" font-style="normal" font-weight="normal" startOffset="50%" text-anchor="middle" xlink:href="#id1">s-rRNA</textPath></text><path d="M 285.8315588032801,-258.1776271995092A385.1692708333333,385.1692708333333 0 0 1 328.52351253246013,-201.0663296218842" fill="none" id="id2" stroke="none" /><text><textPath dominant-baseline="auto" font-family="'Liberation Sans', 'Arial', 'Helvetica', 'Nimbus Sans L', sans-serif" font-size="20.0" font-style="normal" font-weight="normal" startOffset="50%" text-anchor="middle" xlink:href="#id2">l-rRNA</textPath></text><path d="M -234.978674352764,-303.44121090902274A383.7858072916667,383.7858072916667 0 0 1 -110.11468574994483,-367.6496999328399" fill="none" id="id3" stroke="none" /><text><textPath dominant-baseline="auto" font-family="'Liberation Sans', 'Arial', 'Helvetica', 'Nimbus Sans L', sans-serif" font-size="20.0" font-style="normal" font-weight="normal" startOffset="50%" text-anchor="middle" xlink:href="#id3">cytochrome b</textPath></text></g><g id="tick" transform="translate(901.00234375,500.0)"><path d="M 2.2029865108161957e-14,-359.7750000000001 L2.250747735982942e-14,-367.57500000000005 z" stroke="gray" stroke-width="2.0" /><path d="M 133.18502884021473,-334.2151982149095 L136.07250914027355,-341.46105617078825 z" stroke="gray" stroke-width="2.0" /><path d="M 247.4461027758505,-261.1675264002845 L252.81078793088244,-266.8296949943286 z" stroke="gray" stroke-width="2.0" /><path d="M 326.54812819814373,-151.01116049911266 L333.6277624138216,-154.2851151982804 z" stroke="gray" stroke-width="2.0" /><path d="M 359.2516799630849,-19.397965581506604 L367.04033427122755,-19.81851768083466 z" stroke="gray" stroke-width="2.0" /><path d="M 340.9099855001488,114.97144172049155 L348.300987895816,117.46404750304961 z" stroke="gray" stroke-width="2.0" /><path d="M 274.12917405608886,233.00482088644992 L280.0723539814241,238.05641591921844 z" stroke="gray" stroke-width="2.0" /><path d="M 168.39797777492672,317.93108012007156 L172.04888244213376,324.8238948652221 z" stroke="gray" stroke-width="2.0" /><path d="M 38.73949953733502,357.6832422697447 L39.57938028611193,365.4378925086551 z" stroke="gray" stroke-width="2.0" /><path d="M -96.42338522893674,346.6130139016597 L-98.51386512549904,354.1276591895005 z" stroke="gray" stroke-width="2.0" /><path d="M -217.8856926126828,286.2933383431957 L-222.60950166661627,292.50023998749265 z" stroke="gray" stroke-width="2.0" /><path d="M -308.38912228126037,185.29489977760826 L-315.07506531174835,189.31213337712276 z" stroke="gray" stroke-width="2.0" /><path d="M -355.074249743253,57.96833440996976 L-362.7723364585538,59.22510046763848 z" stroke="gray" stroke-width="2.0" /><path d="M -351.30769244434043,-77.59481847670492 L-358.92411938080306,-79.27709096400474 z" stroke="gray" stroke-width="2.0" /><path d="M -297.62463186168156,-202.13270179315023 L-304.0771984061082,-206.51498259083368 z" stroke="gray" stroke-width="2.0" /><path d="M -201.65277079680368,-297.9500136851345 L-206.02464658643626,-304.40963457803707 z" stroke="gray" stroke-width="2.0" /><path d="M -77.02853060063242,-351.43229233880527 L-78.69852584400655,-359.0514206279934 z" stroke="gray" stroke-width="2.0" /><path d="M 99.74125851158689,-319.7290337547734A334.92532552083344,334.92532552083344 0 0 1 147.49920250541183,-300.6974541553416" fill="none" id="id4" stroke="none" /><text dominant-baseline="text-after-edge"><textPath dominant-baseline="text-after-edge" font-family="'Liberation Sans', 'Arial', 'Helvetica', 'Nimbus Sans L', sans-serif" font-size="14.0" font-style="normal" font-weight="normal" startOffset="50%" text-anchor="middle" xlink:href="#id4">1 kbp</textPath></text><path d="M 211.0316018859039,-260.0781357221433A334.92532552083344,334.92532552083344 0 0 1 248.32165500619604,-224.74725655771638" fill="none" id="id5" stroke="none" /><text dominant-baseline="text-after-edge"><textPath dominant-baseline="text-after-edge" font-family="'Liberation Sans', 'Arial', 'Helvetica', 'Nimbus Sans L', sans-serif" font-size="14.0" font-style="normal" font-weight="normal" startOffset="50%" text-anchor="middle" xlink:href="#id5">2 kbp</textPath></text><path d="M 292.2739854179278,-163.55699655825538A334.92532552083344,334.92532552083344 0 0 1 313.9100604535674,-116.77091941606821" fill="none" id="id6" stroke="none" /><text dominant-baseline="text-after-edge"><textPath dominant-baseline="text-after-edge" font-family="'Liberation Sans', 'Arial', 'Helvetica', 'Nimbus Sans L', sans-serif" font-size="14.0" font-style="normal" font-weight="normal" startOffset="50%" text-anchor="middle" xlink:href="#id6">3 kbp</textPath></text><path d="M 332.02999966831715,-43.9437480819919A334.92532552083344,334.92532552083344 0 0 1 334.83128516622054,7.936255362155975" fill="none" id="id7" stroke="none" /><text dominant-baseline="text-after-edge"><textPath dominant-baseline="text-after-edge" font-family="'Liberation Sans', 'Arial', 'Helvetica', 'Nimbus Sans L', sans-serif" font-size="14.0" font-style="normal" font-weight="normal" startOffset="50%" text-anchor="middle" xlink:href="#id7">4 kbp</textPath></text><path d="M 308.175306227311,131.16003319204876A334.92532552083344,334.92532552083344 1 0 0 324.6652265719005,82.26459949609402" fill="none" id="id8" stroke="none" /><text dominant-baseline="text-before-edge"><textPath dominant-baseline="text-before-edge" font-family="'Liberation Sans', 'Arial', 'Helvetica', 'Nimbus Sans L', sans-serif" font-size="14.0" font-style="normal" font-weight="normal" startOffset="50%" text-anchor="middle" xlink:href="#id8">5 kbp</textPath></text><path d="M 237.74650179899413,235.90585952361826A334.92532552083344,334.92532552083344 1 0 0 271.1301919295963,196.63009103251846" fill="none" id="id9" stroke="none" /><text dominant-baseline="text-before-edge"><textPath dominant-baseline="text-before-edge" font-family="'Liberation Sans', 'Arial', 'Helvetica', 'Nimbus Sans L', sans-serif" font-size="14.0" font-style="normal" font-weight="normal" startOffset="50%" text-anchor="middle" xlink:href="#id9">6 kbp</textPath></text><path d="M 133.60763056857326,307.1220844047004A334.92532552083344,334.92532552083344 1 0 0 179.00250423329697,283.07786411771013" fill="none" id="id10" stroke="none" /><text dominant-baseline="text-before-edge"><textPath dominant-baseline="text-before-edge" font-family="'Liberation Sans', 'Arial', 'Helvetica', 'Nimbus Sans L', sans-serif" font-size="14.0" font-style="normal" font-weight="normal" startOffset="50%" text-anchor="middle" xlink:href="#id10">7 kbp</textPath></text><path d="M 10.326515168327669,334.7660926075318A334.92532552083344,334.92532552083344 1 0 0 61.587017749972986,329.214235597279" fill="none" id="id11" stroke="none" /><text dominant-baseline="text-before-edge"><textPath dominant-baseline="text-before-edge" font-family="'Liberation Sans', 'Arial', 'Helvetica', 'Nimbus Sans L', sans-serif" font-size="14.0" font-style="normal" font-weight="normal" startOffset="50%" text-anchor="middle" xlink:href="#id11">8 kbp</textPath></text><path d="M -114.2827032555013,314.824454913927A334.92532552083344,334.92532552083344 1 0 0 -64.7137651567129,328.6139106527264" fill="none" id="id12" stroke="none" /><text dominant-baseline="text-before-edge"><textPath dominant-baseline="text-before-edge" font-family="'Liberation Sans', 'Arial', 'Helvetica', 'Nimbus Sans L', sans-serif" font-size="14.0" font-style="normal" font-weight="normal" startOffset="50%" text-anchor="middle" xlink:href="#id12">9 kbp</textPath></text><path d="M -227.6470455662925,245.66602597871486A334.92532552083344,334.92532552083344 1 0 0 -176.12620678764696,284.87634678546283" fill="none" id="id13" stroke="none" /><text dominant-baseline="text-before-edge"><textPath dominant-baseline="text-before-edge" font-family="'Liberation Sans', 'Arial', 'Helvetica', 'Nimbus Sans L', sans-serif" font-size="14.0" font-style="normal" font-weight="normal" startOffset="50%" text-anchor="middle" xlink:href="#id13">10 kbp</textPath></text><path d="M -301.6847122383248,145.46926849652962A334.92532552083344,334.92532552083344 1 0 0 -270.0778894212394,198.0729848338865" fill="none" id="id14" stroke="none" /><text dominant-baseline="text-before-edge"><textPath dominant-baseline="text-before-edge" font-family="'Liberation Sans', 'Arial', 'Helvetica', 'Nimbus Sans L', sans-serif" font-size="14.0" font-style="normal" font-weight="normal" startOffset="50%" text-anchor="middle" xlink:href="#id14">11 kbp</textPath></text><path d="M -334.1969632936207,22.07630858088851A334.92532552083344,334.92532552083344 1 0 0 -323.8659471158992,85.35702650606939" fill="none" id="id15" stroke="none" /><text dominant-baseline="text-before-edge"><textPath dominant-baseline="text-before-edge" font-family="'Liberation Sans', 'Arial', 'Helvetica', 'Nimbus Sans L', sans-serif" font-size="14.0" font-style="normal" font-weight="normal" startOffset="50%" text-anchor="middle" xlink:href="#id15">12 kbp</textPath></text><path d="M -332.4869500376326,-40.34106753556552A334.92532552083344,334.92532552083344 0 0 1 -318.54660413312706,-103.45547192144578" fill="none" id="id16" stroke="none" /><text dominant-baseline="text-after-edge"><textPath dominant-baseline="text-after-edge" font-family="'Liberation Sans', 'Arial', 'Helvetica', 'Nimbus Sans L', sans-serif" font-size="14.0" font-style="normal" font-weight="normal" startOffset="50%" text-anchor="middle" xlink:href="#id16">13 kbp</textPath></text><path d="M -294.1316175879179,-160.192275751208A334.92532552083344,334.92532552083344 0 0 1 -257.35099647555967,-214.34887050850705" fill="none" id="id17" stroke="none" /><text dominant-baseline="text-after-edge"><textPath dominant-baseline="text-after-edge" font-family="'Liberation Sans', 'Arial', 'Helvetica', 'Nimbus Sans L', sans-serif" font-size="14.0" font-style="normal" font-weight="normal" startOffset="50%" text-anchor="middle" xlink:href="#id17">14 kbp</textPath></text><path d="M -213.61282567774413,-257.9622731742104A334.92532552083344,334.92532552083344 0 0 1 -160.08442862028014,-294.19032850954613" fill="none" id="id18" stroke="none" /><text dominant-baseline="text-after-edge"><textPath dominant-baseline="text-after-edge" font-family="'Liberation Sans', 'Arial', 'Helvetica', 'Nimbus Sans L', sans-serif" font-size="14.0" font-style="normal" font-weight="normal" startOffset="50%" text-anchor="middle" xlink:href="#id18">15 kbp</textPath></text><path d="M -102.77280461086443,-318.7675082370431A334.92532552083344,334.92532552083344 0 0 1 -39.98162966673406,-332.5303639736203" fill="none" id="id19" stroke="none" /><text dominant-baseline="text-after-edge"><textPath dominant-baseline="text-after-edge" font-family="'Liberation Sans', 'Arial', 'Helvetica', 'Nimbus Sans L', sans-serif" font-size="14.0" font-style="normal" font-weight="normal" startOffset="50%" text-anchor="middle" xlink:href="#id19">16 kbp</textPath></text></g><g id="gc_content" transform="translate(901.00234375,500.0)"><path d="M1.8437546645429488e-14 -301.10798735221334L1.8437546645429488e-14 -301.10798735221334L5.676804469222559 -299.36313117612644L11.383623644111681 -300.04660211955195L16.685769130491156 -293.02363486778336L21.982100513175787 -289.2822593448673L27.702918547878166 -291.33865567589214L33.70149372489114 -294.9613174785594L38.9520878954443 -291.7550884372464L43.5822952507674 -285.1134635287602L49.267248624518814 -285.9023898599176L56.90996625520718 -296.54202957930136L63.39739277377222 -299.5457140156366L67.3487316154136 -290.876345986549L74.29565114975433 -295.2868997383413L80.10261299384518 -294.6411156926975L84.96273666077985 -290.6347919064553L87.67928499258979 -280.0957130442954L92.70616555301068 -277.5810347548337L98.23530663518356 -276.5702261865791L105.24961565604993 -279.40547365602083L110.52809352591248 -277.35976789400934L114.45548610539059 -272.09685698477415L121.64907341900266 -274.51603462649973L125.04615286518825 -268.32835935983735L129.73943954265994 -265.14983633366694L138.60271951624634 -270.16530893816486L142.09944434458617 -264.5095428292131L147.08887869242932 -261.7678591725182L152.02543516748582 -258.9320710010563L157.3491792796941 -256.7240850160096L159.9111216738751 -250.13277005018654L163.68707159448422 -245.64873391376574L163.0118348638798 -234.8605258480244L165.45461227265224 -228.9863356211857L172.81492305068886 -229.8631837293797L171.41295652756645 -219.2186047210985L178.73854524907324 -219.8657475215195L180.69218415830122 -213.8540446644038L184.7142771324404 -210.3897660502104L183.54186304424744 -201.2276156665905L187.32405264292237 -197.71157805764943L191.63196308276045 -194.72710587137942L197.70698112164075 -193.42400996947322L201.33867187689867 -189.64081107122018L201.76615763166762 -182.94968278509643L204.56151004302833 -178.53543336964515L211.14692274409668 -177.34393021433783L219.0748112912693 -177.02876493978408L223.72701095710073 -173.88110610170645L231.72470713096845 -173.1508479146562L234.2791245871081 -168.23315763365144L238.12265085964842 -164.24116163760982L246.83372551949827 -163.43121100111523L252.02908439118508 -160.08198188938223L255.01886169501412 -155.27485464321273L258.64735044591123 -150.8378550757947L259.98400539877633 -145.08286229590988L261.1959500031441 -139.331706675405L261.53039164141137 -133.2033022507101L260.9665972401631 -126.74333686444014L269.4621293583429 -124.61191889078692L267.13214835719685 -117.43895268613176L264.6287153500561 -110.39986864245192L266.674278410258 -105.36278858524882L274.1687790605732 -102.35792385321727L280.8456334771909 -98.82535176745009L285.87986360973827 -94.54482338963946L291.65923519759775 -90.35876376440548L296.5689509728996 -85.75223565728828L303.04077817508266 -81.43051540448282L302.88906061920846 -75.26257590810604L306.7344109859376 -70.07131900472L308.83550094685467 -64.41582368600744L312.4937721667776 -59.01961729898745L311.0556189606088 -52.660866867855695L311.99813257692574 -46.753933040467594L304.4444123438979 -39.73590720163041L300.1010760545711 -33.39556433223759L300.6802976593601 -27.699786382906638L297.77833655199777 -21.747702982538584L293.0714072126096 -15.8245302307788L290.7837509186088 -10.176473103688123L287.54278518969426 -4.607336386180783L289.2694821353191 0.8501374370133011L286.66542168700965 6.278852849093684L284.8052249242718 11.643688791796492L290.44131401051334 17.39521540458737L285.8448238002809 22.566007415535744L281.99967227243894 27.651389281346674L281.42472605955743 32.993000064477506L279.9108592689325 38.20839550203409L278.3007018411318 43.378288499479204L285.75636370639216 50.10727408213878L281.4354157785045 54.868886717993064L278.6911868453148 59.83990313824961L277.50655625265557 65.11300077278715L270.4866936774853 68.90168155101574L265.87073735191404 73.1207466326691L266.8691652192682 78.86727443342738L263.71358591051035 83.40289337381265L273.3014667823179 92.17055820230411L275.48441196487624 98.76235493077692L270.40095348685475 102.7661441424038L269.9730039900479 108.50496541502233L266.3104597906245 112.94376934830741L264.1212302987495 117.97258890934133L259.54105565287466 121.88079592242201L260.2171207451711 128.27504973975067L256.98715702265827 132.7974290184456L255.16684866274628 138.04824395176345L248.08825510270228 140.36313373867713L250.4775571267594 148.05317888831905L245.4667588579953 151.4436325516577L241.84029764168352 155.61282498497354L241.6554289137088 162.0537073925094L239.23271205636613 167.09040001179818L245.5960531544824 178.5569564197765L243.51520940871168 184.2014073011131L239.31452937118976 188.26245767197761L238.97467385454286 195.44230314213985L235.2262245427681 199.93802011809672L231.39321232937903 204.3618601629965L231.83812578310366 212.7135916281071L228.37556987024178 217.65423054166388L223.00610523383241 220.75533765786102L218.19109235617242 224.33763068376604L211.5868850459259 225.96536552727343L212.9257315048557 236.21664998950214L206.74660608971166 238.2952073723411L198.3982452492613 237.62889686089554L190.6803260894869 237.3925234274537L182.01004690456486 235.612102450114L175.49377569419582 236.30537757959542L171.96430195983717 240.96665253638727L168.3208132516501 245.57854918837688L163.16979502404257 248.01932884311316L157.53566909276816 249.63828000550666L149.27356535597903 246.79243552144175L146.26286528584356 252.50478516717675L142.67875983550076 257.45109879789476L140.93802004583677 266.0873814235842L135.48627524111487 267.9571225999569L127.81156250383293 265.1461884899888L121.70362457649036 265.21636461367086L115.63935370714087 265.1510812776223L112.20768341913193 271.20232532984653L104.27022469271239 266.1955017460487L97.4441509495325 263.36668305116353L92.43332719550457 265.16683864920986L87.12615031396757 266.0681336926506L79.33970332599361 258.78001700480877L76.04639017949368 265.92826957202556L72.94399166397024 274.6770144021082L68.12610031785538 277.65294769330444L63.593199618713186 282.1940130313753L58.061296546067936 282.52077691398256L53.62124071499098 288.558534836156L49.11146339987513 295.3617689872526L43.87125525039592 298.74944774666056L38.627076349443165 302.8824270864415L32.96866782800275 304.4009381347178L27.491799643682537 308.34000274642244L20.872468634901438 297.84096487517735L15.178686051742893 297.3387419844705L9.376022606586387 292.5025712488477L3.740134349084415 285.8641920604085L-1.6654791828094635 283.3472086858157L-7.121306428631757 286.6457307877464L-12.480652272662745 284.7697753479012L-17.400242225098477 276.8872782171185L-22.715786315363378 277.3503044409026L-27.37524648573409 270.9811149812098L-33.416263738411985 277.9686513853444L-38.56359597866649 276.44772063145956L-44.8593585836871 282.34723808594185L-50.64990643454926 283.9431114199852L-57.50234484416367 290.39650328567825L-62.09813609457245 285.1233308368974L-66.71053076608847 280.6043631692093L-73.49652498589822 285.0202757619835L-79.56698709956586 286.01934209398127L-87.15357614942697 291.75066598246735L-92.6693657831344 290.04583358876033L-98.15184114469108 288.23673085981693L-103.8867085950386 287.1190823375709L-107.49547896292587 280.3609679204483L-113.74450941102603 280.6232981529556L-122.03626706144834 285.4132151903273L-128.46691069384084 285.3611364239466L-131.32259374861727 277.52426722665814L-135.808571195822 273.47001235021844L-138.23647762099193 265.59590861211973L-144.05622985159536 264.4122211401073L-147.7879146516232 259.42943662509873L-151.81526733962593 255.12760354492082L-157.51721765666443 253.6399543573421L-154.94407377864366 239.2528487473524L-152.83061603330782 226.4602787220653L-153.69344183897226 218.67968160100574L-164.30162703093947 224.5978042554572L-166.9941832136878 219.42387140182066L-170.0748910709008 214.89230443395783L-170.3581766958092 207.0586300245869L-175.9017376641936 205.71938268326355L-172.47007935379403 194.1301707982768L-173.25243894984396 187.71865889658008L-180.29112433984716 188.06222686933927L-185.61407382137034 186.40762515833896L-193.97768954718148 187.5567776712857L-198.11769176740842 184.42143566738648L-203.46770124846438 182.32484631739445L-204.32681248281833 176.22554466679912L-207.63123852856984 172.3199282717787L-206.89650491692927 165.18707576731728L-219.3800907498831 168.44368138780618L-230.6976105391767 170.2794775526575L-235.26391380677862 166.8532121507026L-236.288606900107 160.93482891066824L-235.75876226177866 154.1128241750332L-237.92192347632275 149.16611755011303L-244.33105063340088 146.80575373337294L-248.53626207514998 142.99025987039826L-252.68410269633455 139.0677812767536L-256.772021840542 135.03913178987307L-260.041812618587 130.52588284767623L-260.9443355348346 124.84233969603893L-265.57289390707655 120.92365490576105L-270.9218462393636 117.20968863907329L-276.22432498884893 113.33588394302282L-276.74711224023474 107.4662986925077L-277.1471985952886 101.61785370395073L-281.4216550070461 97.17289791016843L-283.21342242946173 91.81980914245132L-292.1853052529671 88.64289627099103L-288.93174264581216 81.70678320931287L-288.79327444879476 75.78485955541973L-288.53471031663133 69.8977140575715L-292.284203262736 64.96502858941938L-292.63466604171845 59.244008434132034L-288.71487608100733 52.77296478437257L-289.6635307256175 47.289580778151624L-286.3235333272166 41.187258849258114L-286.2139223917756 35.646797525239L-284.31572355946753 29.948192669271428L-283.1476330937738 24.407089833140958L-281.8722452824863 18.921098354002822L-283.86939798863256 13.654781078459306L-280.6966204491457 8.17187641093303L-279.95562593209945 2.8399549624342804L-274.8862361393375 -2.4236548685456594L-269.7197218537086 -7.494033337052911L-273.75213171235555 -12.80396269350675L-279.3660274369211 -18.380439312912856L-278.96732746463465 -23.67378386446816L-279.30932296855025 -29.046073719134398L-287.93933006048763 -35.473659508993755L-289.72619827040063 -41.28430722304686L-296.4032484011858 -47.986088275503704L-299.599872070899 -54.35175794717386L-304.318031990202 -61.18896378583011L-307.2313124905787 -67.85948169023737L-303.4234648916257 -73.07830956084256L-301.1652829206 -78.604412036014L-297.179097190921 -83.61323336756168L-294.7309839214625 -88.9881889943328L-289.7722351066794 -93.52138096781157L-281.55037949171475 -96.79929650176344L-278.8702769726396 -101.82994701550051L-276.1009186951358 -106.79387378884634L-271.67855071302074 -111.04967611423585L-271.8536268726637 -117.18470181429223L-274.2028022888807 -124.41399947042001L-272.5578898408047 -129.95428523795528L-265.50800949318375 -132.82871068765147L-268.18394321351735 -140.58670452730053L-265.4702799255661 -145.6460756891142L-261.19430167789255 -149.81173791895858L-252.5043357709728 -151.26089116919715L-248.15718590297482 -155.12470812808257L-243.75481353866195 -158.8783851877208L-239.29982609395816 -162.52122710556577L-234.10451274636827 -165.56438353666874L-227.51868928570659 -167.46706138589192L-231.01588633343107 -176.89095698962362L-228.94349727969947 -182.29245469971232L-221.53807724026706 -183.36564889833525L-215.4576912113161 -185.32747086877998L-213.1661229514011 -190.50598135798128L-210.1355481857996 -195.08854239228182L-208.83349720254074 -201.3852247827503L-200.79606255547438 -201.11993790509024L-194.01714119166502 -201.84292595737847L-194.17534749806526 -209.8291193597899L-191.28699625701935 -214.73557210250272L-187.18132741211582 -218.32368522782951L-184.62256629436337 -223.78996029653757L-187.70488160391162 -236.52229702132016L-181.1349809137396 -237.34999261443167L-178.10272800502912 -242.78681661998718L-173.46759061237992 -246.11992006832043L-172.56137529547846 -254.96631624576904L-169.53851364817527 -261.0284919661837L-163.66501667728792 -262.76057287449964L-156.92043990870278 -262.91222819509306L-150.2295725716892 -262.90364092633854L-145.21803980279574 -265.7046665063134L-139.7629430455459 -267.660679438403L-136.92557020234182 -274.8030763170629L-130.60283402490148 -275.0583514120436L-124.32003338661659 -275.1734886665694L-119.08052726791547 -277.4810760966868L-114.11686542905525 -280.47208401558345L-106.34875542928677 -276.2726750906933L-99.64797807995743 -274.2658796834255L-93.06204747300289 -272.1057444879741L-86.85273820422593 -270.6009793536556L-79.51888502173014 -264.9106357657324L-74.0266336473532 -264.74209040614227L-68.56952378670654 -264.4611038388446L-64.32975439653664 -269.0029381181272L-58.85596791258623 -268.52242357547357L-54.25033692918671 -272.07762534072106L-49.082121812108994 -273.05728077895554L-45.50162366836849 -283.95718534096693L-40.935242085497954 -290.62961211481144L-36.13190925348685 -297.228860560771L-31.1788988753541 -304.58946216271164L-25.258146331395796 -303.44064161009976L-19.87956228639606 -309.7714591224869L-14.231721304333195 -315.16063062342863L-8.165381675676564 -311.9928924145556L-2.193847999578558 -304.48215705982176L-5.531263993628846e-14 -301.10798735221334zM 1.791045943753004e-14 -292.5A 292.5 292.5 0 0 1 171.92718629554838 -236.63747085467213A 292.5 292.5 0 0 1 278.1840310163324 -90.38747085467212A 292.5 292.5 0 0 1 278.1840310163324 90.38747085467219A 292.5 292.5 0 0 1 171.92718629554838 236.63747085467213A 292.5 292.5 0 0 1 1.791045943753004e-14 292.5A 292.5 292.5 0 0 1 -171.9271862955485 236.63747085467207A 292.5 292.5 0 0 1 -278.1840310163324 90.38747085467203A 292.5 292.5 0 0 1 -278.1840310163324 -90.38747085467207A 292.5 292.5 0 0 1 -171.92718629554844 -236.6374708546721A 292.5 292.5 0 0 1 -5.3731378312590116e-14 -292.5z" fill="#a1a1a1" fill-opacity="1.0" fill-rule="evenodd" stroke="none" /></g><g id="skew" transform="translate(901.00234375,500.0)"><clipPath id="clipper_circle_8295193abeb8"><path d="M 1.3134336920855365e-14 -214.50000000000003A 214.50000000000003 214.50000000000003 0 0 1 126.07993661673551 -173.53414529342626A 214.50000000000003 214.50000000000003 0 0 1 204.00162274531047 -66.28414529342622A 214.50000000000003 214.50000000000003 0 0 1 204.00162274531047 66.28414529342629A 214.50000000000003 214.50000000000003 0 0 1 126.07993661673551 173.53414529342626A 214.50000000000003 214.50000000000003 0 0 1 1.3134336920855365e-14 214.50000000000003A 214.50000000000003 214.50000000000003 0 0 1 -126.07993661673558 173.5341452934262A 214.50000000000003 214.50000000000003 0 0 1 -204.00162274531047 66.28414529342616A 214.50000000000003 214.50000000000003 0 0 1 -204.00162274531047 -66.2841452934262A 214.50000000000003 214.50000000000003 0 0 1 -126.07993661673552 -173.53414529342623A 214.50000000000003 214.50000000000003 0 0 1 -3.940301076256609e-14 -214.50000000000003z" fill="white" stroke="none" /></clipPath><path d="M1.3350142049518438e-14 -218.02436520984378L1.3350142049518438e-14 -218.02436520984378L4.030925221625055 -212.56860306265884L7.56793420163043 -199.47364857218543L11.208914968643326 -196.84300923436618L15.212196268405867 -200.19099191564226L18.711704191383173 -196.78225364959133L22.85171178457525 -200.00214440466644L27.422336900732226 -205.39608426394054L32.04399423811527 -209.6304045015575L36.919621635490486 -214.247971076216L41.85318540720326 -218.08532602802666L47.54699953771597 -224.6543478002215L52.77943902111894 -227.95218257932854L56.75678386429495 -225.57894691070607L60.95747823059228 -224.21964433363812L64.65501124355141 -221.1674962107631L68.97398610101077 -220.3407317943195L74.59257947251804 -223.3452896201822L78.79665821552592 -221.84294355945283L84.51122208025535 -224.35139441980093L89.41622144267293 -224.38152721312272L93.15930168862297 -221.46909729630534L100.44824100162003 -226.67375944570335L105.53758750591317 -226.46620513617287L107.10481664155759 -218.89122307884273L112.1856227638793 -218.6729346884946L119.04623090538783 -221.59737680582117L119.72103322936121 -213.06246158761982L125.72477746579055 -214.1363842800336L124.57364329895427 -203.24894441417618L132.14594937589058 -206.70252339117516L138.59870790519705 -207.99808309444248L136.9182510434654 -197.2659989080669L143.7660469115571 -198.96973445969215L150.81419591687202 -200.5997550042044L153.21269041287732 -195.94243573107704L150.96967428962847 -185.70734278112624L156.1331641523144 -184.7877860116606L154.5711554952007 -176.05671715039628L157.8219266023806 -173.02935397603866L158.27867695725146 -167.05557323034705L156.16822659116968 -158.69057699957375L163.4488983419075 -159.9080678032972L165.13916687509655 -155.5445124072668L170.7259177178313 -154.80421918273885L178.52489899388343 -155.81142416498977L181.13868589461984 -152.1397804567836L186.15788405665342 -150.42943597261578L190.33447115990867 -147.92835354562658L194.65401554685272 -145.45064382314993L197.82744603192006 -142.05762451607723L205.96305755601315 -142.05961383896982L209.36466623220016 -138.6225519675587L209.75977304900363 -133.23367131006395L207.75212313705745 -126.49527375157334L208.93573202218485 -121.84705396202367L213.4052128836038 -119.08978426011646L207.97304588243043 -110.94061536916072L211.87442703274155 -107.91240423764768L212.2673922078729 -103.09165188363113L208.58538117689534 -96.45965710622559L201.24122807270396 -88.47141464428917L192.88492147244594 -80.46923390569665L191.74396015480292 -75.75788132520452L196.88843334501217 -73.5061495220632L195.30601702410738 -68.72524808641742L194.21426651170168 -64.22961482926817L197.73299767514663 -61.259535338394365L195.66565226257129 -56.576277010165754L199.9133283642909 -53.718992747321145L201.75887809968387 -50.133513726341505L204.16391087206665 -46.639809605918884L207.4598013948936 -43.271236459590995L208.2429131820808 -39.3301183444811L201.45130159190444 -34.10515524180571L199.6003913294011 -29.91076662539011L205.83314883252024 -26.865222580565913L209.417496480327 -23.304199931402994L208.24838790823065 -19.184615369037953L208.38151140084167 -15.218767320256825L206.0785785900347 -11.127311012118478L209.4636449314503 -7.33053735675218L215.0880856580589 -3.446385074946618L215.31488075628877 0.6327914010346488L217.36245293580672 4.760905060925342L216.5041526250103 8.851336824903846L213.44711173176069 12.783851012072628L212.24043508633665 16.755312089825214L212.03905677048732 20.791423104725876L201.87758207895567 23.667241936438757L208.6024547808229 28.47465480895511L207.96027383360234 32.414437675167356L200.94561759671817 35.23574070556447L197.33392821886014 38.47238956442736L197.06844384945782 42.31406355200783L197.9092589534448 46.43661722876527L197.74600065537382 50.37228182983863L188.91196267282828 51.9552617789461L186.52043813618906 55.12198672275771L186.80640816487897 59.07998591702201L176.9908015023502 59.68991371765395L177.29036030034186 63.55936208840785L182.00097680378272 69.16964742576279L183.6777591735507 73.82200668986L183.90177243396244 77.99377983446972L183.69020484919642 82.0472061213534L188.80372308691327 88.66245837316212L196.06204116801322 96.64955177001225L196.3011317953083 101.43808709292651L198.50640960690112 107.39428496693662L203.98143831489205 115.40842146899782L202.25583253797294 119.55010779986293L197.74684463684238 122.00226465187735L198.06148470650567 127.44322371601811L195.6484199586417 131.20148776424162L190.8660535386789 133.30904858419626L187.5611518068698 136.36354484962575L181.65653677107514 137.40985542515924L181.5662611712172 142.83341111056075L174.48088236627046 142.69690153314303L167.86516761052374 142.68234472614392L161.895989819544 142.98330231638712L159.1452918664091 146.01725453594236L154.35581270251282 147.10941131964017L152.8551088224978 151.31236485861166L155.051434241663 159.41930083522232L151.76478908367122 162.07803253976607L147.54992565410453 163.6897001498283L145.93334584040437 168.2021174001233L146.66180709155637 175.66225642271283L147.80051694135653 184.00816906577154L144.15537898515328 186.6092147099661L143.103322954953 192.69107767497513L137.88747150862682 193.21616206077695L131.8552833976531 192.37566985377242L125.54273579638898 190.82591277853064L119.01593468223376 188.59813398719663L118.6588651761715 196.1774696223185L114.96070006586012 198.4654602251103L109.25018711329004 197.13222030118723L104.22881012469854 196.7813308712381L101.40665923843667 200.55637793310578L97.60757719129217 202.48776052039392L95.5268758590285 208.17203124718623L91.28943679110972 209.3188183642813L85.97954268515545 207.80976129692698L82.26564585081597 210.0191587603939L75.69453293253393 204.58301364720515L70.5683501959233 202.44198600105562L67.60957838789878 206.4679120630369L63.17662373802906 206.0613675105247L59.31379567505499 207.41569729195902L54.85096015198589 206.54611336656947L50.50072948620783 205.81944859733588L48.41058281903288 214.8213444330397L45.018039126629816 219.05352008645167L40.13055944492657 215.95948324160705L36.84345733415632 221.58062457268267L32.5427314443659 221.6057642226788L27.581600004894383 216.27269630335994L22.861948270951814 211.0852199904224L18.84226233109522 211.32931616769503L14.678284925976756 209.45268245632855L10.468621231469754 205.0722082706043L6.2407228145954745 194.6910269220353L2.5313112017497366 193.4719889724791L-1.1333378303754826 192.81424472278718L-4.662008562744142 187.65445144077063L-8.509572365527996 194.1620484168102L-12.342992086609021 196.41206367730675L-16.427404361130673 200.57177583379288L-20.215853043690355 200.11196614906373L-23.668132627206475 196.88014670627274L-27.944580945476357 200.3240494131271L-32.097852125531666 202.02562368848646L-35.62263172941974 199.70028776440608L-40.09850510612626 202.50418833109313L-44.329999528148676 203.5410064839059L-47.530061235806265 199.9255951242816L-51.95255100904778 201.47252428571872L-56.429666465907076 202.84764656181892L-60.31114568156252 201.89437652670745L-64.5441014910553 202.01657324407648L-68.69576345216915 201.73480242905788L-72.82983142770068 201.2849829311086L-77.49787685105122 202.12366115633554L-81.00026068085529 199.83874756865717L-86.05029612853028 201.25076157694235L-87.44667142875991 194.2436492060735L-94.27468827916114 199.23086375204414L-98.61858841909944 198.58265465473L-102.4811645284748 196.89866580074897L-107.04806614089567 196.48450446208784L-109.81607888319775 192.77302575249843L-112.7521831080168 189.48156384333583L-115.72635935379202 186.34679396392505L-118.41634275835537 182.8495059685492L-119.40380783196632 176.92933722265366L-128.0177069980335 182.1474688227205L-129.5273212685773 177.061861612213L-129.5347869509301 170.20367947554604L-131.42947384322093 166.06321090006352L-136.17340599421723 165.5093957790528L-137.550604629741 160.86723103418237L-144.86609001174511 163.05946458787878L-147.9816338560225 160.33779389864293L-149.61685244688803 156.06579941952438L-152.5488932183537 153.20108179260484L-149.37503085475922 144.43052454675757L-145.93607630128128 135.84723538342286L-147.16683909620986 131.8743523251737L-149.30283573981922 128.7690696528619L-148.253787197905 123.04064724079218L-151.37237607830377 120.85636809749512L-151.2731940637979 116.150073674868L-151.82767198314386 112.06503874445484L-153.6253476386822 108.95373755592058L-157.05202031870866 106.96723956204733L-162.12497514154342 105.97925416925631L-169.90290202630618 106.52131541918817L-177.51934474599534 106.66209284546707L-177.96006364267737 102.38568623489142L-183.30613888659565 100.88477176580642L-185.9694254594545 97.80329481964266L-185.65466651531537 93.18785701300088L-189.63282950794098 90.7251198629335L-194.12355184957877 88.39053205916652L-195.7645014109852 84.69415285429696L-195.9475840799534 80.39803391355133L-195.37816501898686 75.86915025042103L-190.01421368380758 69.66996839823238L-192.66585876381433 66.52615209715226L-189.5516880276386 61.45400761032825L-191.81720499790993 58.193318760162L-194.2128255911203 54.92129418432994L-196.1795985733842 51.48126580821276L-200.28986600846724 48.520345325268124L-202.4257219722564 44.992485629955L-197.95688556569155 40.07645285735359L-195.06117489356677 35.654402894599265L-197.20411388493503 32.19493959071836L-202.47545792452382 29.125824899027698L-204.047636878566 25.413315804244547L-205.82762412734684 21.68070505159686L-203.5294456185377 17.544068472773898L-199.85173843772262 13.415348486719376L-203.21751326441668 9.775237044204495L-206.87868277591434 6.022826441573344L-215.51257175965557 2.186225033335296L-216.26093500729337 -1.9067592301746967L-217.87197062393835 -6.0534683924625154L-214.79737214655813 -10.046524651423146L-216.79141709229344 -14.263443275417588L-214.11046264101643 -18.16988699627304L-213.6583589195334 -22.218866086989948L-216.3165470160982 -26.649848540657228L-211.23746173822482 -30.100116314916022L-205.51361413859885 -33.271546391841625L-203.7603160474608 -36.96507378491286L-205.06826042611408 -41.23289796130343L-206.15827388074902 -45.53505141872747L-203.59363616715953 -49.034700641083695L-201.940209576005 -52.70657788380016L-200.21493715316996 -56.33174884135535L-195.11530602609335 -58.91120606771297L-196.0705713353486 -63.28001228854427L-188.93307020256924 -64.95671685665467L-189.2489439275208 -69.10456769392313L-183.73476752279964 -71.06730273186365L-180.15495388572822 -73.63904594926265L-176.1195596890377 -75.9177588441423L-175.85193528257938 -79.78927421780898L-171.2615846618068 -81.65669625797305L-165.549195517652 -82.82117830630708L-166.02109716011915 -87.03115724256938L-159.3059353373368 -87.40068501216957L-160.69367442448262 -92.1681617227741L-155.13100745534612 -92.93010499809613L-152.9754545252549 -95.62597451144963L-151.73502500877595 -98.90026539307325L-149.7180520920169 -101.68148444995444L-145.6946413573442 -103.03878040599174L-144.32805761851918 -106.23389120598956L-147.08327070104806 -112.62299283574056L-146.7793703844356 -116.8706342157793L-147.12360795694255 -121.77326885450461L-143.1206132058308 -123.10621693523677L-142.8814958250351 -127.69280222941592L-144.6544578333039 -134.29630337601353L-142.0822617724892 -137.014744320176L-141.1357181368771 -141.36336393566978L-142.25218217950462 -147.98999974218134L-142.0561265456428 -153.50821984769257L-140.50901317483488 -157.73306037549887L-139.35682641735536 -162.5423664087267L-137.80893028644996 -167.04488327900856L-135.62306382178556 -170.89528151903613L-132.7043804981156 -173.88901675557744L-128.97436838897164 -175.81581527402392L-125.75064674613458 -178.41799160545577L-120.7542238668988 -178.41918319056677L-113.36361639887919 -174.53930198916106L-109.25204327431412 -175.40174474226623L-105.31939170974974 -176.45729238760853L-99.0141558013274 -173.27601761626994L-92.97661447689954 -170.11881151969013L-91.83608271015856 -175.87572041289943L-87.95102076067474 -176.51349586891055L-85.4842071625432 -180.03548904162054L-84.22109444778006 -186.4173596739653L-81.49535419655894 -189.90022212838048L-82.12867541693218 -201.85272934916685L-78.13677125918562 -202.9836149147833L-74.50865560107576 -205.07372418596657L-70.52024952056635 -206.19538811284036L-66.47050930231023 -207.09749959807536L-60.371022259515875 -201.1211032979794L-57.42386388500897 -205.3654612546145L-53.39883670642156 -205.95031902246131L-48.78957011190016 -204.01970802997656L-45.96082286434287 -209.6900617348811L-41.18280790160666 -206.54103205585756L-37.51752972112181 -208.72028895592234L-34.70875595052209 -216.60327372555452L-31.848324869429348 -226.1148543833305L-27.711494601228722 -227.96071768513877L-24.365630944884483 -238.03003609675102L-19.770486012914887 -237.51422143142184L-14.972108300512105 -233.30150672197405L-10.438302065199638 -231.1555848486517L-5.983798491171088 -228.63629319956252L-1.5945976981579604 -221.31275588419655zM 1.3134336920855365e-14 -214.50000000000003A 214.50000000000003 214.50000000000003 0 0 1 126.07993661673551 -173.53414529342626A 214.50000000000003 214.50000000000003 0 0 1 204.00162274531047 -66.28414529342622A 214.50000000000003 214.50000000000003 0 0 1 204.00162274531047 66.28414529342629A 214.50000000000003 214.50000000000003 0 0 1 126.07993661673551 173.53414529342626A 214.50000000000003 214.50000000000003 0 0 1 1.3134336920855365e-14 214.50000000000003A 214.50000000000003 214.50000000000003 0 0 1 -126.07993661673558 173.5341452934262A 214.50000000000003 214.50000000000003 0 0 1 -204.00162274531047 66.28414529342616A 214.50000000000003 214.50000000000003 0 0 1 -204.00162274531047 -66.2841452934262A 214.50000000000003 214.50000000000003 0 0 1 -126.07993661673552 -173.53414529342623A 214.50000000000003 214.50000000000003 0 0 1 -3.940301076256609e-14 -214.50000000000003z" fill="#6dded3" fill-opacity="1.0" fill-rule="evenodd" stroke="none" /><path clip-path="url(#clipper_circle_8295193abeb8)" clip-rule="nonzero" d="M1.3350142049518438e-14 -218.02436520984378L1.3350142049518438e-14 -218.02436520984378L4.030925221625055 -212.56860306265884L7.56793420163043 -199.47364857218543L11.208914968643326 -196.84300923436618L15.212196268405867 -200.19099191564226L18.711704191383173 -196.78225364959133L22.85171178457525 -200.00214440466644L27.422336900732226 -205.39608426394054L32.04399423811527 -209.6304045015575L36.919621635490486 -214.247971076216L41.85318540720326 -218.08532602802666L47.54699953771597 -224.6543478002215L52.77943902111894 -227.95218257932854L56.75678386429495 -225.57894691070607L60.95747823059228 -224.21964433363812L64.65501124355141 -221.1674962107631L68.97398610101077 -220.3407317943195L74.59257947251804 -223.3452896201822L78.79665821552592 -221.84294355945283L84.51122208025535 -224.35139441980093L89.41622144267293 -224.38152721312272L93.15930168862297 -221.46909729630534L100.44824100162003 -226.67375944570335L105.53758750591317 -226.46620513617287L107.10481664155759 -218.89122307884273L112.1856227638793 -218.6729346884946L119.04623090538783 -221.59737680582117L119.72103322936121 -213.06246158761982L125.72477746579055 -214.1363842800336L124.57364329895427 -203.24894441417618L132.14594937589058 -206.70252339117516L138.59870790519705 -207.99808309444248L136.9182510434654 -197.2659989080669L143.7660469115571 -198.96973445969215L150.81419591687202 -200.5997550042044L153.21269041287732 -195.94243573107704L150.96967428962847 -185.70734278112624L156.1331641523144 -184.7877860116606L154.5711554952007 -176.05671715039628L157.8219266023806 -173.02935397603866L158.27867695725146 -167.05557323034705L156.16822659116968 -158.69057699957375L163.4488983419075 -159.9080678032972L165.13916687509655 -155.5445124072668L170.7259177178313 -154.80421918273885L178.52489899388343 -155.81142416498977L181.13868589461984 -152.1397804567836L186.15788405665342 -150.42943597261578L190.33447115990867 -147.92835354562658L194.65401554685272 -145.45064382314993L197.82744603192006 -142.05762451607723L205.96305755601315 -142.05961383896982L209.36466623220016 -138.6225519675587L209.75977304900363 -133.23367131006395L207.75212313705745 -126.49527375157334L208.93573202218485 -121.84705396202367L213.4052128836038 -119.08978426011646L207.97304588243043 -110.94061536916072L211.87442703274155 -107.91240423764768L212.2673922078729 -103.09165188363113L208.58538117689534 -96.45965710622559L201.24122807270396 -88.47141464428917L192.88492147244594 -80.46923390569665L191.74396015480292 -75.75788132520452L196.88843334501217 -73.5061495220632L195.30601702410738 -68.72524808641742L194.21426651170168 -64.22961482926817L197.73299767514663 -61.259535338394365L195.66565226257129 -56.576277010165754L199.9133283642909 -53.718992747321145L201.75887809968387 -50.133513726341505L204.16391087206665 -46.639809605918884L207.4598013948936 -43.271236459590995L208.2429131820808 -39.3301183444811L201.45130159190444 -34.10515524180571L199.6003913294011 -29.91076662539011L205.83314883252024 -26.865222580565913L209.417496480327 -23.304199931402994L208.24838790823065 -19.184615369037953L208.38151140084167 -15.218767320256825L206.0785785900347 -11.127311012118478L209.4636449314503 -7.33053735675218L215.0880856580589 -3.446385074946618L215.31488075628877 0.6327914010346488L217.36245293580672 4.760905060925342L216.5041526250103 8.851336824903846L213.44711173176069 12.783851012072628L212.24043508633665 16.755312089825214L212.03905677048732 20.791423104725876L201.87758207895567 23.667241936438757L208.6024547808229 28.47465480895511L207.96027383360234 32.414437675167356L200.94561759671817 35.23574070556447L197.33392821886014 38.47238956442736L197.06844384945782 42.31406355200783L197.9092589534448 46.43661722876527L197.74600065537382 50.37228182983863L188.91196267282828 51.9552617789461L186.52043813618906 55.12198672275771L186.80640816487897 59.07998591702201L176.9908015023502 59.68991371765395L177.29036030034186 63.55936208840785L182.00097680378272 69.16964742576279L183.6777591735507 73.82200668986L183.90177243396244 77.99377983446972L183.69020484919642 82.0472061213534L188.80372308691327 88.66245837316212L196.06204116801322 96.64955177001225L196.3011317953083 101.43808709292651L198.50640960690112 107.39428496693662L203.98143831489205 115.40842146899782L202.25583253797294 119.55010779986293L197.74684463684238 122.00226465187735L198.06148470650567 127.44322371601811L195.6484199586417 131.20148776424162L190.8660535386789 133.30904858419626L187.5611518068698 136.36354484962575L181.65653677107514 137.40985542515924L181.5662611712172 142.83341111056075L174.48088236627046 142.69690153314303L167.86516761052374 142.68234472614392L161.895989819544 142.98330231638712L159.1452918664091 146.01725453594236L154.35581270251282 147.10941131964017L152.8551088224978 151.31236485861166L155.051434241663 159.41930083522232L151.76478908367122 162.07803253976607L147.54992565410453 163.6897001498283L145.93334584040437 168.2021174001233L146.66180709155637 175.66225642271283L147.80051694135653 184.00816906577154L144.15537898515328 186.6092147099661L143.103322954953 192.69107767497513L137.88747150862682 193.21616206077695L131.8552833976531 192.37566985377242L125.54273579638898 190.82591277853064L119.01593468223376 188.59813398719663L118.6588651761715 196.1774696223185L114.96070006586012 198.4654602251103L109.25018711329004 197.13222030118723L104.22881012469854 196.7813308712381L101.40665923843667 200.55637793310578L97.60757719129217 202.48776052039392L95.5268758590285 208.17203124718623L91.28943679110972 209.3188183642813L85.97954268515545 207.80976129692698L82.26564585081597 210.0191587603939L75.69453293253393 204.58301364720515L70.5683501959233 202.44198600105562L67.60957838789878 206.4679120630369L63.17662373802906 206.0613675105247L59.31379567505499 207.41569729195902L54.85096015198589 206.54611336656947L50.50072948620783 205.81944859733588L48.41058281903288 214.8213444330397L45.018039126629816 219.05352008645167L40.13055944492657 215.95948324160705L36.84345733415632 221.58062457268267L32.5427314443659 221.6057642226788L27.581600004894383 216.27269630335994L22.861948270951814 211.0852199904224L18.84226233109522 211.32931616769503L14.678284925976756 209.45268245632855L10.468621231469754 205.0722082706043L6.2407228145954745 194.6910269220353L2.5313112017497366 193.4719889724791L-1.1333378303754826 192.81424472278718L-4.662008562744142 187.65445144077063L-8.509572365527996 194.1620484168102L-12.342992086609021 196.41206367730675L-16.427404361130673 200.57177583379288L-20.215853043690355 200.11196614906373L-23.668132627206475 196.88014670627274L-27.944580945476357 200.3240494131271L-32.097852125531666 202.02562368848646L-35.62263172941974 199.70028776440608L-40.09850510612626 202.50418833109313L-44.329999528148676 203.5410064839059L-47.530061235806265 199.9255951242816L-51.95255100904778 201.47252428571872L-56.429666465907076 202.84764656181892L-60.31114568156252 201.89437652670745L-64.5441014910553 202.01657324407648L-68.69576345216915 201.73480242905788L-72.82983142770068 201.2849829311086L-77.49787685105122 202.12366115633554L-81.00026068085529 199.83874756865717L-86.05029612853028 201.25076157694235L-87.44667142875991 194.2436492060735L-94.27468827916114 199.23086375204414L-98.61858841909944 198.58265465473L-102.4811645284748 196.89866580074897L-107.04806614089567 196.48450446208784L-109.81607888319775 192.77302575249843L-112.7521831080168 189.48156384333583L-115.72635935379202 186.34679396392505L-118.41634275835537 182.8495059685492L-119.40380783196632 176.92933722265366L-128.0177069980335 182.1474688227205L-129.5273212685773 177.061861612213L-129.5347869509301 170.20367947554604L-131.42947384322093 166.06321090006352L-136.17340599421723 165.5093957790528L-137.550604629741 160.86723103418237L-144.86609001174511 163.05946458787878L-147.9816338560225 160.33779389864293L-149.61685244688803 156.06579941952438L-152.5488932183537 153.20108179260484L-149.37503085475922 144.43052454675757L-145.93607630128128 135.84723538342286L-147.16683909620986 131.8743523251737L-149.30283573981922 128.7690696528619L-148.253787197905 123.04064724079218L-151.37237607830377 120.85636809749512L-151.2731940637979 116.150073674868L-151.82767198314386 112.06503874445484L-153.6253476386822 108.95373755592058L-157.05202031870866 106.96723956204733L-162.12497514154342 105.97925416925631L-169.90290202630618 106.52131541918817L-177.51934474599534 106.66209284546707L-177.96006364267737 102.38568623489142L-183.30613888659565 100.88477176580642L-185.9694254594545 97.80329481964266L-185.65466651531537 93.18785701300088L-189.63282950794098 90.7251198629335L-194.12355184957877 88.39053205916652L-195.7645014109852 84.69415285429696L-195.9475840799534 80.39803391355133L-195.37816501898686 75.86915025042103L-190.01421368380758 69.66996839823238L-192.66585876381433 66.52615209715226L-189.5516880276386 61.45400761032825L-191.81720499790993 58.193318760162L-194.2128255911203 54.92129418432994L-196.1795985733842 51.48126580821276L-200.28986600846724 48.520345325268124L-202.4257219722564 44.992485629955L-197.95688556569155 40.07645285735359L-195.06117489356677 35.654402894599265L-197.20411388493503 32.19493959071836L-202.47545792452382 29.125824899027698L-204.047636878566 25.413315804244547L-205.82762412734684 21.68070505159686L-203.5294456185377 17.544068472773898L-199.85173843772262 13.415348486719376L-203.21751326441668 9.775237044204495L-206.87868277591434 6.022826441573344L-215.51257175965557 2.186225033335296L-216.26093500729337 -1.9067592301746967L-217.87197062393835 -6.0534683924625154L-214.79737214655813 -10.046524651423146L-216.79141709229344 -14.263443275417588L-214.11046264101643 -18.16988699627304L-213.6583589195334 -22.218866086989948L-216.3165470160982 -26.649848540657228L-211.23746173822482 -30.100116314916022L-205.51361413859885 -33.271546391841625L-203.7603160474608 -36.96507378491286L-205.06826042611408 -41.23289796130343L-206.15827388074902 -45.53505141872747L-203.59363616715953 -49.034700641083695L-201.940209576005 -52.70657788380016L-200.21493715316996 -56.33174884135535L-195.11530602609335 -58.91120606771297L-196.0705713353486 -63.28001228854427L-188.93307020256924 -64.95671685665467L-189.2489439275208 -69.10456769392313L-183.73476752279964 -71.06730273186365L-180.15495388572822 -73.63904594926265L-176.1195596890377 -75.9177588441423L-175.85193528257938 -79.78927421780898L-171.2615846618068 -81.65669625797305L-165.549195517652 -82.82117830630708L-166.02109716011915 -87.03115724256938L-159.3059353373368 -87.40068501216957L-160.69367442448262 -92.1681617227741L-155.13100745534612 -92.93010499809613L-152.9754545252549 -95.62597451144963L-151.73502500877595 -98.90026539307325L-149.7180520920169 -101.68148444995444L-145.6946413573442 -103.03878040599174L-144.32805761851918 -106.23389120598956L-147.08327070104806 -112.62299283574056L-146.7793703844356 -116.8706342157793L-147.12360795694255 -121.77326885450461L-143.1206132058308 -123.10621693523677L-142.8814958250351 -127.69280222941592L-144.6544578333039 -134.29630337601353L-142.0822617724892 -137.014744320176L-141.1357181368771 -141.36336393566978L-142.25218217950462 -147.98999974218134L-142.0561265456428 -153.50821984769257L-140.50901317483488 -157.73306037549887L-139.35682641735536 -162.5423664087267L-137.80893028644996 -167.04488327900856L-135.62306382178556 -170.89528151903613L-132.7043804981156 -173.88901675557744L-128.97436838897164 -175.81581527402392L-125.75064674613458 -178.41799160545577L-120.7542238668988 -178.41918319056677L-113.36361639887919 -174.53930198916106L-109.25204327431412 -175.40174474226623L-105.31939170974974 -176.45729238760853L-99.0141558013274 -173.27601761626994L-92.97661447689954 -170.11881151969013L-91.83608271015856 -175.87572041289943L-87.95102076067474 -176.51349586891055L-85.4842071625432 -180.03548904162054L-84.22109444778006 -186.4173596739653L-81.49535419655894 -189.90022212838048L-82.12867541693218 -201.85272934916685L-78.13677125918562 -202.9836149147833L-74.50865560107576 -205.07372418596657L-70.52024952056635 -206.19538811284036L-66.47050930231023 -207.09749959807536L-60.371022259515875 -201.1211032979794L-57.42386388500897 -205.3654612546145L-53.39883670642156 -205.95031902246131L-48.78957011190016 -204.01970802997656L-45.96082286434287 -209.6900617348811L-41.18280790160666 -206.54103205585756L-37.51752972112181 -208.72028895592234L-34.70875595052209 -216.60327372555452L-31.848324869429348 -226.1148543833305L-27.711494601228722 -227.96071768513877L-24.365630944884483 -238.03003609675102L-19.770486012914887 -237.51422143142184L-14.972108300512105 -233.30150672197405L-10.438302065199638 -231.1555848486517L-5.983798491171088 -228.63629319956252L-1.5945976981579604 -221.31275588419655zM 1.3134336920855365e-14 -214.50000000000003A 214.50000000000003 214.50000000000003 0 0 1 126.07993661673551 -173.53414529342626A 214.50000000000003 214.50000000000003 0 0 1 204.00162274531047 -66.28414529342622A 214.50000000000003 214.50000000000003 0 0 1 204.00162274531047 66.28414529342629A 214.50000000000003 214.50000000000003 0 0 1 126.07993661673551 173.53414529342626A 214.50000000000003 214.50000000000003 0 0 1 1.3134336920855365e-14 214.50000000000003A 214.50000000000003 214.50000000000003 0 0 1 -126.07993661673558 173.5341452934262A 214.50000000000003 214.50000000000003 0 0 1 -204.00162274531047 66.28414529342616A 214.50000000000003 214.50000000000003 0 0 1 -204.00162274531047 -66.2841452934262A 214.50000000000003 214.50000000000003 0 0 1 -126.07993661673552 -173.53414529342623A 214.50000000000003 214.50000000000003 0 0 1 -3.940301076256609e-14 -214.50000000000003z" fill="#ad72e3" fill-opacity="1.0" fill-rule="evenodd" stroke="none" /></g><g id="label_text" transform="translate(901.00234375,500.0)"><text dominant-baseline="middle" font-family="'Liberation Sans', 'Arial', 'Helvetica', 'Nimbus Sans L', sans-serif" font-size="20.0" font-weight="normal" text-anchor="start" x="103.07261560355786" y="-436.4954592119386">tRNA-Phe</text><text dominant-baseline="middle" font-family="'Liberation Sans', 'Arial', 'Helvetica', 'Nimbus Sans L', sans-serif" font-size="20.0" font-weight="normal" text-anchor="start" x="260.66849765166774" y="-364.97148427243246">tRNA-Val</text><text dominant-baseline="middle" font-family="'Liberation Sans', 'Arial', 'Helvetica', 'Nimbus Sans L', sans-serif" font-size="20.0" font-weight="normal" text-anchor="start" x="423.99443266213115" y="-146.22233437993484">tRNA-Leu</text><text dominant-baseline="middle" font-family="'Liberation Sans', 'Arial', 'Helvetica', 'Nimbus Sans L', sans-serif" font-size="20.0" font-weight="normal" text-anchor="start" x="444.3675848981395" y="-60.74289663651836">NADH dehydrogenase subunit 1</text><text dominant-baseline="middle" font-family="'Liberation Sans', 'Arial', 'Helvetica', 'Nimbus Sans L', sans-serif" font-size="20.0" font-weight="normal" text-anchor="start" x="448.26586388048844" y="14.490178724892182">tRNA-Ile</text><text dominant-baseline="middle" font-family="'Liberation Sans', 'Arial', 'Helvetica', 'Nimbus Sans L', sans-serif" font-size="20.0" font-weight="normal" text-anchor="start" x="446.9152129327563" y="37.6701798412096">tRNA-Gln</text><text dominant-baseline="middle" font-family="'Liberation Sans', 'Arial', 'Helvetica', 'Nimbus Sans L', sans-serif" font-size="20.0" font-weight="normal" text-anchor="start" x="444.28570049927447" y="61.33894628919641">tRNA-Met</text><text dominant-baseline="middle" font-family="'Liberation Sans', 'Arial', 'Helvetica', 'Nimbus Sans L', sans-serif" font-size="20.0" font-weight="normal" text-anchor="start" x="425.5230876077478" y="141.71221511489034">NADH dehydrogenase subunit 2</text><text dominant-baseline="middle" font-family="'Liberation Sans', 'Arial', 'Helvetica', 'Nimbus Sans L', sans-serif" font-size="20.0" font-weight="normal" text-anchor="start" x="386.52804966772317" y="227.48256377152532">tRNA-Trp</text><text dominant-baseline="middle" font-family="'Liberation Sans', 'Arial', 'Helvetica', 'Nimbus Sans L', sans-serif" font-size="20.0" font-weight="normal" text-anchor="start" x="370.20303565071777" y="253.18365349088657">tRNA-Ala</text><text dominant-baseline="middle" font-family="'Liberation Sans', 'Arial', 'Helvetica', 'Nimbus Sans L', sans-serif" font-size="20.0" font-weight="normal" text-anchor="start" x="353.7465261375634" y="275.7093492168993">tRNA-Asn</text><text dominant-baseline="middle" font-family="'Liberation Sans', 'Arial', 'Helvetica', 'Nimbus Sans L', sans-serif" font-size="20.0" font-weight="normal" text-anchor="start" x="332.6902052979133" y="300.7814444057882">tRNA-Cys</text><text dominant-baseline="middle" font-family="'Liberation Sans', 'Arial', 'Helvetica', 'Nimbus Sans L', sans-serif" font-size="20.0" font-weight="normal" text-anchor="start" x="305.71219146173775" y="328.16505906580267">tRNA-Tyr</text><text dominant-baseline="middle" font-family="'Liberation Sans', 'Arial', 'Helvetica', 'Nimbus Sans L', sans-serif" font-size="20.0" font-weight="normal" text-anchor="start" x="257.1967844548431" y="367.4262702449145">cytochrome c oxidase subunit I</text><text dominant-baseline="middle" font-family="'Liberation Sans', 'Arial', 'Helvetica', 'Nimbus Sans L', sans-serif" font-size="20.0" font-weight="normal" text-anchor="start" x="134.79558432491413" y="427.7644216698075">tRNA-Ser</text><text dominant-baseline="middle" font-family="'Liberation Sans', 'Arial', 'Helvetica', 'Nimbus Sans L', sans-serif" font-size="20.0" font-weight="normal" text-anchor="start" x="26.887949696223068" y="447.6932969803472">tRNA-Asp</text><text dominant-baseline="hanging" font-family="'Liberation Sans', 'Arial', 'Helvetica', 'Nimbus Sans L', sans-serif" font-size="20.0" font-weight="normal" text-anchor="end" x="-1.8198207128431019" y="448.4963079586866">cytochrome c oxidase subunit II</text><text dominant-baseline="hanging" font-family="'Liberation Sans', 'Arial', 'Helvetica', 'Nimbus Sans L', sans-serif" font-size="20.0" font-weight="normal" text-anchor="end" x="-145.77205590965394" y="424.1494520989891">tRNA-Lys</text><text dominant-baseline="hanging" font-family="'Liberation Sans', 'Arial', 'Helvetica', 'Nimbus Sans L', sans-serif" font-size="20.0" font-weight="normal" text-anchor="end" x="-210.54297883539996" y="396.00997975192024">ATP synthase F0 subunit 8</text><text dominant-baseline="middle" font-family="'Liberation Sans', 'Arial', 'Helvetica', 'Nimbus Sans L', sans-serif" font-size="20.0" font-weight="normal" text-anchor="end" x="-238.6325870511225" y="379.74562327601404">ATP synthase F0 subunit 6</text><text dominant-baseline="middle" font-family="'Liberation Sans', 'Arial', 'Helvetica', 'Nimbus Sans L', sans-serif" font-size="20.0" font-weight="normal" text-anchor="end" x="-279.43567337800346" y="350.81042522106117">cytochrome c oxidase subunit III</text><text dominant-baseline="middle" font-family="'Liberation Sans', 'Arial', 'Helvetica', 'Nimbus Sans L', sans-serif" font-size="20.0" font-weight="normal" text-anchor="end" x="-311.80575277215695" y="322.3808656514659">tRNA-Gly</text><text dominant-baseline="middle" font-family="'Liberation Sans', 'Arial', 'Helvetica', 'Nimbus Sans L', sans-serif" font-size="20.0" font-weight="normal" text-anchor="end" x="-338.7040396706867" y="293.9928970413364">NADH dehydrogenase subunit 3</text><text dominant-baseline="middle" font-family="'Liberation Sans', 'Arial', 'Helvetica', 'Nimbus Sans L', sans-serif" font-size="20.0" font-weight="normal" text-anchor="end" x="-361.72371540005884" y="265.1569416726199">tRNA-Arg</text><text dominant-baseline="middle" font-family="'Liberation Sans', 'Arial', 'Helvetica', 'Nimbus Sans L', sans-serif" font-size="20.0" font-weight="normal" text-anchor="end" x="-381.1349679922977" y="236.4072464488137">NADH dehydrogenase subunit 4L</text><text dominant-baseline="middle" font-family="'Liberation Sans', 'Arial', 'Helvetica', 'Nimbus Sans L', sans-serif" font-size="20.0" font-weight="normal" text-anchor="end" x="-417.96120834687423" y="162.66738553631686">NADH dehydrogenase subunit 4</text><text dominant-baseline="middle" font-family="'Liberation Sans', 'Arial', 'Helvetica', 'Nimbus Sans L', sans-serif" font-size="20.0" font-weight="normal" text-anchor="end" x="-445.1130199828449" y="55.0149928814997">tRNA-His</text><text dominant-baseline="middle" font-family="'Liberation Sans', 'Arial', 'Helvetica', 'Nimbus Sans L', sans-serif" font-size="20.0" font-weight="normal" text-anchor="end" x="-447.32100459362084" y="32.498751504539">tRNA-Ser</text><text dominant-baseline="middle" font-family="'Liberation Sans', 'Arial', 'Helvetica', 'Nimbus Sans L', sans-serif" font-size="20.0" font-weight="normal" text-anchor="end" x="-448.39444850036875" y="9.72977667010595">tRNA-Leu</text><text dominant-baseline="middle" font-family="'Liberation Sans', 'Arial', 'Helvetica', 'Nimbus Sans L', sans-serif" font-size="20.0" font-weight="normal" text-anchor="end" x="-425.37355854824534" y="-142.16042236854278">NADH dehydrogenase subunit 5</text><text dominant-baseline="middle" font-family="'Liberation Sans', 'Arial', 'Helvetica', 'Nimbus Sans L', sans-serif" font-size="20.0" font-weight="normal" text-anchor="end" x="-327.4693557686446" y="-306.45729071514813">NADH dehydrogenase subunit 6</text><text dominant-baseline="middle" font-family="'Liberation Sans', 'Arial', 'Helvetica', 'Nimbus Sans L', sans-serif" font-size="20.0" font-weight="normal" text-anchor="end" x="-290.95238168710114" y="-341.3194421514886">tRNA-Glu</text><text dominant-baseline="middle" font-family="'Liberation Sans', 'Arial', 'Helvetica', 'Nimbus Sans L', sans-serif" font-size="20.0" font-weight="normal" text-anchor="end" x="-109.26916803991358" y="-434.98563070044634">tRNA-Thr</text><text dominant-baseline="middle" font-family="'Liberation Sans', 'Arial', 'Helvetica', 'Nimbus Sans L', sans-serif" font-size="20.0" font-weight="normal" text-anchor="end" x="-10.581007069028892" y="-448.37516912670924">tRNA-Pro</text></g><g id="NC_012920.1_definition" transform="translate(901.00234375,500.0)"><text dominant-baseline="middle" font-family="'Liberation Sans', 'Arial', 'Helvetica', 'Nimbus Sans L', sans-serif" font-size="28.0" font-weight="bold" text-anchor="middle" x="2.388061258337339e-14" y="-90.0"><tspan font-style="italic">Homo sapiens</tspan></text><text dominant-baseline="middle" font-family="'Liberation Sans', 'Arial', 'Helvetica', 'Nimbus Sans L', sans-serif" font-size="28.0" font-weight="bold" text-anchor="middle" x="2.388061258337339e-14" y="-30.0"><tspan>mitochondrion</tspan></text><text dominant-baseline="middle" font-family="'Liberation Sans', 'Arial', 'Helvetica', 'Nimbus Sans L', sans-serif" font-size="28.0" font-weight="normal" text-anchor="middle" x="2.388061258337339e-14" y="30.0">NC_012920.1</text><text dominant-baseline="middle" font-family="'Liberation Sans', 'Arial', 'Helvetica', 'Nimbus Sans L', sans-serif" font-size="28.0" font-weight="normal" text-anchor="middle" x="2.388061258337339e-14" y="90.0">16,569 bp</text><text dominant-baseline="middle" font-family="'Liberation Sans', 'Arial', 'Helvetica', 'Nimbus Sans L', sans-serif" font-size="28.0" font-weight="normal" text-anchor="middle" x="2.388061258337339e-14" y="150.0">44.36% GC</text></g><g id="legend" transform="translate(38.0,385.14285714285717)"><path d="M 0,-12.0 L 155.24032738095238,-12.0 L 155.24032738095238,217.7142857142857 L 0,217.7142857142857 z" fill="none" stroke="none" stroke-width="0" /><g data-legend-key="tRNA"><path d="M 0,-12.0 L 24.0,-12.0 L 24.0,12.0 L 0,12.0 z" fill="#e8b441" stroke="gray" stroke-width="2.0" transform="translate(0.0,0.0)" /><text dominant-baseline="central" font-family="'Liberation Sans', 'Arial', 'Helvetica', 'Nimbus Sans L', sans-serif" font-size="20.0" font-weight="normal" text-anchor="start" transform="translate(37.714285714285715,0.0)" x="0" y="0">tRNA</text></g><g data-legend-key="rRNA"><path d="M 0,-12.0 L 24.0,-12.0 L 24.0,12.0 L 0,12.0 z" fill="#71ee7d" stroke="gray" stroke-width="2.0" transform="translate(0.0,41.14285714285714)" /><text dominant-baseline="central" font-family="'Liberation Sans', 'Arial', 'Helvetica', 'Nimbus Sans L', sans-serif" font-size="20.0" font-weight="normal" text-anchor="start" transform="translate(37.714285714285715,41.14285714285714)" x="0" y="0">rRNA</text></g><g data-legend-key="CDS"><path d="M 0,-12.0 L 24.0,-12.0 L 24.0,12.0 L 0,12.0 z" fill="#54bcf8" stroke="gray" stroke-width="2.0" transform="translate(0.0,82.28571428571428)" /><text dominant-baseline="central" font-family="'Liberation Sans', 'Arial', 'Helvetica', 'Nimbus Sans L', sans-serif" font-size="20.0" font-weight="normal" text-anchor="start" transform="translate(37.714285714285715,82.28571428571428)" x="0" y="0">CDS</text></g><g data-legend-key="GC content"><path d="M 0,-12.0 L 24.0,-12.0 L 24.0,12.0 L 0,12.0 z" fill="#a1a1a1" stroke="none" stroke-width="0.0" transform="translate(0.0,123.42857142857142)" /><text dominant-baseline="central" font-family="'Liberation Sans', 'Arial', 'Helvetica', 'Nimbus Sans L', sans-serif" font-size="20.0" font-weight="normal" text-anchor="start" transform="translate(37.714285714285715,123.42857142857142)" x="0" y="0">GC content</text></g><g data-legend-key="GC skew (+)"><path d="M 0,-12.0 L 24.0,-12.0 L 24.0,12.0 L 0,12.0 z" fill="#6dded3" stroke="none" stroke-width="0.0" transform="translate(0.0,164.57142857142856)" /><text dominant-baseline="central" font-family="'Liberation Sans', 'Arial', 'Helvetica', 'Nimbus Sans L', sans-serif" font-size="20.0" font-weight="normal" text-anchor="start" transform="translate(37.714285714285715,164.57142857142856)" x="0" y="0">GC skew (+)</text></g><g data-legend-key="GC skew (-)"><path d="M 0,-12.0 L 24.0,-12.0 L 24.0,12.0 L 0,12.0 z" fill="#ad72e3" stroke="none" stroke-width="0.0" transform="translate(0.0,205.7142857142857)" /><text dominant-baseline="central" font-family="'Liberation Sans', 'Arial', 'Helvetica', 'Nimbus Sans L', sans-serif" font-size="20.0" font-weight="normal" text-anchor="start" transform="translate(37.714285714285715,205.7142857142857)" x="0" y="0">GC skew (-)</text></g></g></svg>