<?xml version="1.0" encoding="utf-8" ?>
<svg baseProfile="full" height="1000px" version="1.1" viewBox="0 0 1094.914453125 1000" width="1094.914453125px" xmlns="http://www.w3.org/2000/svg" xmlns:ev="http://www.w3.org/2001/xml-events" xmlns:xlink="http://www.w3.org/1999/xlink"><defs /><g id="Axis" transform="translate(594.914453125,500.0)"><circle cx="0" cy="0" fill="none" r="390.0" stroke="gray" stroke-width="1.0" /></g><g id="AP027280.1" transform="translate(594.914453125,500.0)"><path d="M 0.007943673144803105,-393.899999919901A393.9,393.9 0 0 1 35.53271267100615,-392.2940686911283 L40.594584313160944,-396.8290434487396 L36.43478712317691,-402.25329866551596A403.9,403.9 0 0 0 0.008145340399050455,-403.89999991786755 z" data-gbdraw-feature-id="f6e93b594" fill="#54bcf8" id="f6e93b594" stroke="gray" stroke-linecap="round" stroke-linejoin="round" stroke-miterlimit="4" stroke-width="1.0" /><path d="M 46.97781678429332,-405.0850833222341A407.79999999999995,407.79999999999995 0 0 0 46.55975323324953,-405.1333476509418 L42.36522929057495,-410.62029582956194 L47.7014833272478,-415.0679564702391A417.79999999999995,417.79999999999995 0 0 1 48.12979855928825,-415.0185086121368 z" data-gbdraw-feature-id="ffa99abee" fill="#54bcf8" id="ffa99abee" stroke="gray" stroke-linecap="round" stroke-linejoin="round" stroke-miterlimit="4" stroke-width="1.0" /><path d="M 50.18681893326635,-404.70004102465754 L48.19876192799772,-409.9764863362388 L51.4174912955338,-414.6240243749434 z" data-gbdraw-feature-id="f60b8f1bc" fill="#54bcf8" id="f60b8f1bc" stroke="gray" stroke-linecap="round" stroke-linejoin="round" stroke-miterlimit="4" stroke-width="1.0" /><path d="M 57.63745901164927,-403.70628347683714A407.79999999999995,407.79999999999995 0 0 0 55.0948036899454,-404.06113721362306 L51.01694820611845,-409.63533904649165 L56.445828792690506,-413.96945347683106A417.79999999999995,417.79999999999995 0 0 1 59.05083466176328,-413.6058980790156 z" data-gbdraw-feature-id="f24a107c5" fill="#54bcf8" id="f24a107c5" stroke="gray" stroke-linecap="round" stroke-linejoin="round" stroke-miterlimit="4" stroke-width="1.0" /><path d="M 59.64766978369408,-403.4141736347093 L58.00623546927364,-408.7041921080369 L61.110339469414875,-413.3066251706266 z" data-gbdraw-feature-id="fb57c9433" fill="#54bcf8" id="fb57c9433" stroke="gray" stroke-linecap="round" stroke-linejoin="round" stroke-miterlimit="4" stroke-width="1.0" /><path d="M 62.28229364191097,-403.01582586630855 L60.62605232279434,-408.3237952651716 L63.80956911130555,-412.8985091881896 z" data-gbdraw-feature-id="f529a5080" fill="#54bcf8" id="f529a5080" stroke="gray" stroke-linecap="round" stroke-linejoin="round" stroke-miterlimit="4" stroke-width="1.0" /><path d="M 60.583270936301815,-389.2131514770006A393.9,393.9 0 0 1 86.56609123711294,-384.27011573621985 L92.17791511758563,-388.10364848140136 L88.76375793518639,-394.0256403804499A403.9,403.9 0 0 0 62.1213077714453,-399.09416573130375 z" data-gbdraw-feature-id="f54de33c4" fill="#54bcf8" id="f54de33c4" stroke="gray" stroke-linecap="round" stroke-linejoin="round" stroke-miterlimit="4" stroke-width="1.0" /><path d="M 99.73822394375713,-395.41513208847346A407.79999999999995,407.79999999999995 0 0 0 99.52153102163888,-395.4697268604879 L96.08634478606336,-401.4613983257341 L101.96198053173302,-405.1673660674641A417.79999999999995,417.79999999999995 0 0 1 102.18398715964132,-405.11143253203585 z" data-gbdraw-feature-id="f5a43419d" fill="#54bcf8" id="f5a43419d" stroke="gray" stroke-linecap="round" stroke-linejoin="round" stroke-miterlimit="4" stroke-width="1.0" /><path d="M 106.55690203656468,-393.63240037930046A407.79999999999995,407.79999999999995 0 0 0 104.29137598299597,-394.2386953300923 L100.92881722439986,-400.2714252275369 L106.84879079376095,-403.90614739802A417.79999999999995,417.79999999999995 0 0 1 109.16987167944268,-403.28498498889587 z" data-gbdraw-feature-id="f40db787b" fill="#54bcf8" id="f40db787b" stroke="gray" stroke-linecap="round" stroke-linejoin="round" stroke-miterlimit="4" stroke-width="1.0" /><path d="M 112.46657448727362,-391.9848334095319A407.79999999999995,407.79999999999995 0 0 0 111.51627720998792,-392.25624267463877 L108.26511230775249,-398.3497275723804 L114.25085978012004,-401.87508138662105A417.79999999999995,417.79999999999995 0 0 1 115.22446008038969,-401.5970166711683 z" data-gbdraw-feature-id="fba59206f" fill="#54bcf8" id="fba59206f" stroke="gray" stroke-linecap="round" stroke-linejoin="round" stroke-miterlimit="4" stroke-width="1.0" /><path d="M 148.968024468257,-379.6173964480879A407.79999999999995,407.79999999999995 0 0 0 117.6409381734706,-390.46312203032136 L114.4855267351533,-396.6067374215603 L120.52570860440416,-400.03799015269317A417.79999999999995,417.79999999999995 0 0 1 152.62099220901857,-388.92630759198414 z" data-gbdraw-feature-id="f3d9cb963" fill="#54bcf8" id="f3d9cb963" stroke="gray" stroke-linecap="round" stroke-linejoin="round" stroke-miterlimit="4" stroke-width="1.0" /><path d="M 171.99892938557593,-369.7529016657146A407.79999999999995,407.79999999999995 0 0 0 154.34108925459282,-377.46479063312086 L151.78594147210615,-383.8813201647435 L158.12581434666228,-386.72091595516895A417.79999999999995,417.79999999999995 0 0 1 176.2166569330398,-378.8199174005286 z" data-gbdraw-feature-id="f30eeddf5" fill="#54bcf8" id="f30eeddf5" stroke="gray" stroke-linecap="round" stroke-linejoin="round" stroke-miterlimit="4" stroke-width="1.0" /><path d="M 166.2515200990541,-357.0961244045555A393.9,393.9 0 0 1 189.3394807158123,-345.40956999230133 L195.79186071136246,-347.5438925937016 L194.1462712899634,-354.1785359733194A403.9,403.9 0 0 0 170.47217305917223,-366.1617787433358 z" data-gbdraw-feature-id="f3bf9b204" fill="#54bcf8" id="f3bf9b204" stroke="gray" stroke-linecap="round" stroke-linejoin="round" stroke-miterlimit="4" stroke-width="1.0" /><path d="M 192.92923953622102,-343.4174115154551A393.9,393.9 0 0 1 209.11751438372747,-333.80694297448565 L215.68315449731276,-335.56219522778235 L214.42641294640143,-342.2813512754373A403.9,403.9 0 0 0 197.82716387072776,-352.1358022622298 z" data-gbdraw-feature-id="f947666c4" fill="#54bcf8" id="f947666c4" stroke="gray" stroke-linecap="round" stroke-linejoin="round" stroke-miterlimit="4" stroke-width="1.0" /><path d="M 212.84601584247733,-331.4419761285282A393.9,393.9 0 0 1 212.9474188969601,-331.37683501585104 L219.53283534840085,-333.05636790773406 L218.35354783569989,-339.78954979157714A403.9,403.9 0 0 0 218.24957044624674,-339.85634465172006 z" data-gbdraw-feature-id="fde58076d" fill="#54bcf8" id="fde58076d" stroke="gray" stroke-linecap="round" stroke-linejoin="round" stroke-miterlimit="4" stroke-width="1.0" /><path d="M 235.1508089996624,-333.1740341425247A407.79999999999995,407.79999999999995 0 0 0 234.4436249897379,-333.67203464130927 L233.37990988573978,-340.49619331458604 L240.19261039900073,-341.8542816898946A417.79999999999995,417.79999999999995 0 0 1 240.91713585105188,-341.34406931031594 z" data-gbdraw-feature-id="fe6fa8edd" fill="#54bcf8" id="fe6fa8edd" stroke="gray" stroke-linecap="round" stroke-linejoin="round" stroke-miterlimit="4" stroke-width="1.0" /><path d="M 231.9897954829783,-318.33621344698736A393.9,393.9 0 0 1 232.31818763844655,-318.09663577659467 L238.99199462129084,-319.38070778764467 L238.21608526826242,-326.1722040877547A403.9,403.9 0 0 0 237.87935617053805,-326.4178639533846 z" data-gbdraw-feature-id="f75cc6692" fill="#54bcf8" id="f75cc6692" stroke="gray" stroke-linecap="round" stroke-linejoin="round" stroke-miterlimit="4" stroke-width="1.0" /><path d="M 267.39529442097273,-307.897055071206A407.79999999999995,407.79999999999995 0 0 0 255.04398967626213,-318.2033993061901 L254.4132766205577,-325.0811047710887 L261.2981336114329,-326.00632719501283A417.79999999999995,417.79999999999995 0 0 1 273.9523148824973,-315.44725259624784 z" data-gbdraw-feature-id="fccf96d54" fill="#54bcf8" id="fccf96d54" stroke="gray" stroke-linecap="round" stroke-linejoin="round" stroke-miterlimit="4" stroke-width="1.0" /><path d="M 259.65770760563544,-296.20108858845595A393.9,393.9 0 0 1 261.41033851904893,-294.6554681579085 L268.17578142058153,-295.301473513866 L268.0468030663718,-302.1359319344485A403.9,403.9 0 0 0 266.2496778418791,-303.72079126904634 z" data-gbdraw-feature-id="f1a7970e4" fill="#54bcf8" id="f1a7970e4" stroke="gray" stroke-linecap="round" stroke-linejoin="round" stroke-miterlimit="4" stroke-width="1.0" /><path d="M 265.7714484138544,-290.7279608293669A393.9,393.9 0 0 1 266.35236663586267,-290.1958421264422 L273.1277602411295,-290.7274266141123 L273.11429521255377,-297.56308868969285A403.9,403.9 0 0 0 272.5186291301239,-298.1087163721282 z" data-gbdraw-feature-id="fdaf916e3" fill="#54bcf8" id="fdaf916e3" stroke="gray" stroke-linecap="round" stroke-linejoin="round" stroke-miterlimit="4" stroke-width="1.0" /><path d="M 270.5598964982,-286.2770553273232A393.9,393.9 0 0 1 274.53520240902634,-282.46704699528215 L281.3230184261584,-282.8048254602374 L281.5048698984659,-289.6380814455305A403.9,403.9 0 0 0 277.42864228388675,-293.54481504621947 z" data-gbdraw-feature-id="f0868ce06" fill="#54bcf8" id="f0868ce06" stroke="gray" stroke-linecap="round" stroke-linejoin="round" stroke-miterlimit="4" stroke-width="1.0" /><path d="M 277.8024152535155,-279.2544146102498A393.9,393.9 0 0 1 279.2357708733471,-277.82115517859245 L286.0282986648034,-278.0450006076679 L286.3247724187482,-284.8742436573584A403.9,403.9 0 0 0 284.85502797891576,-286.3438894670726 z" data-gbdraw-feature-id="f7430ab36" fill="#54bcf8" id="f7430ab36" stroke="gray" stroke-linecap="round" stroke-linejoin="round" stroke-miterlimit="4" stroke-width="1.0" /><path d="M 282.5814740229084,-274.4174202543277A393.9,393.9 0 0 1 284.3364422782764,-272.5986015968027 L291.13195189273273,-272.6965283738089 L291.55493535464797,-279.51910430299216A403.9,403.9 0 0 0 289.75541344974033,-281.3840975900557 z" data-gbdraw-feature-id="f10ee2987" fill="#54bcf8" id="f10ee2987" stroke="gray" stroke-linecap="round" stroke-linejoin="round" stroke-miterlimit="4" stroke-width="1.0" /><path d="M 304.71289829681643,-271.0182459015518A407.79999999999995,407.79999999999995 0 0 0 301.2940302248084,-274.81402320640814 L301.73725626653413,-281.7063509769417 L308.6823095339013,-281.5529644326565A417.79999999999995,417.79999999999995 0 0 1 312.185014488499,-277.6641077431789 z" data-gbdraw-feature-id="f369e6f89" fill="#54bcf8" id="f369e6f89" stroke="gray" stroke-linecap="round" stroke-linejoin="round" stroke-miterlimit="4" stroke-width="1.0" /><path d="M 313.6763612258082,-260.59159696378595A407.79999999999995,407.79999999999995 0 0 0 308.5718990957167,-266.61624685765645 L309.2002239260737,-273.4941709142369 L316.138645027441,-273.15416365161565A417.79999999999995,417.79999999999995 0 0 1 321.3682778816642,-266.98177835083317 z" data-gbdraw-feature-id="fb4722da1" fill="#54bcf8" id="fb4722da1" stroke="gray" stroke-linecap="round" stroke-linejoin="round" stroke-miterlimit="4" stroke-width="1.0" /><path d="M 322.93216599343856,-249.02942831478012A407.79999999999995,407.79999999999995 0 0 0 316.9660648699889,-256.58011170165537 L317.8147084301549,-263.43433926778715 L324.7386510610136,-262.87192415142624A417.79999999999995,417.79999999999995 0 0 1 330.8510518687068,-255.13608423225878 z" data-gbdraw-feature-id="fc2033856" fill="#54bcf8" id="fc2033856" stroke="gray" stroke-linecap="round" stroke-linejoin="round" stroke-miterlimit="4" stroke-width="1.0" /><path d="M 314.95574215873614,-236.55885204582745 L321.1002032299056,-236.67671935725593 L322.9515721196079,-242.56440807643997 z" data-gbdraw-feature-id="f570c06a1" fill="#54bcf8" id="f570c06a1" stroke="gray" stroke-linecap="round" stroke-linejoin="round" stroke-miterlimit="4" stroke-width="1.0" /><path d="M 316.7168094278674,-234.1957997612935 L322.535683465483,-234.7167290404622 L324.7573478748811,-240.14136461941214 z" data-gbdraw-feature-id="f8ead5baa" fill="#54bcf8" id="f8ead5baa" stroke="gray" stroke-linecap="round" stroke-linejoin="round" stroke-miterlimit="4" stroke-width="1.0" /><path d="M 318.2870823281983,-232.05719817106015A393.9,393.9 0 0 1 331.14406948113367,-213.30920103800983 L337.8333136791999,-212.10813791208324 L339.5508750023607,-218.72451459571508A403.9,403.9 0 0 0 326.3674855353118,-237.948470021049 z" data-gbdraw-feature-id="fe0d06ba4" fill="#54bcf8" id="fe0d06ba4" stroke="gray" stroke-linecap="round" stroke-linejoin="round" stroke-miterlimit="4" stroke-width="1.0" /><path d="M 335.52320742305824,-206.35258001911046A393.9,393.9 0 0 1 340.81388481944487,-197.49204012890783 L347.4392082304887,-195.97756653293536 L349.46617943278443,-202.5058009851888A403.9,403.9 0 0 0 344.04118679404223,-211.59128476699345 z" data-gbdraw-feature-id="f2725116d" fill="#54bcf8" id="f2725116d" stroke="gray" stroke-linecap="round" stroke-linejoin="round" stroke-miterlimit="4" stroke-width="1.0" /><path d="M 357.05419181370235,-197.010517760509 L360.4990544843606,-201.10761227731277 L365.8098120151173,-201.84157508666175 z" data-gbdraw-feature-id="f34394953" fill="#54bcf8" id="f34394953" stroke="gray" stroke-linecap="round" stroke-linejoin="round" stroke-miterlimit="4" stroke-width="1.0" /><path d="M 346.19571619428365,-187.89820672035967 L351.78049652785666,-188.07363521401555 L354.98464019007656,-192.6684074494879 z" data-gbdraw-feature-id="fea10bdec" fill="#54bcf8" id="fea10bdec" stroke="gray" stroke-linecap="round" stroke-linejoin="round" stroke-miterlimit="4" stroke-width="1.0" /><path d="M 364.74455272244074,-182.37941566774091A407.79999999999995,407.79999999999995 0 0 0 362.3408061527412,-187.10954063484192 L364.55929257806497,-193.6501024915318 L371.22606378277413,-191.69780793829563A417.79999999999995,417.79999999999995 0 0 1 373.68875460381497,-186.85169167724905 z" data-gbdraw-feature-id="f99608747" fill="#54bcf8" id="f99608747" stroke="gray" stroke-linecap="round" stroke-linejoin="round" stroke-miterlimit="4" stroke-width="1.0" /><path d="M 370.1249129070956,-171.1969300119451A407.79999999999995,407.79999999999995 0 0 0 367.2785317385886,-177.22110518769068 L369.67345752972676,-183.6991420720773 L376.28487140849023,-181.56689001328388A417.79999999999995,417.79999999999995 0 0 1 379.2010510362544,-175.39499107158085 z" data-gbdraw-feature-id="f289cbbdf" fill="#54bcf8" id="f289cbbdf" stroke="gray" stroke-linecap="round" stroke-linejoin="round" stroke-miterlimit="4" stroke-width="1.0" /><path d="M 358.16321390197095,-163.93999575274782A393.9,393.9 0 0 1 365.4718182720227,-146.92705689879446 L371.8138263547477,-144.4842155096588 L374.750107641711,-150.65711673374736A403.9,403.9 0 0 0 367.25595860626066,-168.10196568808033 z" data-gbdraw-feature-id="fd505191a" fill="#54bcf8" id="fd505191a" stroke="gray" stroke-linecap="round" stroke-linejoin="round" stroke-miterlimit="4" stroke-width="1.0" /><path d="M 367.55468843451814,-141.63601593452233A393.9,393.9 0 0 1 374.3718946116401,-122.48630341752921 L380.5388528615906,-119.63022804786702 L383.87613159086425,-125.5958820775325A403.9,403.9 0 0 0 376.88585594999205,-145.23175129716572 z" data-gbdraw-feature-id="f9921bc36" fill="#54bcf8" id="f9921bc36" stroke="gray" stroke-linecap="round" stroke-linejoin="round" stroke-miterlimit="4" stroke-width="1.0" /><path d="M 376.06086788930696,-117.19826637941875 L381.5595825177331,-116.33355057288178 L385.6079830934021,-120.17359682824889 z" data-gbdraw-feature-id="f02b18023" fill="#54bcf8" id="f02b18023" stroke="gray" stroke-linecap="round" stroke-linejoin="round" stroke-miterlimit="4" stroke-width="1.0" /><path d="M 376.5351742972326,-115.66534708784938A393.9,393.9 0 0 1 378.65821418827665,-108.51344077000427 L384.71497181731905,-105.43054803803015 L388.2712686231148,-111.26828821275633A403.9,403.9 0 0 0 386.09433079119634,-118.60176107840154 z" data-gbdraw-feature-id="fee28045c" fill="#54bcf8" id="fee28045c" stroke="gray" stroke-linecap="round" stroke-linejoin="round" stroke-miterlimit="4" stroke-width="1.0" /><path d="M 377.5308179584172,-112.37300161359254A393.9,393.9 0 0 1 378.7259793710138,-108.27669439665408 L384.78080848919495,-105.19001577336836 L388.34075417098876,-111.0255315227433A403.9,403.9 0 0 0 387.11525101143616,-115.22583232223921 z" data-gbdraw-feature-id="f34fdcfcb" fill="#54bcf8" id="f34fdcfcb" stroke="gray" stroke-linecap="round" stroke-linejoin="round" stroke-miterlimit="4" stroke-width="1.0" /><path d="M 394.4739330186857,-103.3980472193232 L398.33771668167844,-108.30929539437902 L404.147153543911,-105.93355597899273 z" data-gbdraw-feature-id="f46299709" fill="#54bcf8" id="f46299709" stroke="gray" stroke-linecap="round" stroke-linejoin="round" stroke-miterlimit="4" stroke-width="1.0" /><path d="M 397.5054208475495,-91.05097691300473A407.79999999999995,407.79999999999995 0 0 0 395.82869220430314,-98.08407836051173 L399.5019505132958,-103.93282222701416 L405.53513389641455,-100.48927890883226A417.79999999999995,417.79999999999995 0 0 1 407.2529789850568,-93.28371298247518 z" data-gbdraw-feature-id="fd0bfa308" fill="#54bcf8" id="fd0bfa308" stroke="gray" stroke-linecap="round" stroke-linejoin="round" stroke-miterlimit="4" stroke-width="1.0" /><path d="M 384.0906585657475,-87.35889194884713A393.9,393.9 0 0 1 384.5092734360259,-85.49753588086294 L390.3692422806821,-82.0552538306116 L394.2708696136351,-87.66807499944285A403.9,403.9 0 0 0 393.84162730313636,-89.57668560075999 z" data-gbdraw-feature-id="f6a392095" fill="#54bcf8" id="f6a392095" stroke="gray" stroke-linecap="round" stroke-linejoin="round" stroke-miterlimit="4" stroke-width="1.0" /><path d="M 385.4287176122909,-81.2521608312353A393.9,393.9 0 0 1 385.58070829829876,-80.52780506248888 L391.3957617811411,-77.01017893603556 L395.36950515786464,-82.57217685894709A403.9,403.9 0 0 0 395.2136558608893,-83.31492195921793 z" data-gbdraw-feature-id="fb9811829" fill="#54bcf8" id="fb9811829" stroke="gray" stroke-linecap="round" stroke-linejoin="round" stroke-miterlimit="4" stroke-width="1.0" /><path d="M 386.49902205843733,-75.99813121302088 L391.9938088570042,-73.9057766198182 L396.31113229094404,-77.92750748143979 z" data-gbdraw-feature-id="f4f156d8d" fill="#54bcf8" id="f4f156d8d" stroke="gray" stroke-linecap="round" stroke-linejoin="round" stroke-miterlimit="4" stroke-width="1.0" /><path d="M 402.14366757710866,-67.68537971845846A407.79999999999995,407.79999999999995 0 0 0 401.52987316303773,-71.23623346075219 L405.5882317519777,-76.82464620357197 L411.3761182136272,-72.9830758702851A417.79999999999995,417.79999999999995 0 0 1 412.0049639865522,-69.34514871596849 z" data-gbdraw-feature-id="fb3cbba91" fill="#54bcf8" id="fb3cbba91" stroke="gray" stroke-linecap="round" stroke-linejoin="round" stroke-miterlimit="4" stroke-width="1.0" /><path d="M 406.0209411910543,-38.050431197693676A407.79999999999995,407.79999999999995 0 0 0 402.9126964336391,-62.946001084851716 L407.08536431216373,-68.44958847818538 L412.79285083367927,-64.48955187163082A417.79999999999995,417.79999999999995 0 0 1 415.97731542330183,-38.98349719077101 z" data-gbdraw-feature-id="f25a9419c" fill="#54bcf8" id="f25a9419c" stroke="gray" stroke-linecap="round" stroke-linejoin="round" stroke-miterlimit="4" stroke-width="1.0" /><path d="M 406.35575652273764,-34.29051094448028 L411.0339133078068,-38.14396558920279 L416.3203410377631,-35.131376833261065 z" data-gbdraw-feature-id="fb95e2d3c" fill="#54bcf8" id="fb95e2d3c" stroke="gray" stroke-linecap="round" stroke-linejoin="round" stroke-miterlimit="4" stroke-width="1.0" /><path d="M 392.60080419620436,-31.965896585166934A393.9,393.9 0 0 1 393.47462992758886,18.300972743190428 L398.2271497151808,23.15917161132769 L403.463830992011,18.765582358402167A403.9,403.9 0 0 0 402.5678213121273,-32.777419727720044 z" data-gbdraw-feature-id="fe14f9fd3" fill="#54bcf8" id="fe14f9fd3" stroke="gray" stroke-linecap="round" stroke-linejoin="round" stroke-miterlimit="4" stroke-width="1.0" /><path d="M 406.2480186846477,35.54416006600864A407.79999999999995,407.79999999999995 0 0 0 406.77100952907057,28.951438767369428 L412.07094513290326,24.522972439648466 L416.74577680540875,29.66138086563744A417.79999999999995,417.79999999999995 0 0 1 416.2099612713238,36.415767718436506 z" data-gbdraw-feature-id="feec404b4" fill="#54bcf8" id="feec404b4" stroke="gray" stroke-linecap="round" stroke-linejoin="round" stroke-miterlimit="4" stroke-width="1.0" /><path d="M 406.0953487551048,37.247922351049084 L411.3749141365389,34.271271046683026 L416.05354759657376,38.1613093630905 z" data-gbdraw-feature-id="fd86f2e90" fill="#54bcf8" id="fd86f2e90" stroke="gray" stroke-linecap="round" stroke-linejoin="round" stroke-miterlimit="4" stroke-width="1.0" /><path d="M 405.6949556707297,41.38167400341151A407.79999999999995,407.79999999999995 0 0 0 405.7150800277776,41.1839026569116 L411.1459296904404,36.91699471765529 L415.66395398628123,42.19380708694867A417.79999999999995,417.79999999999995 0 0 1 415.6433361432832,42.3964281476835 z" data-gbdraw-feature-id="f229b998e" fill="#54bcf8" id="f229b998e" stroke="gray" stroke-linecap="round" stroke-linejoin="round" stroke-miterlimit="4" stroke-width="1.0" /><path d="M 391.26433653907367,45.49097660677876A393.9,393.9 0 0 1 386.73141490060624,74.80656875552552 L390.7343107350724,80.29886932197651 L396.5494249260088,76.7056946442162A403.9,403.9 0 0 0 401.19742454463534,46.6458630400557 z" data-gbdraw-feature-id="fe5430e35" fill="#54bcf8" id="fe5430e35" stroke="gray" stroke-linecap="round" stroke-linejoin="round" stroke-miterlimit="4" stroke-width="1.0" /><path d="M 395.15737259934133,100.75460724148193A407.79999999999995,407.79999999999995 0 0 0 398.38076794163675,87.14128604875962 L404.262406975008,83.52093334471881 L408.14979118689513,89.27814936530596A417.79999999999995,417.79999999999995 0 0 1 404.8473523099676,103.22529403014015 z" data-gbdraw-feature-id="f8cadffe8" fill="#54bcf8" id="f8cadffe8" stroke="gray" stroke-linecap="round" stroke-linejoin="round" stroke-miterlimit="4" stroke-width="1.0" /><path d="M 387.6513342067349,126.5989063449534A407.79999999999995,407.79999999999995 0 0 0 393.8457911655198,105.76546119223288 L399.8910579097909,102.42549391527592 L403.50360850650856,108.3590232616844A417.79999999999995,417.79999999999995 0 0 1 397.15725216177987,129.7033424985815 z" data-gbdraw-feature-id="fae09ed8c" fill="#54bcf8" id="fae09ed8c" stroke="gray" stroke-linecap="round" stroke-linejoin="round" stroke-miterlimit="4" stroke-width="1.0" /><path d="M 380.4036389153939,146.94866960924338A407.79999999999995,407.79999999999995 0 0 0 385.9430945148415,131.71472125889372 L392.19703150427574,128.78403813840478 L395.40712331608825,134.94460652762578A417.79999999999995,417.79999999999995 0 0 1 389.73183015902794,150.552119084703 z" data-gbdraw-feature-id="fa904e3af" fill="#54bcf8" id="fa904e3af" stroke="gray" stroke-linecap="round" stroke-linejoin="round" stroke-miterlimit="4" stroke-width="1.0" /><path d="M 376.24027191576624,157.30256764830716 L381.87612002363636,156.7624602884672 L385.4663698048238,161.159913593582 z" data-gbdraw-feature-id="f3770df32" fill="#54bcf8" id="f3770df32" stroke="gray" stroke-linecap="round" stroke-linejoin="round" stroke-miterlimit="4" stroke-width="1.0" /><path d="M 362.6019136663502,153.87352665582446A393.9,393.9 0 0 1 362.5734447335918,153.94059625068687 L365.34074660425796,160.14789686612608 L371.7781526476206,157.84870988995286A403.9,403.9 0 0 0 371.8073443255619,157.77993758895025 z" data-gbdraw-feature-id="f075e80fb" fill="#54bcf8" id="f075e80fb" stroke="gray" stroke-linecap="round" stroke-linejoin="round" stroke-miterlimit="4" stroke-width="1.0" /><path d="M 372.62841759022604,165.677102836222 L377.9542755729165,165.9951974490583 L381.76594622166857,169.73980766300528 z" data-gbdraw-feature-id="fd0ae74fd" fill="#54bcf8" id="fd0ae74fd" stroke="gray" stroke-linecap="round" stroke-linejoin="round" stroke-miterlimit="4" stroke-width="1.0" /><path d="M 359.1941517767123,161.66870856603066A393.9,393.9 0 0 1 357.4017174717611,165.5935456116434 L359.9666895635984,171.88715020217185 L366.47512994883044,169.79749447205577A403.9,403.9 0 0 0 368.3130690596956,165.7730169835486 z" data-gbdraw-feature-id="fad3ee735" fill="#54bcf8" id="fad3ee735" stroke="gray" stroke-linecap="round" stroke-linejoin="round" stroke-miterlimit="4" stroke-width="1.0" /><path d="M 355.4512749434181,169.739804233122A393.9,393.9 0 0 1 351.7769907459878,177.22911380949012 L354.13411820386403,183.60347579490877 L360.7076074188994,181.72845663278258A403.9,403.9 0 0 0 364.47517123545714,174.0490148000964 z" data-gbdraw-feature-id="ffa3ddd8f" fill="#54bcf8" id="ffa3ddd8f" stroke="gray" stroke-linecap="round" stroke-linejoin="round" stroke-miterlimit="4" stroke-width="1.0" /><path d="M 349.049529973404,182.54214753131873A393.9,393.9 0 0 1 346.5657399794007,187.21484415646748 L348.7396446581938,193.65399619857237 L355.3640578260471,191.96769625487997A403.9,403.9 0 0 0 357.9109041793802,187.17637316044588 z" data-gbdraw-feature-id="f1a9b2e12" fill="#54bcf8" id="f1a9b2e12" stroke="gray" stroke-linecap="round" stroke-linejoin="round" stroke-miterlimit="4" stroke-width="1.0" /><path d="M 344.12128077898814,191.6709527159209A393.9,393.9 0 0 1 342.720014328292,194.16539799566587 L344.7636291526696,200.6470782580212 L351.42070014520726,199.0947048754746A403.9,403.9 0 0 0 352.8575407632224,196.53693272901867 z" data-gbdraw-feature-id="f358a7602" fill="#54bcf8" id="f358a7602" stroke="gray" stroke-linecap="round" stroke-linejoin="round" stroke-miterlimit="4" stroke-width="1.0" /><path d="M 338.97018463884996,226.71579990354428A407.79999999999995,407.79999999999995 0 0 0 349.8980764142667,209.4568598103102 L356.62636237922277,207.89775769873816 L358.4782156103007,214.59312415092595A417.79999999999995,417.79999999999995 0 0 1 347.2823519914456,232.2752849428661 z" data-gbdraw-feature-id="febdb5645" fill="#54bcf8" id="febdb5645" stroke="gray" stroke-linecap="round" stroke-linejoin="round" stroke-miterlimit="4" stroke-width="1.0" /><path d="M 326.59698468854333,220.20812789802144A393.9,393.9 0 0 1 325.7143201613066,221.51160611096168 L327.22164985234616,228.13855848564603 L333.9832797998267,227.1351553902448A403.9,403.9 0 0 0 334.888352667435,225.79858557504662 z" data-gbdraw-feature-id="f5924937c" fill="#54bcf8" id="f5924937c" stroke="gray" stroke-linecap="round" stroke-linejoin="round" stroke-miterlimit="4" stroke-width="1.0" /><path d="M 323.12464304028424,225.27244629578843A393.9,393.9 0 0 1 321.9336589666334,226.97120791932042 L323.3290534101202,233.6226299417837 L330.1066383768043,232.7333609510371A403.9,403.9 0 0 0 331.32785814666363,230.9914726043893 z" data-gbdraw-feature-id="fe9bd12b7" fill="#54bcf8" id="fe9bd12b7" stroke="gray" stroke-linecap="round" stroke-linejoin="round" stroke-miterlimit="4" stroke-width="1.0" /><path d="M 318.9083545896438,231.20266298839644A393.9,393.9 0 0 1 309.3500605564731,243.84370000823557 L310.3881678952503,250.56016289631896 L317.2035782146725,250.03419759666502A403.9,403.9 0 0 0 327.0045301313966,237.0722406220191 z" data-gbdraw-feature-id="f869282fa" fill="#54bcf8" id="f869282fa" stroke="gray" stroke-linecap="round" stroke-linejoin="round" stroke-miterlimit="4" stroke-width="1.0" /><path d="M 315.4401326399105,258.45379223396134 L322.1378056855729,258.12995592934203 L323.1753001887067,264.79155074877156 z" data-gbdraw-feature-id="ff27876ae" fill="#54bcf8" id="ff27876ae" stroke="gray" stroke-linecap="round" stroke-linejoin="round" stroke-miterlimit="4" stroke-width="1.0" /><path d="M 313.90746999068205,260.3131581077856 L319.81888419537967,260.99755039467766 L321.6050538550931,266.6965116660932 z" data-gbdraw-feature-id="f52c50198" fill="#54bcf8" id="f52c50198" stroke="gray" stroke-linecap="round" stroke-linejoin="round" stroke-miterlimit="4" stroke-width="1.0" /><path d="M 297.7275868607232,257.90597903517187A393.9,393.9 0 0 1 297.52375429470516,258.14109636085436 L298.24441792016836,264.8989942968073 L305.07703569340293,264.6945641537169A403.9,403.9 0 0 0 305.28604298818505,264.45347786825573 z" data-gbdraw-feature-id="f0ae60a6d" fill="#54bcf8" id="f0ae60a6d" stroke="gray" stroke-linecap="round" stroke-linejoin="round" stroke-miterlimit="4" stroke-width="1.0" /><path d="M 293.99911297271746,262.14830072166274A393.9,393.9 0 0 1 292.66216466703384,263.64003370582014 L293.25678342921924,270.4101865180896 L300.09202414068284,270.3331038684457A403.9,403.9 0 0 0 301.4629137590266,268.8035000291434 z" data-gbdraw-feature-id="f3de23214" fill="#54bcf8" id="f3de23214" stroke="gray" stroke-linecap="round" stroke-linejoin="round" stroke-miterlimit="4" stroke-width="1.0" /><path d="M 271.2793114326397,304.4805005064082A407.79999999999995,407.79999999999995 0 0 0 296.32089516059074,280.1691758406448 L303.2271331022443,280.102027394651 L303.58722412480336,287.03943517955224A417.79999999999995,417.79999999999995 0 0 1 277.9315750773832,311.94691788027797 z" data-gbdraw-feature-id="f21a06b81" fill="#54bcf8" id="f21a06b81" stroke="gray" stroke-linecap="round" stroke-linejoin="round" stroke-miterlimit="4" stroke-width="1.0" /><path d="M 261.44496640702846,294.6247435984081 L263.298325024967,299.6584756669613 L268.0823100578797,302.1044273658214 z" data-gbdraw-feature-id="fc600e188" fill="#54bcf8" id="fc600e188" stroke="gray" stroke-linecap="round" stroke-linejoin="round" stroke-miterlimit="4" stroke-width="1.0" /><path d="M 245.63915274973604,325.518427491274A407.79999999999995,407.79999999999995 0 0 0 264.9289978901335,310.02171871810793 L271.8033920526686,310.6875537717327 L271.4255402611519,317.6240168720586A417.79999999999995,417.79999999999995 0 0 1 251.6626729250606,333.50073321690604 z" data-gbdraw-feature-id="f21107fe2" fill="#54bcf8" id="f21107fe2" stroke="gray" stroke-linecap="round" stroke-linejoin="round" stroke-miterlimit="4" stroke-width="1.0" /><path d="M 236.82870922904726,314.75287526074067A393.9,393.9 0 0 1 227.53021613312117,321.5388168579575 L226.62165242543122,328.2740267702686 L233.3065607925048,329.70177235067035A403.9,403.9 0 0 0 242.8411161655552,322.74355500841114 z" data-gbdraw-feature-id="f2e4bfde3" fill="#54bcf8" id="f2e4bfde3" stroke="gray" stroke-linecap="round" stroke-linejoin="round" stroke-miterlimit="4" stroke-width="1.0" /><path d="M 223.66338526406852,324.24049730441885A393.9,393.9 0 0 1 210.68139516280704,332.82211424761596 L209.42742190611702,339.50164204869066 L216.02999620781355,341.27152054991643A403.9,403.9 0 0 0 229.3415620923008,332.472040774955 z" data-gbdraw-feature-id="fa889e078" fill="#54bcf8" id="fa889e078" stroke="gray" stroke-linecap="round" stroke-linejoin="round" stroke-miterlimit="4" stroke-width="1.0" /><path d="M 205.9701443018538,335.7581118249766A393.9,393.9 0 0 1 190.6313855729533,344.69825185883377 L188.98461518958786,351.2919373137439 L195.4709739347952,353.44915949678335A403.9,403.9 0 0 0 211.19914009524945,344.2820547502109 z" data-gbdraw-feature-id="f133b35ba" fill="#54bcf8" id="f133b35ba" stroke="gray" stroke-linecap="round" stroke-linejoin="round" stroke-miterlimit="4" stroke-width="1.0" /><path d="M 185.18711383815113,347.6534810242746 L185.7675369150566,353.0037283493094 L189.88848763449923,356.4794135204481 z" data-gbdraw-feature-id="fbd65bf99" fill="#54bcf8" id="fbd65bf99" stroke="gray" stroke-linecap="round" stroke-linejoin="round" stroke-miterlimit="4" stroke-width="1.0" /><path d="M 175.20623179721915,368.24396307260633A407.79999999999995,407.79999999999995 0 0 0 184.573038733563,363.63942769267834 L191.09793875904148,365.90356352739394 L189.09910638274306,372.5565298921064A417.79999999999995,417.79999999999995 0 0 1 179.50260825129513,377.27397688017396 z" data-gbdraw-feature-id="fd0af4b07" fill="#54bcf8" id="fd0af4b07" stroke="gray" stroke-linecap="round" stroke-linejoin="round" stroke-miterlimit="4" stroke-width="1.0" /><path d="M 165.61322549506016,372.6568120149185A407.79999999999995,407.79999999999995 0 0 0 167.9335037457514,371.6169779755436 L174.3492970883484,374.1739737138312 L172.05153963946773,380.7297042623397A417.79999999999995,417.79999999999995 0 0 1 169.6743639328988,381.795036929458 z" data-gbdraw-feature-id="faeba3469" fill="#54bcf8" id="faeba3469" stroke="gray" stroke-linecap="round" stroke-linejoin="round" stroke-miterlimit="4" stroke-width="1.0" /><path d="M 157.96953880248236,360.83629918639144A393.9,393.9 0 0 1 155.76044974971398,361.7953735107275 L153.47236644957204,368.1948434407634 L159.71476429019924,370.9803284107206A403.9,403.9 0 0 0 161.97993582717092,369.9969059187192 z" data-gbdraw-feature-id="f879b2bbc" fill="#54bcf8" id="f879b2bbc" stroke="gray" stroke-linecap="round" stroke-linejoin="round" stroke-miterlimit="4" stroke-width="1.0" /><path d="M 151.28467214941148,363.6896451270576A393.9,393.9 0 0 1 144.76868004209888,366.33214338748434 L142.28847134049866,372.65963146493885 L148.4439448311849,375.632273963455A403.9,403.9 0 0 0 155.1253594342404,372.9226901924817 z" data-gbdraw-feature-id="f6dcf91ba" fill="#54bcf8" id="f6dcf91ba" stroke="gray" stroke-linecap="round" stroke-linejoin="round" stroke-miterlimit="4" stroke-width="1.0" /><path d="M 140.11898516765362,368.13568150287585A393.9,393.9 0 0 1 137.6869960262469,369.0521658590669 L135.08539231785528,375.3307165451971 L141.18247701193482,378.4213500646792A403.9,403.9 0 0 0 143.676207436444,377.4815987789072 z" data-gbdraw-feature-id="f13efa7d9" fill="#54bcf8" id="f13efa7d9" stroke="gray" stroke-linecap="round" stroke-linejoin="round" stroke-miterlimit="4" stroke-width="1.0" /><path d="M 132.8463991497878,370.8221193954525A393.9,393.9 0 0 1 119.29965269322408,375.39952433011433 L116.3912602970054,381.54198265259714 L122.32833136022647,384.9298499033591A403.9,403.9 0 0 0 136.21899115663695,380.2362376842429 z" data-gbdraw-feature-id="f1c82ad75" fill="#54bcf8" id="f1c82ad75" stroke="gray" stroke-linecap="round" stroke-linejoin="round" stroke-miterlimit="4" stroke-width="1.0" /><path d="M 108.51857448119081,378.65674296461464 L108.03881587336662,383.9906564809628 L111.27355225425988,388.269760049271 z" data-gbdraw-feature-id="f34f778f1" fill="#54bcf8" id="f34f778f1" stroke="gray" stroke-linecap="round" stroke-linejoin="round" stroke-miterlimit="4" stroke-width="1.0" /><path d="M 105.46822391813994,379.5176725049218A393.9,393.9 0 0 1 92.87499255172933,382.7942603521064 L89.54602111658609,388.7193333270007 L95.2328242996788,392.51231722827055A403.9,403.9 0 0 0 108.14576197140575,389.15254614048723 z" data-gbdraw-feature-id="febff2bc1" fill="#54bcf8" id="febff2bc1" stroke="gray" stroke-linecap="round" stroke-linejoin="round" stroke-miterlimit="4" stroke-width="1.0" /><path d="M 87.10713305071363,384.14783270465716A393.9,393.9 0 0 1 79.90951776021144,385.7093192694862 L76.38257314698875,391.5187256306458 L81.93819300164866,395.50138119559654A403.9,403.9 0 0 0 89.31853526068352,393.900252930721 z" data-gbdraw-feature-id="f1c95887f" fill="#54bcf8" id="f1c95887f" stroke="gray" stroke-linecap="round" stroke-linejoin="round" stroke-miterlimit="4" stroke-width="1.0" /><path d="M 74.8091246852407,386.73092049101547A393.9,393.9 0 0 1 72.70092510205845,387.1327750130501 L69.0662304588023,392.8753820363546 L74.5465946908388,396.9609744294769A403.9,403.9 0 0 0 76.70831546171293,396.5489179647655 z" data-gbdraw-feature-id="f9f9d68f3" fill="#54bcf8" id="f9f9d68f3" stroke="gray" stroke-linecap="round" stroke-linejoin="round" stroke-miterlimit="4" stroke-width="1.0" /><path d="M 68.17705065699056,387.9550228618185A393.9,393.9 0 0 1 63.641185396829705,388.72485066083226 L59.873386524295725,394.38101828829474 L65.2568539776073,398.59346834706815A403.9,403.9 0 0 0 69.90787194810481,397.8040968110904 z" data-gbdraw-feature-id="f0cae0d64" fill="#54bcf8" id="f0cae0d64" stroke="gray" stroke-linecap="round" stroke-linejoin="round" stroke-miterlimit="4" stroke-width="1.0" /><path d="M 58.65164126019009,389.5089151450656A393.9,393.9 0 0 1 55.868103338466256,389.91789524124493 L51.988137156225505,395.4977162955881 L57.28643548719604,399.816800934092A403.9,403.9 0 0 0 60.14063951508194,399.3974379971871 z" data-gbdraw-feature-id="f8d90ddcf" fill="#54bcf8" id="f8d90ddcf" stroke="gray" stroke-linecap="round" stroke-linejoin="round" stroke-miterlimit="4" stroke-width="1.0" /><path d="M 30.015071291472072,406.6939088496013A407.79999999999995,407.79999999999995 0 0 0 47.967560922715066,404.96907671960037 L53.31269336405034,409.34288405476246 L49.1438130296968,414.89965731596135A417.79999999999995,417.79999999999995 0 0 1 30.751095599747504,416.66678547661456 z" data-gbdraw-feature-id="fe32b3965" fill="#54bcf8" id="fe32b3965" stroke="gray" stroke-linecap="round" stroke-linejoin="round" stroke-miterlimit="4" stroke-width="1.0" /><path d="M 21.027638794835937,407.25750871741315A407.79999999999995,407.79999999999995 0 0 0 23.246254235070676,407.13689548361793 L28.31545018368364,411.8277252455149 L23.816294799932635,417.1206349510926A417.79999999999995,417.79999999999995 0 0 1 21.54327486140867,417.2442058414302 z" data-gbdraw-feature-id="fef82d191" fill="#54bcf8" id="fef82d191" stroke="gray" stroke-linecap="round" stroke-linejoin="round" stroke-miterlimit="4" stroke-width="1.0" /><path d="M 8.428990099835099,407.7128795192725A407.79999999999995,407.79999999999995 0 0 0 15.779314698466123,407.4946051515857 L20.76167354949799,412.2775678004129 L16.166252283028804,417.48711631273295A417.79999999999995,417.79999999999995 0 0 1 8.635684315132673,417.71074316614045 z" data-gbdraw-feature-id="fd137d5c6" fill="#54bcf8" id="fd137d5c6" stroke="gray" stroke-linecap="round" stroke-linejoin="round" stroke-miterlimit="4" stroke-width="1.0" /><path d="M 4.0708077505006415,407.77968135288256 L8.390844930579787,412.71471226665875 L4.170631383421207,417.7791831025854 z" data-gbdraw-feature-id="f5bac8d44" fill="#54bcf8" id="f5bac8d44" stroke="gray" stroke-linecap="round" stroke-linejoin="round" stroke-miterlimit="4" stroke-width="1.0" /><path d="M 3.836733458313858,393.8813139466886A393.9,393.9 0 0 1 -20.653387176413485,393.3581670667855 L-25.539916405170512,398.08155278788905 L-21.177717899348583,403.3444114706135A403.9,403.9 0 0 0 3.9341372018607954,403.88083956097364 z" data-gbdraw-feature-id="fbbf4c2a8" fill="#54bcf8" id="fbbf4c2a8" stroke="gray" stroke-linecap="round" stroke-linejoin="round" stroke-miterlimit="4" stroke-width="1.0" /><path d="M -26.900154905935384,392.9803960327241A393.9,393.9 0 0 1 -41.14589202720105,391.74510280191873 L-46.27217604694997,396.2071373964382 L-42.190469128678615,401.6903960946814A403.9,403.9 0 0 0 -27.583073283846918,402.95704990509586 z" data-gbdraw-feature-id="fe03be947" fill="#54bcf8" id="fe03be947" stroke="gray" stroke-linecap="round" stroke-linejoin="round" stroke-miterlimit="4" stroke-width="1.0" /><path d="M -61.823127745520324,389.01813694963 L-64.27572718352968,393.6874914129587 L-63.392641016541404,398.89420034007503 z" data-gbdraw-feature-id="f6bff0445" fill="#54bcf8" id="f6bff0445" stroke="gray" stroke-linecap="round" stroke-linejoin="round" stroke-miterlimit="4" stroke-width="1.0" /><path d="M -64.71627617004557,388.5473119179727A393.9,393.9 0 0 1 -75.10681176860301,386.6732171045153 L-80.60221860338591,390.6718474067616 L-77.01355997293413,396.4897496535002A403.9,403.9 0 0 0 -66.35923824595433,398.4114224007849 z" data-gbdraw-feature-id="f4557b982" fill="#54bcf8" id="f4557b982" stroke="gray" stroke-linecap="round" stroke-linejoin="round" stroke-miterlimit="4" stroke-width="1.0" /><path d="M -79.63859085531243,385.7653494633495 L-83.03511659764776,390.16199124416903 L-81.66038803366513,395.55883383662564 z" data-gbdraw-feature-id="f6414966a" fill="#54bcf8" id="f6414966a" stroke="gray" stroke-linecap="round" stroke-linejoin="round" stroke-miterlimit="4" stroke-width="1.0" /><path d="M -83.17491743140609,385.0183672375628A393.9,393.9 0 0 1 -104.21377403100831,379.86405371160606 L-109.99659116525204,383.4344271606612 L-106.85946517167874,389.50772098024294A403.9,403.9 0 0 0 -85.28649187749409,394.79288785796297 z" data-gbdraw-feature-id="f2ffa428c" fill="#54bcf8" id="f2ffa428c" stroke="gray" stroke-linecap="round" stroke-linejoin="round" stroke-miterlimit="4" stroke-width="1.0" /><path d="M -149.7638827812652,379.3041252270787A407.79999999999995,407.79999999999995 0 0 0 -117.75117455926853,390.4298924133661 L-114.59749779915694,396.57439844015676 L-120.63864818749974,400.00394568490526A417.79999999999995,417.79999999999995 0 0 1 -153.43636641984455,388.60535438909636 z" data-gbdraw-feature-id="fda0c67ca" fill="#54bcf8" id="fda0c67ca" stroke="gray" stroke-linecap="round" stroke-linejoin="round" stroke-miterlimit="4" stroke-width="1.0" /><path d="M -151.65139955884416,378.55342160895043 L-151.23613039554087,384.0982593855157 L-155.37016855244013,387.83624214865006 z" data-gbdraw-feature-id="f96b34d4c" fill="#54bcf8" id="f96b34d4c" stroke="gray" stroke-linecap="round" stroke-linejoin="round" stroke-miterlimit="4" stroke-width="1.0" /><path d="M -146.86567644319126,365.49648846860873A393.9,393.9 0 0 1 -147.1985743317233,365.3625455827514 L-153.35355391331802,368.2443448339092 L-150.9355272215868,374.6380608298383A403.9,403.9 0 0 0 -150.59417800305903,374.7754041443795 z" data-gbdraw-feature-id="fd4cbaf9a" fill="#54bcf8" id="fd4cbaf9a" stroke="gray" stroke-linecap="round" stroke-linejoin="round" stroke-miterlimit="4" stroke-width="1.0" /><path d="M -152.14970562904978,363.3286075675758A393.9,393.9 0 0 1 -152.54654307407216,363.1621706567883 L-158.7431665956055,365.95329901395866 L-156.4192656705198,372.38182464655193A403.9,403.9 0 0 0 -156.01235365212796,372.5524869168415 z" data-gbdraw-feature-id="f78bc46ba" fill="#54bcf8" id="f78bc46ba" stroke="gray" stroke-linecap="round" stroke-linejoin="round" stroke-miterlimit="4" stroke-width="1.0" /><path d="M -169.63165526209445,370.8449022610961A407.79999999999995,407.79999999999995 0 0 0 -166.9785930037605,372.04702589657194 L-164.6412140828586,378.5460482230957 L-171.07321274392137,381.17029774298123A417.79999999999995,417.79999999999995 0 0 1 -173.79133292913946,379.93869584278065 z" data-gbdraw-feature-id="f4570ab22" fill="#54bcf8" id="f4570ab22" stroke="gray" stroke-linecap="round" stroke-linejoin="round" stroke-miterlimit="4" stroke-width="1.0" /><path d="M -174.37404280010853,368.6387570475273 L-172.21098978888415,375.16291793823757 L-178.65001246171002,377.6784519236315 z" data-gbdraw-feature-id="f61798e45" fill="#54bcf8" id="f61798e45" stroke="gray" stroke-linecap="round" stroke-linejoin="round" stroke-miterlimit="4" stroke-width="1.0" /><path d="M -169.1625336070027,355.72636565717147A393.9,393.9 0 0 1 -184.0726195038764,348.2448574623624 L-190.49184594722493,350.4769131164258 L-188.74569946081667,357.08580332330075A403.9,403.9 0 0 0 -173.45708891563442,364.7572457195521 z" data-gbdraw-feature-id="f56327fe0" fill="#54bcf8" id="f56327fe0" stroke="gray" stroke-linecap="round" stroke-linejoin="round" stroke-miterlimit="4" stroke-width="1.0" /><path d="M -188.00641286519132,346.1369652631213A393.9,393.9 0 0 1 -192.76419589266047,343.5100795928061 L-199.23747649408068,345.58014694173426 L-197.65793023875494,352.23082291834066A403.9,403.9 0 0 0 -192.77936064039292,354.92439773997125 z" data-gbdraw-feature-id="f11551f79" fill="#54bcf8" id="f11551f79" stroke="gray" stroke-linecap="round" stroke-linejoin="round" stroke-miterlimit="4" stroke-width="1.0" /><path d="M -196.90528206020699,341.15322055755286A393.9,393.9 0 0 1 -202.55489532134192,337.8294308987306 L-209.0849836774609,339.71264268583803 L-207.69718766257932,346.40595872048056A403.9,403.9 0 0 0 -201.90414679897845,349.8141299395674 z" data-gbdraw-feature-id="f423ac557" fill="#54bcf8" id="f423ac557" stroke="gray" stroke-linecap="round" stroke-linejoin="round" stroke-miterlimit="4" stroke-width="1.0" /><path d="M -206.49803831242417,335.43370458724115A393.9,393.9 0 0 1 -208.1405117345571,334.4170111924283 L-214.7009911196519,336.19145499586864 L-213.42460698042044,342.90690738924036A403.9,403.9 0 0 0 -211.74043583241465,343.94941173593986 z" data-gbdraw-feature-id="f4166f00b" fill="#54bcf8" id="f4166f00b" stroke="gray" stroke-linecap="round" stroke-linejoin="round" stroke-miterlimit="4" stroke-width="1.0" /><path d="M -224.2386124792697,340.61398191115387A407.79999999999995,407.79999999999995 0 0 0 -223.969465464534,340.7910188657132 L-222.6943611368824,347.5788565460157 L-229.46160537293355,349.14783639552473A417.79999999999995,417.79999999999995 0 0 1 -229.7373523635088,348.9664581718492 z" data-gbdraw-feature-id="f8ad5b40a" fill="#54bcf8" id="f8ad5b40a" stroke="gray" stroke-linecap="round" stroke-linejoin="round" stroke-miterlimit="4" stroke-width="1.0" /><path d="M -249.55335491440078,322.5274609253716A407.79999999999995,407.79999999999995 0 0 0 -229.7984000404914,336.8880160213929 L-228.64024446680784,343.6967829499693 L-235.43347605914002,345.1491248007306A417.79999999999995,417.79999999999995 0 0 1 -255.67285846796628,330.43642269401727 z" data-gbdraw-feature-id="f52b2f040" fill="#54bcf8" id="f52b2f040" stroke="gray" stroke-linecap="round" stroke-linejoin="round" stroke-miterlimit="4" stroke-width="1.0" /><path d="M -243.01514187535014,310.0013722861617 L-248.3347814560098,312.17150145264037 L-249.18460473077917,317.87142489560983 z" data-gbdraw-feature-id="fb1958bfa" fill="#54bcf8" id="fb1958bfa" stroke="gray" stroke-linecap="round" stroke-linejoin="round" stroke-miterlimit="4" stroke-width="1.0" /><path d="M -245.30284357573606,308.1942973736827A393.9,393.9 0 0 1 -245.97457925763345,307.65844106578675 L-252.6980521893616,308.6501327064394 L-252.2191738059359,315.46901331929746A403.9,403.9 0 0 0 -251.5303846667677,316.0184734938574 z" data-gbdraw-feature-id="f69ce00e9" fill="#54bcf8" id="f69ce00e9" stroke="gray" stroke-linecap="round" stroke-linejoin="round" stroke-miterlimit="4" stroke-width="1.0" /><path d="M -259.9363068951495,314.21959893951646 L-261.5228481503873,319.38947993838093 L-266.31041937418706,321.9248367752084 z" data-gbdraw-feature-id="f1ed739c2" fill="#54bcf8" id="f1ed739c2" stroke="gray" stroke-linecap="round" stroke-linejoin="round" stroke-miterlimit="4" stroke-width="1.0" /><path d="M -251.06404876689228,303.5194448742543A393.9,393.9 0 0 1 -256.0618195152282,299.3151425948088 L-262.81453215445043,300.08287470036896 L-262.56250038639416,306.9139022443342A403.9,403.9 0 0 0 -257.4378504619137,311.22493979363117 z" data-gbdraw-feature-id="f57d3b861" fill="#54bcf8" id="f57d3b861" stroke="gray" stroke-linecap="round" stroke-linejoin="round" stroke-miterlimit="4" stroke-width="1.0" /><path d="M -292.02564282346043,284.6433978393749A407.79999999999995,407.79999999999995 0 0 0 -280.33944048652296,296.15981852321426 L-280.2762614232242,303.0660939178457 L-287.2138750251822,303.4221975944064A417.79999999999995,417.79999999999995 0 0 1 -299.18664436400627,291.62337326456804 z" data-gbdraw-feature-id="f2cd87e52" fill="#54bcf8" id="f2cd87e52" stroke="gray" stroke-linecap="round" stroke-linejoin="round" stroke-miterlimit="4" stroke-width="1.0" /><path d="M -282.8027460895731,274.1893812754178A393.9,393.9 0 0 1 -292.4884801935126,263.83271016704725 L-299.2838274462517,263.7240994469831 L-299.91393031266756,270.5306718366854A403.9,403.9 0 0 0 -289.9823029844594,281.15026935044745 z" data-gbdraw-feature-id="fce04ef20" fill="#54bcf8" id="fce04ef20" stroke="gray" stroke-linecap="round" stroke-linejoin="round" stroke-miterlimit="4" stroke-width="1.0" /><path d="M -313.4134378471631,260.9077556854576A407.79999999999995,407.79999999999995 0 0 0 -309.5590993474937,265.4694031544285 L-310.2129415514394,272.3449483541106 L-317.15005323046313,271.9791972484557A417.79999999999995,417.79999999999995 0 0 1 -321.0989071420911,267.30568986116765 z" data-gbdraw-feature-id="f288b4959" fill="#54bcf8" id="f288b4959" stroke="gray" stroke-linecap="round" stroke-linejoin="round" stroke-miterlimit="4" stroke-width="1.0" /><path d="M -317.963204094068,255.34337830113012A407.79999999999995,407.79999999999995 0 0 0 -316.5361474482966,257.1103019301059 L-317.3733169569807,263.96594038573204 L-324.29819127978993,263.41511561156995A417.79999999999995,417.79999999999995 0 0 1 -325.7602419580716,261.6048637915943 z" data-gbdraw-feature-id="f7d58de50" fill="#54bcf8" id="f7d58de50" stroke="gray" stroke-linecap="round" stroke-linejoin="round" stroke-miterlimit="4" stroke-width="1.0" /><path d="M -321.9856909739698,250.25198262554323A407.79999999999995,407.79999999999995 0 0 0 -320.9221122694643,251.614462733177 L-321.87736016689627,258.4546478823511 L-328.79170796023095,257.7845084107929A417.79999999999995,417.79999999999995 0 0 1 -329.88136755498914,256.3886178051789 z" data-gbdraw-feature-id="fbfba68ee" fill="#54bcf8" id="fbfba68ee" stroke="gray" stroke-linecap="round" stroke-linejoin="round" stroke-miterlimit="4" stroke-width="1.0" /><path d="M -324.01886775018033,247.61383915664152 L-326.45392071607796,252.64931753143654 L-331.96440153512833,253.68578224532817 z" data-gbdraw-feature-id="fa9d1f52a" fill="#54bcf8" id="fa9d1f52a" stroke="gray" stroke-linecap="round" stroke-linejoin="round" stroke-miterlimit="4" stroke-width="1.0" /><path d="M -376.0019208230569,157.871452572565A407.79999999999995,407.79999999999995 0 0 0 -327.37326381289944,243.16164611321767 L-328.5065285309881,249.97460013473187 L-335.40105350914513,249.1244133057929A417.79999999999995,417.79999999999995 0 0 1 -385.22217390846777,161.7427486140698 z" data-gbdraw-feature-id="fc5207615" fill="#54bcf8" id="fc5207615" stroke="gray" stroke-linecap="round" stroke-linejoin="round" stroke-miterlimit="4" stroke-width="1.0" /><path d="M -364.01979867237196,150.48852505930734 A393.9,393.9 0 0 1 -384.91843211399765,83.636180083154 A393.9,393.9 0 0 1 -393.64614833789864,14.139303332805333 L -398.78232151585564,9.6886555530033 L -403.6397037666343,14.498260005382265 A403.9,403.9 0 0 0 -394.6904156660159,85.7594646752625 A403.9,403.9 0 0 0 -373.2612253967277,154.3090004352735 z" data-gbdraw-feature-id="fe2e792ef" fill="#54bcf8" id="fe2e792ef" stroke="gray" stroke-linecap="round" stroke-linejoin="round" stroke-miterlimit="4" stroke-width="1.0" /><path d="M -407.73902589546657,7.051720486237372 L-412.7048836631422,8.86109477391043 L-417.7375306991808,7.224641537886154 z" data-gbdraw-feature-id="f875ddd35" fill="#54bcf8" id="f875ddd35" stroke="gray" stroke-linecap="round" stroke-linejoin="round" stroke-miterlimit="4" stroke-width="1.0" /><path d="M -393.8630172772315,5.397556972854643A393.9,393.9 0 0 1 -393.8300266571825,-7.424291427667297 L-398.714939944709,-12.149348331787069 L-403.82825023314547,-7.612773058224985A403.9,403.9 0 0 0 -403.86207839114957,5.5345855834881705 z" data-gbdraw-feature-id="fc91d94a9" fill="#54bcf8" id="fc91d94a9" stroke="gray" stroke-linecap="round" stroke-linejoin="round" stroke-miterlimit="4" stroke-width="1.0" /><path d="M -393.70446213326073,-12.40993538902776A393.9,393.9 0 0 1 -393.59462790056995,-15.507381720067082 L-398.38151449090185,-20.331721814331132 L-403.5868753720238,-15.901070009482341A403.9,403.9 0 0 0 -403.69949798330543,-12.724988331120366 z" data-gbdraw-feature-id="f642852ca" fill="#54bcf8" id="f642852ca" stroke="gray" stroke-linecap="round" stroke-linejoin="round" stroke-miterlimit="4" stroke-width="1.0" /><path d="M -393.3798837378493,-20.235539785144574A393.9,393.9 0 0 1 -393.0955341803564,-25.161697229324226 L-397.7625877090508,-30.10205672374612 L-403.07511108262497,-25.800481114303263A403.9,403.9 0 0 0 -403.3666794661521,-20.749262551967234 z" data-gbdraw-feature-id="f0ee5cfc8" fill="#54bcf8" id="f0ee5cfc8" stroke="gray" stroke-linecap="round" stroke-linejoin="round" stroke-miterlimit="4" stroke-width="1.0" /><path d="M -392.76542617203194,-29.8752406501121 L-397.41466604719426,-34.39176079524033 L-402.7366225714235,-30.633687988271838 z" data-gbdraw-feature-id="f247663c5" fill="#54bcf8" id="f247663c5" stroke="gray" stroke-linecap="round" stroke-linejoin="round" stroke-miterlimit="4" stroke-width="1.0" /><path d="M -392.40022603274394,-34.34053886373186 L-397.0999662750792,-37.8526985079127 L-402.36215103992197,-35.21234741574333 z" data-gbdraw-feature-id="f85ed8342" fill="#54bcf8" id="f85ed8342" stroke="gray" stroke-linecap="round" stroke-linejoin="round" stroke-miterlimit="4" stroke-width="1.0" /><path d="M -405.4934118921371,-43.31204119033907 L-410.9277509992981,-39.271153009032204 L-415.4368501435382,-44.37413145984224 z" data-gbdraw-feature-id="fb1142637" fill="#54bcf8" id="fb1142637" stroke="gray" stroke-linecap="round" stroke-linejoin="round" stroke-miterlimit="4" stroke-width="1.0" /><path d="M -389.2564244294702,-60.30461044053052A393.9,393.9 0 0 1 -387.4703326985934,-70.87983689626638 L-391.5287347783655,-76.33125076174424 L-397.3071017440007,-72.67927423813657A403.9,403.9 0 0 0 -399.13853726088604,-61.83557287872627 z" data-gbdraw-feature-id="f0b7e5d0f" fill="#54bcf8" id="f0b7e5d0f" stroke="gray" stroke-linecap="round" stroke-linejoin="round" stroke-miterlimit="4" stroke-width="1.0" /><path d="M -386.53881739666696,-75.79546586429893A393.9,393.9 0 0 1 -386.2234548613779,-77.38638714232101 L-390.1895996592186,-82.90528522222648 L-396.0285692269879,-79.35100727794733A403.9,403.9 0 0 0 -396.35193791955777,-77.7196970362791 z" data-gbdraw-feature-id="fde1f8f42" fill="#54bcf8" id="fde1f8f42" stroke="gray" stroke-linecap="round" stroke-linejoin="round" stroke-miterlimit="4" stroke-width="1.0" /><path d="M -397.657268528464,-90.38548991116359A407.79999999999995,407.79999999999995 0 0 0 -397.85349637236556,-89.51779389754913 L-403.7566416420878,-85.93261505332349 L-407.6095899567786,-91.71293352230512A417.79999999999995,417.79999999999995 0 0 1 -407.40855024814186,-92.60190702521861 z" data-gbdraw-feature-id="fec69f70d" fill="#54bcf8" id="fec69f70d" stroke="gray" stroke-linecap="round" stroke-linejoin="round" stroke-miterlimit="4" stroke-width="1.0" /><path d="M -396.76941765492234,-94.20652426331068 L-402.006076639965,-93.78141790644118 L-406.4989276513648,-96.51664011086612 z" data-gbdraw-feature-id="fdbdb2f86" fill="#54bcf8" id="fdbdb2f86" stroke="gray" stroke-linecap="round" stroke-linejoin="round" stroke-miterlimit="4" stroke-width="1.0" /><path d="M -383.0685129155635,-91.73725749475385 L-387.01357026548743,-96.65250348728999 L-392.7935322838184,-94.06620538748686 z" data-gbdraw-feature-id="f7e9ded5d" fill="#54bcf8" id="f7e9ded5d" stroke="gray" stroke-linecap="round" stroke-linejoin="round" stroke-miterlimit="4" stroke-width="1.0" /><path d="M -394.74571732468877,-102.35555018569761 L-400.3395199027542,-100.6583767206299 L-404.42560249694696,-104.8654950161463 z" data-gbdraw-feature-id="fd980f393" fill="#54bcf8" id="fd980f393" stroke="gray" stroke-linecap="round" stroke-linejoin="round" stroke-miterlimit="4" stroke-width="1.0" /><path d="M -381.01606894761295,-99.9197938534094A393.9,393.9 0 0 1 -378.79502458561797,-108.03489875582353 L-382.3069659443163,-113.85338725945462 L-388.411552247096,-110.77759737871827A403.9,403.9 0 0 0 -390.6889826045719,-102.45647305760868 z" data-gbdraw-feature-id="f7c233710" fill="#54bcf8" id="f7c233710" stroke="gray" stroke-linecap="round" stroke-linejoin="round" stroke-miterlimit="4" stroke-width="1.0" /><path d="M -377.94967338531336,-110.95609216232758A393.9,393.9 0 0 1 -377.93585923612665,-111.00313645771752 L-381.4020477924592,-116.84899631455399 L-387.53057513447965,-113.82119018855573A403.9,403.9 0 0 0 -387.5447399856006,-113.77295157238922 z" data-gbdraw-feature-id="f811c82ae" fill="#54bcf8" id="f811c82ae" stroke="gray" stroke-linecap="round" stroke-linejoin="round" stroke-miterlimit="4" stroke-width="1.0" /><path d="M -376.6539372794535,-115.27801842452658 L-380.7361615520394,-119.00077851266063 L-386.2161088275483,-118.2045992426156 z" data-gbdraw-feature-id="f271b6613" fill="#54bcf8" id="f271b6613" stroke="gray" stroke-linecap="round" stroke-linejoin="round" stroke-miterlimit="4" stroke-width="1.0" /><path d="M -375.5755317482639,-118.74438913906124A393.9,393.9 0 0 1 -375.4816092785678,-119.04104793547857 L-378.82228877344244,-124.95952756172939 L-385.01401875504837,-122.06316136364507A403.9,403.9 0 0 0 -385.11032564895606,-121.75897124464797 z" data-gbdraw-feature-id="fccbb1890" fill="#54bcf8" id="fccbb1890" stroke="gray" stroke-linecap="round" stroke-linejoin="round" stroke-miterlimit="4" stroke-width="1.0" /><path d="M -380.9727064781873,-145.46696160532431A407.79999999999995,407.79999999999995 0 0 0 -385.51340397073193,-132.9671213454635 L-391.77682344638174,-130.05675918714326 L-394.96689597589943,-136.2277177492267A417.79999999999995,417.79999999999995 0 0 1 -390.31485229668135,-149.03407689726458 z" data-gbdraw-feature-id="f471b3ae8" fill="#54bcf8" id="f471b3ae8" stroke="gray" stroke-linecap="round" stroke-linejoin="round" stroke-miterlimit="4" stroke-width="1.0" /><path d="M -374.51472981391885,-161.36776986872977A407.79999999999995,407.79999999999995 0 0 0 -378.60438924375853,-151.52411176232155 L-385.00170085685215,-148.9212219172637 L-387.8884596028502,-155.23975942691993A417.79999999999995,417.79999999999995 0 0 1 -383.69851426251915,-165.3248019891008 z" data-gbdraw-feature-id="fb76fe05b" fill="#54bcf8" id="fb76fe05b" stroke="gray" stroke-linecap="round" stroke-linejoin="round" stroke-miterlimit="4" stroke-width="1.0" /><path d="M -362.00026548841373,-155.2836687688629 L-365.6082963544273,-159.53615150433214 L-371.1904220126182,-159.22587919711532 z" data-gbdraw-feature-id="f2ec8b9ab" fill="#54bcf8" id="f2ec8b9ab" stroke="gray" stroke-linecap="round" stroke-linejoin="round" stroke-miterlimit="4" stroke-width="1.0" /><path d="M -361.13352314065037,-157.2888694854831A393.9,393.9 0 0 1 -350.2014552184612,-180.32235236617808 L-352.5023155157326,-186.71723957912107 L-359.0920735281454,-184.9002237133773A403.9,403.9 0 0 0 -370.3016755433071,-161.28198625332985 z" data-gbdraw-feature-id="f6fbbaee8" fill="#54bcf8" id="f6fbbaee8" stroke="gray" stroke-linecap="round" stroke-linejoin="round" stroke-miterlimit="4" stroke-width="1.0" /><path d="M -347.7673210924286,-184.97324233573806A393.9,393.9 0 0 1 -343.00158192753565,-193.66756257878606 L-345.05460602147633,-200.14626867209824 L-351.7094159444825,-198.58423083415002A403.9,403.9 0 0 0 -356.59614366395505,-189.6691865432968 z" data-gbdraw-feature-id="fcd45d501" fill="#54bcf8" id="fcd45d501" stroke="gray" stroke-linecap="round" stroke-linejoin="round" stroke-miterlimit="4" stroke-width="1.0" /><path d="M -340.91272514192354,-197.32137197046669A393.9,393.9 0 0 1 -333.3993498291151,-209.76673600340763 L-335.14182144665085,-216.3357795590484 L-341.86341050007513,-215.0921164553855A403.9,403.9 0 0 0 -349.56752902976115,-202.33080004790935 z" data-gbdraw-feature-id="f3b2a52eb" fill="#54bcf8" id="f3b2a52eb" stroke="gray" stroke-linecap="round" stroke-linejoin="round" stroke-miterlimit="4" stroke-width="1.0" /><path d="M -330.62182868162716,-214.11776292315582A393.9,393.9 0 0 1 -326.20045369698283,-220.7950950720657 L-327.72234692286645,-227.41871806728736 L-334.48175488248637,-226.40045417518996A403.9,403.9 0 0 0 -339.0153759951998,-219.5536035660387 z" data-gbdraw-feature-id="fb226fd84" fill="#54bcf8" id="fb226fd84" stroke="gray" stroke-linecap="round" stroke-linejoin="round" stroke-miterlimit="4" stroke-width="1.0" /><path d="M -305.3624207320707,-270.28620387405977A407.79999999999995,407.79999999999995 0 0 0 -332.1593066646598,-236.58198366750676 L-338.99015687254035,-235.5621224720359 L-340.30445886340084,-242.3834055328208A417.79999999999995,417.79999999999995 0 0 1 -312.85046439886986,-276.9141147096179 z" data-gbdraw-feature-id="fd129364b" fill="#54bcf8" id="fd129364b" stroke="gray" stroke-linecap="round" stroke-linejoin="round" stroke-miterlimit="4" stroke-width="1.0" /><path d="M -294.41110955387484,-261.6855146378116 L-295.3420318410739,-268.13111387525703 L-301.88536976087846,-268.32896512366614 z" data-gbdraw-feature-id="f68df102a" fill="#54bcf8" id="f68df102a" stroke="gray" stroke-linecap="round" stroke-linejoin="round" stroke-miterlimit="4" stroke-width="1.0" /><path d="M -291.6133768392051,-264.7996383087329A393.9,393.9 0 0 1 -290.42402234952067,-266.1035460912258 L-290.96141373508584,-272.8784815944272 L-297.79706175925713,-272.8591578224069A403.9,403.9 0 0 0 -299.01661057465077,-271.5221475321076 z" data-gbdraw-feature-id="f48c84666" fill="#54bcf8" id="f48c84666" stroke="gray" stroke-linecap="round" stroke-linejoin="round" stroke-miterlimit="4" stroke-width="1.0" /><path d="M -294.9945002407449,-281.56541838037055 L-300.8780132851796,-282.6238863252065 L-302.2283035816165,-288.4699161336901 z" data-gbdraw-feature-id="f59df1fe4" fill="#54bcf8" id="f59df1fe4" stroke="gray" stroke-linecap="round" stroke-linejoin="round" stroke-miterlimit="4" stroke-width="1.0" /><path d="M -286.93369440988596,-269.8634191814336 L-288.2674316059234,-275.72286425924904 L-294.2181243263593,-276.7144833901524 z" data-gbdraw-feature-id="f937f5852" fill="#54bcf8" id="f937f5852" stroke="gray" stroke-linecap="round" stroke-linejoin="round" stroke-miterlimit="4" stroke-width="1.0" /><path d="M -289.34359072002997,-287.36932075160655A407.79999999999995,407.79999999999995 0 0 0 -291.19879766312636,-285.4892296384394 L-298.10511911718993,-285.547155398414 L-298.33952345182485,-292.4899464025012A417.79999999999995,417.79999999999995 0 0 1 -296.4388234498002,-294.41614077984605 z" data-gbdraw-feature-id="f122944af" fill="#54bcf8" id="f122944af" stroke="gray" stroke-linecap="round" stroke-linejoin="round" stroke-miterlimit="4" stroke-width="1.0" /><path d="M -279.6049835772812,-296.8533192651689A407.79999999999995,407.79999999999995 0 0 0 -285.5294217640983,-291.1593881485872 L-292.43326931825163,-291.3530899026796 L-292.5311241124087,-298.2991475440896A417.79999999999995,417.79999999999995 0 0 1 -286.46140789256515,-304.132704239793 z" data-gbdraw-feature-id="f2004c1dd" fill="#54bcf8" id="f2004c1dd" stroke="gray" stroke-linecap="round" stroke-linejoin="round" stroke-miterlimit="4" stroke-width="1.0" /><path d="M -274.0617224018331,-301.9784964432742A407.79999999999995,407.79999999999995 0 0 0 -275.8847141801906,-300.3139432023003 L-282.7785759169506,-300.7326337502822 L-282.64991070251017,-307.6781889895073A417.79999999999995,417.79999999999995 0 0 1 -280.7822158398378,-309.3835601128003 z" data-gbdraw-feature-id="f38e77334" fill="#54bcf8" id="f38e77334" stroke="gray" stroke-linecap="round" stroke-linejoin="round" stroke-miterlimit="4" stroke-width="1.0" /><path d="M -267.83587872020064,-307.5138729719002A407.79999999999995,407.79999999999995 0 0 0 -269.93299003689344,-305.67469782391595 L-276.8172983550169,-306.2287108215517 L-276.55223942475254,-313.17039909473294A417.79999999999995,417.79999999999995 0 0 1 -274.40370311255475,-315.0546741727805 z" data-gbdraw-feature-id="f20411a82" fill="#54bcf8" id="f20411a82" stroke="gray" stroke-linecap="round" stroke-linejoin="round" stroke-miterlimit="4" stroke-width="1.0" /><path d="M -259.0671770038938,-314.93656154729496A407.79999999999995,407.79999999999995 0 0 0 -263.87712274916794,-310.91751975342356 L-270.7492216060738,-311.60664145634814 L-270.34787122266397,-318.54178458308087A417.79999999999995,417.79999999999995 0 0 1 -265.4199768323365,-322.65938061417324 z" data-gbdraw-feature-id="fb6444277" fill="#54bcf8" id="fb6444277" stroke="gray" stroke-linecap="round" stroke-linejoin="round" stroke-miterlimit="4" stroke-width="1.0" /><path d="M -253.11530848250968,-319.7397075932295A407.79999999999995,407.79999999999995 0 0 0 -254.9884427754044,-318.24791287764054 L-261.83833137058923,-319.1308951277915 L-261.241224599225,-326.05193232044684A417.79999999999995,417.79999999999995 0 0 1 -259.32215763607786,-327.58030856412773 z" data-gbdraw-feature-id="fbb345f2b" fill="#54bcf8" id="fbb345f2b" stroke="gray" stroke-linecap="round" stroke-linejoin="round" stroke-miterlimit="4" stroke-width="1.0" /><path d="M -227.62757229353113,-338.3585795155093A407.79999999999995,407.79999999999995 0 0 0 -248.68850625376592,-323.1947816058771 L-255.5197307004553,-324.21213305915427 L-254.7868021403222,-331.1201072950845A417.79999999999995,417.79999999999995 0 0 1 -233.20941565531464,-346.6557491946537 z" data-gbdraw-feature-id="f6e551dec" fill="#54bcf8" id="f6e551dec" stroke="gray" stroke-linecap="round" stroke-linejoin="round" stroke-miterlimit="4" stroke-width="1.0" /><path d="M -219.69082042517834,-326.9451841225254 L-220.65326982405205,-332.31512832844976 L-225.26814513767334,-335.2453918941051 z" data-gbdraw-feature-id="f64131ae4" fill="#54bcf8" id="f64131ae4" stroke="gray" stroke-linecap="round" stroke-linejoin="round" stroke-miterlimit="4" stroke-width="1.0" /><path d="M -215.00921614324577,-346.5138914581449 L-219.17128130597717,-349.8110767981714 L-220.28163439099578,-355.0110442648674 z" data-gbdraw-feature-id="f2e531e6a" fill="#54bcf8" id="f2e531e6a" stroke="gray" stroke-linecap="round" stroke-linejoin="round" stroke-miterlimit="4" stroke-width="1.0" /><path d="M -205.81438589299395,-335.85361180057265A393.9,393.9 0 0 1 -205.46768305759522,-336.0658286986994 L-204.10974003207642,-342.7249976643638 L-210.68392278995356,-344.59758367962604A403.9,403.9 0 0 0 -211.0394274236615,-344.3799791984039 z" data-gbdraw-feature-id="f32125ee9" fill="#54bcf8" id="f32125ee9" stroke="gray" stroke-linecap="round" stroke-linejoin="round" stroke-miterlimit="4" stroke-width="1.0" /><path d="M -197.37404652946756,-356.85336730453247A407.79999999999995,407.79999999999995 0 0 0 -204.20384431869812,-352.9895607032379 L-210.84291035708904,-354.89309256753995 L-209.2112951357334,-361.6455087342148A417.79999999999995,417.79999999999995 0 0 1 -202.21401824426567,-365.6040629225936 z" data-gbdraw-feature-id="f42d3bf27" fill="#54bcf8" id="f42d3bf27" stroke="gray" stroke-linecap="round" stroke-linejoin="round" stroke-miterlimit="4" stroke-width="1.0" /><path d="M -188.57157816168322,-345.82939422439523 L-187.14007969495023,-352.2780160211075 L-193.35887387535885,-354.60901834788837 z" data-gbdraw-feature-id="f887c6be2" fill="#54bcf8" id="f887c6be2" stroke="gray" stroke-linecap="round" stroke-linejoin="round" stroke-miterlimit="4" stroke-width="1.0" /><path d="M -183.88176209175654,-348.34567252950137 L-183.54276843074885,-354.1655857883096 L-188.5499967221642,-357.1891777980848 z" data-gbdraw-feature-id="fd0a3b9c3" fill="#54bcf8" id="fd0a3b9c3" stroke="gray" stroke-linecap="round" stroke-linejoin="round" stroke-miterlimit="4" stroke-width="1.0" /><path d="M -185.12157121676117,-363.36048749174364A407.79999999999995,407.79999999999995 0 0 0 -185.67220504616478,-363.0794297027785 L-192.20392423844575,-365.3238173283283 L-190.22522625867495,-371.98279972982067A417.79999999999995,417.79999999999995 0 0 1 -189.66108988318493,-372.2707495685397 z" data-gbdraw-feature-id="f1e8fb809" fill="#54bcf8" id="f1e8fb809" stroke="gray" stroke-linecap="round" stroke-linejoin="round" stroke-miterlimit="4" stroke-width="1.0" /><path d="M -180.23991287471648,-350.243891890943 L-180.7229142897439,-355.6127644652563 L-184.81569131784207,-359.13558754697107 z" data-gbdraw-feature-id="fe8315653" fill="#54bcf8" id="fe8315653" stroke="gray" stroke-linecap="round" stroke-linejoin="round" stroke-miterlimit="4" stroke-width="1.0" /><path d="M -177.30237678022525,-351.7400704896771A393.9,393.9 0 0 1 -164.67875715847828,-357.8241424788704 L-162.54997061692404,-364.27835106198273 L-168.8594821434612,-366.9082791246909A403.9,403.9 0 0 0 -181.80357954184558,-360.6697498623523 z" data-gbdraw-feature-id="f2272b90b" fill="#54bcf8" id="f2272b90b" stroke="gray" stroke-linecap="round" stroke-linejoin="round" stroke-miterlimit="4" stroke-width="1.0" /><path d="M -159.47375854232976,-375.3251394942559A407.79999999999995,407.79999999999995 0 0 0 -160.70039828045202,-374.80157682766503 L-167.06543475114412,-377.48242410927054 L-164.6410652319099,-383.99239528837285A417.79999999999995,417.79999999999995 0 0 1 -163.38434604949822,-384.5287966667487 z" data-gbdraw-feature-id="f9f8db9a0" fill="#54bcf8" id="f9f8db9a0" stroke="gray" stroke-linecap="round" stroke-linejoin="round" stroke-miterlimit="4" stroke-width="1.0" /><path d="M -152.66245423443704,-363.1134603221401 L-150.6537283172262,-369.35709570024426 L-156.53811948537478,-372.3318776951317 z" data-gbdraw-feature-id="f623d802b" fill="#54bcf8" id="f623d802b" stroke="gray" stroke-linecap="round" stroke-linejoin="round" stroke-miterlimit="4" stroke-width="1.0" /><path d="M -156.59285397533432,-376.5362108534312 L-159.96443875456058,-380.54594773028185 L-160.43279644652938,-385.7695657051583 z" data-gbdraw-feature-id="f0c752c0a" fill="#54bcf8" id="f0c752c0a" stroke="gray" stroke-linecap="round" stroke-linejoin="round" stroke-miterlimit="4" stroke-width="1.0" /><path d="M -148.1025511158585,-379.9558847458143A407.79999999999995,407.79999999999995 0 0 0 -148.95403199299497,-379.6228870247812 L-155.23252194623393,-382.50059363380336 L-152.60665661273492,-388.9319328076351A417.79999999999995,417.79999999999995 0 0 1 -151.73429587102913,-389.2730962403168 z" data-gbdraw-feature-id="ffe121e37" fill="#54bcf8" id="ffe121e37" stroke="gray" stroke-linecap="round" stroke-linejoin="round" stroke-miterlimit="4" stroke-width="1.0" /><path d="M -139.9333650871994,-368.2062782400275A393.9,393.9 0 0 1 -132.8675453892815,-370.81454311047077 L-130.18436966116622,-377.0586690369614 L-136.2406742389713,-380.2284690589468A403.9,403.9 0 0 0 -143.48587499040323,-377.5539877663039 z" data-gbdraw-feature-id="faaff66c2" fill="#54bcf8" id="faaff66c2" stroke="gray" stroke-linecap="round" stroke-linejoin="round" stroke-miterlimit="4" stroke-width="1.0" /><path d="M -119.33416982568723,-389.9489657788747A407.79999999999995,407.79999999999995 0 0 0 -128.12761567166652,-387.14874932291036 L-134.2406402734586,-390.3630239904541 L-131.2695385669992,-396.6423429796762A417.79999999999995,417.79999999999995 0 0 1 -122.26046138590516,-399.5112258519222 z" data-gbdraw-feature-id="f1c4a7c13" fill="#54bcf8" id="f1c4a7c13" stroke="gray" stroke-linecap="round" stroke-linejoin="round" stroke-miterlimit="4" stroke-width="1.0" /><path d="M -111.9763735716918,-392.12514808633847A407.79999999999995,407.79999999999995 0 0 0 -112.4046945559097,-392.00258244275966 L-118.38307015365316,-395.4608560919718 L-115.16106274021352,-401.6152009430726A417.79999999999995,417.79999999999995 0 0 1 -114.72223854402363,-401.7407721198436 z" data-gbdraw-feature-id="f6954a00c" fill="#54bcf8" id="f6954a00c" stroke="gray" stroke-linecap="round" stroke-linejoin="round" stroke-miterlimit="4" stroke-width="1.0" /><path d="M -108.93086844665766,-378.538341386255A393.9,393.9 0 0 1 -90.07027545687681,-383.46389071087555 L-86.69801898549346,-389.3644353353179 L-92.35690341973229,-393.19894759614783A403.9,403.9 0 0 0 -111.69631319016256,-388.14835259179586 z" data-gbdraw-feature-id="f6fbba00f" fill="#54bcf8" id="f6fbba00f" stroke="gray" stroke-linecap="round" stroke-linejoin="round" stroke-miterlimit="4" stroke-width="1.0" /><path d="M -75.23546727764283,-400.7997810172988A407.79999999999995,407.79999999999995 0 0 0 -83.63387200963987,-399.1318271607454 L-89.34525669677976,-403.0152169655465 L-85.68472713493756,-408.9192677483066A417.79999999999995,417.79999999999995 0 0 1 -77.080378196663,-410.62812287647733 z" data-gbdraw-feature-id="f4e25b687" fill="#54bcf8" id="f4e25b687" stroke="gray" stroke-linecap="round" stroke-linejoin="round" stroke-miterlimit="4" stroke-width="1.0" /><path d="M -69.37376293347212,-387.74281555749087A393.9,393.9 0 0 1 -18.254595495152234,-393.4767842494756 L-13.857896168637453,-398.6592137575391 L-18.718027724021294,-403.46604000599945A403.9,403.9 0 0 0 -71.13496534356281,-397.5865021672266 z" data-gbdraw-feature-id="f40ef2207" fill="#54bcf8" id="f40ef2207" stroke="gray" stroke-linecap="round" stroke-linejoin="round" stroke-miterlimit="4" stroke-width="1.0" /><path d="M -12.06283441121742,-407.6215500019197 L-14.007989410604978,-412.5622574020463 L-12.358637118701909,-417.6171740823983 z" data-gbdraw-feature-id="f7d3c635c" fill="#54bcf8" id="f7d3c635c" stroke="gray" stroke-linecap="round" stroke-linejoin="round" stroke-miterlimit="4" stroke-width="1.0" /><path d="M -0.5592311874750583,-407.7996165526384A407.79999999999995,407.79999999999995 0 0 0 -6.901015538420003,-407.7416044317019 L-11.778027698397361,-412.63194018826965 L-7.070241029798621,-417.74017246582895A417.79999999999995,417.79999999999995 0 0 1 -0.5729445564665997,-417.79960714980956 z" data-gbdraw-feature-id="fba7e555c" fill="#54bcf8" id="fba7e555c" stroke="gray" stroke-linecap="round" stroke-linejoin="round" stroke-miterlimit="4" stroke-width="1.0" /></g><g id="tick" transform="translate(594.914453125,500.0)"><path d="M 2.3164194205872187e-14,-378.3 L2.3641806457539654e-14,-386.1 z" stroke="gray" stroke-width="2.0" /><path d="M 148.47800513075168,-347.94420816043555 L151.53940729839604,-355.1183155451868 z" stroke="gray" stroke-width="2.0" /><path d="M 273.1274751491434,-261.74849057569384 L278.75896948211545,-267.145366670038 z" stroke="gray" stroke-width="2.0" /><path d="M 353.9440042143592,-133.54599163099454 L361.24181873424294,-136.29951723163362 z" stroke="gray" stroke-width="2.0" /><path d="M 377.9577285489749,16.08867396957935 L385.75067140565477,16.42039920606552 z" stroke="gray" stroke-width="2.0" /><path d="M 341.31479873615575,163.14134412740842 L348.35221726679816,166.5050831815818 z" stroke="gray" stroke-width="2.0" /><path d="M 249.89586584536886,284.01222902085294 L255.04835792465482,289.86815126870556 z" stroke="gray" stroke-width="2.0" /><path d="M 118.3723234638618,359.30333012340265 L120.81298992703421,366.7116462084213 z" stroke="gray" stroke-width="2.0" /><path d="M -32.14823509863723,376.9315335442801 L-32.811085306856555,384.7033177410694 z" stroke="gray" stroke-width="2.0" /><path d="M -177.5094749581828,334.06777201650306 L-181.16946413257836,340.9557673158124 z" stroke="gray" stroke-width="2.0" /><path d="M -294.3830559682385,237.5910485662306 L-300.4528096995424,242.48983307275083 z" stroke="gray" stroke-width="2.0" /><path d="M -364.0124880590943,102.98445774498066 L-371.51790018402414,105.10784862632048 z" stroke="gray" stroke-width="2.0" /><path d="M -375.2232719103317,-48.149623227033715 L-382.9598342177612,-49.142398963673585 z" stroke="gray" stroke-width="2.0" /><path d="M -326.2162416697355,-191.55639814653205 L-332.9423497454002,-195.5060146031616 z" stroke="gray" stroke-width="2.0" /><path d="M -224.85630459957778,-304.2211897317836 L-229.49251706554847,-310.4937915819235 z" stroke="gray" stroke-width="2.0" /><path d="M -87.41023918557379,-368.06295668746776 L-89.21251215847222,-375.6518836294774 z" stroke="gray" stroke-width="2.0" /><path d="M 108.38172501884733,-336.4231476767347A353.45032552083336,353.45032552083336 0 0 1 167.90286010309478,-311.02373250281664" fill="none" id="id1" stroke="none" /><text dominant-baseline="text-after-edge"><textPath dominant-baseline="text-after-edge" font-family="'Liberation Sans', 'Arial', 'Helvetica', 'Nimbus Sans L', sans-serif" font-size="14.0" font-style="normal" font-weight="normal" startOffset="50%" text-anchor="middle" xlink:href="#id1">20 kbp</textPath></text><path d="M 231.50471752734504,-267.08181962343906A353.45032552083336,353.45032552083336 0 0 1 276.6858096862783,-219.93657114957412" fill="none" id="id2" stroke="none" /><text dominant-baseline="text-after-edge"><textPath dominant-baseline="text-after-edge" font-family="'Liberation Sans', 'Arial', 'Helvetica', 'Nimbus Sans L', sans-serif" font-size="14.0" font-style="normal" font-weight="normal" startOffset="50%" text-anchor="middle" xlink:href="#id2">40 kbp</textPath></text><path d="M 317.84418853806903,-154.60337778767803A353.45032552083336,353.45032552083336 0 0 1 340.7517351913605,-93.8902954242875" fill="none" id="id3" stroke="none" /><text dominant-baseline="text-after-edge"><textPath dominant-baseline="text-after-edge" font-family="'Liberation Sans', 'Arial', 'Helvetica', 'Nimbus Sans L', sans-serif" font-size="14.0" font-style="normal" font-weight="normal" startOffset="50%" text-anchor="middle" xlink:href="#id3">60 kbp</textPath></text><path d="M 350.25876217458017,47.39126639702649A353.45032552083336,353.45032552083336 1 0 0 353.0190799300544,-17.45456433489472" fill="none" id="id4" stroke="none" /><text dominant-baseline="text-before-edge"><textPath dominant-baseline="text-before-edge" font-family="'Liberation Sans', 'Arial', 'Helvetica', 'Nimbus Sans L', sans-serif" font-size="14.0" font-style="normal" font-weight="normal" startOffset="50%" text-anchor="middle" xlink:href="#id4">80 kbp</textPath></text><path d="M 300.10983628751,186.71159250102022A353.45032552083336,353.45032552083336 1 0 0 333.7777950667091,116.27345411223064" fill="none" id="id5" stroke="none" /><text dominant-baseline="text-before-edge"><textPath dominant-baseline="text-before-edge" font-family="'Liberation Sans', 'Arial', 'Helvetica', 'Nimbus Sans L', sans-serif" font-size="14.0" font-style="normal" font-weight="normal" startOffset="50%" text-anchor="middle" xlink:href="#id5">100 kbp</textPath></text><path d="M 203.00376662965752,289.338216184718A353.45032552083336,353.45032552083336 1 0 0 261.14691326630236,238.17939101077872" fill="none" id="id6" stroke="none" /><text dominant-baseline="text-before-edge"><textPath dominant-baseline="text-before-edge" font-family="'Liberation Sans', 'Arial', 'Helvetica', 'Nimbus Sans L', sans-serif" font-size="14.0" font-style="normal" font-weight="normal" startOffset="50%" text-anchor="middle" xlink:href="#id6">120 kbp</textPath></text><path d="M 72.49034878714883,345.9368178490121A353.45032552083336,353.45032552083336 1 0 0 147.32480659362338,321.28263876676334" fill="none" id="id7" stroke="none" /><text dominant-baseline="text-before-edge"><textPath dominant-baseline="text-before-edge" font-family="'Liberation Sans', 'Arial', 'Helvetica', 'Nimbus Sans L', sans-serif" font-size="14.0" font-style="normal" font-weight="normal" startOffset="50%" text-anchor="middle" xlink:href="#id7">140 kbp</textPath></text><path d="M -68.51898329298194,346.7452689501028A353.45032552083336,353.45032552083336 1 0 0 8.809139672940502,353.3405321626797" fill="none" id="id8" stroke="none" /><text dominant-baseline="text-before-edge"><textPath dominant-baseline="text-before-edge" font-family="'Liberation Sans', 'Arial', 'Helvetica', 'Nimbus Sans L', sans-serif" font-size="14.0" font-style="normal" font-weight="normal" startOffset="50%" text-anchor="middle" xlink:href="#id8">160 kbp</textPath></text><path d="M -199.20436652083524,291.9670408964269A353.45032552083336,353.45032552083336 1 0 0 -130.47781266188179,328.48542283296825" fill="none" id="id9" stroke="none" /><text dominant-baseline="text-before-edge"><textPath dominant-baseline="text-before-edge" font-family="'Liberation Sans', 'Arial', 'Helvetica', 'Nimbus Sans L', sans-serif" font-size="14.0" font-style="normal" font-weight="normal" startOffset="50%" text-anchor="middle" xlink:href="#id9">180 kbp</textPath></text><path d="M -297.8682939146147,190.26721233880468A353.45032552083336,353.45032552083336 1 0 0 -248.8615331038287,250.9881868773808" fill="none" id="id10" stroke="none" /><text dominant-baseline="text-before-edge"><textPath dominant-baseline="text-before-edge" font-family="'Liberation Sans', 'Arial', 'Helvetica', 'Nimbus Sans L', sans-serif" font-size="14.0" font-style="normal" font-weight="normal" startOffset="50%" text-anchor="middle" xlink:href="#id10">200 kbp</textPath></text><path d="M -348.59223032624465,58.400253141210314A353.45032552083336,353.45032552083336 1 0 0 -327.5202914828506,132.88186963529546" fill="none" id="id11" stroke="none" /><text dominant-baseline="text-before-edge"><textPath dominant-baseline="text-before-edge" font-family="'Liberation Sans', 'Arial', 'Helvetica', 'Nimbus Sans L', sans-serif" font-size="14.0" font-style="normal" font-weight="normal" startOffset="50%" text-anchor="middle" xlink:href="#id11">220 kbp</textPath></text><path d="M -353.4051343581309,-5.651868725875537A353.45032552083336,353.45032552083336 0 0 1 -343.3818848881538,-83.76164839257729" fill="none" id="id12" stroke="none" /><text dominant-baseline="text-after-edge"><textPath dominant-baseline="text-after-edge" font-family="'Liberation Sans', 'Arial', 'Helvetica', 'Nimbus Sans L', sans-serif" font-size="14.0" font-style="normal" font-weight="normal" startOffset="50%" text-anchor="middle" xlink:href="#id12">240 kbp</textPath></text><path d="M -322.58608808483524,-144.4484281150403A353.45032552083336,353.45032552083336 0 0 1 -283.3086217383679,-211.33707071758488" fill="none" id="id13" stroke="none" /><text dominant-baseline="text-after-edge"><textPath dominant-baseline="text-after-edge" font-family="'Liberation Sans', 'Arial', 'Helvetica', 'Nimbus Sans L', sans-serif" font-size="14.0" font-style="normal" font-weight="normal" startOffset="50%" text-anchor="middle" xlink:href="#id13">260 kbp</textPath></text><path d="M -240.0870123980609,-259.39421560350263A353.45032552083336,353.45032552083336 0 0 1 -177.53347143982796,-305.62885846939724" fill="none" id="id14" stroke="none" /><text dominant-baseline="text-after-edge"><textPath dominant-baseline="text-after-edge" font-family="'Liberation Sans', 'Arial', 'Helvetica', 'Nimbus Sans L', sans-serif" font-size="14.0" font-style="normal" font-weight="normal" startOffset="50%" text-anchor="middle" xlink:href="#id14">280 kbp</textPath></text><path d="M -119.21233794318943,-332.73946428535027A353.45032552083336,353.45032552083336 0 0 1 -43.12189965637484,-350.80996904422284" fill="none" id="id15" stroke="none" /><text dominant-baseline="text-after-edge"><textPath dominant-baseline="text-after-edge" font-family="'Liberation Sans', 'Arial', 'Helvetica', 'Nimbus Sans L', sans-serif" font-size="14.0" font-style="normal" font-weight="normal" startOffset="50%" text-anchor="middle" xlink:href="#id15">300 kbp</textPath></text></g><g id="AP027280.1_definition" transform="translate(594.914453125,500.0)"><text dominant-baseline="middle" font-family="'Liberation Sans', 'Arial', 'Helvetica', 'Nimbus Sans L', sans-serif" font-size="18.0" font-weight="bold" text-anchor="middle" x="2.388061258337339e-14" y="-60.0"><tspan>White spot syndrome virus</tspan></text><text dominant-baseline="middle" font-family="'Liberation Sans', 'Arial', 'Helvetica', 'Nimbus Sans L', sans-serif" font-size="18.0" font-weight="bold" text-anchor="middle" x="2.388061258337339e-14" y="-20.0"><tspan>JP02</tspan></text><text dominant-baseline="middle" font-family="'Liberation Sans', 'Arial', 'Helvetica', 'Nimbus Sans L', sans-serif" font-size="18.0" font-weight="normal" text-anchor="middle" x="2.388061258337339e-14" y="20.0">AP027280.1</text><text dominant-baseline="middle" font-family="'Liberation Sans', 'Arial', 'Helvetica', 'Nimbus Sans L', sans-serif" font-size="18.0" font-weight="normal" text-anchor="middle" x="2.388061258337339e-14" y="60.0">311,562 bp</text><text dominant-baseline="middle" font-family="'Liberation Sans', 'Arial', 'Helvetica', 'Nimbus Sans L', sans-serif" font-size="18.0" font-weight="normal" text-anchor="middle" x="2.388061258337339e-14" y="100.0">40.93% GC</text></g><g id="legend" transform="translate(44.0,494.0)"><path d="M 0,-6.0 L 48.48995535714286,-6.0 L 48.48995535714286,6.0 L 0,6.0 z" fill="none" stroke="none" stroke-width="0" /><g data-legend-key="CDS"><path d="M 0,-6.0 L 12.0,-6.0 L 12.0,6.0 L 0,6.0 z" fill="#54bcf8" stroke="gray" stroke-width="1.0" transform="translate(0.0,0.0)" /><text dominant-baseline="central" font-family="'Liberation Sans', 'Arial', 'Helvetica', 'Nimbus Sans L', sans-serif" font-size="12.0" font-weight="normal" text-anchor="start" transform="translate(18.857142857142858,0.0)" x="0" y="0">CDS</text></g></g></svg>