<?xml version="1.0" encoding="utf-8" ?>
<svg baseProfile="full" height="210px" version="1.1" viewBox="0 0 2040 210" width="2040px" xmlns="http://www.w3.org/2000/svg" xmlns:ev="http://www.w3.org/2001/xml-events" xmlns:xlink="http://www.w3.org/1999/xlink"><defs /><g id="NC_000898" transform="translate(80.0,40)"><line fill="none" stroke="lightgray" stroke-width="2" x1="0" x2="1920.0" y1="0" y2="0" /><path d="M 0.0,-11.0L104.14004959472963,-11.0 L104.14004959472963,-2.0L0.0,-2.0 z" fill="#d3d3d3" stroke="none" stroke-width="0.5" /><path d="M 0.6869240164328805,-11.0L4.180761686220808,-11.0 L4.180761686220808,-2.0L0.6869240164328805,-2.0 z" fill="#d3d3d3" stroke="none" stroke-width="0.5" /><path d="M 6.8929271993782155,-11.0L9.960398238276767,-11.0 L9.960398238276767,-2.0L6.8929271993782155,-2.0 z" fill="#47b8f8" stroke="black" stroke-width="0" /><path d="M 9.972241755801473,-6.5L11.28687220104371,-6.5 z" stroke="gray" stroke-width="0.5" /><path d="M 11.298715718568415,-11.0L 32,-11.0 L 35.23446463599689,-6.5L 32,-2.0 L 11.298715718568415,-2.0 z" fill="#47b8f8" stroke="black" stroke-width="0" /><path d="M 39.37969576964358,2.0L 34,2.0 L 32.238054702246565,6.5L 34,11.0 L 39.37969576964358,11.0 z" fill="#47b8f8" stroke="black" stroke-width="0" /><path d="M 35.77926644213331,-11.0L 39,-11.0 L 41.46415485399163,-6.5L 39,-2.0 L 35.77926644213331,-2.0 z" fill="#47b8f8" stroke="black" stroke-width="0" /><path d="M 41.8668344498316,-11.0L 42,-11.0 L 44.709278655760755,-6.5L 42,-2.0 L 41.8668344498316,-2.0 z" fill="#47b8f8" stroke="black" stroke-width="0" /><path d="M 59.525519079166514,-11.0L63.12594840667679,-11.0 L63.12594840667679,-2.0L59.525519079166514,-2.0 z" fill="#47b8f8" stroke="black" stroke-width="0" /><path d="M 63.13779192420149,-6.5L74.9339353788075,-6.5 z" stroke="gray" stroke-width="0.5" /><path d="M 74.9457788963322,-11.0L 83,-11.0 L 85.30885673044894,-6.5L 83,-2.0 L 74.9457788963322,-2.0 z" fill="#47b8f8" stroke="black" stroke-width="0" /><path d="M 87.02616677153114,-11.0 L 89.157999925978,-6.5 L 87.02616677153114,-2.0 z" fill="#47b8f8" stroke="black" stroke-width="0" /><path d="M 97.6971760612902,-11.0L103.16888115770385,-11.0 L103.16888115770385,-2.0L97.6971760612902,-2.0 z" fill="#d3d3d3" stroke="none" stroke-width="0.5" /><path d="M 112.41866834449831,2.0L 107,2.0 L 105.52574114512011,6.5L 107,11.0 L 112.41866834449831,11.0 z" fill="#47b8f8" stroke="black" stroke-width="0" /><path d="M 110.31052222510085,-11.0L112.631851659943,-11.0 L112.631851659943,-2.0L110.31052222510085,-2.0 z" fill="#d3d3d3" stroke="none" stroke-width="0.5" /><path d="M 112.76213035271475,-11.0L 113,-11.0 L 115.60457455864392,-6.5L 113,-2.0 L 112.76213035271475,-2.0 z" fill="#47b8f8" stroke="black" stroke-width="0" /><path d="M 126.90329027721232,2.0L 116,2.0 L 113.97016914023466,6.5L 116,11.0 L 126.90329027721232,11.0 z" fill="#47b8f8" stroke="black" stroke-width="0" /><path d="M 144.55013138902254,2.0L 133,2.0 L 130.79980754284023,6.5L 133,11.0 L 144.55013138902254,11.0 z" fill="#47b8f8" stroke="black" stroke-width="0" /><path d="M 166.2829860468559,2.0L 149,2.0 L 147.23860986713052,6.5L 149,11.0 L 166.2829860468559,11.0 z" fill="#47b8f8" stroke="black" stroke-width="0" /><path d="M 188.18164995003517,2.0L200.85421370146932,2.0 L200.85421370146932,11.0L188.18164995003517,11.0 z" fill="#47b8f8" stroke="black" stroke-width="0" /><path d="M 187.13942040786114,6.5L188.16980643251046,6.5 z" stroke="gray" stroke-width="0.5" /><path d="M 187.12757689033646,2.0L 169,2.0 L 167.6805211147711,6.5L 169,11.0 L 187.12757689033646,11.0 z" fill="#47b8f8" stroke="black" stroke-width="0" /><path d="M 184.78256042044487,-11.0L 184,-11.0 L 187.2341685480588,-6.5L 184,-2.0 L 184.78256042044487,-2.0 z" fill="#47b8f8" stroke="black" stroke-width="0" /><path d="M 215.52833191457862,2.0L 203,2.0 L 200.88974425404345,6.5L 203,11.0 L 215.52833191457862,11.0 z" fill="#47b8f8" stroke="black" stroke-width="0" /><path d="M 219.02216958436657,2.0L 217,2.0 L 215.29146156408453,6.5L 217,11.0 L 219.02216958436657,11.0 z" fill="#47b8f8" stroke="black" stroke-width="0" /><path d="M 219.6025019430771,-11.0L 235,-11.0 L 237.5099004404308,-6.5L 235,-2.0 L 219.6025019430771,-2.0 z" fill="#47b8f8" stroke="black" stroke-width="0" /><path d="M 266.8818239016988,2.0L 238,2.0 L 236.36107924053442,6.5L 238,11.0 L 266.8818239016988,11.0 z" fill="#47b8f8" stroke="black" stroke-width="0" /><path d="M 268.078019171694,-11.0L268.46885525000926,-11.0 L268.46885525000926,-2.0L268.078019171694,-2.0 z" fill="#47b8f8" stroke="black" stroke-width="0" /><path d="M 268.48069876753397,-6.5L269.3689625818868,-6.5 z" stroke="gray" stroke-width="0.5" /><path d="M 269.38080609941153,-11.0L 274,-11.0 L 276.3092638513639,-6.5L 274,-2.0 L 269.38080609941153,-2.0 z" fill="#47b8f8" stroke="black" stroke-width="0" /><path d="M 276.45138606166034,-11.0L 279,-11.0 L 281.5677856323328,-6.5L 279,-2.0 L 276.45138606166034,-2.0 z" fill="#47b8f8" stroke="black" stroke-width="0" /><path d="M 282.5271105518339,-11.0L 284,-11.0 L 286.36441022983826,-6.5L 284,-2.0 L 282.5271105518339,-2.0 z" fill="#47b8f8" stroke="black" stroke-width="0" /><path d="M 287.5132314297347,-11.0L 306,-11.0 L 309.2223990525186,-6.5L 306,-2.0 L 287.5132314297347,-2.0 z" fill="#47b8f8" stroke="black" stroke-width="0" /><path d="M 316.589066952885,2.0L320.3434620082164,2.0 L320.3434620082164,11.0L316.589066952885,11.0 z" fill="#47b8f8" stroke="black" stroke-width="0" /><path d="M 314.7177911839816,6.5L316.57722343536034,6.5 z" stroke="gray" stroke-width="0.5" /><path d="M 313.84137088715346,2.0L314.70594766645695,2.0 L314.70594766645695,11.0L313.84137088715346,11.0 z" fill="#47b8f8" stroke="black" stroke-width="0" /><path d="M 311.8279729079536,6.5L313.8295273696288,6.5 z" stroke="gray" stroke-width="0.5" /><path d="M 311.81612939042896,2.0 L 309.61323513083386,6.5 L 311.81612939042896,11.0 z" fill="#47b8f8" stroke="black" stroke-width="0" /><path d="M 333.8924460564788,2.0L336.6046115696362,2.0 L336.6046115696362,11.0L333.8924460564788,11.0 z" fill="#47b8f8" stroke="black" stroke-width="0" /><path d="M 332.87390354935417,6.5L333.88060253895407,6.5 z" stroke="gray" stroke-width="0.5" /><path d="M 332.86206003182946,2.0L 325,2.0 L 323.6714904326585,6.5L 325,11.0 L 332.86206003182946,11.0 z" fill="#47b8f8" stroke="black" stroke-width="0" /><path d="M 361.049631740627,2.0L 352,2.0 L 350.5681187312632,6.5L 352,11.0 L 361.049631740627,11.0 z" fill="#47b8f8" stroke="black" stroke-width="0" /><path d="M 378.0450793885784,2.0L 366,2.0 L 364.18816388467377,6.5L 366,11.0 L 378.0450793885784,11.0 z" fill="#47b8f8" stroke="black" stroke-width="0" /><path d="M 396.1538176838521,2.0L 383,2.0 L 380.69802731411227,6.5L 383,11.0 L 396.1538176838521,11.0 z" fill="#47b8f8" stroke="black" stroke-width="0" /><path d="M 413.9783115585329,2.0L 398,2.0 L 396.1775047189015,6.5L 398,11.0 L 413.9783115585329,11.0 z" fill="#47b8f8" stroke="black" stroke-width="0" /><path d="M 419.9592879085088,2.0L 415,2.0 L 412.7465857359636,6.5L 415,11.0 L 419.9592879085088,11.0 z" fill="#47b8f8" stroke="black" stroke-width="0" /><path d="M 430.9382286539102,2.0L 422,2.0 L 420.2790628816758,6.5L 422,11.0 L 430.9382286539102,11.0 z" fill="#47b8f8" stroke="black" stroke-width="0" /><path d="M 435.5690440060698,2.0L 434,2.0 L 432.4068248269736,6.5L 434,11.0 L 435.5690440060698,11.0 z" fill="#47b8f8" stroke="black" stroke-width="0" /><path d="M 437.8429993708131,2.0 L 435.7822273215145,6.5 L 437.8429993708131,11.0 z" fill="#47b8f8" stroke="black" stroke-width="0" /><path d="M 449.2956808172027,2.0L 440,2.0 L 438.03249565120836,6.5L 440,11.0 L 449.2956808172027,11.0 z" fill="#47b8f8" stroke="black" stroke-width="0" /><path d="M 461.079980754284,2.0L 452,2.0 L 450.5629371923461,6.5L 452,11.0 L 461.079980754284,11.0 z" fill="#47b8f8" stroke="black" stroke-width="0" /><path d="M 473.9657278211629,2.0L 463,2.0 L 460.92601502646284,6.5L 463,11.0 L 473.9657278211629,11.0 z" fill="#47b8f8" stroke="black" stroke-width="0" /><path d="M 503.92982715866617,2.0L 477,2.0 L 475.3277323365039,6.5L 477,11.0 L 503.92982715866617,11.0 z" fill="#47b8f8" stroke="black" stroke-width="0" /><path d="M 514.8495503164439,2.0L 506,2.0 L 504.1903845442096,6.5L 506,11.0 L 514.8495503164439,11.0 z" fill="#47b8f8" stroke="black" stroke-width="0" /><path d="M 509.24756652725864,-11.0L 545,-11.0 L 547.7271549650245,-6.5L 545,-2.0 L 509.24756652725864,-2.0 z" fill="#47b8f8" stroke="black" stroke-width="0" /><path d="M 547.9284947629445,-11.0L 619,-11.0 L 621.7609830119545,-6.5L 619,-2.0 L 547.9284947629445,-2.0 z" fill="#47b8f8" stroke="black" stroke-width="0" /><path d="M 625.8233095229284,2.0L 624,2.0 L 622.6255597912581,6.5L 624,11.0 L 625.8233095229284,11.0 z" fill="#47b8f8" stroke="black" stroke-width="0" /><path d="M 642.570043302861,2.0L 628,2.0 L 625.8351530404531,6.5L 628,11.0 L 642.570043302861,11.0 z" fill="#47b8f8" stroke="black" stroke-width="0" /><path d="M 651.8198304896554,2.0L 644,2.0 L 641.9778674266257,6.5L 644,11.0 L 651.8198304896554,11.0 z" fill="#47b8f8" stroke="black" stroke-width="0" /><path d="M 655.8110958954809,2.0L 654,2.0 L 652.0093267700507,6.5L 654,11.0 L 655.8110958954809,11.0 z" fill="#47b8f8" stroke="black" stroke-width="0" /><path d="M 655.7874088604316,-11.0L 670,-11.0 L 673.0197268588771,-6.5L 670,-2.0 L 655.7874088604316,-2.0 z" fill="#47b8f8" stroke="black" stroke-width="0" /><path d="M 673.0552574114512,-11.0L 680,-11.0 L 682.4708538435915,-6.5L 680,-2.0 L 673.0552574114512,-2.0 z" fill="#47b8f8" stroke="black" stroke-width="0" /><path d="M 718.9962618897813,2.0L 685,2.0 L 683.0038121322033,6.5L 685,11.0 L 718.9962618897813,11.0 z" fill="#47b8f8" stroke="black" stroke-width="0" /><path d="M 748.5103075613458,2.0L 721,2.0 L 718.9844183722565,6.5L 721,11.0 L 748.5103075613458,11.0 z" fill="#47b8f8" stroke="black" stroke-width="0" /><path d="M 773.7843739590659,2.0L 750,2.0 L 747.9536622376846,6.5L 750,11.0 L 773.7843739590659,11.0 z" fill="#47b8f8" stroke="black" stroke-width="0" /><path d="M 814.1233946482106,2.0L 776,2.0 L 773.8672785817388,6.5L 776,11.0 L 814.1233946482106,11.0 z" fill="#47b8f8" stroke="black" stroke-width="0" /><path d="M 848.6235611976757,2.0L 832,2.0 L 830.2542655168585,6.5L 832,11.0 L 848.6235611976757,11.0 z" fill="#47b8f8" stroke="black" stroke-width="0" /><path d="M 881.8683148895221,2.0L 853,2.0 L 851.2765091232096,6.5L 853,11.0 L 881.8683148895221,11.0 z" fill="#47b8f8" stroke="black" stroke-width="0" /><path d="M 882.3420555905103,-11.0L 888,-11.0 L 890.585143787705,-6.5L 888,-2.0 L 882.3420555905103,-2.0 z" fill="#47b8f8" stroke="black" stroke-width="0" /><path d="M 903.340612161812,2.0L 892,2.0 L 889.9455938413709,6.5L 892,11.0 L 903.340612161812,11.0 z" fill="#47b8f8" stroke="black" stroke-width="0" /><path d="M 904.1933454235908,-11.0L 904,-11.0 L 907.2134423923906,-6.5L 904,-2.0 L 904.1933454235908,-2.0 z" fill="#47b8f8" stroke="black" stroke-width="0" /><path d="M 935.6260409341575,2.0L 911,2.0 L 909.3689625818868,6.5L 911,11.0 L 935.6260409341575,11.0 z" fill="#47b8f8" stroke="black" stroke-width="0" /><path d="M 963.458307117214,2.0L 941,2.0 L 938.7645730782043,6.5L 941,11.0 L 963.458307117214,11.0 z" fill="#47b8f8" stroke="black" stroke-width="0" /><path d="M 965.3295828861171,-11.0L 972,-11.0 L 974.3188126873682,-6.5L 972,-2.0 L 965.3295828861171,-2.0 z" fill="#47b8f8" stroke="black" stroke-width="0" /><path d="M 971.6658647618343,-11.0L 989,-11.0 L 991.4208519930419,-6.5L 989,-2.0 L 971.6658647618343,-2.0 z" fill="#47b8f8" stroke="black" stroke-width="0" /><path d="M 992.5696731929382,-11.0L 1000,-11.0 L 1003.2999000703207,-6.5L 1000,-2.0 L 992.5696731929382,-2.0 z" fill="#47b8f8" stroke="black" stroke-width="0" /><path d="M 1012.7154965024612,2.0L 1005,2.0 L 1003.5130833857656,6.5L 1005,11.0 L 1012.7154965024612,11.0 z" fill="#47b8f8" stroke="black" stroke-width="0" /><path d="M 1012.7865576076094,-11.0L 1029,-11.0 L 1031.582219919316,-6.5L 1029,-2.0 L 1012.7865576076094,-2.0 z" fill="#47b8f8" stroke="black" stroke-width="0" /><path d="M 1050.6976572041897,2.0L 1036,2.0 L 1034.3536030200971,6.5L 1036,11.0 L 1050.6976572041897,11.0 z" fill="#47b8f8" stroke="black" stroke-width="0" /><path d="M 1069.1261704726305,2.0L 1053,2.0 L 1051.6096080535917,6.5L 1053,11.0 L 1069.1261704726305,11.0 z" fill="#47b8f8" stroke="black" stroke-width="0" /><path d="M 1079.6787445871423,2.0L 1071,2.0 L 1069.1261704726305,6.5L 1071,11.0 L 1079.6787445871423,11.0 z" fill="#47b8f8" stroke="black" stroke-width="0" /><path d="M 1127.5147118694251,2.0L 1081,2.0 L 1079.690588104667,6.5L 1081,11.0 L 1127.5147118694251,11.0 z" fill="#47b8f8" stroke="black" stroke-width="0" /><path d="M 1127.6449905621969,-11.0L 1152,-11.0 L 1155.1101077019875,-6.5L 1152,-2.0 L 1127.6449905621969,-2.0 z" fill="#47b8f8" stroke="black" stroke-width="0" /><path d="M 1155.0627336318887,-11.0L 1165,-11.0 L 1167.533957585403,-6.5L 1165,-2.0 L 1155.0627336318887,-2.0 z" fill="#47b8f8" stroke="black" stroke-width="0" /><path d="M 1218.8282319848995,2.0L1229.1676227839666,2.0 L1229.1676227839666,11.0L1218.8282319848995,11.0 z" fill="#47b8f8" stroke="black" stroke-width="0" /><path d="M 1180.8579148006957,6.5L1218.8163884673747,6.5 z" stroke="gray" stroke-width="0.5" /><path d="M 1180.846071283171,2.0L 1169,2.0 L 1167.4865835153041,6.5L 1169,11.0 L 1180.846071283171,11.0 z" fill="#47b8f8" stroke="black" stroke-width="0" /><path d="M 1180.9763499759429,-11.0L 1181,-11.0 L 1184.103038602465,-6.5L 1181,-2.0 L 1180.9763499759429,-2.0 z" fill="#47b8f8" stroke="black" stroke-width="0" /><path d="M 1183.4042710685073,-11.0L 1188,-11.0 L 1191.1854620822382,-6.5L 1188,-2.0 L 1183.4042710685073,-2.0 z" fill="#47b8f8" stroke="black" stroke-width="0" /><path d="M 1190.9130611791702,-11.0L 1204,-11.0 L 1206.6530959695028,-6.5L 1204,-2.0 L 1190.9130611791702,-2.0 z" fill="#47b8f8" stroke="black" stroke-width="0" /><path d="M 1206.1319811984158,-11.0L 1215,-11.0 L 1218.0702468633185,-6.5L 1215,-2.0 L 1206.1319811984158,-2.0 z" fill="#47b8f8" stroke="black" stroke-width="0" /><path d="M 1228.8241607757504,-11.0L 1239,-11.0 L 1241.401976386987,-6.5L 1239,-2.0 L 1228.8241607757504,-2.0 z" fill="#47b8f8" stroke="black" stroke-width="0" /><path d="M 1241.3901328694621,-11.0L 1243,-11.0 L 1245.4761464154853,-6.5L 1243,-2.0 L 1241.3901328694621,-2.0 z" fill="#47b8f8" stroke="black" stroke-width="0" /><path d="M 1245.4998334505349,-11.0L 1263,-11.0 L 1265.5390651023354,-6.5L 1263,-2.0 L 1245.4998334505349,-2.0 z" fill="#47b8f8" stroke="black" stroke-width="0" /><path d="M 1265.6219697250085,-11.0L 1280,-11.0 L 1282.9964099337503,-6.5L 1280,-2.0 L 1265.6219697250085,-2.0 z" fill="#47b8f8" stroke="black" stroke-width="0" /><path d="M 1282.2384248121693,-11.0L 1282,-11.0 L 1285.1519301232468,-6.5L 1282,-2.0 L 1282.2384248121693,-2.0 z" fill="#47b8f8" stroke="black" stroke-width="0" /><path d="M 1298.3692956808172,2.0L 1288,2.0 L 1286.1112550427476,6.5L 1288,11.0 L 1298.3692956808172,11.0 z" fill="#47b8f8" stroke="black" stroke-width="0" /><path d="M 1298.5114178911135,-11.0L 1323,-11.0 L 1326.260779451497,-6.5L 1323,-2.0 L 1298.5114178911135,-2.0 z" fill="#47b8f8" stroke="black" stroke-width="0" /><path d="M 1325.8817868907065,-11.0L 1347,-11.0 L 1349.4385432473443,-6.5L 1347,-2.0 L 1325.8817868907065,-2.0 z" fill="#47b8f8" stroke="black" stroke-width="0" /><path d="M 1358.7238609867131,2.0L 1352,2.0 L 1349.8412228431844,6.5L 1352,11.0 L 1358.7238609867131,11.0 z" fill="#47b8f8" stroke="black" stroke-width="0" /><path d="M 1381.191013731078,2.0L 1359,2.0 L 1357.6342573744403,6.5L 1359,11.0 L 1381.191013731078,11.0 z" fill="#47b8f8" stroke="black" stroke-width="0" /><path d="M 1378.7512491209889,-11.0L 1405,-11.0 L 1408.0639549946334,-6.5L 1405,-2.0 L 1378.7512491209889,-2.0 z" fill="#47b8f8" stroke="black" stroke-width="0" /><path d="M 1411.0129908582849,-11.0L 1411,-11.0 L 1413.8554350642141,-6.5L 1411,-2.0 L 1411.0129908582849,-2.0 z" fill="#47b8f8" stroke="black" stroke-width="0" /><path d="M 1431.111440097709,-11.0L 1431,-11.0 L 1433.8117620933417,-6.5L 1431,-2.0 L 1431.111440097709,-2.0 z" fill="#47b8f8" stroke="black" stroke-width="0" /><path d="M 1438.809726488767,-11.0L1446.282986046856,-11.0 L1446.282986046856,-2.0L1438.809726488767,-2.0 z" fill="#47b8f8" stroke="black" stroke-width="0" /><path d="M 1446.2948295643805,-6.5L1447.408120211703,-6.5 z" stroke="gray" stroke-width="0.5" /><path d="M 1447.4199637292274,-11.0L1449.7886672341685,-11.0 L1449.7886672341685,-2.0L1447.4199637292274,-2.0 z" fill="#47b8f8" stroke="black" stroke-width="0" /><path d="M 1449.8005107516933,-6.5L1450.7479921536697,-6.5 z" stroke="gray" stroke-width="0.5" /><path d="M 1450.7598356711944,-11.0L 1455,-11.0 L 1458.0080683963138,-6.5L 1455,-2.0 L 1450.7598356711944,-2.0 z" fill="#47b8f8" stroke="black" stroke-width="0" /><path d="M 1467.6131611088495,2.0L 1460,2.0 L 1458.517339649876,6.5L 1460,11.0 L 1467.6131611088495,11.0 z" fill="#47b8f8" stroke="black" stroke-width="0" /><path d="M 1477.4195936193048,2.0L 1470,2.0 L 1468.5014249232022,6.5L 1470,11.0 L 1477.4195936193048,11.0 z" fill="#47b8f8" stroke="black" stroke-width="0" /><path d="M 1478.3078574336578,-11.0L 1480,-11.0 L 1482.3583404271067,-6.5L 1480,-2.0 L 1478.3078574336578,-2.0 z" fill="#47b8f8" stroke="black" stroke-width="0" /><path d="M 1495.7888893001223,2.0L 1485,2.0 L 1483.6019097672008,6.5L 1485,11.0 L 1495.7888893001223,11.0 z" fill="#47b8f8" stroke="black" stroke-width="0" /><path d="M 1506.5191161775049,2.0L 1498,2.0 L 1496.1086642732892,6.5L 1498,11.0 L 1506.5191161775049,11.0 z" fill="#47b8f8" stroke="black" stroke-width="0" /><path d="M 1562.1718050260927,2.0L 1510,2.0 L 1508.1298345608645,6.5L 1510,11.0 L 1562.1718050260927,11.0 z" fill="#47b8f8" stroke="black" stroke-width="0" /><path d="M 1528.3467189755359,-11.0L1535.879196121248,-11.0 L1535.879196121248,-2.0L1528.3467189755359,-2.0 z" fill="#d3d3d3" stroke="none" stroke-width="0.5" /><path d="M 1581.1095895480958,-11.0L1585.4087864095636,-11.0 L1585.4087864095636,-2.0L1581.1095895480958,-2.0 z" fill="#d3d3d3" stroke="none" stroke-width="0.5" /><path d="M 1586.8063214774788,-11.0L1587.9314556423258,-11.0 L1587.9314556423258,-2.0L1586.8063214774788,-2.0 z" fill="#d3d3d3" stroke="none" stroke-width="0.5" /><path d="M 1638.444057885192,2.0L1639.569192050039,2.0 L1639.569192050039,11.0L1638.444057885192,11.0 z" fill="#47b8f8" stroke="black" stroke-width="0" /><path d="M 1637.4255153780673,6.5L1638.4322143676673,6.5 z" stroke="gray" stroke-width="0.5" /><path d="M 1634.9028461453051,2.0L1637.4136718605425,2.0 L1637.4136718605425,11.0L1634.9028461453051,11.0 z" fill="#47b8f8" stroke="black" stroke-width="0" /><path d="M 1633.6119027351124,6.5L1634.8910026277804,6.5 z" stroke="gray" stroke-width="0.5" /><path d="M 1633.6000592175876,2.0L 1601,2.0 L 1598.8985528702024,6.5L 1601,11.0 L 1633.6000592175876,11.0 z" fill="#47b8f8" stroke="black" stroke-width="0" /><path d="M 1641.3930937488435,-11.0L1644.0697287094267,-11.0 L1644.0697287094267,-2.0L1641.3930937488435,-2.0 z" fill="#47b8f8" stroke="black" stroke-width="0" /><path d="M 1644.0815722269513,-6.5L1645.3488286020947,-6.5 z" stroke="gray" stroke-width="0.5" /><path d="M 1645.3606721196195,-11.0L 1645,-11.0 L 1648.2623339131721,-6.5L 1645,-2.0 L 1645.3606721196195,-2.0 z" fill="#47b8f8" stroke="black" stroke-width="0" /><path d="M 1659.0517783781781,-11.0L1689.963359117658,-11.0 L1689.963359117658,-2.0L1659.0517783781781,-2.0 z" fill="#d3d3d3" stroke="none" stroke-width="0.5" /><path d="M 1690.8516229320107,2.0L 1683,2.0 L 1681.4004959472963,6.5L 1683,11.0 L 1690.8516229320107,11.0 z" fill="#47b8f8" stroke="black" stroke-width="0" /><path d="M 1712.158110958955,2.0L 1697,2.0 L 1694.7126096450645,6.5L 1697,11.0 L 1712.158110958955,11.0 z" fill="#47b8f8" stroke="black" stroke-width="0" /><path d="M 1713.034531255783,-11.0L 1753,-11.0 L 1756.133091528184,-6.5L 1753,-2.0 L 1713.034531255783,-2.0 z" fill="#47b8f8" stroke="black" stroke-width="0" /><path d="M 1799.4922091861283,2.0L1804.0638069506642,2.0 L1804.0638069506642,11.0L1799.4922091861283,11.0 z" fill="#47b8f8" stroke="black" stroke-width="0" /><path d="M 1797.940708390392,6.5L1799.4803656686036,6.5 z" stroke="gray" stroke-width="0.5" /><path d="M 1794.5889929309005,2.0L1797.928864872867,2.0 L1797.928864872867,11.0L1794.5889929309005,11.0 z" fill="#47b8f8" stroke="black" stroke-width="0" /><path d="M 1789.8160553684443,6.5L1794.5771494133758,6.5 z" stroke="gray" stroke-width="0.5" /><path d="M 1785.824789962619,2.0L1789.8042118509197,2.0 L1789.8042118509197,11.0L1785.824789962619,11.0 z" fill="#47b8f8" stroke="black" stroke-width="0" /><path d="M 1784.4035678596542,6.5L1785.8129464450942,6.5 z" stroke="gray" stroke-width="0.5" /><path d="M 1783.4679299752027,2.0L1784.3917243421295,2.0 L1784.3917243421295,11.0L1783.4679299752027,11.0 z" fill="#47b8f8" stroke="black" stroke-width="0" /><path d="M 1782.1769865650099,6.5L1783.4560864576779,6.5 z" stroke="gray" stroke-width="0.5" /><path d="M 1780.886043154817,2.0L1782.165143047485,2.0 L1782.165143047485,11.0L1780.886043154817,11.0 z" fill="#47b8f8" stroke="black" stroke-width="0" /><path d="M 1779.76090898997,6.5L1780.8741996372921,6.5 z" stroke="gray" stroke-width="0.5" /><path d="M 1778.398904474629,2.0L1779.7490654724452,2.0 L1779.7490654724452,11.0L1778.398904474629,11.0 z" fill="#47b8f8" stroke="black" stroke-width="0" /><path d="M 1776.6342203634479,6.5L1778.3870609571043,6.5 z" stroke="gray" stroke-width="0.5" /><path d="M 1774.7155705244456,2.0L1776.6223768459233,2.0 L1776.6223768459233,11.0L1774.7155705244456,11.0 z" fill="#47b8f8" stroke="black" stroke-width="0" /><path d="M 1768.7345941744697,6.5L1774.703727006921,6.5 z" stroke="gray" stroke-width="0.5" /><path d="M 1768.604315481698,2.0L1768.722750656945,2.0 L1768.722750656945,11.0L1768.604315481698,11.0 z" fill="#47b8f8" stroke="black" stroke-width="0" /><path d="M 1766.6975091602208,6.5L1768.5924719641732,6.5 z" stroke="gray" stroke-width="0.5" /><path d="M 1765.157851882009,2.0L1766.685665642696,2.0 L1766.685665642696,11.0L1765.157851882009,11.0 z" fill="#47b8f8" stroke="black" stroke-width="0" /><path d="M 1763.6418816388468,6.5L1765.1460083644843,6.5 z" stroke="gray" stroke-width="0.5" /><path d="M 1763.630038121322,2.0L 1763,2.0 L 1760.70468929272,6.5L 1763,11.0 L 1763.630038121322,11.0 z" fill="#47b8f8" stroke="black" stroke-width="0" /><path d="M 1815.0427476960658,2.0L 1813,2.0 L 1811.2409785706354,6.5L 1813,11.0 L 1815.0427476960658,11.0 z" fill="#47b8f8" stroke="black" stroke-width="0" /><path d="M 1815.8599504052704,-11.0L1920.0,-11.0 L1920.0,-2.0L1815.8599504052704,-2.0 z" fill="#d3d3d3" stroke="none" stroke-width="0.5" /><path d="M 1816.5468744217033,-11.0L1820.0407120914913,-11.0 L1820.0407120914913,-2.0L1816.5468744217033,-2.0 z" fill="#d3d3d3" stroke="none" stroke-width="0.5" /><path d="M 1822.7528776046486,-11.0L1825.820348643547,-11.0 L1825.820348643547,-2.0L1822.7528776046486,-2.0 z" fill="#47b8f8" stroke="black" stroke-width="0" /><path d="M 1825.8321921610718,-6.5L1827.1468226063141,-6.5 z" stroke="gray" stroke-width="0.5" /><path d="M 1827.1586661238389,-11.0L 1848,-11.0 L 1851.0944150412672,-6.5L 1848,-2.0 L 1827.1586661238389,-2.0 z" fill="#47b8f8" stroke="black" stroke-width="0" /><path d="M 1855.239646174914,2.0L 1850,2.0 L 1848.0980051075169,6.5L 1850,11.0 L 1855.239646174914,11.0 z" fill="#47b8f8" stroke="black" stroke-width="0" /><path d="M 1851.6392168474035,-11.0L 1855,-11.0 L 1857.324105259262,-6.5L 1855,-2.0 L 1851.6392168474035,-2.0 z" fill="#47b8f8" stroke="black" stroke-width="0" /><path d="M 1857.726784855102,-11.0L 1858,-11.0 L 1860.5692290610311,-6.5L 1858,-2.0 L 1857.726784855102,-2.0 z" fill="#47b8f8" stroke="black" stroke-width="0" /><path d="M 1875.3854694844367,-11.0L1878.9858988119472,-11.0 L1878.9858988119472,-2.0L1875.3854694844367,-2.0 z" fill="#47b8f8" stroke="black" stroke-width="0" /><path d="M 1878.9977423294717,-6.5L1890.793885784078,-6.5 z" stroke="gray" stroke-width="0.5" /><path d="M 1890.8057293016027,-11.0L 1898,-11.0 L 1901.1688071357194,-6.5L 1898,-2.0 L 1890.8057293016027,-2.0 z" fill="#47b8f8" stroke="black" stroke-width="0" /><path d="M 1902.8861171768015,-11.0 L 1905.0179503312484,-6.5 L 1902.8861171768015,-2.0 z" fill="#47b8f8" stroke="black" stroke-width="0" /><path d="M 1913.5571264665607,-11.0L1919.0288315629741,-11.0 L1919.0288315629741,-2.0L1913.5571264665607,-2.0 z" fill="#d3d3d3" stroke="none" stroke-width="0.5" /></g><g id="Z29" transform="translate(40.0,40)"><text dominant-baseline="middle" fill="black" font-family="Arial" font-size="10pt" font-weight="normal" stroke="none" text-anchor="middle" x="0" y="-17">Z29</text><text dominant-baseline="middle" fill="black" font-family="Arial" font-size="10pt" font-weight="normal" stroke="none" text-anchor="middle" x="0" y="0">162,114 bp</text><text dominant-baseline="middle" fill="black" font-family="Arial" font-size="10pt" font-weight="normal" stroke="none" text-anchor="middle" x="0" y="17">104 CDS</text></g><g id="NC_001664" transform="translate(96.20193197379622,120)"><line fill="none" stroke="lightgray" stroke-width="2" x1="0" x2="1887.5961360524077" y1="0" y2="0" /><path d="M 0.0,-11.0L95.80221325733743,-11.0 L95.80221325733743,-2.0L0.0,-2.0 z" fill="#d3d3d3" stroke="none" stroke-width="0.5" /><path d="M 5.921758762352418,-11.0L8.989229801250971,-11.0 L8.989229801250971,-2.0L5.921758762352418,-2.0 z" fill="#47b8f8" stroke="black" stroke-width="0" /><path d="M 9.001073318775676,-6.5L9.96039823827677,-6.5 z" stroke="gray" stroke-width="0.5" /><path d="M 9.972241755801473,-11.0L 29,-11.0 L 31.420851993041936,-6.5L 29,-2.0 L 9.972241755801473,-2.0 z" fill="#47b8f8" stroke="black" stroke-width="0" /><path d="M 55.94877678670565,-11.0L59.54920611421592,-11.0 L59.54920611421592,-2.0L55.94877678670565,-2.0 z" fill="#47b8f8" stroke="black" stroke-width="0" /><path d="M 59.56104963174063,-6.5L69.10692475665273,-6.5 z" stroke="gray" stroke-width="0.5" /><path d="M 69.11876827417743,-11.0L 77,-11.0 L 79.37525445057182,-6.5L 77,-2.0 L 69.11876827417743,-2.0 z" fill="#47b8f8" stroke="black" stroke-width="0" /><path d="M 116.20859395240387,2.0L 105,2.0 L 103.16888115770385,6.5L 105,11.0 L 116.20859395240387,11.0 z" fill="#47b8f8" stroke="black" stroke-width="0" /><path d="M 133.50012953847295,2.0L 122,2.0 L 120.2117028757541,6.5L 122,11.0 L 133.50012953847295,11.0 z" fill="#47b8f8" stroke="black" stroke-width="0" /><path d="M 155.0079573633369,2.0L 138,2.0 L 135.96358118361152,6.5L 138,11.0 L 155.0079573633369,11.0 z" fill="#47b8f8" stroke="black" stroke-width="0" /><path d="M 189.78052481587034,2.0L202.37018394463158,2.0 L202.37018394463158,11.0L189.78052481587034,11.0 z" fill="#47b8f8" stroke="black" stroke-width="0" /><path d="M 188.54879899330103,6.5L189.76868129834563,6.5 z" stroke="gray" stroke-width="0.5" /><path d="M 176.9776823716644,2.0L188.53695547577632,2.0 L188.53695547577632,11.0L176.9776823716644,11.0 z" fill="#47b8f8" stroke="black" stroke-width="0" /><path d="M 175.93545282949034,6.5L176.9658388541397,6.5 z" stroke="gray" stroke-width="0.5" /><path d="M 175.92360931196566,2.0L 158,2.0 L 156.4410229838262,6.5L 158,11.0 L 175.92360931196566,11.0 z" fill="#47b8f8" stroke="black" stroke-width="0" /><path d="M 208.4340649172804,-11.0L 224,-11.0 L 226.34146341463418,-6.5L 224,-2.0 L 208.4340649172804,-2.0 z" fill="#47b8f8" stroke="black" stroke-width="0" /><path d="M 256.1397535067916,2.0L 227,2.0 L 225.1926422147378,6.5L 227,11.0 L 256.1397535067916,11.0 z" fill="#47b8f8" stroke="black" stroke-width="0" /><path d="M 257.3359487767867,-11.0L257.72678485510204,-11.0 L257.72678485510204,-2.0L257.3359487767867,-2.0 z" fill="#47b8f8" stroke="black" stroke-width="0" /><path d="M 257.7386283726267,-6.5L258.76901439727595,-6.5 z" stroke="gray" stroke-width="0.5" /><path d="M 258.78085791480066,-11.0L 268,-11.0 L 270.75465413227727,-6.5L 268,-2.0 L 258.78085791480066,-2.0 z" fill="#47b8f8" stroke="black" stroke-width="0" /><path d="M 271.7613531218772,-11.0L 273,-11.0 L 275.56312224730743,-6.5L 273,-2.0 L 271.7613531218772,-2.0 z" fill="#47b8f8" stroke="black" stroke-width="0" /><path d="M 276.7119434472038,-11.0L 296,-11.0 L 298.3855805174137,-6.5L 296,-2.0 L 276.7119434472038,-2.0 z" fill="#47b8f8" stroke="black" stroke-width="0" /><path d="M 304.6626448055072,2.0L308.4170398608387,2.0 L308.4170398608387,11.0L304.6626448055072,11.0 z" fill="#47b8f8" stroke="black" stroke-width="0" /><path d="M 303.8099115437285,6.5L304.6508012879826,6.5 z" stroke="gray" stroke-width="0.5" /><path d="M 302.93349124690036,2.0L303.7980680262038,2.0 L303.7980680262038,11.0L302.93349124690036,11.0 z" fill="#47b8f8" stroke="black" stroke-width="0" /><path d="M 300.99115437284877,6.5L302.92164772937565,6.5 z" stroke="gray" stroke-width="0.5" /><path d="M 300.97931085532406,2.0 L 298.77641659572896,6.5 L 300.97931085532406,11.0 z" fill="#47b8f8" stroke="black" stroke-width="0" /><path d="M 321.7765276287057,2.0L324.4886931418631,2.0 L324.4886931418631,11.0L321.7765276287057,11.0 z" fill="#47b8f8" stroke="black" stroke-width="0" /><path d="M 320.76982863910587,6.5L321.764684111181,6.5 z" stroke="gray" stroke-width="0.5" /><path d="M 320.75798512158116,2.0L 313,2.0 L 311.5674155224102,6.5L 313,11.0 L 320.75798512158116,11.0 z" fill="#47b8f8" stroke="black" stroke-width="0" /><path d="M 348.64946889226104,2.0L 340,2.0 L 338.20348643547135,6.5L 340,11.0 L 348.64946889226104,11.0 z" fill="#47b8f8" stroke="black" stroke-width="0" /><path d="M 365.5738554350643,2.0L 354,2.0 L 351.7169399311596,6.5L 354,11.0 L 365.5738554350643,11.0 z" fill="#47b8f8" stroke="black" stroke-width="0" /><path d="M 383.56415855509084,2.0L 370,2.0 L 368.5347348162404,6.5L 370,11.0 L 383.56415855509084,11.0 z" fill="#47b8f8" stroke="black" stroke-width="0" /><path d="M 399.008105407306,2.0L 385,2.0 L 383.58784559014026,6.5L 385,11.0 L 399.008105407306,11.0 z" fill="#47b8f8" stroke="black" stroke-width="0" /><path d="M 407.3696287797476,2.0L 402,2.0 L 400.15692660720237,6.5L 402,11.0 L 407.3696287797476,11.0 z" fill="#47b8f8" stroke="black" stroke-width="0" /><path d="M 416.1101447129798,2.0L 409,2.0 L 407.68940375291464,6.5L 409,11.0 L 416.1101447129798,11.0 z" fill="#47b8f8" stroke="black" stroke-width="0" /><path d="M 422.86094970206153,2.0L 422,2.0 L 419.7342610755395,6.5L 422,11.0 L 422.86094970206153,11.0 z" fill="#47b8f8" stroke="black" stroke-width="0" /><path d="M 425.1349050668049,2.0 L 423.0741330175062,6.5 L 425.1349050668049,11.0 z" fill="#47b8f8" stroke="black" stroke-width="0" /><path d="M 436.5875865131944,2.0L 427,2.0 L 425.32440134720014,6.5L 427,11.0 L 436.5875865131944,11.0 z" fill="#47b8f8" stroke="black" stroke-width="0" /><path d="M 448.3718864502757,2.0L 440,2.0 L 437.8548428883379,6.5L 440,11.0 L 448.3718864502757,11.0 z" fill="#47b8f8" stroke="black" stroke-width="0" /><path d="M 462.2169584366557,2.0L 450,2.0 L 448.2179207224546,6.5L 450,11.0 L 462.2169584366557,11.0 z" fill="#47b8f8" stroke="black" stroke-width="0" /><path d="M 491.3046374773308,2.0L 465,2.0 L 462.7025426551686,6.5L 465,11.0 L 491.3046374773308,11.0 z" fill="#47b8f8" stroke="black" stroke-width="0" /><path d="M 502.22436063510867,2.0L 493,2.0 L 491.56519486287425,6.5L 493,11.0 L 502.22436063510867,11.0 z" fill="#47b8f8" stroke="black" stroke-width="0" /><path d="M 496.62237684592327,-11.0L 532,-11.0 L 535.1019652836893,-6.5L 532,-2.0 L 496.62237684592327,-2.0 z" fill="#47b8f8" stroke="black" stroke-width="0" /><path d="M 535.3033050816092,-11.0L 606,-11.0 L 609.1357933306192,-6.5L 606,-2.0 L 535.3033050816092,-2.0 z" fill="#47b8f8" stroke="black" stroke-width="0" /><path d="M 613.1389022539695,2.0L 612,2.0 L 609.9766830748732,6.5L 612,11.0 L 613.1389022539695,11.0 z" fill="#47b8f8" stroke="black" stroke-width="0" /><path d="M 629.8856360339022,2.0L 615,2.0 L 613.1507457714941,6.5L 615,11.0 L 629.8856360339022,11.0 z" fill="#47b8f8" stroke="black" stroke-width="0" /><path d="M 639.1354232206966,2.0L 631,2.0 L 629.2934601576669,6.5L 631,11.0 L 639.1354232206966,11.0 z" fill="#47b8f8" stroke="black" stroke-width="0" /><path d="M 643.1266886265222,2.0L 641,2.0 L 639.3249195010919,6.5L 641,11.0 L 643.1266886265222,11.0 z" fill="#47b8f8" stroke="black" stroke-width="0" /><path d="M 643.1030015914728,-11.0L 658,-11.0 L 660.3353195899182,-6.5L 658,-2.0 L 643.1030015914728,-2.0 z" fill="#47b8f8" stroke="black" stroke-width="0" /><path d="M 660.3708501424924,-11.0L 667,-11.0 L 669.7864465746327,-6.5L 667,-2.0 L 660.3708501424924,-2.0 z" fill="#47b8f8" stroke="black" stroke-width="0" /><path d="M 706.3118546208225,2.0L 672,2.0 L 670.3194048632444,6.5L 672,11.0 L 706.3118546208225,11.0 z" fill="#47b8f8" stroke="black" stroke-width="0" /><path d="M 735.8259002923869,2.0L 708,2.0 L 706.3000111032977,6.5L 708,11.0 L 735.8259002923869,11.0 z" fill="#47b8f8" stroke="black" stroke-width="0" /><path d="M 761.099966690107,2.0L 737,2.0 L 735.2692549687258,6.5L 737,11.0 L 761.099966690107,11.0 z" fill="#47b8f8" stroke="black" stroke-width="0" /><path d="M 801.4389873792517,2.0L 763,2.0 L 761.18287131278,6.5L 763,11.0 L 801.4389873792517,11.0 z" fill="#47b8f8" stroke="black" stroke-width="0" /><path d="M 836.7445131203967,2.0L 820,2.0 L 818.4107479921537,6.5L 820,11.0 L 836.7445131203967,11.0 z" fill="#47b8f8" stroke="black" stroke-width="0" /><path d="M 869.9892668122433,2.0L 841,2.0 L 839.3974610459306,6.5L 841,11.0 L 869.9892668122433,11.0 z" fill="#47b8f8" stroke="black" stroke-width="0" /><path d="M 870.7472519338243,-11.0L 875,-11.0 L 878.066545764092,-6.5L 875,-2.0 L 870.7472519338243,-2.0 z" fill="#47b8f8" stroke="black" stroke-width="0" /><path d="M 891.4615640845332,2.0L 880,2.0 L 878.066545764092,6.5L 880,11.0 L 891.4615640845332,11.0 z" fill="#47b8f8" stroke="black" stroke-width="0" /><path d="M 892.3142973463118,-11.0L 893,-11.0 L 895.3343943151116,-6.5L 893,-2.0 L 892.3142973463118,-2.0 z" fill="#47b8f8" stroke="black" stroke-width="0" /><path d="M 922.8350420074763,2.0L 901,2.0 L 899.6691217291536,6.5L 901,11.0 L 922.8350420074763,11.0 z" fill="#47b8f8" stroke="black" stroke-width="0" /><path d="M 922.6337022095562,-11.0 L 924.5878826011325,-6.5 L 922.6337022095562,-2.0 z" fill="#47b8f8" stroke="black" stroke-width="0" /><path d="M 949.4947999555868,2.0L 927,2.0 L 924.8010659165773,6.5L 927,11.0 L 949.4947999555868,11.0 z" fill="#47b8f8" stroke="black" stroke-width="0" /><path d="M 951.3660757244903,-11.0L 958,-11.0 L 960.3553055257412,-6.5L 958,-2.0 L 951.3660757244903,-2.0 z" fill="#47b8f8" stroke="black" stroke-width="0" /><path d="M 957.7023576002074,-11.0L 975,-11.0 L 977.457344831415,-6.5L 975,-2.0 L 957.7023576002074,-2.0 z" fill="#47b8f8" stroke="black" stroke-width="0" /><path d="M 978.5706354787374,-11.0L 986,-11.0 L 989.30086235612,-6.5L 986,-2.0 L 978.5706354787374,-2.0 z" fill="#47b8f8" stroke="black" stroke-width="0" /><path d="M 998.7164587882602,2.0L 991,2.0 L 989.5140456715644,6.5L 991,11.0 L 998.7164587882602,11.0 z" fill="#47b8f8" stroke="black" stroke-width="0" /><path d="M 998.7875198934084,-11.0L 1015,-11.0 L 1017.5831822051148,-6.5L 1015,-2.0 L 998.7875198934084,-2.0 z" fill="#47b8f8" stroke="black" stroke-width="0" /><path d="M 1008.878196824457,-11.0L 1015,-11.0 L 1017.5831822051148,-6.5L 1015,-2.0 L 1008.878196824457,-2.0 z" fill="#47b8f8" stroke="black" stroke-width="0" /><path d="M 1036.0590695436547,2.0L 1022,2.0 L 1019.7505459121359,6.5L 1022,11.0 L 1036.0590695436547,11.0 z" fill="#47b8f8" stroke="black" stroke-width="0" /><path d="M 1052.3557496576484,2.0L 1039,2.0 L 1036.9710203930567,6.5L 1039,11.0 L 1052.3557496576484,11.0 z" fill="#47b8f8" stroke="black" stroke-width="0" /><path d="M 1065.0283134090826,2.0L 1056,2.0 L 1054.4757392945705,6.5L 1056,11.0 L 1065.0283134090826,11.0 z" fill="#47b8f8" stroke="black" stroke-width="0" /><path d="M 1112.8642806913654,2.0L 1067,2.0 L 1065.040156926607,6.5L 1067,11.0 L 1112.8642806913654,11.0 z" fill="#47b8f8" stroke="black" stroke-width="0" /><path d="M 1112.9945593841371,-11.0L 1138,-11.0 L 1140.4596765239276,-6.5L 1138,-2.0 L 1112.9945593841371,-2.0 z" fill="#47b8f8" stroke="black" stroke-width="0" /><path d="M 1140.412302453829,-11.0L 1150,-11.0 L 1152.8835264073432,-6.5L 1150,-2.0 L 1140.412302453829,-2.0 z" fill="#47b8f8" stroke="black" stroke-width="0" /><path d="M 1204.0712091491175,2.0L1214.4105999481844,2.0 L1214.4105999481844,11.0L1204.0712091491175,11.0 z" fill="#47b8f8" stroke="black" stroke-width="0" /><path d="M 1166.207483622636,6.5L1204.0593656315928,6.5 z" stroke="gray" stroke-width="0.5" /><path d="M 1166.1956401051111,2.0L 1155,2.0 L 1152.8361523372444,6.5L 1155,11.0 L 1166.1956401051111,11.0 z" fill="#47b8f8" stroke="black" stroke-width="0" /><path d="M 1166.3259187978829,-11.0L 1167,-11.0 L 1169.3815463192568,-6.5L 1167,-2.0 L 1166.3259187978829,-2.0 z" fill="#47b8f8" stroke="black" stroke-width="0" /><path d="M 1168.7538398904476,-11.0L 1174,-11.0 L 1176.4639697990303,-6.5L 1174,-2.0 L 1168.7538398904476,-2.0 z" fill="#47b8f8" stroke="black" stroke-width="0" /><path d="M 1176.1915688959623,-11.0L 1189,-11.0 L 1191.931603686295,-6.5L 1189,-2.0 L 1176.1915688959623,-2.0 z" fill="#47b8f8" stroke="black" stroke-width="0" /><path d="M 1191.410488915208,-11.0L 1201,-11.0 L 1203.3487545801104,-6.5L 1201,-2.0 L 1191.410488915208,-2.0 z" fill="#47b8f8" stroke="black" stroke-width="0" /><path d="M 1214.0671379399682,-11.0L 1224,-11.0 L 1226.6449535512047,-6.5L 1224,-2.0 L 1214.0671379399682,-2.0 z" fill="#47b8f8" stroke="black" stroke-width="0" /><path d="M 1226.63311003368,-11.0L 1228,-11.0 L 1230.7191235797031,-6.5L 1228,-2.0 L 1226.63311003368,-2.0 z" fill="#47b8f8" stroke="black" stroke-width="0" /><path d="M 1230.7428106147527,-11.0L 1248,-11.0 L 1250.7465117139793,-6.5L 1248,-2.0 L 1230.7428106147527,-2.0 z" fill="#47b8f8" stroke="black" stroke-width="0" /><path d="M 1250.829416336652,-11.0L 1265,-11.0 L 1268.203856545394,-6.5L 1265,-2.0 L 1250.829416336652,-2.0 z" fill="#47b8f8" stroke="black" stroke-width="0" /><path d="M 1267.445871423813,-11.0L 1267,-11.0 L 1270.217254524594,-6.5L 1267,-2.0 L 1267.445871423813,-2.0 z" fill="#47b8f8" stroke="black" stroke-width="0" /><path d="M 1283.4109330471151,2.0L 1273,2.0 L 1271.1528924090455,6.5L 1273,11.0 L 1283.4109330471151,11.0 z" fill="#47b8f8" stroke="black" stroke-width="0" /><path d="M 1283.5530552574114,-11.0L 1308,-11.0 L 1311.302416817795,-6.5L 1308,-2.0 L 1283.5530552574114,-2.0 z" fill="#47b8f8" stroke="black" stroke-width="0" /><path d="M 1310.9234242570046,-11.0L 1332,-11.0 L 1334.4801806136425,-6.5L 1332,-2.0 L 1310.9234242570046,-2.0 z" fill="#47b8f8" stroke="black" stroke-width="0" /><path d="M 1343.7654983530108,2.0L 1337,2.0 L 1334.882860209482,6.5L 1337,11.0 L 1343.7654983530108,11.0 z" fill="#47b8f8" stroke="black" stroke-width="0" /><path d="M 1365.6641622561901,2.0L 1344,2.0 L 1342.675894740738,6.5L 1344,11.0 L 1365.6641622561901,11.0 z" fill="#47b8f8" stroke="black" stroke-width="0" /><path d="M 1363.7928864872868,-11.0L 1390,-11.0 L 1393.1055923609313,-6.5L 1390,-2.0 L 1363.7928864872868,-2.0 z" fill="#47b8f8" stroke="black" stroke-width="0" /><path d="M 1423.7684592323922,-11.0L1431.241718790481,-11.0 L1431.241718790481,-2.0L1423.7684592323922,-2.0 z" fill="#47b8f8" stroke="black" stroke-width="0" /><path d="M 1431.2535623080057,-6.5L1432.3668529553277,-6.5 z" stroke="gray" stroke-width="0.5" /><path d="M 1432.3786964728524,-11.0L1434.7118694252194,-11.0 L1434.7118694252194,-2.0L1432.3786964728524,-2.0 z" fill="#47b8f8" stroke="black" stroke-width="0" /><path d="M 1434.723712942744,-6.5L1435.6711943447206,-6.5 z" stroke="gray" stroke-width="0.5" /><path d="M 1435.6830378622453,-11.0L 1440,-11.0 L 1442.753617824494,-6.5L 1440,-2.0 L 1435.6830378622453,-2.0 z" fill="#47b8f8" stroke="black" stroke-width="0" /><path d="M 1452.3587105370295,2.0L 1445,2.0 L 1443.262889078056,6.5L 1445,11.0 L 1452.3587105370295,11.0 z" fill="#47b8f8" stroke="black" stroke-width="0" /><path d="M 1462.1651430474851,2.0L 1455,2.0 L 1453.2469743513825,6.5L 1455,11.0 L 1462.1651430474851,11.0 z" fill="#47b8f8" stroke="black" stroke-width="0" /><path d="M 1463.6100521854994,-11.0L 1464,-11.0 L 1467.0920463377624,-6.5L 1464,-2.0 L 1463.6100521854994,-2.0 z" fill="#47b8f8" stroke="black" stroke-width="0" /><path d="M 1480.4989081757283,2.0L 1470,2.0 L 1468.311928642807,6.5L 1470,11.0 L 1480.4989081757283,11.0 z" fill="#47b8f8" stroke="black" stroke-width="0" /><path d="M 1491.1580739479625,2.0L 1483,2.0 L 1480.8186831488954,6.5L 1483,11.0 L 1491.1580739479625,11.0 z" fill="#47b8f8" stroke="black" stroke-width="0" /><path d="M 1611.9856397350015,2.0L1612.684407268959,2.0 L1612.684407268959,11.0L1611.9856397350015,11.0 z" fill="#47b8f8" stroke="black" stroke-width="0" /><path d="M 1610.955253710352,6.5L1611.9737962174768,6.5 z" stroke="gray" stroke-width="0.5" /><path d="M 1608.6457677930346,2.0L1610.9434101928273,2.0 L1610.9434101928273,11.0L1608.6457677930346,11.0 z" fill="#47b8f8" stroke="black" stroke-width="0" /><path d="M 1541.3982752877605,6.5L1608.6339242755098,6.5 z" stroke="gray" stroke-width="0.5" /><path d="M 1541.3864317702357,2.0L 1495,2.0 L 1492.7569488137976,6.5L 1495,11.0 L 1541.3864317702357,11.0 z" fill="#47b8f8" stroke="black" stroke-width="0" /><path d="M 1510.6169732410526,-11.0L1518.7297827454754,-11.0 L1518.7297827454754,-2.0L1510.6169732410526,-2.0 z" fill="#d3d3d3" stroke="none" stroke-width="0.5" /><path d="M 1552.4009030682114,-11.0L1561.6151597024316,-11.0 L1561.6151597024316,-2.0L1552.4009030682114,-2.0 z" fill="#d3d3d3" stroke="none" stroke-width="0.5" /><path d="M 1611.9856397350015,2.0L1612.684407268959,2.0 L1612.684407268959,11.0L1611.9856397350015,11.0 z" fill="#47b8f8" stroke="black" stroke-width="0" /><path d="M 1610.955253710352,6.5L1611.9737962174768,6.5 z" stroke="gray" stroke-width="0.5" /><path d="M 1608.6457677930346,2.0L1610.9434101928273,2.0 L1610.9434101928273,11.0L1608.6457677930346,11.0 z" fill="#47b8f8" stroke="black" stroke-width="0" /><path d="M 1607.390354935416,6.5L1608.6339242755098,6.5 z" stroke="gray" stroke-width="0.5" /><path d="M 1607.3785114178913,2.0L 1579,2.0 L 1576.9051408268258,6.5L 1579,11.0 L 1607.3785114178913,11.0 z" fill="#47b8f8" stroke="black" stroke-width="0" /><path d="M 1614.5083089677635,-11.0L1617.0072911654763,-11.0 L1617.0072911654763,-2.0L1614.5083089677635,-2.0 z" fill="#47b8f8" stroke="black" stroke-width="0" /><path d="M 1617.019134683001,-6.5L1618.2034864354716,-6.5 z" stroke="gray" stroke-width="0.5" /><path d="M 1618.2153299529962,-11.0L 1618,-11.0 L 1621.188052851697,-6.5L 1618,-2.0 L 1618.2153299529962,-2.0 z" fill="#47b8f8" stroke="black" stroke-width="0" /><path d="M 1658.9807172730302,-11.0L1669.3556386246717,-11.0 L1669.3556386246717,-2.0L1658.9807172730302,-2.0 z" fill="#d3d3d3" stroke="none" stroke-width="0.5" /><path d="M 1692.68736814834,2.0L 1677,2.0 L 1675.2418668344499,6.5L 1677,11.0 L 1692.68736814834,11.0 z" fill="#47b8f8" stroke="black" stroke-width="0" /><path d="M 1693.5637884451683,-11.0L 1731,-11.0 L 1733.4290684333248,-6.5L 1731,-2.0 L 1693.5637884451683,-2.0 z" fill="#47b8f8" stroke="black" stroke-width="0" /><path d="M 1775.6512084088974,2.0L1780.5070505940266,2.0 L1780.5070505940266,11.0L1775.6512084088974,11.0 z" fill="#47b8f8" stroke="black" stroke-width="0" /><path d="M 1774.4668566564271,6.5L1775.6393648913727,6.5 z" stroke="gray" stroke-width="0.5" /><path d="M 1771.1151411969354,2.0L1774.4550131389024,2.0 L1774.4550131389024,11.0L1771.1151411969354,11.0 z" fill="#47b8f8" stroke="black" stroke-width="0" /><path d="M 1766.2948295643805,6.5L1771.1032976794108,6.5 z" stroke="gray" stroke-width="0.5" /><path d="M 1762.3035641585552,2.0L1766.2829860468557,2.0 L1766.2829860468557,11.0L1762.3035641585552,11.0 z" fill="#47b8f8" stroke="black" stroke-width="0" /><path d="M 1760.9297161256895,6.5L1762.2917206410305,6.5 z" stroke="gray" stroke-width="0.5" /><path d="M 1759.9940782412377,2.0L1760.9178726081648,2.0 L1760.9178726081648,11.0L1759.9940782412377,11.0 z" fill="#47b8f8" stroke="black" stroke-width="0" /><path d="M 1758.868944076391,6.5L1759.982234723713,6.5 z" stroke="gray" stroke-width="0.5" /><path d="M 1757.578000666198,2.0L1758.8571005588663,2.0 L1758.8571005588663,11.0L1757.578000666198,11.0 z" fill="#47b8f8" stroke="black" stroke-width="0" /><path d="M 1756.5120840889745,6.5L1757.5661571486735,6.5 z" stroke="gray" stroke-width="0.5" /><path d="M 1755.1500795736335,2.0L1756.5002405714497,2.0 L1756.5002405714497,11.0L1755.1500795736335,11.0 z" fill="#47b8f8" stroke="black" stroke-width="0" /><path d="M 1754.1433805840336,6.5L1755.1382360561088,6.5 z" stroke="gray" stroke-width="0.5" /><path d="M 1752.2247307450311,2.0L1754.1315370665088,2.0 L1754.1315370665088,11.0L1752.2247307450311,11.0 z" fill="#47b8f8" stroke="black" stroke-width="0" /><path d="M 1746.1845368074319,6.5L1752.2128872275066,6.5 z" stroke="gray" stroke-width="0.5" /><path d="M 1746.0542581146601,2.0L1746.172693289907,2.0 L1746.172693289907,11.0L1746.0542581146601,11.0 z" fill="#47b8f8" stroke="black" stroke-width="0" /><path d="M 1744.2895740034792,6.5L1746.0424145971353,6.5 z" stroke="gray" stroke-width="0.5" /><path d="M 1742.7499167252674,2.0L1744.2777304859544,2.0 L1744.2777304859544,11.0L1742.7499167252674,11.0 z" fill="#47b8f8" stroke="black" stroke-width="0" /><path d="M 1741.4589733150744,6.5L1742.7380732077427,6.5 z" stroke="gray" stroke-width="0.5" /><path d="M 1741.44712979755,2.0L 1739,2.0 L 1737.3848032865762,6.5L 1739,11.0 L 1741.44712979755,11.0 z" fill="#47b8f8" stroke="black" stroke-width="0" /><path d="M 1791.7820792775456,-11.0L1887.5961360524077,-11.0 L1887.5961360524077,-2.0L1791.7820792775456,-2.0 z" fill="#d3d3d3" stroke="none" stroke-width="0.5" /><path d="M 1797.703838039898,-11.0L1800.7713090787965,-11.0 L1800.7713090787965,-2.0L1797.703838039898,-2.0 z" fill="#47b8f8" stroke="black" stroke-width="0" /><path d="M 1800.7831525963213,-6.5L1801.7424775158222,-6.5 z" stroke="gray" stroke-width="0.5" /><path d="M 1801.7543210333467,-11.0L 1820,-11.0 L 1823.2029312705874,-6.5L 1820,-2.0 L 1801.7543210333467,-2.0 z" fill="#47b8f8" stroke="black" stroke-width="0" /><path d="M 1847.7308560642512,-11.0L1851.3312853917614,-11.0 L1851.3312853917614,-2.0L1847.7308560642512,-2.0 z" fill="#47b8f8" stroke="black" stroke-width="0" /><path d="M 1851.3431289092862,-6.5L1860.8890040341985,-6.5 z" stroke="gray" stroke-width="0.5" /><path d="M 1860.900847551723,-11.0L 1868,-11.0 L 1871.1573337281172,-6.5L 1868,-2.0 L 1860.900847551723,-2.0 z" fill="#47b8f8" stroke="black" stroke-width="0" /></g><g id="U1102" transform="translate(56.20193197379622,120)"><text dominant-baseline="middle" fill="black" font-family="Arial" font-size="10pt" font-weight="normal" stroke="none" text-anchor="middle" x="0" y="-17">U1102</text><text dominant-baseline="middle" fill="black" font-family="Arial" font-size="10pt" font-weight="normal" stroke="none" text-anchor="middle" x="0" y="0">159,378 bp</text><text dominant-baseline="middle" fill="black" font-family="Arial" font-size="10pt" font-weight="normal" stroke="none" text-anchor="middle" x="0" y="17">88 CDS</text></g><g id="comparison1" transform="translate(80,55.0)"><path d="M 1032.8376327769347,0L1520.707650172101,0 L1521.2879825308116,50L1034.4365076427698,50 z" fill="lightgray" fill-opacity="0.7" stroke="none" stroke-width="0.2" /><path d="M 350.2838743106703,0L823.8232355009438,0 L827.3407602057811,50L354.08564343610055,50 z" fill="lightgray" fill-opacity="0.7" stroke="none" stroke-width="0.2" /><path d="M 919.67282282838,0L1032.2573004182243,0 L1034.4365076427698,50L922.2191790961916,50 z" fill="lightgray" fill-opacity="0.7" stroke="none" stroke-width="0.2" /><path d="M 144.2540434509049,0L253.14334357304116,0 L258.17683852104074,50L149.40597357415152,50 z" fill="lightgray" fill-opacity="0.7" stroke="none" stroke-width="0.2" /><path d="M 826.3103741811318,0L917.9318257522484,0 L922.3020837188645,50L830.8819719456678,50 z" fill="lightgray" fill-opacity="0.7" stroke="none" stroke-width="0.2" /><path d="M 252.7051334246271,0L315.14415781487105,0 L320.43821014841404,50L258.1649950035161,50 z" fill="lightgray" fill-opacity="0.7" stroke="none" stroke-width="0.2" /><path d="M 1659.0399348606536,0L1719.3471260964507,0 L1716.078315259632,50L1655.5934712609646,50 z" fill="lightgray" fill-opacity="0.7" stroke="none" stroke-width="0.2" /><path d="M 316.1982308745698,0L348.767904067508,0 L352.7473259558089,50L320.4737407009882,50 z" fill="lightgray" fill-opacity="0.7" stroke="none" stroke-width="0.2" /><path d="M 111.86202302083719,0L143.80398978496612,0 L149.41781709167623,50L117.46400681002257,50 z" fill="lightgray" fill-opacity="0.7" stroke="none" stroke-width="0.2" /><path d="M 1659.0399348606536,0L1690.4134127835966,0 L1684.669306784115,50L1653.0944890632518,50 z" fill="lightgray" fill-opacity="0.7" stroke="none" stroke-width="0.2" /><path d="M 1659.0399348606536,0L1690.4134127835966,0 L1682.1940116214514,50L1650.6310374181132,50 z" fill="lightgray" fill-opacity="0.7" stroke="none" stroke-width="0.2" /><path d="M 1659.0399348606536,0L1689.193530478552,0 L1687.1327584292535,50L1656.8488841185833,50 z" fill="lightgray" fill-opacity="0.7" stroke="none" stroke-width="0.2" /><path d="M 1659.0399348606536,0L1690.4134127835966,0 L1683.4375809615456,50L1651.8627632406824,50 z" fill="lightgray" fill-opacity="0.7" stroke="none" stroke-width="0.2" /><path d="M 1659.0399348606536,0L1690.4134127835966,0 L1685.9128761242089,50L1654.3499019208705,50 z" fill="lightgray" fill-opacity="0.7" stroke="none" stroke-width="0.2" /><path d="M 1659.0399348606536,0L1687.949961138458,0 L1687.1327584292535,50L1658.104296976202,50 z" fill="lightgray" fill-opacity="0.7" stroke="none" stroke-width="0.2" /><path d="M 19.84973537140531,0L47.113512713275846,0 L59.65579777193827,50L32.522299122839485,50 z" fill="lightgray" fill-opacity="0.7" stroke="none" stroke-width="0.2" /><path d="M 1835.7096857766755,0L1862.973463118546,0 L59.65579777193827,50L32.522299122839485,50 z" fill="lightgray" fill-opacity="0.7" stroke="none" stroke-width="0.2" /><path d="M 19.84973537140531,0L47.113512713275846,0 L1851.4378770494839,50L1824.3043784003848,50 z" fill="lightgray" fill-opacity="0.7" stroke="none" stroke-width="0.2" /><path d="M 1835.7096857766755,0L1862.973463118546,0 L1851.4378770494839,50L1824.3043784003848,50 z" fill="lightgray" fill-opacity="0.7" stroke="none" stroke-width="0.2" /><path d="M 1659.4070839039196,0L1690.4134127835966,0 L1680.9385987638327,50L1649.7664606388098,50 z" fill="lightgray" fill-opacity="0.7" stroke="none" stroke-width="0.2" /><path d="M 1659.0399348606536,0L1686.5879566231172,0 L1687.0380102890558,50L1659.3360227987712,50 z" fill="lightgray" fill-opacity="0.7" stroke="none" stroke-width="0.2" /><path d="M 1660.6388097264887,0L1690.4134127835966,0 L1679.6950294237388,50L1649.7664606388098,50 z" fill="lightgray" fill-opacity="0.7" stroke="none" stroke-width="0.2" /><path d="M 1661.8823790665829,0L1690.4134127835966,0 L1678.4633036011696,50L1649.7783041563343,50 z" fill="lightgray" fill-opacity="0.7" stroke="none" stroke-width="0.2" /><path d="M 1591.4371368296383,0L1614.0700988193494,0 L1608.1720270920464,50L1585.7048743476812,50 z" fill="lightgray" fill-opacity="0.7" stroke="none" stroke-width="0.2" /><path d="M 1659.0399348606536,0L1684.219253118176,0 L1687.1327584292535,50L1661.8350049964838,50 z" fill="lightgray" fill-opacity="0.7" stroke="none" stroke-width="0.2" /><path d="M 1659.0399348606536,0L1685.427291905696,0 L1687.109071394204,50L1660.5914356563899,50 z" fill="lightgray" fill-opacity="0.7" stroke="none" stroke-width="0.2" /><path d="M 1663.1022613716273,0L1690.4134127835966,0 L1677.2315777786002,50L1649.7664606388098,50 z" fill="lightgray" fill-opacity="0.7" stroke="none" stroke-width="0.2" /><path d="M 1659.0399348606536,0L1682.9756837780822,0 L1687.1327584292535,50L1663.0667308190532,50 z" fill="lightgray" fill-opacity="0.7" stroke="none" stroke-width="0.2" /><path d="M 1659.0399348606536,0L1681.732114437988,0 L1687.1327584292535,50L1664.3339871941967,50 z" fill="lightgray" fill-opacity="0.7" stroke="none" stroke-width="0.2" /><path d="M 1664.3339871941967,0L1690.4134127835966,0 L1675.9880084385063,50L1649.7664606388098,50 z" fill="lightgray" fill-opacity="0.7" stroke="none" stroke-width="0.2" /><path d="M 1665.565713016766,0L1690.4134127835966,0 L1674.7325955808876,50L1649.7664606388098,50 z" fill="lightgray" fill-opacity="0.7" stroke="none" stroke-width="0.2" /><path d="M 1659.0399348606536,0L1680.488545097894,0 L1687.1327584292535,50L1665.565713016766,50 z" fill="lightgray" fill-opacity="0.7" stroke="none" stroke-width="0.2" /><path d="M 1778.2686257818573,0L1798.7105370294978,0 L1791.438617269329,50L1771.2217328546578,50 z" fill="lightgray" fill-opacity="0.7" stroke="none" stroke-width="0.2" /><path d="M 1659.0399348606536,0L1679.2568192753247,0 L1687.1327584292535,50L1666.80928235686,50 z" fill="lightgray" fill-opacity="0.7" stroke="none" stroke-width="0.2" /><path d="M 1666.7974388393352,0L1690.4134127835966,0 L1673.4890262407935,50L1649.7664606388098,50 z" fill="lightgray" fill-opacity="0.7" stroke="none" stroke-width="0.2" /><path d="M 1659.0399348606536,0L1678.0250934527553,0 L1687.1327584292535,50L1668.0410081794294,50 z" fill="lightgray" fill-opacity="0.7" stroke="none" stroke-width="0.2" /><path d="M 1639.4033828046931,0L1656.6712313557125,0 L1645.704134127836,50L1628.7205299974091,50 z" fill="lightgray" fill-opacity="0.7" stroke="none" stroke-width="0.2" /><path d="M 1544.2762500462636,0L1564.7536918464784,0 L1559.3767348902622,50L1539.7046522817277,50 z" fill="lightgray" fill-opacity="0.7" stroke="none" stroke-width="0.2" /><path d="M 1667.9462600392317,0L1690.4134127835966,0 L1672.2573004182243,50L1649.6835560161367,50 z" fill="lightgray" fill-opacity="0.7" stroke="none" stroke-width="0.2" /><path d="M 1741.8261223583404,0L1761.1665864761835,0 L1754.2262852067063,50L1735.3240312372775,50 z" fill="lightgray" fill-opacity="0.7" stroke="none" stroke-width="0.2" /><path d="M 1621.152522299123,0L1639.0125467263779,0 L1628.7560605499832,50L1611.1329064732224,50 z" fill="lightgray" fill-opacity="0.7" stroke="none" stroke-width="0.2" /><path d="M 1659.0399348606536,0L1676.7933676301864,0 L1687.1327584292535,50L1669.3082645545728,50 z" fill="lightgray" fill-opacity="0.7" stroke="none" stroke-width="0.2" /><path d="M 1659.0399348606536,0L1675.5497982900922,0 L1687.1327584292535,50L1670.539990377142,50 z" fill="lightgray" fill-opacity="0.7" stroke="none" stroke-width="0.2" /><path d="M 1760.9534031607386,0L1777.3803619675043,0 L1771.0677671268368,50L1754.6526518375956,50 z" fill="lightgray" fill-opacity="0.7" stroke="none" stroke-width="0.2" /><path d="M 1670.421555201895,0L1690.4134127835966,0 L1669.7820052555608,50L1649.6835560161367,50 z" fill="lightgray" fill-opacity="0.7" stroke="none" stroke-width="0.2" /><path d="M 1659.0399348606536,0L1674.3062289499983,0 L1687.1327584292535,50L1671.7835597172361,50 z" fill="lightgray" fill-opacity="0.7" stroke="none" stroke-width="0.2" /><path d="M 1671.736185647137,0L1690.4134127835966,0 L1668.526592397942,50L1649.7664606388098,50 z" fill="lightgray" fill-opacity="0.7" stroke="none" stroke-width="0.2" /><path d="M 1659.0399348606536,0L1673.0863466449537,0 L1687.1327584292535,50L1673.0152855398053,50 z" fill="lightgray" fill-opacity="0.7" stroke="none" stroke-width="0.2" /><path d="M 1672.9797549872312,0L1690.4134127835966,0 L1667.2830230578481,50L1649.7664606388098,50 z" fill="lightgray" fill-opacity="0.7" stroke="none" stroke-width="0.2" /><path d="M 87.22750656945112,0L101.81872015988749,0 L111.06850734668197,50L96.47729375624561,50 z" fill="lightgray" fill-opacity="0.7" stroke="none" stroke-width="0.2" /><path d="M 1903.0874569747216,0L1917.6786705651577,0 L111.06850734668197,50L96.47729375624561,50 z" fill="lightgray" fill-opacity="0.7" stroke="none" stroke-width="0.2" /><path d="M 87.22750656945112,0L101.81872015988749,0 L1902.8505866242274,50L1888.2593730337912,50 z" fill="lightgray" fill-opacity="0.7" stroke="none" stroke-width="0.2" /><path d="M 1903.0874569747216,0L1917.6786705651577,0 L1902.8505866242274,50L1888.2593730337912,50 z" fill="lightgray" fill-opacity="0.7" stroke="none" stroke-width="0.2" /><path d="M 72.7191976016877,0L86.05499833450536,0 L96.31148451089973,50L83.11780598837855,50 z" fill="lightgray" fill-opacity="0.7" stroke="none" stroke-width="0.2" /><path d="M 1888.5791480069581,0L1901.9149487397756,0 L96.31148451089973,50L83.11780598837855,50 z" fill="lightgray" fill-opacity="0.7" stroke="none" stroke-width="0.2" /><path d="M 72.7191976016877,0L86.05499833450536,0 L1888.0935637884452,50L1874.899885265924,50 z" fill="lightgray" fill-opacity="0.7" stroke="none" stroke-width="0.2" /><path d="M 1888.5791480069581,0L1901.9149487397756,0 L1888.0935637884452,50L1874.899885265924,50 z" fill="lightgray" fill-opacity="0.7" stroke="none" stroke-width="0.2" /><path d="M 1659.0399348606536,0L1671.8427773048595,0 L1687.1327584292535,50L1674.2470113623745,50 z" fill="lightgray" fill-opacity="0.7" stroke="none" stroke-width="0.2" /><path d="M 1659.0399348606536,0L1670.5992079647656,0 L1687.120914911729,50L1675.514267737518,50 z" fill="lightgray" fill-opacity="0.7" stroke="none" stroke-width="0.2" /><path d="M 1675.4432066323698,0L1690.4134127835966,0 L1664.807727895185,50L1649.7664606388098,50 z" fill="lightgray" fill-opacity="0.7" stroke="none" stroke-width="0.2" /><path d="M 1521.3116695658612,0L1535.0146193419446,0 L1534.8843406491728,50L1521.323513083386,50 z" fill="lightgray" fill-opacity="0.7" stroke="none" stroke-width="0.2" /><path d="M 1659.0399348606536,0L1669.3674821421962,0 L1687.1327584292535,50L1676.7459935600873,50 z" fill="lightgray" fill-opacity="0.7" stroke="none" stroke-width="0.2" /><path d="M 1676.686775972464,0L1690.4134127835966,0 L1663.5523150375661,50L1649.7664606388098,50 z" fill="lightgray" fill-opacity="0.7" stroke="none" stroke-width="0.2" /><path d="M 1528.4059365631592,0L1539.7401828343018,0 L1538.7571708797514,50L1527.565046818905,50 z" fill="lightgray" fill-opacity="0.7" stroke="none" stroke-width="0.2" /><path d="M 1659.0399348606536,0L1668.123912802102,0 L1687.120914911729,50L1677.9895629001812,50 z" fill="lightgray" fill-opacity="0.7" stroke="none" stroke-width="0.2" /><path d="M 98.97627595395832,0L107.19567711610348,0 L114.92949405973575,50L106.87590214293645,50 z" fill="lightgray" fill-opacity="0.7" stroke="none" stroke-width="0.2" /><path d="M 1914.8362263592287,0L1919.9052518598023,0 L111.93308412598542,50L106.87590214293645,50 z" fill="lightgray" fill-opacity="0.7" stroke="none" stroke-width="0.2" /><path d="M 98.97627595395832,0L104.045301454532,0 L1903.7151634035308,50L1898.657981420482,50 z" fill="lightgray" fill-opacity="0.7" stroke="none" stroke-width="0.2" /><path d="M 1914.8362263592287,0L1919.9052518598023,0 L1903.7151634035308,50L1898.657981420482,50 z" fill="lightgray" fill-opacity="0.7" stroke="none" stroke-width="0.2" /><path d="M 1732.374995373626,0L1741.3405381398275,0 L1735.1937525445057,50L1726.2992708834524,50 z" fill="lightgray" fill-opacity="0.7" stroke="none" stroke-width="0.2" /><path d="M 1659.0399348606536,0L1666.9040304970576,0 L1687.1327584292535,50L1679.2212887227506,50 z" fill="lightgray" fill-opacity="0.7" stroke="none" stroke-width="0.2" /><path d="M 1679.1502276176022,0L1690.4134127835966,0 L1661.0651763573783,50L1649.7664606388098,50 z" fill="lightgray" fill-opacity="0.7" stroke="none" stroke-width="0.2" /><path d="M 11.251341648469595,0L17.36259669121729,0 L32.238054702246565,50L26.12679965949887,50 z" fill="lightgray" fill-opacity="0.7" stroke="none" stroke-width="0.2" /><path d="M 1827.1112920537398,0L1833.2225470964877,0 L32.238054702246565,50L26.12679965949887,50 z" fill="lightgray" fill-opacity="0.7" stroke="none" stroke-width="0.2" /><path d="M 11.251341648469595,0L17.36259669121729,0 L1824.0201339797918,50L1817.9088789370444,50 z" fill="lightgray" fill-opacity="0.7" stroke="none" stroke-width="0.2" /><path d="M 1827.1112920537398,0L1833.2225470964877,0 L1824.0201339797918,50L1817.9088789370444,50 z" fill="lightgray" fill-opacity="0.7" stroke="none" stroke-width="0.2" /><path d="M 1574.9509604352493,0L1583.1585180798697,0 L1567.9395980606241,50L1560.1110329767941,50 z" fill="lightgray" fill-opacity="0.7" stroke="none" stroke-width="0.2" /><path d="M 1680.3819534401716,0L1690.4134127835966,0 L1659.8216070172841,50L1649.7664606388098,50 z" fill="lightgray" fill-opacity="0.7" stroke="none" stroke-width="0.2" /><path d="M 1659.0399348606536,0L1665.6723046744883,0 L1687.1327584292535,50L1680.45301454532,50 z" fill="lightgray" fill-opacity="0.7" stroke="none" stroke-width="0.2" /><path d="M 1.7765276287057257,0L10.87234908767904,0 L26.103112624449462,50L16.865168955179687,50 z" fill="lightgray" fill-opacity="0.7" stroke="none" stroke-width="0.2" /><path d="M 1817.6364780339761,0L1826.7322994929496,0 L26.103112624449462,50L16.865168955179687,50 z" fill="lightgray" fill-opacity="0.7" stroke="none" stroke-width="0.2" /><path d="M 1.7765276287057257,0L10.87234908767904,0 L1817.8851919019949,50L1808.6472482327251,50 z" fill="lightgray" fill-opacity="0.7" stroke="none" stroke-width="0.2" /><path d="M 1817.6364780339761,0L1826.7322994929496,0 L1817.8851919019949,50L1808.6472482327251,50 z" fill="lightgray" fill-opacity="0.7" stroke="none" stroke-width="0.2" /><path d="M 1659.0399348606536,0L1664.440578851919,0 L1687.1327584292535,50L1681.7202709204635,50 z" fill="lightgray" fill-opacity="0.7" stroke="none" stroke-width="0.2" /><path d="M 58.305636774121915,0L63.19700951182501,0 L75.82219919316037,50L70.90713942040786,50 z" fill="lightgray" fill-opacity="0.7" stroke="none" stroke-width="0.2" /><path d="M 1874.1655871793923,0L1879.0569599170954,0 L75.82219919316037,50L70.90713942040786,50 z" fill="lightgray" fill-opacity="0.7" stroke="none" stroke-width="0.2" /><path d="M 58.305636774121915,0L63.19700951182501,0 L1867.6042784707058,50L1862.6892186979533,50 z" fill="lightgray" fill-opacity="0.7" stroke="none" stroke-width="0.2" /><path d="M 1874.1655871793923,0L1879.0569599170954,0 L1867.6042784707058,50L1862.6892186979533,50 z" fill="lightgray" fill-opacity="0.7" stroke="none" stroke-width="0.2" /><path d="M 1657.3936859247196,0L1661.1717680151005,0 L1649.4111551130686,50L1645.73966468041,50 z" fill="lightgray" fill-opacity="0.7" stroke="none" stroke-width="0.2" /><path d="M 1584.0586254117472,0L1588.002516747474,0 L1569.8582478996261,50L1566.0446352566712,50 z" fill="lightgray" fill-opacity="0.7" stroke="none" stroke-width="0.2" /><path d="M 1727.2467522854288,0L1729.804952070765,0 L1725.0083274732597,50L1722.4145971353491,50 z" fill="lightgray" fill-opacity="0.7" stroke="none" stroke-width="0.2" /><path d="M 1663.9549946334062,0L1666.3710722084459,0 L1649.6835560161367,50L1647.267478441097,50 z" fill="lightgray" fill-opacity="0.7" stroke="none" stroke-width="0.2" /><path d="M 1662.7232688108368,0L1665.1393463858767,0 L1649.6835560161367,50L1647.267478441097,50 z" fill="lightgray" fill-opacity="0.7" stroke="none" stroke-width="0.2" /><path d="M 1616.8296384026055,0L1619.6839261260593,0 L1611.1210629556979,50L1608.266775232244,50 z" fill="lightgray" fill-opacity="0.7" stroke="none" stroke-width="0.2" /><path d="M 1674.9339353788075,0L1677.2197342610757,0 L1649.4111551130686,50L1647.1253562308007,50 z" fill="lightgray" fill-opacity="0.7" stroke="none" stroke-width="0.2" /><path d="M 1677.5395092342426,0L1679.683185906214,0 L1649.4111551130686,50L1647.267478441097,50 z" fill="lightgray" fill-opacity="0.7" stroke="none" stroke-width="0.2" /><path d="M 1672.470483733669,0L1674.7799696509862,0 L1649.4466856656427,50L1647.1253562308007,50 z" fill="lightgray" fill-opacity="0.7" stroke="none" stroke-width="0.2" /><path d="M 1667.5198934083423,0L1669.8412228431846,0 L1649.4466856656427,50L1647.1253562308007,50 z" fill="lightgray" fill-opacity="0.7" stroke="none" stroke-width="0.2" /><path d="M 1669.9951885710057,0L1672.3165180058477,0 L1649.4466856656427,50L1647.1253562308007,50 z" fill="lightgray" fill-opacity="0.7" stroke="none" stroke-width="0.2" /><path d="M 1661.669195751138,0L1663.9076205633073,0 L1649.6835560161367,50L1647.4451312039675,50 z" fill="lightgray" fill-opacity="0.7" stroke="none" stroke-width="0.2" /><path d="M 1676.2959398941487,0L1678.7001739516636,0 L1649.6598689810874,50L1647.267478441097,50 z" fill="lightgray" fill-opacity="0.7" stroke="none" stroke-width="0.2" /><path d="M 1665.1867204559753,0L1667.365927680521,0 L1649.4466856656427,50L1647.267478441097,50 z" fill="lightgray" fill-opacity="0.7" stroke="none" stroke-width="0.2" /><path d="M 1660.354565305896,0L1662.675894740738,0 L1649.6835560161367,50L1647.3622265812946,50 z" fill="lightgray" fill-opacity="0.7" stroke="none" stroke-width="0.2" /><path d="M 1666.4184462785447,0L1668.810836818535,0 L1649.6598689810874,50L1647.267478441097,50 z" fill="lightgray" fill-opacity="0.7" stroke="none" stroke-width="0.2" /><path d="M 1678.771235056812,0L1680.9504422813575,0 L1649.4466856656427,50L1647.267478441097,50 z" fill="lightgray" fill-opacity="0.7" stroke="none" stroke-width="0.2" /><path d="M 819.8911876827417,0L821.691402346497,0 L827.4710388985528,50L825.6945112698472,50 z" fill="lightgray" fill-opacity="0.7" stroke="none" stroke-width="0.2" /><path d="M 1680.0029608793811,0L1682.4308819719456,0 L1649.6835560161367,50L1647.267478441097,50 z" fill="lightgray" fill-opacity="0.7" stroke="none" stroke-width="0.2" /><path d="M 820.0096228579888,0L822.0822384248122,0 L829.354158184981,50L827.3881342758799,50 z" fill="lightgray" fill-opacity="0.7" stroke="none" stroke-width="0.2" /></g><g id="length_bar" transform="translate(80,170)"><line fill="none" stroke="black" stroke-width="3" x1="1290.424123764758" x2="1881.6" y1="0" y2="0" /><text dominant-baseline="middle" fill="black" font-family="Arial" font-size="10pt" font-weight="normal" stroke="none" text-anchor="end" x="1280.424123764758" y="0">50 kbp</text></g></svg>