<?xml version="1.0" encoding="utf-8" ?>
<svg baseProfile="full" height="196px" version="1.1" viewBox="0 0 2209.3967261904763 196" width="2209.3967261904763px" xmlns="http://www.w3.org/2000/svg" xmlns:ev="http://www.w3.org/2001/xml-events" xmlns:xlink="http://www.w3.org/1999/xlink"><defs /><g id="legend" transform="translate(2027.6998511904762,76.28571428571428)"><path d="M 0,-8.0 L 153.9970238095238,-8.0 L 153.9970238095238,35.42857142857143 L 0,35.42857142857143 z" fill="none" stroke="none" stroke-width="0" /><path d="M 0,-8.0 L 16,-8.0 L 16,8.0 L 0,8.0 z" fill="#d3d3d3" stroke="black" stroke-width="0.5" transform="translate(0,0.0)" /><text alignment-baseline="central" dominant-baseline="central" fill="black" font-family="'Liberation Sans', 'Arial', 'Helvetica', 'Nimbus Sans L', sans-serif" font-size="16" font-style="normal" font-weight="normal" stroke="none" text-anchor="start" transform="translate(25.142857142857142,0.0)" x="0" y="0">repeat_region</text><path d="M 0,-8.0 L 16,-8.0 L 16,8.0 L 0,8.0 z" fill="#89d1fa" stroke="black" stroke-width="0.5" transform="translate(0,27.428571428571427)" /><text alignment-baseline="central" dominant-baseline="central" fill="black" font-family="'Liberation Sans', 'Arial', 'Helvetica', 'Nimbus Sans L', sans-serif" font-size="16" font-style="normal" font-weight="normal" stroke="none" text-anchor="start" transform="translate(25.142857142857142,27.428571428571427)" x="0" y="0">CDS</text></g><g id="length_bar" transform="translate(80,176.0)"><line fill="none" stroke="black" stroke-width="3" x1="1304.150128921623" x2="1920.0" y1="0" y2="0" /><text dominant-baseline="middle" fill="black" font-family="'Liberation Sans', 'Arial', 'Helvetica', 'Nimbus Sans L', sans-serif" font-size="16" font-weight="normal" stroke="none" text-anchor="end" x="1294.150128921623" y="0">50 kbp</text></g><g id="comparison1" transform="translate(80,58.0)"><path d="M 1032.8376327769347,0L1520.707650172101,0 L1521.2879825308116,60L1034.4365076427698,60 z" fill="#d3d3d3" fill-opacity="0.7" stroke="none" stroke-width="0" /><path d="M 350.2838743106703,0L823.8232355009438,0 L827.3407602057811,60L354.08564343610055,60 z" fill="#d3d3d3" fill-opacity="0.7" stroke="none" stroke-width="0" /><path d="M 919.67282282838,0L1032.2573004182243,0 L1034.4365076427698,60L922.2191790961916,60 z" fill="#d3d3d3" fill-opacity="0.7" stroke="none" stroke-width="0" /><path d="M 144.2540434509049,0L253.14334357304116,0 L258.17683852104074,60L149.40597357415152,60 z" fill="#d3d3d3" fill-opacity="0.7" stroke="none" stroke-width="0" /><path d="M 826.3103741811318,0L917.9318257522484,0 L922.3020837188645,60L830.8819719456678,60 z" fill="#d3d3d3" fill-opacity="0.7" stroke="none" stroke-width="0" /><path d="M 252.7051334246271,0L315.14415781487105,0 L320.43821014841404,60L258.1649950035161,60 z" fill="#d3d3d3" fill-opacity="0.7" stroke="none" stroke-width="0" /><path d="M 1659.0399348606536,0L1719.3471260964507,0 L1716.078315259632,60L1655.5934712609646,60 z" fill="#d3d3d3" fill-opacity="0.7" stroke="none" stroke-width="0" /><path d="M 316.1982308745698,0L348.767904067508,0 L352.7473259558089,60L320.4737407009882,60 z" fill="#d3d3d3" fill-opacity="0.7" stroke="none" stroke-width="0" /><path d="M 111.86202302083719,0L143.80398978496612,0 L149.41781709167623,60L117.46400681002257,60 z" fill="#d3d3d3" fill-opacity="0.7" stroke="none" stroke-width="0" /><path d="M 1659.0399348606536,0L1690.4134127835966,0 L1684.669306784115,60L1653.0944890632518,60 z" fill="#d3d3d3" fill-opacity="0.7" stroke="none" stroke-width="0" /><path d="M 1659.0399348606536,0L1690.4134127835966,0 L1682.1940116214514,60L1650.6310374181132,60 z" fill="#d3d3d3" fill-opacity="0.7" stroke="none" stroke-width="0" /><path d="M 1659.0399348606536,0L1689.193530478552,0 L1687.1327584292535,60L1656.8488841185833,60 z" fill="#d3d3d3" fill-opacity="0.7" stroke="none" stroke-width="0" /><path d="M 1659.0399348606536,0L1690.4134127835966,0 L1683.4375809615456,60L1651.8627632406824,60 z" fill="#d3d3d3" fill-opacity="0.7" stroke="none" stroke-width="0" /><path d="M 1659.0399348606536,0L1690.4134127835966,0 L1685.9128761242089,60L1654.3499019208705,60 z" fill="#d3d3d3" fill-opacity="0.7" stroke="none" stroke-width="0" /><path d="M 1659.0399348606536,0L1687.949961138458,0 L1687.1327584292535,60L1658.104296976202,60 z" fill="#d3d3d3" fill-opacity="0.7" stroke="none" stroke-width="0" /><path d="M 19.84973537140531,0L47.113512713275846,0 L59.65579777193827,60L32.522299122839485,60 z" fill="#d3d3d3" fill-opacity="0.7" stroke="none" stroke-width="0" /><path d="M 1835.7096857766755,0L1862.973463118546,0 L59.65579777193827,60L32.522299122839485,60 z" fill="#d3d3d3" fill-opacity="0.7" stroke="none" stroke-width="0" /><path d="M 19.84973537140531,0L47.113512713275846,0 L1851.4378770494839,60L1824.3043784003848,60 z" fill="#d3d3d3" fill-opacity="0.7" stroke="none" stroke-width="0" /><path d="M 1835.7096857766755,0L1862.973463118546,0 L1851.4378770494839,60L1824.3043784003848,60 z" fill="#d3d3d3" fill-opacity="0.7" stroke="none" stroke-width="0" /><path d="M 1659.4070839039196,0L1690.4134127835966,0 L1680.9385987638327,60L1649.7664606388098,60 z" fill="#d3d3d3" fill-opacity="0.7" stroke="none" stroke-width="0" /><path d="M 1659.0399348606536,0L1686.5879566231172,0 L1687.0380102890558,60L1659.3360227987712,60 z" fill="#d3d3d3" fill-opacity="0.7" stroke="none" stroke-width="0" /><path d="M 1660.6388097264887,0L1690.4134127835966,0 L1679.6950294237388,60L1649.7664606388098,60 z" fill="#d3d3d3" fill-opacity="0.7" stroke="none" stroke-width="0" /><path d="M 1661.8823790665829,0L1690.4134127835966,0 L1678.4633036011696,60L1649.7783041563343,60 z" fill="#d3d3d3" fill-opacity="0.7" stroke="none" stroke-width="0" /><path d="M 1591.4371368296383,0L1614.0700988193494,0 L1608.1720270920464,60L1585.7048743476812,60 z" fill="#d3d3d3" fill-opacity="0.7" stroke="none" stroke-width="0" /><path d="M 1659.0399348606536,0L1684.219253118176,0 L1687.1327584292535,60L1661.8350049964838,60 z" fill="#d3d3d3" fill-opacity="0.7" stroke="none" stroke-width="0" /><path d="M 1659.0399348606536,0L1685.427291905696,0 L1687.109071394204,60L1660.5914356563899,60 z" fill="#d3d3d3" fill-opacity="0.7" stroke="none" stroke-width="0" /><path d="M 1663.1022613716273,0L1690.4134127835966,0 L1677.2315777786002,60L1649.7664606388098,60 z" fill="#d3d3d3" fill-opacity="0.7" stroke="none" stroke-width="0" /><path d="M 1659.0399348606536,0L1682.9756837780822,0 L1687.1327584292535,60L1663.0667308190532,60 z" fill="#d3d3d3" fill-opacity="0.7" stroke="none" stroke-width="0" /><path d="M 1659.0399348606536,0L1681.732114437988,0 L1687.1327584292535,60L1664.3339871941967,60 z" fill="#d3d3d3" fill-opacity="0.7" stroke="none" stroke-width="0" /><path d="M 1664.3339871941967,0L1690.4134127835966,0 L1675.9880084385063,60L1649.7664606388098,60 z" fill="#d3d3d3" fill-opacity="0.7" stroke="none" stroke-width="0" /><path d="M 1665.565713016766,0L1690.4134127835966,0 L1674.7325955808876,60L1649.7664606388098,60 z" fill="#d3d3d3" fill-opacity="0.7" stroke="none" stroke-width="0" /><path d="M 1659.0399348606536,0L1680.488545097894,0 L1687.1327584292535,60L1665.565713016766,60 z" fill="#d3d3d3" fill-opacity="0.7" stroke="none" stroke-width="0" /><path d="M 1778.2686257818573,0L1798.7105370294978,0 L1791.438617269329,60L1771.2217328546578,60 z" fill="#d3d3d3" fill-opacity="0.7" stroke="none" stroke-width="0" /><path d="M 1659.0399348606536,0L1679.2568192753247,0 L1687.1327584292535,60L1666.80928235686,60 z" fill="#d3d3d3" fill-opacity="0.7" stroke="none" stroke-width="0" /><path d="M 1666.7974388393352,0L1690.4134127835966,0 L1673.4890262407935,60L1649.7664606388098,60 z" fill="#d3d3d3" fill-opacity="0.7" stroke="none" stroke-width="0" /><path d="M 1659.0399348606536,0L1678.0250934527553,0 L1687.1327584292535,60L1668.0410081794294,60 z" fill="#d3d3d3" fill-opacity="0.7" stroke="none" stroke-width="0" /><path d="M 1639.4033828046931,0L1656.6712313557125,0 L1645.704134127836,60L1628.7205299974091,60 z" fill="#d3d3d3" fill-opacity="0.7" stroke="none" stroke-width="0" /><path d="M 1544.2762500462636,0L1564.7536918464784,0 L1559.3767348902622,60L1539.7046522817277,60 z" fill="#d3d3d3" fill-opacity="0.7" stroke="none" stroke-width="0" /><path d="M 1667.9462600392317,0L1690.4134127835966,0 L1672.2573004182243,60L1649.6835560161367,60 z" fill="#d3d3d3" fill-opacity="0.7" stroke="none" stroke-width="0" /><path d="M 1741.8261223583404,0L1761.1665864761835,0 L1754.2262852067063,60L1735.3240312372775,60 z" fill="#d3d3d3" fill-opacity="0.7" stroke="none" stroke-width="0" /><path d="M 1621.152522299123,0L1639.0125467263779,0 L1628.7560605499832,60L1611.1329064732224,60 z" fill="#d3d3d3" fill-opacity="0.7" stroke="none" stroke-width="0" /><path d="M 1659.0399348606536,0L1676.7933676301864,0 L1687.1327584292535,60L1669.3082645545728,60 z" fill="#d3d3d3" fill-opacity="0.7" stroke="none" stroke-width="0" /><path d="M 1659.0399348606536,0L1675.5497982900922,0 L1687.1327584292535,60L1670.539990377142,60 z" fill="#d3d3d3" fill-opacity="0.7" stroke="none" stroke-width="0" /><path d="M 1760.9534031607386,0L1777.3803619675043,0 L1771.0677671268368,60L1754.6526518375956,60 z" fill="#d3d3d3" fill-opacity="0.7" stroke="none" stroke-width="0" /><path d="M 1670.421555201895,0L1690.4134127835966,0 L1669.7820052555608,60L1649.6835560161367,60 z" fill="#d3d3d3" fill-opacity="0.7" stroke="none" stroke-width="0" /><path d="M 1659.0399348606536,0L1674.3062289499983,0 L1687.1327584292535,60L1671.7835597172361,60 z" fill="#d3d3d3" fill-opacity="0.7" stroke="none" stroke-width="0" /><path d="M 1671.736185647137,0L1690.4134127835966,0 L1668.526592397942,60L1649.7664606388098,60 z" fill="#d3d3d3" fill-opacity="0.7" stroke="none" stroke-width="0" /><path d="M 1659.0399348606536,0L1673.0863466449537,0 L1687.1327584292535,60L1673.0152855398053,60 z" fill="#d3d3d3" fill-opacity="0.7" stroke="none" stroke-width="0" /><path d="M 1672.9797549872312,0L1690.4134127835966,0 L1667.2830230578481,60L1649.7664606388098,60 z" fill="#d3d3d3" fill-opacity="0.7" stroke="none" stroke-width="0" /><path d="M 87.22750656945112,0L101.81872015988749,0 L111.06850734668197,60L96.47729375624561,60 z" fill="#d3d3d3" fill-opacity="0.7" stroke="none" stroke-width="0" /><path d="M 1903.0874569747216,0L1917.6786705651577,0 L111.06850734668197,60L96.47729375624561,60 z" fill="#d3d3d3" fill-opacity="0.7" stroke="none" stroke-width="0" /><path d="M 87.22750656945112,0L101.81872015988749,0 L1902.8505866242274,60L1888.2593730337912,60 z" fill="#d3d3d3" fill-opacity="0.7" stroke="none" stroke-width="0" /><path d="M 1903.0874569747216,0L1917.6786705651577,0 L1902.8505866242274,60L1888.2593730337912,60 z" fill="#d3d3d3" fill-opacity="0.7" stroke="none" stroke-width="0" /><path d="M 72.7191976016877,0L86.05499833450536,0 L96.31148451089973,60L83.11780598837855,60 z" fill="#d3d3d3" fill-opacity="0.7" stroke="none" stroke-width="0" /><path d="M 1888.5791480069581,0L1901.9149487397756,0 L96.31148451089973,60L83.11780598837855,60 z" fill="#d3d3d3" fill-opacity="0.7" stroke="none" stroke-width="0" /><path d="M 72.7191976016877,0L86.05499833450536,0 L1888.0935637884452,60L1874.899885265924,60 z" fill="#d3d3d3" fill-opacity="0.7" stroke="none" stroke-width="0" /><path d="M 1888.5791480069581,0L1901.9149487397756,0 L1888.0935637884452,60L1874.899885265924,60 z" fill="#d3d3d3" fill-opacity="0.7" stroke="none" stroke-width="0" /><path d="M 1659.0399348606536,0L1671.8427773048595,0 L1687.1327584292535,60L1674.2470113623745,60 z" fill="#d3d3d3" fill-opacity="0.7" stroke="none" stroke-width="0" /><path d="M 1659.0399348606536,0L1670.5992079647656,0 L1687.120914911729,60L1675.514267737518,60 z" fill="#d3d3d3" fill-opacity="0.7" stroke="none" stroke-width="0" /><path d="M 1675.4432066323698,0L1690.4134127835966,0 L1664.807727895185,60L1649.7664606388098,60 z" fill="#d3d3d3" fill-opacity="0.7" stroke="none" stroke-width="0" /><path d="M 1521.3116695658612,0L1535.0146193419446,0 L1534.8843406491728,60L1521.323513083386,60 z" fill="#d3d3d3" fill-opacity="0.7" stroke="none" stroke-width="0" /><path d="M 1659.0399348606536,0L1669.3674821421962,0 L1687.1327584292535,60L1676.7459935600873,60 z" fill="#d3d3d3" fill-opacity="0.7" stroke="none" stroke-width="0" /><path d="M 1676.686775972464,0L1690.4134127835966,0 L1663.5523150375661,60L1649.7664606388098,60 z" fill="#d3d3d3" fill-opacity="0.7" stroke="none" stroke-width="0" /><path d="M 1528.4059365631592,0L1539.7401828343018,0 L1538.7571708797514,60L1527.565046818905,60 z" fill="#d3d3d3" fill-opacity="0.7" stroke="none" stroke-width="0" /><path d="M 1659.0399348606536,0L1668.123912802102,0 L1687.120914911729,60L1677.9895629001812,60 z" fill="#d3d3d3" fill-opacity="0.7" stroke="none" stroke-width="0" /><path d="M 98.97627595395832,0L107.19567711610348,0 L114.92949405973575,60L106.87590214293645,60 z" fill="#d3d3d3" fill-opacity="0.7" stroke="none" stroke-width="0" /><path d="M 1914.8362263592287,0L1919.9052518598023,0 L111.93308412598542,60L106.87590214293645,60 z" fill="#d3d3d3" fill-opacity="0.7" stroke="none" stroke-width="0" /><path d="M 98.97627595395832,0L104.045301454532,0 L1903.7151634035308,60L1898.657981420482,60 z" fill="#d3d3d3" fill-opacity="0.7" stroke="none" stroke-width="0" /><path d="M 1914.8362263592287,0L1919.9052518598023,0 L1903.7151634035308,60L1898.657981420482,60 z" fill="#d3d3d3" fill-opacity="0.7" stroke="none" stroke-width="0" /><path d="M 1732.374995373626,0L1741.3405381398275,0 L1735.1937525445057,60L1726.2992708834524,60 z" fill="#d3d3d3" fill-opacity="0.7" stroke="none" stroke-width="0" /><path d="M 1659.0399348606536,0L1666.9040304970576,0 L1687.1327584292535,60L1679.2212887227506,60 z" fill="#d3d3d3" fill-opacity="0.7" stroke="none" stroke-width="0" /><path d="M 1679.1502276176022,0L1690.4134127835966,0 L1661.0651763573783,60L1649.7664606388098,60 z" fill="#d3d3d3" fill-opacity="0.7" stroke="none" stroke-width="0" /><path d="M 11.251341648469595,0L17.36259669121729,0 L32.238054702246565,60L26.12679965949887,60 z" fill="#d3d3d3" fill-opacity="0.7" stroke="none" stroke-width="0" /><path d="M 1827.1112920537398,0L1833.2225470964877,0 L32.238054702246565,60L26.12679965949887,60 z" fill="#d3d3d3" fill-opacity="0.7" stroke="none" stroke-width="0" /><path d="M 11.251341648469595,0L17.36259669121729,0 L1824.0201339797918,60L1817.9088789370444,60 z" fill="#d3d3d3" fill-opacity="0.7" stroke="none" stroke-width="0" /><path d="M 1827.1112920537398,0L1833.2225470964877,0 L1824.0201339797918,60L1817.9088789370444,60 z" fill="#d3d3d3" fill-opacity="0.7" stroke="none" stroke-width="0" /><path d="M 1574.9509604352493,0L1583.1585180798697,0 L1567.9395980606241,60L1560.1110329767941,60 z" fill="#d3d3d3" fill-opacity="0.7" stroke="none" stroke-width="0" /><path d="M 1680.3819534401716,0L1690.4134127835966,0 L1659.8216070172841,60L1649.7664606388098,60 z" fill="#d3d3d3" fill-opacity="0.7" stroke="none" stroke-width="0" /><path d="M 1659.0399348606536,0L1665.6723046744883,0 L1687.1327584292535,60L1680.45301454532,60 z" fill="#d3d3d3" fill-opacity="0.7" stroke="none" stroke-width="0" /><path d="M 1.7765276287057257,0L10.87234908767904,0 L26.103112624449462,60L16.865168955179687,60 z" fill="#d3d3d3" fill-opacity="0.7" stroke="none" stroke-width="0" /><path d="M 1817.6364780339761,0L1826.7322994929496,0 L26.103112624449462,60L16.865168955179687,60 z" fill="#d3d3d3" fill-opacity="0.7" stroke="none" stroke-width="0" /><path d="M 1.7765276287057257,0L10.87234908767904,0 L1817.8851919019949,60L1808.6472482327251,60 z" fill="#d3d3d3" fill-opacity="0.7" stroke="none" stroke-width="0" /><path d="M 1817.6364780339761,0L1826.7322994929496,0 L1817.8851919019949,60L1808.6472482327251,60 z" fill="#d3d3d3" fill-opacity="0.7" stroke="none" stroke-width="0" /><path d="M 1659.0399348606536,0L1664.440578851919,0 L1687.1327584292535,60L1681.7202709204635,60 z" fill="#d3d3d3" fill-opacity="0.7" stroke="none" stroke-width="0" /><path d="M 58.305636774121915,0L63.19700951182501,0 L75.82219919316037,60L70.90713942040786,60 z" fill="#d3d3d3" fill-opacity="0.7" stroke="none" stroke-width="0" /><path d="M 1874.1655871793923,0L1879.0569599170954,0 L75.82219919316037,60L70.90713942040786,60 z" fill="#d3d3d3" fill-opacity="0.7" stroke="none" stroke-width="0" /><path d="M 58.305636774121915,0L63.19700951182501,0 L1867.6042784707058,60L1862.6892186979533,60 z" fill="#d3d3d3" fill-opacity="0.7" stroke="none" stroke-width="0" /><path d="M 1874.1655871793923,0L1879.0569599170954,0 L1867.6042784707058,60L1862.6892186979533,60 z" fill="#d3d3d3" fill-opacity="0.7" stroke="none" stroke-width="0" /><path d="M 1657.3936859247196,0L1661.1717680151005,0 L1649.4111551130686,60L1645.73966468041,60 z" fill="#d3d3d3" fill-opacity="0.7" stroke="none" stroke-width="0" /><path d="M 1584.0586254117472,0L1588.002516747474,0 L1569.8582478996261,60L1566.0446352566712,60 z" fill="#d3d3d3" fill-opacity="0.7" stroke="none" stroke-width="0" /><path d="M 1727.2467522854288,0L1729.804952070765,0 L1725.0083274732597,60L1722.4145971353491,60 z" fill="#d3d3d3" fill-opacity="0.7" stroke="none" stroke-width="0" /><path d="M 1663.9549946334062,0L1666.3710722084459,0 L1649.6835560161367,60L1647.267478441097,60 z" fill="#d3d3d3" fill-opacity="0.7" stroke="none" stroke-width="0" /><path d="M 1662.7232688108368,0L1665.1393463858767,0 L1649.6835560161367,60L1647.267478441097,60 z" fill="#d3d3d3" fill-opacity="0.7" stroke="none" stroke-width="0" /><path d="M 1616.8296384026055,0L1619.6839261260593,0 L1611.1210629556979,60L1608.266775232244,60 z" fill="#d3d3d3" fill-opacity="0.7" stroke="none" stroke-width="0" /><path d="M 1674.9339353788075,0L1677.2197342610757,0 L1649.4111551130686,60L1647.1253562308007,60 z" fill="#d3d3d3" fill-opacity="0.7" stroke="none" stroke-width="0" /><path d="M 1677.5395092342426,0L1679.683185906214,0 L1649.4111551130686,60L1647.267478441097,60 z" fill="#d3d3d3" fill-opacity="0.7" stroke="none" stroke-width="0" /><path d="M 1672.470483733669,0L1674.7799696509862,0 L1649.4466856656427,60L1647.1253562308007,60 z" fill="#d3d3d3" fill-opacity="0.7" stroke="none" stroke-width="0" /><path d="M 1667.5198934083423,0L1669.8412228431846,0 L1649.4466856656427,60L1647.1253562308007,60 z" fill="#d3d3d3" fill-opacity="0.7" stroke="none" stroke-width="0" /><path d="M 1669.9951885710057,0L1672.3165180058477,0 L1649.4466856656427,60L1647.1253562308007,60 z" fill="#d3d3d3" fill-opacity="0.7" stroke="none" stroke-width="0" /><path d="M 1661.669195751138,0L1663.9076205633073,0 L1649.6835560161367,60L1647.4451312039675,60 z" fill="#d3d3d3" fill-opacity="0.7" stroke="none" stroke-width="0" /><path d="M 1676.2959398941487,0L1678.7001739516636,0 L1649.6598689810874,60L1647.267478441097,60 z" fill="#d3d3d3" fill-opacity="0.7" stroke="none" stroke-width="0" /><path d="M 1665.1867204559753,0L1667.365927680521,0 L1649.4466856656427,60L1647.267478441097,60 z" fill="#d3d3d3" fill-opacity="0.7" stroke="none" stroke-width="0" /><path d="M 1660.354565305896,0L1662.675894740738,0 L1649.6835560161367,60L1647.3622265812946,60 z" fill="#d3d3d3" fill-opacity="0.7" stroke="none" stroke-width="0" /><path d="M 1666.4184462785447,0L1668.810836818535,0 L1649.6598689810874,60L1647.267478441097,60 z" fill="#d3d3d3" fill-opacity="0.7" stroke="none" stroke-width="0" /><path d="M 1678.771235056812,0L1680.9504422813575,0 L1649.4466856656427,60L1647.267478441097,60 z" fill="#d3d3d3" fill-opacity="0.7" stroke="none" stroke-width="0" /><path d="M 819.8911876827417,0L821.691402346497,0 L827.4710388985528,60L825.6945112698472,60 z" fill="#d3d3d3" fill-opacity="0.7" stroke="none" stroke-width="0" /><path d="M 1680.0029608793811,0L1682.4308819719456,0 L1649.6835560161367,60L1647.267478441097,60 z" fill="#d3d3d3" fill-opacity="0.7" stroke="none" stroke-width="0" /><path d="M 820.0096228579888,0L822.0822384248122,0 L829.354158184981,60L827.3881342758799,60 z" fill="#d3d3d3" fill-opacity="0.7" stroke="none" stroke-width="0" /></g><g id="NC_000898" transform="translate(80.0,40)"><line fill="none" stroke="lightgray" stroke-width="2" x1="0" x2="1920.0" y1="0" y2="0" /><path d="M 0.011843517524704838,-12.0 L 104.14004959472963,-12.0 L 104.14004959472963,-2.0 L 0.011843517524704838,-2.0 z" fill="#d3d3d3" stroke="black" stroke-linecap="round" stroke-linejoin="round" stroke-width="0.5" /><path d="M 0.6869240164328805,-24.000000000000004 L 4.180761686220808,-24.000000000000004 L 4.180761686220808,-14.0 L 0.6869240164328805,-14.0 z" fill="#d3d3d3" stroke="black" stroke-linecap="round" stroke-linejoin="round" stroke-width="0.5" /><path d="M 6.8929271993782155,-24.000000000000004 L 9.960398238276767,-24.000000000000004 L 9.960398238276767,-14.0 L 6.8929271993782155,-14.0 z" fill="#89d1fa" stroke="black" stroke-linecap="round" stroke-linejoin="round" stroke-width="0.5" /><path d="M 9.972241755801473,-19.0 L11.28687220104371,-19.0 z" fill="none" stroke="gray" stroke-linecap="round" stroke-linejoin="round" stroke-width="1.0" /><path d="M 11.298715718568415,-24.000000000000004 L 32.93046463599689,-24.000000000000004 L 35.23446463599689,-19.0 L 32.93046463599689,-14.0 L 11.298715718568415,-14.0 z" fill="#89d1fa" stroke="black" stroke-linecap="round" stroke-linejoin="round" stroke-width="0.5" /><path d="M 39.37969576964358,2.000000000000001 L 34.54205470224657,2.000000000000001 L 32.238054702246565,7.000000000000001 L 34.54205470224657,12.000000000000002 L 39.37969576964358,12.000000000000002 z" fill="#89d1fa" stroke="black" stroke-linecap="round" stroke-linejoin="round" stroke-width="0.5" /><path d="M 35.77926644213331,-24.000000000000004 L 39.16015485399163,-24.000000000000004 L 41.46415485399163,-19.0 L 39.16015485399163,-14.0 L 35.77926644213331,-14.0 z" fill="#89d1fa" stroke="black" stroke-linecap="round" stroke-linejoin="round" stroke-width="0.5" /><path d="M 41.8668344498316,-24.000000000000004 L 42.40527865576075,-24.000000000000004 L 44.709278655760755,-19.0 L 42.40527865576075,-14.0 L 41.8668344498316,-14.0 z" fill="#89d1fa" stroke="black" stroke-linecap="round" stroke-linejoin="round" stroke-width="0.5" /><path d="M 59.525519079166514,-24.000000000000004 L 63.12594840667679,-24.000000000000004 L 63.12594840667679,-14.0 L 59.525519079166514,-14.0 z" fill="#89d1fa" stroke="black" stroke-linecap="round" stroke-linejoin="round" stroke-width="0.5" /><path d="M 63.13779192420149,-19.0 L74.9339353788075,-19.0 z" fill="none" stroke="gray" stroke-linecap="round" stroke-linejoin="round" stroke-width="1.0" /><path d="M 74.9457788963322,-24.000000000000004 L 83.00485673044894,-24.000000000000004 L 85.30885673044894,-19.0 L 83.00485673044894,-14.0 L 74.9457788963322,-14.0 z" fill="#89d1fa" stroke="black" stroke-linecap="round" stroke-linejoin="round" stroke-width="0.5" /><path d="M 87.02616677153114,-24.000000000000004 L 89.157999925978,-19.0 L 87.02616677153114,-14.0 z" fill="#89d1fa" stroke="black" stroke-linecap="round" stroke-linejoin="round" stroke-width="0.5" /><path d="M 97.6971760612902,-24.000000000000004 L 103.16888115770385,-24.000000000000004 L 103.16888115770385,-14.0 L 97.6971760612902,-14.0 z" fill="#d3d3d3" stroke="black" stroke-linecap="round" stroke-linejoin="round" stroke-width="0.5" /><path d="M 112.41866834449831,2.000000000000001 L 107.82974114512011,2.000000000000001 L 105.52574114512011,7.000000000000001 L 107.82974114512011,12.000000000000002 L 112.41866834449831,12.000000000000002 z" fill="#89d1fa" stroke="black" stroke-linecap="round" stroke-linejoin="round" stroke-width="0.5" /><path d="M 110.31052222510085,-12.0 L 112.631851659943,-12.0 L 112.631851659943,-2.0 L 110.31052222510085,-2.0 z" fill="#d3d3d3" stroke="black" stroke-linecap="round" stroke-linejoin="round" stroke-width="0.5" /><path d="M 112.76213035271475,-12.0 L 113.30057455864392,-12.0 L 115.60457455864392,-7.0 L 113.30057455864392,-2.0 L 112.76213035271475,-2.0 z" fill="#89d1fa" stroke="black" stroke-linecap="round" stroke-linejoin="round" stroke-width="0.5" /><path d="M 126.90329027721232,2.000000000000001 L 116.27416914023466,2.000000000000001 L 113.97016914023466,7.000000000000001 L 116.27416914023466,12.000000000000002 L 126.90329027721232,12.000000000000002 z" fill="#89d1fa" stroke="black" stroke-linecap="round" stroke-linejoin="round" stroke-width="0.5" /><path d="M 144.55013138902254,2.000000000000001 L 133.10380754284023,2.000000000000001 L 130.79980754284023,7.000000000000001 L 133.10380754284023,12.000000000000002 L 144.55013138902254,12.000000000000002 z" fill="#89d1fa" stroke="black" stroke-linecap="round" stroke-linejoin="round" stroke-width="0.5" /><path d="M 166.2829860468559,2.000000000000001 L 149.54260986713052,2.000000000000001 L 147.23860986713052,7.000000000000001 L 149.54260986713052,12.000000000000002 L 166.2829860468559,12.000000000000002 z" fill="#89d1fa" stroke="black" stroke-linecap="round" stroke-linejoin="round" stroke-width="0.5" /><path d="M 188.18164995003517,2.000000000000001 L 200.85421370146932,2.000000000000001 L 200.85421370146932,12.000000000000002 L 188.18164995003517,12.000000000000002 z" fill="#89d1fa" stroke="black" stroke-linecap="round" stroke-linejoin="round" stroke-width="0.5" /><path d="M 187.13942040786114,7.000000000000001 L188.16980643251046,7.000000000000001 z" fill="none" stroke="gray" stroke-linecap="round" stroke-linejoin="round" stroke-width="1.0" /><path d="M 187.12757689033646,2.000000000000001 L 169.9845211147711,2.000000000000001 L 167.6805211147711,7.000000000000001 L 169.9845211147711,12.000000000000002 L 187.12757689033646,12.000000000000002 z" fill="#89d1fa" stroke="black" stroke-linecap="round" stroke-linejoin="round" stroke-width="0.5" /><path d="M 184.78256042044487,-12.0 L 184.9301685480588,-12.0 L 187.2341685480588,-7.0 L 184.9301685480588,-2.0 L 184.78256042044487,-2.0 z" fill="#89d1fa" stroke="black" stroke-linecap="round" stroke-linejoin="round" stroke-width="0.5" /><path d="M 215.52833191457862,2.000000000000001 L 203.19374425404345,2.000000000000001 L 200.88974425404345,7.000000000000001 L 203.19374425404345,12.000000000000002 L 215.52833191457862,12.000000000000002 z" fill="#89d1fa" stroke="black" stroke-linecap="round" stroke-linejoin="round" stroke-width="0.5" /><path d="M 219.02216958436657,14.000000000000002 L 217.59546156408453,14.000000000000002 L 215.29146156408453,19.0 L 217.59546156408453,24.000000000000004 L 219.02216958436657,24.000000000000004 z" fill="#89d1fa" stroke="black" stroke-linecap="round" stroke-linejoin="round" stroke-width="0.5" /><path d="M 219.6025019430771,-12.0 L 235.2059004404308,-12.0 L 237.5099004404308,-7.0 L 235.2059004404308,-2.0 L 219.6025019430771,-2.0 z" fill="#89d1fa" stroke="black" stroke-linecap="round" stroke-linejoin="round" stroke-width="0.5" /><path d="M 266.8818239016988,2.000000000000001 L 238.66507924053442,2.000000000000001 L 236.36107924053442,7.000000000000001 L 238.66507924053442,12.000000000000002 L 266.8818239016988,12.000000000000002 z" fill="#89d1fa" stroke="black" stroke-linecap="round" stroke-linejoin="round" stroke-width="0.5" /><path d="M 268.078019171694,-12.0 L 268.46885525000926,-12.0 L 268.46885525000926,-2.0 L 268.078019171694,-2.0 z" fill="#89d1fa" stroke="black" stroke-linecap="round" stroke-linejoin="round" stroke-width="0.5" /><path d="M 268.48069876753397,-7.0 L269.3689625818868,-7.0 z" fill="none" stroke="gray" stroke-linecap="round" stroke-linejoin="round" stroke-width="1.0" /><path d="M 269.38080609941153,-12.0 L 274.0052638513639,-12.0 L 276.3092638513639,-7.0 L 274.0052638513639,-2.0 L 269.38080609941153,-2.0 z" fill="#89d1fa" stroke="black" stroke-linecap="round" stroke-linejoin="round" stroke-width="0.5" /><path d="M 276.45138606166034,-12.0 L 279.2637856323328,-12.0 L 281.5677856323328,-7.0 L 279.2637856323328,-2.0 L 276.45138606166034,-2.0 z" fill="#89d1fa" stroke="black" stroke-linecap="round" stroke-linejoin="round" stroke-width="0.5" /><path d="M 282.5271105518339,-12.0 L 284.0604102298383,-12.0 L 286.36441022983826,-7.0 L 284.0604102298383,-2.0 L 282.5271105518339,-2.0 z" fill="#89d1fa" stroke="black" stroke-linecap="round" stroke-linejoin="round" stroke-width="0.5" /><path d="M 287.5132314297347,-12.0 L 306.9183990525186,-12.0 L 309.2223990525186,-7.0 L 306.9183990525186,-2.0 L 287.5132314297347,-2.0 z" fill="#89d1fa" stroke="black" stroke-linecap="round" stroke-linejoin="round" stroke-width="0.5" /><path d="M 316.589066952885,2.000000000000001 L 320.3434620082164,2.000000000000001 L 320.3434620082164,12.000000000000002 L 316.589066952885,12.000000000000002 z" fill="#89d1fa" stroke="black" stroke-linecap="round" stroke-linejoin="round" stroke-width="0.5" /><path d="M 314.7177911839816,7.000000000000001 L316.57722343536034,7.000000000000001 z" fill="none" stroke="gray" stroke-linecap="round" stroke-linejoin="round" stroke-width="1.0" /><path d="M 313.84137088715346,2.000000000000001 L 314.70594766645695,2.000000000000001 L 314.70594766645695,12.000000000000002 L 313.84137088715346,12.000000000000002 z" fill="#89d1fa" stroke="black" stroke-linecap="round" stroke-linejoin="round" stroke-width="0.5" /><path d="M 311.8279729079536,7.000000000000001 L313.8295273696288,7.000000000000001 z" fill="none" stroke="gray" stroke-linecap="round" stroke-linejoin="round" stroke-width="1.0" /><path d="M 311.81612939042896,2.000000000000001 L 309.61323513083386,7.000000000000001 L 311.81612939042896,12.000000000000002 z" fill="#89d1fa" stroke="black" stroke-linecap="round" stroke-linejoin="round" stroke-width="0.5" /><path d="M 333.8924460564788,2.000000000000001 L 336.6046115696362,2.000000000000001 L 336.6046115696362,12.000000000000002 L 333.8924460564788,12.000000000000002 z" fill="#89d1fa" stroke="black" stroke-linecap="round" stroke-linejoin="round" stroke-width="0.5" /><path d="M 332.87390354935417,7.000000000000001 L333.88060253895407,7.000000000000001 z" fill="none" stroke="gray" stroke-linecap="round" stroke-linejoin="round" stroke-width="1.0" /><path d="M 332.86206003182946,2.000000000000001 L 325.9754904326585,2.000000000000001 L 323.6714904326585,7.000000000000001 L 325.9754904326585,12.000000000000002 L 332.86206003182946,12.000000000000002 z" fill="#89d1fa" stroke="black" stroke-linecap="round" stroke-linejoin="round" stroke-width="0.5" /><path d="M 361.049631740627,2.000000000000001 L 352.8721187312632,2.000000000000001 L 350.5681187312632,7.000000000000001 L 352.8721187312632,12.000000000000002 L 361.049631740627,12.000000000000002 z" fill="#89d1fa" stroke="black" stroke-linecap="round" stroke-linejoin="round" stroke-width="0.5" /><path d="M 378.0450793885784,2.000000000000001 L 366.49216388467374,2.000000000000001 L 364.18816388467377,7.000000000000001 L 366.49216388467374,12.000000000000002 L 378.0450793885784,12.000000000000002 z" fill="#89d1fa" stroke="black" stroke-linecap="round" stroke-linejoin="round" stroke-width="0.5" /><path d="M 396.1538176838521,2.000000000000001 L 383.00202731411224,2.000000000000001 L 380.69802731411227,7.000000000000001 L 383.00202731411224,12.000000000000002 L 396.1538176838521,12.000000000000002 z" fill="#89d1fa" stroke="black" stroke-linecap="round" stroke-linejoin="round" stroke-width="0.5" /><path d="M 413.9783115585329,2.000000000000001 L 398.4815047189015,2.000000000000001 L 396.1775047189015,7.000000000000001 L 398.4815047189015,12.000000000000002 L 413.9783115585329,12.000000000000002 z" fill="#89d1fa" stroke="black" stroke-linecap="round" stroke-linejoin="round" stroke-width="0.5" /><path d="M 419.9592879085088,14.000000000000002 L 415.0505857359636,14.000000000000002 L 412.7465857359636,19.0 L 415.0505857359636,24.000000000000004 L 419.9592879085088,24.000000000000004 z" fill="#89d1fa" stroke="black" stroke-linecap="round" stroke-linejoin="round" stroke-width="0.5" /><path d="M 430.9382286539102,2.000000000000001 L 422.5830628816758,2.000000000000001 L 420.2790628816758,7.000000000000001 L 422.5830628816758,12.000000000000002 L 430.9382286539102,12.000000000000002 z" fill="#89d1fa" stroke="black" stroke-linecap="round" stroke-linejoin="round" stroke-width="0.5" /><path d="M 435.5690440060698,2.000000000000001 L 434.7108248269736,2.000000000000001 L 432.4068248269736,7.000000000000001 L 434.7108248269736,12.000000000000002 L 435.5690440060698,12.000000000000002 z" fill="#89d1fa" stroke="black" stroke-linecap="round" stroke-linejoin="round" stroke-width="0.5" /><path d="M 437.8429993708131,2.000000000000001 L 435.7822273215145,7.000000000000001 L 437.8429993708131,12.000000000000002 z" fill="#89d1fa" stroke="black" stroke-linecap="round" stroke-linejoin="round" stroke-width="0.5" /><path d="M 449.2956808172027,2.000000000000001 L 440.33649565120834,2.000000000000001 L 438.03249565120836,7.000000000000001 L 440.33649565120834,12.000000000000002 L 449.2956808172027,12.000000000000002 z" fill="#89d1fa" stroke="black" stroke-linecap="round" stroke-linejoin="round" stroke-width="0.5" /><path d="M 461.079980754284,14.000000000000002 L 452.8669371923461,14.000000000000002 L 450.5629371923461,19.0 L 452.8669371923461,24.000000000000004 L 461.079980754284,24.000000000000004 z" fill="#89d1fa" stroke="black" stroke-linecap="round" stroke-linejoin="round" stroke-width="0.5" /><path d="M 473.9657278211629,2.000000000000001 L 463.2300150264628,2.000000000000001 L 460.92601502646284,7.000000000000001 L 463.2300150264628,12.000000000000002 L 473.9657278211629,12.000000000000002 z" fill="#89d1fa" stroke="black" stroke-linecap="round" stroke-linejoin="round" stroke-width="0.5" /><path d="M 503.92982715866617,2.000000000000001 L 477.6317323365039,2.000000000000001 L 475.3277323365039,7.000000000000001 L 477.6317323365039,12.000000000000002 L 503.92982715866617,12.000000000000002 z" fill="#89d1fa" stroke="black" stroke-linecap="round" stroke-linejoin="round" stroke-width="0.5" /><path d="M 514.8495503164439,2.000000000000001 L 506.4943845442096,2.000000000000001 L 504.1903845442096,7.000000000000001 L 506.4943845442096,12.000000000000002 L 514.8495503164439,12.000000000000002 z" fill="#89d1fa" stroke="black" stroke-linecap="round" stroke-linejoin="round" stroke-width="0.5" /><path d="M 509.24756652725864,-12.0 L 545.4231549650245,-12.0 L 547.7271549650245,-7.0 L 545.4231549650245,-2.0 L 509.24756652725864,-2.0 z" fill="#89d1fa" stroke="black" stroke-linecap="round" stroke-linejoin="round" stroke-width="0.5" /><path d="M 547.9284947629445,-12.0 L 619.4569830119545,-12.0 L 621.7609830119545,-7.0 L 619.4569830119545,-2.0 L 547.9284947629445,-2.0 z" fill="#89d1fa" stroke="black" stroke-linecap="round" stroke-linejoin="round" stroke-width="0.5" /><path d="M 625.8233095229284,2.000000000000001 L 624.929559791258,2.000000000000001 L 622.6255597912581,7.000000000000001 L 624.929559791258,12.000000000000002 L 625.8233095229284,12.000000000000002 z" fill="#89d1fa" stroke="black" stroke-linecap="round" stroke-linejoin="round" stroke-width="0.5" /><path d="M 642.570043302861,2.000000000000001 L 628.139153040453,2.000000000000001 L 625.8351530404531,7.000000000000001 L 628.139153040453,12.000000000000002 L 642.570043302861,12.000000000000002 z" fill="#89d1fa" stroke="black" stroke-linecap="round" stroke-linejoin="round" stroke-width="0.5" /><path d="M 651.8198304896554,14.000000000000002 L 644.2818674266257,14.000000000000002 L 641.9778674266257,19.0 L 644.2818674266257,24.000000000000004 L 651.8198304896554,24.000000000000004 z" fill="#89d1fa" stroke="black" stroke-linecap="round" stroke-linejoin="round" stroke-width="0.5" /><path d="M 655.8110958954809,2.000000000000001 L 654.3133267700507,2.000000000000001 L 652.0093267700507,7.000000000000001 L 654.3133267700507,12.000000000000002 L 655.8110958954809,12.000000000000002 z" fill="#89d1fa" stroke="black" stroke-linecap="round" stroke-linejoin="round" stroke-width="0.5" /><path d="M 655.7874088604316,-12.0 L 670.7157268588771,-12.0 L 673.0197268588771,-7.0 L 670.7157268588771,-2.0 L 655.7874088604316,-2.0 z" fill="#89d1fa" stroke="black" stroke-linecap="round" stroke-linejoin="round" stroke-width="0.5" /><path d="M 673.0552574114512,-12.0 L 680.1668538435915,-12.0 L 682.4708538435915,-7.0 L 680.1668538435915,-2.0 L 673.0552574114512,-2.0 z" fill="#89d1fa" stroke="black" stroke-linecap="round" stroke-linejoin="round" stroke-width="0.5" /><path d="M 718.9962618897813,2.000000000000001 L 685.3078121322033,2.000000000000001 L 683.0038121322033,7.000000000000001 L 685.3078121322033,12.000000000000002 L 718.9962618897813,12.000000000000002 z" fill="#89d1fa" stroke="black" stroke-linecap="round" stroke-linejoin="round" stroke-width="0.5" /><path d="M 748.5103075613458,14.000000000000002 L 721.2884183722565,14.000000000000002 L 718.9844183722565,19.0 L 721.2884183722565,24.000000000000004 L 748.5103075613458,24.000000000000004 z" fill="#89d1fa" stroke="black" stroke-linecap="round" stroke-linejoin="round" stroke-width="0.5" /><path d="M 773.7843739590659,2.000000000000001 L 750.2576622376846,2.000000000000001 L 747.9536622376846,7.000000000000001 L 750.2576622376846,12.000000000000002 L 773.7843739590659,12.000000000000002 z" fill="#89d1fa" stroke="black" stroke-linecap="round" stroke-linejoin="round" stroke-width="0.5" /><path d="M 814.1233946482106,2.000000000000001 L 776.1712785817388,2.000000000000001 L 773.8672785817388,7.000000000000001 L 776.1712785817388,12.000000000000002 L 814.1233946482106,12.000000000000002 z" fill="#89d1fa" stroke="black" stroke-linecap="round" stroke-linejoin="round" stroke-width="0.5" /><path d="M 848.6235611976757,2.000000000000001 L 832.5582655168585,2.000000000000001 L 830.2542655168585,7.000000000000001 L 832.5582655168585,12.000000000000002 L 848.6235611976757,12.000000000000002 z" fill="#89d1fa" stroke="black" stroke-linecap="round" stroke-linejoin="round" stroke-width="0.5" /><path d="M 881.8683148895221,2.000000000000001 L 853.5805091232096,2.000000000000001 L 851.2765091232096,7.000000000000001 L 853.5805091232096,12.000000000000002 L 881.8683148895221,12.000000000000002 z" fill="#89d1fa" stroke="black" stroke-linecap="round" stroke-linejoin="round" stroke-width="0.5" /><path d="M 882.3420555905103,-12.0 L 888.281143787705,-12.0 L 890.585143787705,-7.0 L 888.281143787705,-2.0 L 882.3420555905103,-2.0 z" fill="#89d1fa" stroke="black" stroke-linecap="round" stroke-linejoin="round" stroke-width="0.5" /><path d="M 903.340612161812,2.000000000000001 L 892.2495938413708,2.000000000000001 L 889.9455938413709,7.000000000000001 L 892.2495938413708,12.000000000000002 L 903.340612161812,12.000000000000002 z" fill="#89d1fa" stroke="black" stroke-linecap="round" stroke-linejoin="round" stroke-width="0.5" /><path d="M 904.1933454235908,-12.0 L 904.9094423923906,-12.0 L 907.2134423923906,-7.0 L 904.9094423923906,-2.0 L 904.1933454235908,-2.0 z" fill="#89d1fa" stroke="black" stroke-linecap="round" stroke-linejoin="round" stroke-width="0.5" /><path d="M 935.6260409341575,2.000000000000001 L 911.6729625818867,2.000000000000001 L 909.3689625818868,7.000000000000001 L 911.6729625818867,12.000000000000002 L 935.6260409341575,12.000000000000002 z" fill="#89d1fa" stroke="black" stroke-linecap="round" stroke-linejoin="round" stroke-width="0.5" /><path d="M 963.458307117214,2.000000000000001 L 941.0685730782043,2.000000000000001 L 938.7645730782043,7.000000000000001 L 941.0685730782043,12.000000000000002 L 963.458307117214,12.000000000000002 z" fill="#89d1fa" stroke="black" stroke-linecap="round" stroke-linejoin="round" stroke-width="0.5" /><path d="M 965.3295828861171,-24.000000000000004 L 972.0148126873682,-24.000000000000004 L 974.3188126873682,-19.0 L 972.0148126873682,-14.0 L 965.3295828861171,-14.0 z" fill="#89d1fa" stroke="black" stroke-linecap="round" stroke-linejoin="round" stroke-width="0.5" /><path d="M 971.6658647618343,-12.0 L 989.1168519930419,-12.0 L 991.4208519930419,-7.0 L 989.1168519930419,-2.0 L 971.6658647618343,-2.0 z" fill="#89d1fa" stroke="black" stroke-linecap="round" stroke-linejoin="round" stroke-width="0.5" /><path d="M 992.5696731929382,-12.0 L 1000.9959000703208,-12.0 L 1003.2999000703207,-7.0 L 1000.9959000703208,-2.0 L 992.5696731929382,-2.0 z" fill="#89d1fa" stroke="black" stroke-linecap="round" stroke-linejoin="round" stroke-width="0.5" /><path d="M 1012.7154965024612,2.000000000000001 L 1005.8170833857656,2.000000000000001 L 1003.5130833857656,7.000000000000001 L 1005.8170833857656,12.000000000000002 L 1012.7154965024612,12.000000000000002 z" fill="#89d1fa" stroke="black" stroke-linecap="round" stroke-linejoin="round" stroke-width="0.5" /><path d="M 1012.7865576076094,-12.0 L 1029.278219919316,-12.0 L 1031.582219919316,-7.0 L 1029.278219919316,-2.0 L 1012.7865576076094,-2.0 z" fill="#89d1fa" stroke="black" stroke-linecap="round" stroke-linejoin="round" stroke-width="0.5" /><path d="M 1050.6976572041897,2.000000000000001 L 1036.6576030200972,2.000000000000001 L 1034.3536030200971,7.000000000000001 L 1036.6576030200972,12.000000000000002 L 1050.6976572041897,12.000000000000002 z" fill="#89d1fa" stroke="black" stroke-linecap="round" stroke-linejoin="round" stroke-width="0.5" /><path d="M 1069.1261704726305,2.000000000000001 L 1053.9136080535918,2.000000000000001 L 1051.6096080535917,7.000000000000001 L 1053.9136080535918,12.000000000000002 L 1069.1261704726305,12.000000000000002 z" fill="#89d1fa" stroke="black" stroke-linecap="round" stroke-linejoin="round" stroke-width="0.5" /><path d="M 1079.6787445871423,14.000000000000002 L 1071.4301704726306,14.000000000000002 L 1069.1261704726305,19.0 L 1071.4301704726306,24.000000000000004 L 1079.6787445871423,24.000000000000004 z" fill="#89d1fa" stroke="black" stroke-linecap="round" stroke-linejoin="round" stroke-width="0.5" /><path d="M 1127.5147118694251,2.000000000000001 L 1081.9945881046672,2.000000000000001 L 1079.690588104667,7.000000000000001 L 1081.9945881046672,12.000000000000002 L 1127.5147118694251,12.000000000000002 z" fill="#89d1fa" stroke="black" stroke-linecap="round" stroke-linejoin="round" stroke-width="0.5" /><path d="M 1127.6449905621969,-12.0 L 1152.8061077019875,-12.0 L 1155.1101077019875,-7.0 L 1152.8061077019875,-2.0 L 1127.6449905621969,-2.0 z" fill="#89d1fa" stroke="black" stroke-linecap="round" stroke-linejoin="round" stroke-width="0.5" /><path d="M 1155.0627336318887,-24.000000000000004 L 1165.2299575854029,-24.000000000000004 L 1167.533957585403,-19.0 L 1165.2299575854029,-14.0 L 1155.0627336318887,-14.0 z" fill="#89d1fa" stroke="black" stroke-linecap="round" stroke-linejoin="round" stroke-width="0.5" /><path d="M 1218.8282319848995,2.000000000000001 L 1229.1676227839666,2.000000000000001 L 1229.1676227839666,12.000000000000002 L 1218.8282319848995,12.000000000000002 z" fill="#89d1fa" stroke="black" stroke-linecap="round" stroke-linejoin="round" stroke-width="0.5" /><path d="M 1180.8579148006957,7.000000000000001 L1218.8163884673747,7.000000000000001 z" fill="none" stroke="gray" stroke-linecap="round" stroke-linejoin="round" stroke-width="1.0" /><path d="M 1180.846071283171,2.000000000000001 L 1169.7905835153042,2.000000000000001 L 1167.4865835153041,7.000000000000001 L 1169.7905835153042,12.000000000000002 L 1180.846071283171,12.000000000000002 z" fill="#89d1fa" stroke="black" stroke-linecap="round" stroke-linejoin="round" stroke-width="0.5" /><path d="M 1180.9763499759429,-12.0 L 1181.7990386024649,-12.0 L 1184.103038602465,-7.0 L 1181.7990386024649,-2.0 L 1180.9763499759429,-2.0 z" fill="#89d1fa" stroke="black" stroke-linecap="round" stroke-linejoin="round" stroke-width="0.5" /><path d="M 1183.4042710685073,-24.000000000000004 L 1188.8814620822382,-24.000000000000004 L 1191.1854620822382,-19.0 L 1188.8814620822382,-14.0 L 1183.4042710685073,-14.0 z" fill="#89d1fa" stroke="black" stroke-linecap="round" stroke-linejoin="round" stroke-width="0.5" /><path d="M 1190.9130611791702,-12.0 L 1204.3490959695027,-12.0 L 1206.6530959695028,-7.0 L 1204.3490959695027,-2.0 L 1190.9130611791702,-2.0 z" fill="#89d1fa" stroke="black" stroke-linecap="round" stroke-linejoin="round" stroke-width="0.5" /><path d="M 1206.1319811984158,-24.000000000000004 L 1215.7662468633184,-24.000000000000004 L 1218.0702468633185,-19.0 L 1215.7662468633184,-14.0 L 1206.1319811984158,-14.0 z" fill="#89d1fa" stroke="black" stroke-linecap="round" stroke-linejoin="round" stroke-width="0.5" /><path d="M 1228.8241607757504,-12.0 L 1239.0979763869868,-12.0 L 1241.401976386987,-7.0 L 1239.0979763869868,-2.0 L 1228.8241607757504,-2.0 z" fill="#89d1fa" stroke="black" stroke-linecap="round" stroke-linejoin="round" stroke-width="0.5" /><path d="M 1241.3901328694621,-24.000000000000004 L 1243.1721464154853,-24.000000000000004 L 1245.4761464154853,-19.0 L 1243.1721464154853,-14.0 L 1241.3901328694621,-14.0 z" fill="#89d1fa" stroke="black" stroke-linecap="round" stroke-linejoin="round" stroke-width="0.5" /><path d="M 1245.4998334505349,-12.0 L 1263.2350651023353,-12.0 L 1265.5390651023354,-7.0 L 1263.2350651023353,-2.0 L 1245.4998334505349,-2.0 z" fill="#89d1fa" stroke="black" stroke-linecap="round" stroke-linejoin="round" stroke-width="0.5" /><path d="M 1265.6219697250085,-12.0 L 1280.6924099337502,-12.0 L 1282.9964099337503,-7.0 L 1280.6924099337502,-2.0 L 1265.6219697250085,-2.0 z" fill="#89d1fa" stroke="black" stroke-linecap="round" stroke-linejoin="round" stroke-width="0.5" /><path d="M 1282.2384248121693,-24.000000000000004 L 1282.8479301232467,-24.000000000000004 L 1285.1519301232468,-19.0 L 1282.8479301232467,-14.0 L 1282.2384248121693,-14.0 z" fill="#89d1fa" stroke="black" stroke-linecap="round" stroke-linejoin="round" stroke-width="0.5" /><path d="M 1298.3692956808172,2.000000000000001 L 1288.4152550427477,2.000000000000001 L 1286.1112550427476,7.000000000000001 L 1288.4152550427477,12.000000000000002 L 1298.3692956808172,12.000000000000002 z" fill="#89d1fa" stroke="black" stroke-linecap="round" stroke-linejoin="round" stroke-width="0.5" /><path d="M 1298.5114178911135,-12.0 L 1323.956779451497,-12.0 L 1326.260779451497,-7.0 L 1323.956779451497,-2.0 L 1298.5114178911135,-2.0 z" fill="#89d1fa" stroke="black" stroke-linecap="round" stroke-linejoin="round" stroke-width="0.5" /><path d="M 1325.8817868907065,-24.000000000000004 L 1347.1345432473443,-24.000000000000004 L 1349.4385432473443,-19.0 L 1347.1345432473443,-14.0 L 1325.8817868907065,-14.0 z" fill="#89d1fa" stroke="black" stroke-linecap="round" stroke-linejoin="round" stroke-width="0.5" /><path d="M 1358.7238609867131,14.000000000000002 L 1352.1452228431845,14.000000000000002 L 1349.8412228431844,19.0 L 1352.1452228431845,24.000000000000004 L 1358.7238609867131,24.000000000000004 z" fill="#89d1fa" stroke="black" stroke-linecap="round" stroke-linejoin="round" stroke-width="0.5" /><path d="M 1381.191013731078,2.000000000000001 L 1359.9382573744404,2.000000000000001 L 1357.6342573744403,7.000000000000001 L 1359.9382573744404,12.000000000000002 L 1381.191013731078,12.000000000000002 z" fill="#89d1fa" stroke="black" stroke-linecap="round" stroke-linejoin="round" stroke-width="0.5" /><path d="M 1378.7512491209889,-12.0 L 1405.7599549946333,-12.0 L 1408.0639549946334,-7.0 L 1405.7599549946333,-2.0 L 1378.7512491209889,-2.0 z" fill="#89d1fa" stroke="black" stroke-linecap="round" stroke-linejoin="round" stroke-width="0.5" /><path d="M 1411.0129908582849,-12.0 L 1411.551435064214,-12.0 L 1413.8554350642141,-7.0 L 1411.551435064214,-2.0 L 1411.0129908582849,-2.0 z" fill="#89d1fa" stroke="black" stroke-linecap="round" stroke-linejoin="round" stroke-width="0.5" /><path d="M 1431.111440097709,-12.0 L 1431.5077620933416,-12.0 L 1433.8117620933417,-7.0 L 1431.5077620933416,-2.0 L 1431.111440097709,-2.0 z" fill="#89d1fa" stroke="black" stroke-linecap="round" stroke-linejoin="round" stroke-width="0.5" /><path d="M 1438.809726488767,-12.0 L 1446.282986046856,-12.0 L 1446.282986046856,-2.0 L 1438.809726488767,-2.0 z" fill="#89d1fa" stroke="black" stroke-linecap="round" stroke-linejoin="round" stroke-width="0.5" /><path d="M 1446.2948295643805,-7.0 L1447.408120211703,-7.0 z" fill="none" stroke="gray" stroke-linecap="round" stroke-linejoin="round" stroke-width="1.0" /><path d="M 1447.4199637292274,-12.0 L 1449.7886672341685,-12.0 L 1449.7886672341685,-2.0 L 1447.4199637292274,-2.0 z" fill="#89d1fa" stroke="black" stroke-linecap="round" stroke-linejoin="round" stroke-width="0.5" /><path d="M 1449.8005107516933,-7.0 L1450.7479921536697,-7.0 z" fill="none" stroke="gray" stroke-linecap="round" stroke-linejoin="round" stroke-width="1.0" /><path d="M 1450.7598356711944,-12.0 L 1455.7040683963137,-12.0 L 1458.0080683963138,-7.0 L 1455.7040683963137,-2.0 L 1450.7598356711944,-2.0 z" fill="#89d1fa" stroke="black" stroke-linecap="round" stroke-linejoin="round" stroke-width="0.5" /><path d="M 1467.6131611088495,2.000000000000001 L 1460.821339649876,2.000000000000001 L 1458.517339649876,7.000000000000001 L 1460.821339649876,12.000000000000002 L 1467.6131611088495,12.000000000000002 z" fill="#89d1fa" stroke="black" stroke-linecap="round" stroke-linejoin="round" stroke-width="0.5" /><path d="M 1477.4195936193048,2.000000000000001 L 1470.8054249232023,2.000000000000001 L 1468.5014249232022,7.000000000000001 L 1470.8054249232023,12.000000000000002 L 1477.4195936193048,12.000000000000002 z" fill="#89d1fa" stroke="black" stroke-linecap="round" stroke-linejoin="round" stroke-width="0.5" /><path d="M 1478.3078574336578,-12.0 L 1480.0543404271066,-12.0 L 1482.3583404271067,-7.0 L 1480.0543404271066,-2.0 L 1478.3078574336578,-2.0 z" fill="#89d1fa" stroke="black" stroke-linecap="round" stroke-linejoin="round" stroke-width="0.5" /><path d="M 1495.7888893001223,2.000000000000001 L 1485.905909767201,2.000000000000001 L 1483.6019097672008,7.000000000000001 L 1485.905909767201,12.000000000000002 L 1495.7888893001223,12.000000000000002 z" fill="#89d1fa" stroke="black" stroke-linecap="round" stroke-linejoin="round" stroke-width="0.5" /><path d="M 1506.5191161775049,2.000000000000001 L 1498.4126642732892,2.000000000000001 L 1496.1086642732892,7.000000000000001 L 1498.4126642732892,12.000000000000002 L 1506.5191161775049,12.000000000000002 z" fill="#89d1fa" stroke="black" stroke-linecap="round" stroke-linejoin="round" stroke-width="0.5" /><path d="M 1562.1718050260927,2.000000000000001 L 1510.4338345608646,2.000000000000001 L 1508.1298345608645,7.000000000000001 L 1510.4338345608646,12.000000000000002 L 1562.1718050260927,12.000000000000002 z" fill="#89d1fa" stroke="black" stroke-linecap="round" stroke-linejoin="round" stroke-width="0.5" /><path d="M 1528.3467189755359,-12.0 L 1535.879196121248,-12.0 L 1535.879196121248,-2.0 L 1528.3467189755359,-2.0 z" fill="#d3d3d3" stroke="black" stroke-linecap="round" stroke-linejoin="round" stroke-width="0.5" /><path d="M 1581.1095895480958,-12.0 L 1585.4087864095636,-12.0 L 1585.4087864095636,-2.0 L 1581.1095895480958,-2.0 z" fill="#d3d3d3" stroke="black" stroke-linecap="round" stroke-linejoin="round" stroke-width="0.5" /><path d="M 1586.8063214774788,-12.0 L 1587.9314556423258,-12.0 L 1587.9314556423258,-2.0 L 1586.8063214774788,-2.0 z" fill="#d3d3d3" stroke="black" stroke-linecap="round" stroke-linejoin="round" stroke-width="0.5" /><path d="M 1638.444057885192,2.000000000000001 L 1639.569192050039,2.000000000000001 L 1639.569192050039,12.000000000000002 L 1638.444057885192,12.000000000000002 z" fill="#89d1fa" stroke="black" stroke-linecap="round" stroke-linejoin="round" stroke-width="0.5" /><path d="M 1637.4255153780673,7.000000000000001 L1638.4322143676673,7.000000000000001 z" fill="none" stroke="gray" stroke-linecap="round" stroke-linejoin="round" stroke-width="1.0" /><path d="M 1634.9028461453051,2.000000000000001 L 1637.4136718605425,2.000000000000001 L 1637.4136718605425,12.000000000000002 L 1634.9028461453051,12.000000000000002 z" fill="#89d1fa" stroke="black" stroke-linecap="round" stroke-linejoin="round" stroke-width="0.5" /><path d="M 1633.6119027351124,7.000000000000001 L1634.8910026277804,7.000000000000001 z" fill="none" stroke="gray" stroke-linecap="round" stroke-linejoin="round" stroke-width="1.0" /><path d="M 1633.6000592175876,2.000000000000001 L 1601.2025528702025,2.000000000000001 L 1598.8985528702024,7.000000000000001 L 1601.2025528702025,12.000000000000002 L 1633.6000592175876,12.000000000000002 z" fill="#89d1fa" stroke="black" stroke-linecap="round" stroke-linejoin="round" stroke-width="0.5" /><path d="M 1641.3930937488435,-12.0 L 1644.0697287094267,-12.0 L 1644.0697287094267,-2.0 L 1641.3930937488435,-2.0 z" fill="#89d1fa" stroke="black" stroke-linecap="round" stroke-linejoin="round" stroke-width="0.5" /><path d="M 1644.0815722269513,-7.0 L1645.3488286020947,-7.0 z" fill="none" stroke="gray" stroke-linecap="round" stroke-linejoin="round" stroke-width="1.0" /><path d="M 1645.3606721196195,-12.0 L 1645.958333913172,-12.0 L 1648.2623339131721,-7.0 L 1645.958333913172,-2.0 L 1645.3606721196195,-2.0 z" fill="#89d1fa" stroke="black" stroke-linecap="round" stroke-linejoin="round" stroke-width="0.5" /><path d="M 1659.0517783781781,-12.0 L 1689.963359117658,-12.0 L 1689.963359117658,-2.0 L 1659.0517783781781,-2.0 z" fill="#d3d3d3" stroke="black" stroke-linecap="round" stroke-linejoin="round" stroke-width="0.5" /><path d="M 1690.8516229320107,2.000000000000001 L 1683.7044959472964,2.000000000000001 L 1681.4004959472963,7.000000000000001 L 1683.7044959472964,12.000000000000002 L 1690.8516229320107,12.000000000000002 z" fill="#89d1fa" stroke="black" stroke-linecap="round" stroke-linejoin="round" stroke-width="0.5" /><path d="M 1712.158110958955,2.000000000000001 L 1697.0166096450646,2.000000000000001 L 1694.7126096450645,7.000000000000001 L 1697.0166096450646,12.000000000000002 L 1712.158110958955,12.000000000000002 z" fill="#89d1fa" stroke="black" stroke-linecap="round" stroke-linejoin="round" stroke-width="0.5" /><path d="M 1713.034531255783,-12.0 L 1753.8290915281839,-12.0 L 1756.133091528184,-7.0 L 1753.8290915281839,-2.0 L 1713.034531255783,-2.0 z" fill="#89d1fa" stroke="black" stroke-linecap="round" stroke-linejoin="round" stroke-width="0.5" /><path d="M 1799.4922091861283,2.000000000000001 L 1804.0638069506642,2.000000000000001 L 1804.0638069506642,12.000000000000002 L 1799.4922091861283,12.000000000000002 z" fill="#89d1fa" stroke="black" stroke-linecap="round" stroke-linejoin="round" stroke-width="0.5" /><path d="M 1797.940708390392,7.000000000000001 L1799.4803656686036,7.000000000000001 z" fill="none" stroke="gray" stroke-linecap="round" stroke-linejoin="round" stroke-width="1.0" /><path d="M 1794.5889929309005,2.000000000000001 L 1797.928864872867,2.000000000000001 L 1797.928864872867,12.000000000000002 L 1794.5889929309005,12.000000000000002 z" fill="#89d1fa" stroke="black" stroke-linecap="round" stroke-linejoin="round" stroke-width="0.5" /><path d="M 1789.8160553684443,7.000000000000001 L1794.5771494133758,7.000000000000001 z" fill="none" stroke="gray" stroke-linecap="round" stroke-linejoin="round" stroke-width="1.0" /><path d="M 1785.824789962619,2.000000000000001 L 1789.8042118509197,2.000000000000001 L 1789.8042118509197,12.000000000000002 L 1785.824789962619,12.000000000000002 z" fill="#89d1fa" stroke="black" stroke-linecap="round" stroke-linejoin="round" stroke-width="0.5" /><path d="M 1784.4035678596542,7.000000000000001 L1785.8129464450942,7.000000000000001 z" fill="none" stroke="gray" stroke-linecap="round" stroke-linejoin="round" stroke-width="1.0" /><path d="M 1783.4679299752027,2.000000000000001 L 1784.3917243421295,2.000000000000001 L 1784.3917243421295,12.000000000000002 L 1783.4679299752027,12.000000000000002 z" fill="#89d1fa" stroke="black" stroke-linecap="round" stroke-linejoin="round" stroke-width="0.5" /><path d="M 1782.1769865650099,7.000000000000001 L1783.4560864576779,7.000000000000001 z" fill="none" stroke="gray" stroke-linecap="round" stroke-linejoin="round" stroke-width="1.0" /><path d="M 1780.886043154817,2.000000000000001 L 1782.165143047485,2.000000000000001 L 1782.165143047485,12.000000000000002 L 1780.886043154817,12.000000000000002 z" fill="#89d1fa" stroke="black" stroke-linecap="round" stroke-linejoin="round" stroke-width="0.5" /><path d="M 1779.76090898997,7.000000000000001 L1780.8741996372921,7.000000000000001 z" fill="none" stroke="gray" stroke-linecap="round" stroke-linejoin="round" stroke-width="1.0" /><path d="M 1778.398904474629,2.000000000000001 L 1779.7490654724452,2.000000000000001 L 1779.7490654724452,12.000000000000002 L 1778.398904474629,12.000000000000002 z" fill="#89d1fa" stroke="black" stroke-linecap="round" stroke-linejoin="round" stroke-width="0.5" /><path d="M 1776.6342203634479,7.000000000000001 L1778.3870609571043,7.000000000000001 z" fill="none" stroke="gray" stroke-linecap="round" stroke-linejoin="round" stroke-width="1.0" /><path d="M 1774.7155705244456,2.000000000000001 L 1776.6223768459233,2.000000000000001 L 1776.6223768459233,12.000000000000002 L 1774.7155705244456,12.000000000000002 z" fill="#89d1fa" stroke="black" stroke-linecap="round" stroke-linejoin="round" stroke-width="0.5" /><path d="M 1768.7345941744697,7.000000000000001 L1774.703727006921,7.000000000000001 z" fill="none" stroke="gray" stroke-linecap="round" stroke-linejoin="round" stroke-width="1.0" /><path d="M 1768.604315481698,2.000000000000001 L 1768.722750656945,2.000000000000001 L 1768.722750656945,12.000000000000002 L 1768.604315481698,12.000000000000002 z" fill="#89d1fa" stroke="black" stroke-linecap="round" stroke-linejoin="round" stroke-width="0.5" /><path d="M 1766.6975091602208,7.000000000000001 L1768.5924719641732,7.000000000000001 z" fill="none" stroke="gray" stroke-linecap="round" stroke-linejoin="round" stroke-width="1.0" /><path d="M 1765.157851882009,2.000000000000001 L 1766.685665642696,2.000000000000001 L 1766.685665642696,12.000000000000002 L 1765.157851882009,12.000000000000002 z" fill="#89d1fa" stroke="black" stroke-linecap="round" stroke-linejoin="round" stroke-width="0.5" /><path d="M 1763.6418816388468,7.000000000000001 L1765.1460083644843,7.000000000000001 z" fill="none" stroke="gray" stroke-linecap="round" stroke-linejoin="round" stroke-width="1.0" /><path d="M 1763.630038121322,2.000000000000001 L 1763.0086892927202,2.000000000000001 L 1760.70468929272,7.000000000000001 L 1763.0086892927202,12.000000000000002 L 1763.630038121322,12.000000000000002 z" fill="#89d1fa" stroke="black" stroke-linecap="round" stroke-linejoin="round" stroke-width="0.5" /><path d="M 1815.0427476960658,2.000000000000001 L 1813.5449785706355,2.000000000000001 L 1811.2409785706354,7.000000000000001 L 1813.5449785706355,12.000000000000002 L 1815.0427476960658,12.000000000000002 z" fill="#89d1fa" stroke="black" stroke-linecap="round" stroke-linejoin="round" stroke-width="0.5" /><path d="M 1815.8599504052704,-12.0 L 1920.0,-12.0 L 1920.0,-2.0 L 1815.8599504052704,-2.0 z" fill="#d3d3d3" stroke="black" stroke-linecap="round" stroke-linejoin="round" stroke-width="0.5" /><path d="M 1816.5468744217033,-24.000000000000004 L 1820.0407120914913,-24.000000000000004 L 1820.0407120914913,-14.0 L 1816.5468744217033,-14.0 z" fill="#d3d3d3" stroke="black" stroke-linecap="round" stroke-linejoin="round" stroke-width="0.5" /><path d="M 1822.7528776046486,-24.000000000000004 L 1825.820348643547,-24.000000000000004 L 1825.820348643547,-14.0 L 1822.7528776046486,-14.0 z" fill="#89d1fa" stroke="black" stroke-linecap="round" stroke-linejoin="round" stroke-width="0.5" /><path d="M 1825.8321921610718,-19.0 L1827.1468226063141,-19.0 z" fill="none" stroke="gray" stroke-linecap="round" stroke-linejoin="round" stroke-width="1.0" /><path d="M 1827.1586661238389,-24.000000000000004 L 1848.7904150412671,-24.000000000000004 L 1851.0944150412672,-19.0 L 1848.7904150412671,-14.0 L 1827.1586661238389,-14.0 z" fill="#89d1fa" stroke="black" stroke-linecap="round" stroke-linejoin="round" stroke-width="0.5" /><path d="M 1855.239646174914,2.000000000000001 L 1850.402005107517,2.000000000000001 L 1848.0980051075169,7.000000000000001 L 1850.402005107517,12.000000000000002 L 1855.239646174914,12.000000000000002 z" fill="#89d1fa" stroke="black" stroke-linecap="round" stroke-linejoin="round" stroke-width="0.5" /><path d="M 1851.6392168474035,-24.000000000000004 L 1855.020105259262,-24.000000000000004 L 1857.324105259262,-19.0 L 1855.020105259262,-14.0 L 1851.6392168474035,-14.0 z" fill="#89d1fa" stroke="black" stroke-linecap="round" stroke-linejoin="round" stroke-width="0.5" /><path d="M 1857.726784855102,-24.000000000000004 L 1858.265229061031,-24.000000000000004 L 1860.5692290610311,-19.0 L 1858.265229061031,-14.0 L 1857.726784855102,-14.0 z" fill="#89d1fa" stroke="black" stroke-linecap="round" stroke-linejoin="round" stroke-width="0.5" /><path d="M 1875.3854694844367,-24.000000000000004 L 1878.9858988119472,-24.000000000000004 L 1878.9858988119472,-14.0 L 1875.3854694844367,-14.0 z" fill="#89d1fa" stroke="black" stroke-linecap="round" stroke-linejoin="round" stroke-width="0.5" /><path d="M 1878.9977423294717,-19.0 L1890.793885784078,-19.0 z" fill="none" stroke="gray" stroke-linecap="round" stroke-linejoin="round" stroke-width="1.0" /><path d="M 1890.8057293016027,-24.000000000000004 L 1898.8648071357193,-24.000000000000004 L 1901.1688071357194,-19.0 L 1898.8648071357193,-14.0 L 1890.8057293016027,-14.0 z" fill="#89d1fa" stroke="black" stroke-linecap="round" stroke-linejoin="round" stroke-width="0.5" /><path d="M 1902.8861171768015,-24.000000000000004 L 1905.0179503312484,-19.0 L 1902.8861171768015,-14.0 z" fill="#89d1fa" stroke="black" stroke-linecap="round" stroke-linejoin="round" stroke-width="0.5" /><path d="M 1913.5571264665607,-24.000000000000004 L 1919.0288315629741,-24.000000000000004 L 1919.0288315629741,-14.0 L 1913.5571264665607,-14.0 z" fill="#d3d3d3" stroke="black" stroke-linecap="round" stroke-linejoin="round" stroke-width="0.5" /></g><g id="NC_000898.1" transform="translate(35.0,40)"><text dominant-baseline="middle" fill="black" font-family="'Liberation Sans', 'Arial', 'Helvetica', 'Nimbus Sans L', sans-serif" font-size="10" font-weight="normal" stroke="none" text-anchor="middle" x="0" y="-9">NC_000898.1</text><text dominant-baseline="middle" fill="black" font-family="'Liberation Sans', 'Arial', 'Helvetica', 'Nimbus Sans L', sans-serif" font-size="10" font-weight="normal" stroke="none" text-anchor="middle" x="0" y="9">162,114 bp</text></g><g id="NC_001664" transform="translate(96.20193197379622,136)"><line fill="none" stroke="lightgray" stroke-width="2" x1="0" x2="1887.5961360524077" y1="0" y2="0" /><path d="M 0.011843517524704838,-12.0 L 95.80221325733743,-12.0 L 95.80221325733743,-2.0 L 0.011843517524704838,-2.0 z" fill="#d3d3d3" stroke="black" stroke-linecap="round" stroke-linejoin="round" stroke-width="0.5" /><path d="M 5.921758762352418,-24.000000000000004 L 8.989229801250971,-24.000000000000004 L 8.989229801250971,-14.0 L 5.921758762352418,-14.0 z" fill="#89d1fa" stroke="black" stroke-linecap="round" stroke-linejoin="round" stroke-width="0.5" /><path d="M 9.001073318775676,-19.0 L9.96039823827677,-19.0 z" fill="none" stroke="gray" stroke-linecap="round" stroke-linejoin="round" stroke-width="1.0" /><path d="M 9.972241755801473,-24.000000000000004 L 29.116851993041937,-24.000000000000004 L 31.420851993041936,-19.0 L 29.116851993041937,-14.0 L 9.972241755801473,-14.0 z" fill="#89d1fa" stroke="black" stroke-linecap="round" stroke-linejoin="round" stroke-width="0.5" /><path d="M 55.94877678670565,-24.000000000000004 L 59.54920611421592,-24.000000000000004 L 59.54920611421592,-14.0 L 55.94877678670565,-14.0 z" fill="#89d1fa" stroke="black" stroke-linecap="round" stroke-linejoin="round" stroke-width="0.5" /><path d="M 59.56104963174063,-19.0 L69.10692475665273,-19.0 z" fill="none" stroke="gray" stroke-linecap="round" stroke-linejoin="round" stroke-width="1.0" /><path d="M 69.11876827417743,-24.000000000000004 L 77.07125445057181,-24.000000000000004 L 79.37525445057182,-19.0 L 77.07125445057181,-14.0 L 69.11876827417743,-14.0 z" fill="#89d1fa" stroke="black" stroke-linecap="round" stroke-linejoin="round" stroke-width="0.5" /><path d="M 116.20859395240387,2.000000000000001 L 105.47288115770385,2.000000000000001 L 103.16888115770385,7.000000000000001 L 105.47288115770385,12.000000000000002 L 116.20859395240387,12.000000000000002 z" fill="#89d1fa" stroke="black" stroke-linecap="round" stroke-linejoin="round" stroke-width="0.5" /><path d="M 133.50012953847295,2.000000000000001 L 122.5157028757541,2.000000000000001 L 120.2117028757541,7.000000000000001 L 122.5157028757541,12.000000000000002 L 133.50012953847295,12.000000000000002 z" fill="#89d1fa" stroke="black" stroke-linecap="round" stroke-linejoin="round" stroke-width="0.5" /><path d="M 155.0079573633369,2.000000000000001 L 138.26758118361153,2.000000000000001 L 135.96358118361152,7.000000000000001 L 138.26758118361153,12.000000000000002 L 155.0079573633369,12.000000000000002 z" fill="#89d1fa" stroke="black" stroke-linecap="round" stroke-linejoin="round" stroke-width="0.5" /><path d="M 189.78052481587034,2.000000000000001 L 202.37018394463158,2.000000000000001 L 202.37018394463158,12.000000000000002 L 189.78052481587034,12.000000000000002 z" fill="#89d1fa" stroke="black" stroke-linecap="round" stroke-linejoin="round" stroke-width="0.5" /><path d="M 188.54879899330103,7.000000000000001 L189.76868129834563,7.000000000000001 z" fill="none" stroke="gray" stroke-linecap="round" stroke-linejoin="round" stroke-width="1.0" /><path d="M 176.9776823716644,2.000000000000001 L 188.53695547577632,2.000000000000001 L 188.53695547577632,12.000000000000002 L 176.9776823716644,12.000000000000002 z" fill="#89d1fa" stroke="black" stroke-linecap="round" stroke-linejoin="round" stroke-width="0.5" /><path d="M 175.93545282949034,7.000000000000001 L176.9658388541397,7.000000000000001 z" fill="none" stroke="gray" stroke-linecap="round" stroke-linejoin="round" stroke-width="1.0" /><path d="M 175.92360931196566,2.000000000000001 L 158.7450229838262,2.000000000000001 L 156.4410229838262,7.000000000000001 L 158.7450229838262,12.000000000000002 L 175.92360931196566,12.000000000000002 z" fill="#89d1fa" stroke="black" stroke-linecap="round" stroke-linejoin="round" stroke-width="0.5" /><path d="M 208.4340649172804,-12.0 L 224.03746341463417,-12.0 L 226.34146341463418,-7.0 L 224.03746341463417,-2.0 L 208.4340649172804,-2.0 z" fill="#89d1fa" stroke="black" stroke-linecap="round" stroke-linejoin="round" stroke-width="0.5" /><path d="M 256.1397535067916,2.000000000000001 L 227.4966422147378,2.000000000000001 L 225.1926422147378,7.000000000000001 L 227.4966422147378,12.000000000000002 L 256.1397535067916,12.000000000000002 z" fill="#89d1fa" stroke="black" stroke-linecap="round" stroke-linejoin="round" stroke-width="0.5" /><path d="M 257.3359487767867,-12.0 L 257.72678485510204,-12.0 L 257.72678485510204,-2.0 L 257.3359487767867,-2.0 z" fill="#89d1fa" stroke="black" stroke-linecap="round" stroke-linejoin="round" stroke-width="0.5" /><path d="M 257.7386283726267,-7.0 L258.76901439727595,-7.0 z" fill="none" stroke="gray" stroke-linecap="round" stroke-linejoin="round" stroke-width="1.0" /><path d="M 258.78085791480066,-12.0 L 268.4506541322773,-12.0 L 270.75465413227727,-7.0 L 268.4506541322773,-2.0 L 258.78085791480066,-2.0 z" fill="#89d1fa" stroke="black" stroke-linecap="round" stroke-linejoin="round" stroke-width="0.5" /><path d="M 271.7613531218772,-12.0 L 273.25912224730746,-12.0 L 275.56312224730743,-7.0 L 273.25912224730746,-2.0 L 271.7613531218772,-2.0 z" fill="#89d1fa" stroke="black" stroke-linecap="round" stroke-linejoin="round" stroke-width="0.5" /><path d="M 276.7119434472038,-12.0 L 296.0815805174137,-12.0 L 298.3855805174137,-7.0 L 296.0815805174137,-2.0 L 276.7119434472038,-2.0 z" fill="#89d1fa" stroke="black" stroke-linecap="round" stroke-linejoin="round" stroke-width="0.5" /><path d="M 304.6626448055072,2.000000000000001 L 308.4170398608387,2.000000000000001 L 308.4170398608387,12.000000000000002 L 304.6626448055072,12.000000000000002 z" fill="#89d1fa" stroke="black" stroke-linecap="round" stroke-linejoin="round" stroke-width="0.5" /><path d="M 303.8099115437285,7.000000000000001 L304.6508012879826,7.000000000000001 z" fill="none" stroke="gray" stroke-linecap="round" stroke-linejoin="round" stroke-width="1.0" /><path d="M 302.93349124690036,2.000000000000001 L 303.7980680262038,2.000000000000001 L 303.7980680262038,12.000000000000002 L 302.93349124690036,12.000000000000002 z" fill="#89d1fa" stroke="black" stroke-linecap="round" stroke-linejoin="round" stroke-width="0.5" /><path d="M 300.99115437284877,7.000000000000001 L302.92164772937565,7.000000000000001 z" fill="none" stroke="gray" stroke-linecap="round" stroke-linejoin="round" stroke-width="1.0" /><path d="M 300.97931085532406,2.000000000000001 L 298.77641659572896,7.000000000000001 L 300.97931085532406,12.000000000000002 z" fill="#89d1fa" stroke="black" stroke-linecap="round" stroke-linejoin="round" stroke-width="0.5" /><path d="M 321.7765276287057,2.000000000000001 L 324.4886931418631,2.000000000000001 L 324.4886931418631,12.000000000000002 L 321.7765276287057,12.000000000000002 z" fill="#89d1fa" stroke="black" stroke-linecap="round" stroke-linejoin="round" stroke-width="0.5" /><path d="M 320.76982863910587,7.000000000000001 L321.764684111181,7.000000000000001 z" fill="none" stroke="gray" stroke-linecap="round" stroke-linejoin="round" stroke-width="1.0" /><path d="M 320.75798512158116,2.000000000000001 L 313.8714155224102,2.000000000000001 L 311.5674155224102,7.000000000000001 L 313.8714155224102,12.000000000000002 L 320.75798512158116,12.000000000000002 z" fill="#89d1fa" stroke="black" stroke-linecap="round" stroke-linejoin="round" stroke-width="0.5" /><path d="M 348.64946889226104,2.000000000000001 L 340.5074864354713,2.000000000000001 L 338.20348643547135,7.000000000000001 L 340.5074864354713,12.000000000000002 L 348.64946889226104,12.000000000000002 z" fill="#89d1fa" stroke="black" stroke-linecap="round" stroke-linejoin="round" stroke-width="0.5" /><path d="M 365.5738554350643,2.000000000000001 L 354.02093993115955,2.000000000000001 L 351.7169399311596,7.000000000000001 L 354.02093993115955,12.000000000000002 L 365.5738554350643,12.000000000000002 z" fill="#89d1fa" stroke="black" stroke-linecap="round" stroke-linejoin="round" stroke-width="0.5" /><path d="M 383.56415855509084,2.000000000000001 L 370.8387348162404,2.000000000000001 L 368.5347348162404,7.000000000000001 L 370.8387348162404,12.000000000000002 L 383.56415855509084,12.000000000000002 z" fill="#89d1fa" stroke="black" stroke-linecap="round" stroke-linejoin="round" stroke-width="0.5" /><path d="M 399.008105407306,2.000000000000001 L 385.89184559014024,2.000000000000001 L 383.58784559014026,7.000000000000001 L 385.89184559014024,12.000000000000002 L 399.008105407306,12.000000000000002 z" fill="#89d1fa" stroke="black" stroke-linecap="round" stroke-linejoin="round" stroke-width="0.5" /><path d="M 407.3696287797476,2.000000000000001 L 402.46092660720234,2.000000000000001 L 400.15692660720237,7.000000000000001 L 402.46092660720234,12.000000000000002 L 407.3696287797476,12.000000000000002 z" fill="#89d1fa" stroke="black" stroke-linecap="round" stroke-linejoin="round" stroke-width="0.5" /><path d="M 416.1101447129798,2.000000000000001 L 409.9934037529146,2.000000000000001 L 407.68940375291464,7.000000000000001 L 409.9934037529146,12.000000000000002 L 416.1101447129798,12.000000000000002 z" fill="#89d1fa" stroke="black" stroke-linecap="round" stroke-linejoin="round" stroke-width="0.5" /><path d="M 422.86094970206153,2.000000000000001 L 422.0382610755395,2.000000000000001 L 419.7342610755395,7.000000000000001 L 422.0382610755395,12.000000000000002 L 422.86094970206153,12.000000000000002 z" fill="#89d1fa" stroke="black" stroke-linecap="round" stroke-linejoin="round" stroke-width="0.5" /><path d="M 425.1349050668049,2.000000000000001 L 423.0741330175062,7.000000000000001 L 425.1349050668049,12.000000000000002 z" fill="#89d1fa" stroke="black" stroke-linecap="round" stroke-linejoin="round" stroke-width="0.5" /><path d="M 436.5875865131944,2.000000000000001 L 427.6284013472001,2.000000000000001 L 425.32440134720014,7.000000000000001 L 427.6284013472001,12.000000000000002 L 436.5875865131944,12.000000000000002 z" fill="#89d1fa" stroke="black" stroke-linecap="round" stroke-linejoin="round" stroke-width="0.5" /><path d="M 448.3718864502757,14.000000000000002 L 440.15884288833786,14.000000000000002 L 437.8548428883379,19.0 L 440.15884288833786,24.000000000000004 L 448.3718864502757,24.000000000000004 z" fill="#89d1fa" stroke="black" stroke-linecap="round" stroke-linejoin="round" stroke-width="0.5" /><path d="M 462.2169584366557,2.000000000000001 L 450.5219207224546,2.000000000000001 L 448.2179207224546,7.000000000000001 L 450.5219207224546,12.000000000000002 L 462.2169584366557,12.000000000000002 z" fill="#89d1fa" stroke="black" stroke-linecap="round" stroke-linejoin="round" stroke-width="0.5" /><path d="M 491.3046374773308,2.000000000000001 L 465.0065426551686,2.000000000000001 L 462.7025426551686,7.000000000000001 L 465.0065426551686,12.000000000000002 L 491.3046374773308,12.000000000000002 z" fill="#89d1fa" stroke="black" stroke-linecap="round" stroke-linejoin="round" stroke-width="0.5" /><path d="M 502.22436063510867,2.000000000000001 L 493.8691948628742,2.000000000000001 L 491.56519486287425,7.000000000000001 L 493.8691948628742,12.000000000000002 L 502.22436063510867,12.000000000000002 z" fill="#89d1fa" stroke="black" stroke-linecap="round" stroke-linejoin="round" stroke-width="0.5" /><path d="M 496.62237684592327,-12.0 L 532.7979652836893,-12.0 L 535.1019652836893,-7.0 L 532.7979652836893,-2.0 L 496.62237684592327,-2.0 z" fill="#89d1fa" stroke="black" stroke-linecap="round" stroke-linejoin="round" stroke-width="0.5" /><path d="M 535.3033050816092,-12.0 L 606.8317933306192,-12.0 L 609.1357933306192,-7.0 L 606.8317933306192,-2.0 L 535.3033050816092,-2.0 z" fill="#89d1fa" stroke="black" stroke-linecap="round" stroke-linejoin="round" stroke-width="0.5" /><path d="M 613.1389022539695,2.000000000000001 L 612.2806830748732,2.000000000000001 L 609.9766830748732,7.000000000000001 L 612.2806830748732,12.000000000000002 L 613.1389022539695,12.000000000000002 z" fill="#89d1fa" stroke="black" stroke-linecap="round" stroke-linejoin="round" stroke-width="0.5" /><path d="M 629.8856360339022,2.000000000000001 L 615.4547457714941,2.000000000000001 L 613.1507457714941,7.000000000000001 L 615.4547457714941,12.000000000000002 L 629.8856360339022,12.000000000000002 z" fill="#89d1fa" stroke="black" stroke-linecap="round" stroke-linejoin="round" stroke-width="0.5" /><path d="M 639.1354232206966,14.000000000000002 L 631.5974601576669,14.000000000000002 L 629.2934601576669,19.0 L 631.5974601576669,24.000000000000004 L 639.1354232206966,24.000000000000004 z" fill="#89d1fa" stroke="black" stroke-linecap="round" stroke-linejoin="round" stroke-width="0.5" /><path d="M 643.1266886265222,2.000000000000001 L 641.6289195010919,2.000000000000001 L 639.3249195010919,7.000000000000001 L 641.6289195010919,12.000000000000002 L 643.1266886265222,12.000000000000002 z" fill="#89d1fa" stroke="black" stroke-linecap="round" stroke-linejoin="round" stroke-width="0.5" /><path d="M 643.1030015914728,-12.0 L 658.0313195899182,-12.0 L 660.3353195899182,-7.0 L 658.0313195899182,-2.0 L 643.1030015914728,-2.0 z" fill="#89d1fa" stroke="black" stroke-linecap="round" stroke-linejoin="round" stroke-width="0.5" /><path d="M 660.3708501424924,-12.0 L 667.4824465746327,-12.0 L 669.7864465746327,-7.0 L 667.4824465746327,-2.0 L 660.3708501424924,-2.0 z" fill="#89d1fa" stroke="black" stroke-linecap="round" stroke-linejoin="round" stroke-width="0.5" /><path d="M 706.3118546208225,2.000000000000001 L 672.6234048632443,2.000000000000001 L 670.3194048632444,7.000000000000001 L 672.6234048632443,12.000000000000002 L 706.3118546208225,12.000000000000002 z" fill="#89d1fa" stroke="black" stroke-linecap="round" stroke-linejoin="round" stroke-width="0.5" /><path d="M 735.8259002923869,14.000000000000002 L 708.6040111032977,14.000000000000002 L 706.3000111032977,19.0 L 708.6040111032977,24.000000000000004 L 735.8259002923869,24.000000000000004 z" fill="#89d1fa" stroke="black" stroke-linecap="round" stroke-linejoin="round" stroke-width="0.5" /><path d="M 761.099966690107,2.000000000000001 L 737.5732549687258,2.000000000000001 L 735.2692549687258,7.000000000000001 L 737.5732549687258,12.000000000000002 L 761.099966690107,12.000000000000002 z" fill="#89d1fa" stroke="black" stroke-linecap="round" stroke-linejoin="round" stroke-width="0.5" /><path d="M 801.4389873792517,2.000000000000001 L 763.48687131278,2.000000000000001 L 761.18287131278,7.000000000000001 L 763.48687131278,12.000000000000002 L 801.4389873792517,12.000000000000002 z" fill="#89d1fa" stroke="black" stroke-linecap="round" stroke-linejoin="round" stroke-width="0.5" /><path d="M 836.7445131203967,2.000000000000001 L 820.7147479921537,2.000000000000001 L 818.4107479921537,7.000000000000001 L 820.7147479921537,12.000000000000002 L 836.7445131203967,12.000000000000002 z" fill="#89d1fa" stroke="black" stroke-linecap="round" stroke-linejoin="round" stroke-width="0.5" /><path d="M 869.9892668122433,2.000000000000001 L 841.7014610459306,2.000000000000001 L 839.3974610459306,7.000000000000001 L 841.7014610459306,12.000000000000002 L 869.9892668122433,12.000000000000002 z" fill="#89d1fa" stroke="black" stroke-linecap="round" stroke-linejoin="round" stroke-width="0.5" /><path d="M 870.7472519338243,-12.0 L 875.762545764092,-12.0 L 878.066545764092,-7.0 L 875.762545764092,-2.0 L 870.7472519338243,-2.0 z" fill="#89d1fa" stroke="black" stroke-linecap="round" stroke-linejoin="round" stroke-width="0.5" /><path d="M 891.4615640845332,2.000000000000001 L 880.370545764092,2.000000000000001 L 878.066545764092,7.000000000000001 L 880.370545764092,12.000000000000002 L 891.4615640845332,12.000000000000002 z" fill="#89d1fa" stroke="black" stroke-linecap="round" stroke-linejoin="round" stroke-width="0.5" /><path d="M 892.3142973463118,-12.0 L 893.0303943151116,-12.0 L 895.3343943151116,-7.0 L 893.0303943151116,-2.0 L 892.3142973463118,-2.0 z" fill="#89d1fa" stroke="black" stroke-linecap="round" stroke-linejoin="round" stroke-width="0.5" /><path d="M 922.8350420074763,2.000000000000001 L 901.9731217291536,2.000000000000001 L 899.6691217291536,7.000000000000001 L 901.9731217291536,12.000000000000002 L 922.8350420074763,12.000000000000002 z" fill="#89d1fa" stroke="black" stroke-linecap="round" stroke-linejoin="round" stroke-width="0.5" /><path d="M 922.6337022095562,-12.0 L 924.5878826011325,-7.0 L 922.6337022095562,-2.0 z" fill="#89d1fa" stroke="black" stroke-linecap="round" stroke-linejoin="round" stroke-width="0.5" /><path d="M 949.4947999555868,2.000000000000001 L 927.1050659165772,2.000000000000001 L 924.8010659165773,7.000000000000001 L 927.1050659165772,12.000000000000002 L 949.4947999555868,12.000000000000002 z" fill="#89d1fa" stroke="black" stroke-linecap="round" stroke-linejoin="round" stroke-width="0.5" /><path d="M 951.3660757244903,-24.000000000000004 L 958.0513055257412,-24.000000000000004 L 960.3553055257412,-19.0 L 958.0513055257412,-14.0 L 951.3660757244903,-14.0 z" fill="#89d1fa" stroke="black" stroke-linecap="round" stroke-linejoin="round" stroke-width="0.5" /><path d="M 957.7023576002074,-12.0 L 975.153344831415,-12.0 L 977.457344831415,-7.0 L 975.153344831415,-2.0 L 957.7023576002074,-2.0 z" fill="#89d1fa" stroke="black" stroke-linecap="round" stroke-linejoin="round" stroke-width="0.5" /><path d="M 978.5706354787374,-12.0 L 986.99686235612,-12.0 L 989.30086235612,-7.0 L 986.99686235612,-2.0 L 978.5706354787374,-2.0 z" fill="#89d1fa" stroke="black" stroke-linecap="round" stroke-linejoin="round" stroke-width="0.5" /><path d="M 998.7164587882602,2.000000000000001 L 991.8180456715644,2.000000000000001 L 989.5140456715644,7.000000000000001 L 991.8180456715644,12.000000000000002 L 998.7164587882602,12.000000000000002 z" fill="#89d1fa" stroke="black" stroke-linecap="round" stroke-linejoin="round" stroke-width="0.5" /><path d="M 998.7875198934084,-12.0 L 1015.2791822051148,-12.0 L 1017.5831822051148,-7.0 L 1015.2791822051148,-2.0 L 998.7875198934084,-2.0 z" fill="#89d1fa" stroke="black" stroke-linecap="round" stroke-linejoin="round" stroke-width="0.5" /><path d="M 1008.878196824457,-24.000000000000004 L 1015.2791822051148,-24.000000000000004 L 1017.5831822051148,-19.0 L 1015.2791822051148,-14.0 L 1008.878196824457,-14.0 z" fill="#89d1fa" stroke="black" stroke-linecap="round" stroke-linejoin="round" stroke-width="0.5" /><path d="M 1036.0590695436547,2.000000000000001 L 1022.0545459121358,2.000000000000001 L 1019.7505459121359,7.000000000000001 L 1022.0545459121358,12.000000000000002 L 1036.0590695436547,12.000000000000002 z" fill="#89d1fa" stroke="black" stroke-linecap="round" stroke-linejoin="round" stroke-width="0.5" /><path d="M 1052.3557496576484,2.000000000000001 L 1039.2750203930568,2.000000000000001 L 1036.9710203930567,7.000000000000001 L 1039.2750203930568,12.000000000000002 L 1052.3557496576484,12.000000000000002 z" fill="#89d1fa" stroke="black" stroke-linecap="round" stroke-linejoin="round" stroke-width="0.5" /><path d="M 1065.0283134090826,2.000000000000001 L 1056.7797392945706,2.000000000000001 L 1054.4757392945705,7.000000000000001 L 1056.7797392945706,12.000000000000002 L 1065.0283134090826,12.000000000000002 z" fill="#89d1fa" stroke="black" stroke-linecap="round" stroke-linejoin="round" stroke-width="0.5" /><path d="M 1112.8642806913654,2.000000000000001 L 1067.3441569266072,2.000000000000001 L 1065.040156926607,7.000000000000001 L 1067.3441569266072,12.000000000000002 L 1112.8642806913654,12.000000000000002 z" fill="#89d1fa" stroke="black" stroke-linecap="round" stroke-linejoin="round" stroke-width="0.5" /><path d="M 1112.9945593841371,-12.0 L 1138.1556765239275,-12.0 L 1140.4596765239276,-7.0 L 1138.1556765239275,-2.0 L 1112.9945593841371,-2.0 z" fill="#89d1fa" stroke="black" stroke-linecap="round" stroke-linejoin="round" stroke-width="0.5" /><path d="M 1140.412302453829,-24.000000000000004 L 1150.579526407343,-24.000000000000004 L 1152.8835264073432,-19.0 L 1150.579526407343,-14.0 L 1140.412302453829,-14.0 z" fill="#89d1fa" stroke="black" stroke-linecap="round" stroke-linejoin="round" stroke-width="0.5" /><path d="M 1204.0712091491175,2.000000000000001 L 1214.4105999481844,2.000000000000001 L 1214.4105999481844,12.000000000000002 L 1204.0712091491175,12.000000000000002 z" fill="#89d1fa" stroke="black" stroke-linecap="round" stroke-linejoin="round" stroke-width="0.5" /><path d="M 1166.207483622636,7.000000000000001 L1204.0593656315928,7.000000000000001 z" fill="none" stroke="gray" stroke-linecap="round" stroke-linejoin="round" stroke-width="1.0" /><path d="M 1166.1956401051111,2.000000000000001 L 1155.1401523372444,2.000000000000001 L 1152.8361523372444,7.000000000000001 L 1155.1401523372444,12.000000000000002 L 1166.1956401051111,12.000000000000002 z" fill="#89d1fa" stroke="black" stroke-linecap="round" stroke-linejoin="round" stroke-width="0.5" /><path d="M 1166.3259187978829,-12.0 L 1167.0775463192567,-12.0 L 1169.3815463192568,-7.0 L 1167.0775463192567,-2.0 L 1166.3259187978829,-2.0 z" fill="#89d1fa" stroke="black" stroke-linecap="round" stroke-linejoin="round" stroke-width="0.5" /><path d="M 1168.7538398904476,-24.000000000000004 L 1174.1599697990303,-24.000000000000004 L 1176.4639697990303,-19.0 L 1174.1599697990303,-14.0 L 1168.7538398904476,-14.0 z" fill="#89d1fa" stroke="black" stroke-linecap="round" stroke-linejoin="round" stroke-width="0.5" /><path d="M 1176.1915688959623,-12.0 L 1189.6276036862948,-12.0 L 1191.931603686295,-7.0 L 1189.6276036862948,-2.0 L 1176.1915688959623,-2.0 z" fill="#89d1fa" stroke="black" stroke-linecap="round" stroke-linejoin="round" stroke-width="0.5" /><path d="M 1191.410488915208,-24.000000000000004 L 1201.0447545801103,-24.000000000000004 L 1203.3487545801104,-19.0 L 1201.0447545801103,-14.0 L 1191.410488915208,-14.0 z" fill="#89d1fa" stroke="black" stroke-linecap="round" stroke-linejoin="round" stroke-width="0.5" /><path d="M 1214.0671379399682,-12.0 L 1224.3409535512046,-12.0 L 1226.6449535512047,-7.0 L 1224.3409535512046,-2.0 L 1214.0671379399682,-2.0 z" fill="#89d1fa" stroke="black" stroke-linecap="round" stroke-linejoin="round" stroke-width="0.5" /><path d="M 1226.63311003368,-24.000000000000004 L 1228.415123579703,-24.000000000000004 L 1230.7191235797031,-19.0 L 1228.415123579703,-14.0 L 1226.63311003368,-14.0 z" fill="#89d1fa" stroke="black" stroke-linecap="round" stroke-linejoin="round" stroke-width="0.5" /><path d="M 1230.7428106147527,-12.0 L 1248.4425117139792,-12.0 L 1250.7465117139793,-7.0 L 1248.4425117139792,-2.0 L 1230.7428106147527,-2.0 z" fill="#89d1fa" stroke="black" stroke-linecap="round" stroke-linejoin="round" stroke-width="0.5" /><path d="M 1250.829416336652,-12.0 L 1265.899856545394,-12.0 L 1268.203856545394,-7.0 L 1265.899856545394,-2.0 L 1250.829416336652,-2.0 z" fill="#89d1fa" stroke="black" stroke-linecap="round" stroke-linejoin="round" stroke-width="0.5" /><path d="M 1267.445871423813,-24.000000000000004 L 1267.9132545245939,-24.000000000000004 L 1270.217254524594,-19.0 L 1267.9132545245939,-14.0 L 1267.445871423813,-14.0 z" fill="#89d1fa" stroke="black" stroke-linecap="round" stroke-linejoin="round" stroke-width="0.5" /><path d="M 1283.4109330471151,2.000000000000001 L 1273.4568924090456,2.000000000000001 L 1271.1528924090455,7.000000000000001 L 1273.4568924090456,12.000000000000002 L 1283.4109330471151,12.000000000000002 z" fill="#89d1fa" stroke="black" stroke-linecap="round" stroke-linejoin="round" stroke-width="0.5" /><path d="M 1283.5530552574114,-12.0 L 1308.9984168177948,-12.0 L 1311.302416817795,-7.0 L 1308.9984168177948,-2.0 L 1283.5530552574114,-2.0 z" fill="#89d1fa" stroke="black" stroke-linecap="round" stroke-linejoin="round" stroke-width="0.5" /><path d="M 1310.9234242570046,-24.000000000000004 L 1332.1761806136424,-24.000000000000004 L 1334.4801806136425,-19.0 L 1332.1761806136424,-14.0 L 1310.9234242570046,-14.0 z" fill="#89d1fa" stroke="black" stroke-linecap="round" stroke-linejoin="round" stroke-width="0.5" /><path d="M 1343.7654983530108,14.000000000000002 L 1337.1868602094821,14.000000000000002 L 1334.882860209482,19.0 L 1337.1868602094821,24.000000000000004 L 1343.7654983530108,24.000000000000004 z" fill="#89d1fa" stroke="black" stroke-linecap="round" stroke-linejoin="round" stroke-width="0.5" /><path d="M 1365.6641622561901,2.000000000000001 L 1344.979894740738,2.000000000000001 L 1342.675894740738,7.000000000000001 L 1344.979894740738,12.000000000000002 L 1365.6641622561901,12.000000000000002 z" fill="#89d1fa" stroke="black" stroke-linecap="round" stroke-linejoin="round" stroke-width="0.5" /><path d="M 1363.7928864872868,-12.0 L 1390.8015923609312,-12.0 L 1393.1055923609313,-7.0 L 1390.8015923609312,-2.0 L 1363.7928864872868,-2.0 z" fill="#89d1fa" stroke="black" stroke-linecap="round" stroke-linejoin="round" stroke-width="0.5" /><path d="M 1423.7684592323922,-12.0 L 1431.241718790481,-12.0 L 1431.241718790481,-2.0 L 1423.7684592323922,-2.0 z" fill="#89d1fa" stroke="black" stroke-linecap="round" stroke-linejoin="round" stroke-width="0.5" /><path d="M 1431.2535623080057,-7.0 L1432.3668529553277,-7.0 z" fill="none" stroke="gray" stroke-linecap="round" stroke-linejoin="round" stroke-width="1.0" /><path d="M 1432.3786964728524,-12.0 L 1434.7118694252194,-12.0 L 1434.7118694252194,-2.0 L 1432.3786964728524,-2.0 z" fill="#89d1fa" stroke="black" stroke-linecap="round" stroke-linejoin="round" stroke-width="0.5" /><path d="M 1434.723712942744,-7.0 L1435.6711943447206,-7.0 z" fill="none" stroke="gray" stroke-linecap="round" stroke-linejoin="round" stroke-width="1.0" /><path d="M 1435.6830378622453,-12.0 L 1440.449617824494,-12.0 L 1442.753617824494,-7.0 L 1440.449617824494,-2.0 L 1435.6830378622453,-2.0 z" fill="#89d1fa" stroke="black" stroke-linecap="round" stroke-linejoin="round" stroke-width="0.5" /><path d="M 1452.3587105370295,2.000000000000001 L 1445.5668890780562,2.000000000000001 L 1443.262889078056,7.000000000000001 L 1445.5668890780562,12.000000000000002 L 1452.3587105370295,12.000000000000002 z" fill="#89d1fa" stroke="black" stroke-linecap="round" stroke-linejoin="round" stroke-width="0.5" /><path d="M 1462.1651430474851,2.000000000000001 L 1455.5509743513826,2.000000000000001 L 1453.2469743513825,7.000000000000001 L 1455.5509743513826,12.000000000000002 L 1462.1651430474851,12.000000000000002 z" fill="#89d1fa" stroke="black" stroke-linecap="round" stroke-linejoin="round" stroke-width="0.5" /><path d="M 1463.6100521854994,-12.0 L 1464.7880463377624,-12.0 L 1467.0920463377624,-7.0 L 1464.7880463377624,-2.0 L 1463.6100521854994,-2.0 z" fill="#89d1fa" stroke="black" stroke-linecap="round" stroke-linejoin="round" stroke-width="0.5" /><path d="M 1480.4989081757283,2.000000000000001 L 1470.6159286428071,2.000000000000001 L 1468.311928642807,7.000000000000001 L 1470.6159286428071,12.000000000000002 L 1480.4989081757283,12.000000000000002 z" fill="#89d1fa" stroke="black" stroke-linecap="round" stroke-linejoin="round" stroke-width="0.5" /><path d="M 1491.1580739479625,2.000000000000001 L 1483.1226831488955,2.000000000000001 L 1480.8186831488954,7.000000000000001 L 1483.1226831488955,12.000000000000002 L 1491.1580739479625,12.000000000000002 z" fill="#89d1fa" stroke="black" stroke-linecap="round" stroke-linejoin="round" stroke-width="0.5" /><path d="M 1611.9856397350015,2.000000000000001 L 1612.684407268959,2.000000000000001 L 1612.684407268959,12.000000000000002 L 1611.9856397350015,12.000000000000002 z" fill="#89d1fa" stroke="black" stroke-linecap="round" stroke-linejoin="round" stroke-width="0.5" /><path d="M 1610.955253710352,7.000000000000001 L1611.9737962174768,7.000000000000001 z" fill="none" stroke="gray" stroke-linecap="round" stroke-linejoin="round" stroke-width="1.0" /><path d="M 1608.6457677930346,2.000000000000001 L 1610.9434101928273,2.000000000000001 L 1610.9434101928273,12.000000000000002 L 1608.6457677930346,12.000000000000002 z" fill="#89d1fa" stroke="black" stroke-linecap="round" stroke-linejoin="round" stroke-width="0.5" /><path d="M 1541.3982752877605,7.000000000000001 L1608.6339242755098,7.000000000000001 z" fill="none" stroke="gray" stroke-linecap="round" stroke-linejoin="round" stroke-width="1.0" /><path d="M 1541.3864317702357,2.000000000000001 L 1495.0609488137977,2.000000000000001 L 1492.7569488137976,7.000000000000001 L 1495.0609488137977,12.000000000000002 L 1541.3864317702357,12.000000000000002 z" fill="#89d1fa" stroke="black" stroke-linecap="round" stroke-linejoin="round" stroke-width="0.5" /><path d="M 1510.6169732410526,-12.0 L 1518.7297827454754,-12.0 L 1518.7297827454754,-2.0 L 1510.6169732410526,-2.0 z" fill="#d3d3d3" stroke="black" stroke-linecap="round" stroke-linejoin="round" stroke-width="0.5" /><path d="M 1552.4009030682114,-12.0 L 1561.6151597024316,-12.0 L 1561.6151597024316,-2.0 L 1552.4009030682114,-2.0 z" fill="#d3d3d3" stroke="black" stroke-linecap="round" stroke-linejoin="round" stroke-width="0.5" /><path d="M 1611.9856397350015,14.000000000000002 L 1612.684407268959,14.000000000000002 L 1612.684407268959,24.000000000000004 L 1611.9856397350015,24.000000000000004 z" fill="#89d1fa" stroke="black" stroke-linecap="round" stroke-linejoin="round" stroke-width="0.5" /><path d="M 1610.955253710352,19.0 L1611.9737962174768,19.0 z" fill="none" stroke="gray" stroke-linecap="round" stroke-linejoin="round" stroke-width="1.0" /><path d="M 1608.6457677930346,14.000000000000002 L 1610.9434101928273,14.000000000000002 L 1610.9434101928273,24.000000000000004 L 1608.6457677930346,24.000000000000004 z" fill="#89d1fa" stroke="black" stroke-linecap="round" stroke-linejoin="round" stroke-width="0.5" /><path d="M 1607.390354935416,19.0 L1608.6339242755098,19.0 z" fill="none" stroke="gray" stroke-linecap="round" stroke-linejoin="round" stroke-width="1.0" /><path d="M 1607.3785114178913,14.000000000000002 L 1579.209140826826,14.000000000000002 L 1576.9051408268258,19.0 L 1579.209140826826,24.000000000000004 L 1607.3785114178913,24.000000000000004 z" fill="#89d1fa" stroke="black" stroke-linecap="round" stroke-linejoin="round" stroke-width="0.5" /><path d="M 1614.5083089677635,-12.0 L 1617.0072911654763,-12.0 L 1617.0072911654763,-2.0 L 1614.5083089677635,-2.0 z" fill="#89d1fa" stroke="black" stroke-linecap="round" stroke-linejoin="round" stroke-width="0.5" /><path d="M 1617.019134683001,-7.0 L1618.2034864354716,-7.0 z" fill="none" stroke="gray" stroke-linecap="round" stroke-linejoin="round" stroke-width="1.0" /><path d="M 1618.2153299529962,-12.0 L 1618.8840528516969,-12.0 L 1621.188052851697,-7.0 L 1618.8840528516969,-2.0 L 1618.2153299529962,-2.0 z" fill="#89d1fa" stroke="black" stroke-linecap="round" stroke-linejoin="round" stroke-width="0.5" /><path d="M 1658.9807172730302,-12.0 L 1669.3556386246717,-12.0 L 1669.3556386246717,-2.0 L 1658.9807172730302,-2.0 z" fill="#d3d3d3" stroke="black" stroke-linecap="round" stroke-linejoin="round" stroke-width="0.5" /><path d="M 1692.68736814834,2.000000000000001 L 1677.54586683445,2.000000000000001 L 1675.2418668344499,7.000000000000001 L 1677.54586683445,12.000000000000002 L 1692.68736814834,12.000000000000002 z" fill="#89d1fa" stroke="black" stroke-linecap="round" stroke-linejoin="round" stroke-width="0.5" /><path d="M 1693.5637884451683,-12.0 L 1731.1250684333247,-12.0 L 1733.4290684333248,-7.0 L 1731.1250684333247,-2.0 L 1693.5637884451683,-2.0 z" fill="#89d1fa" stroke="black" stroke-linecap="round" stroke-linejoin="round" stroke-width="0.5" /><path d="M 1775.6512084088974,2.000000000000001 L 1780.5070505940266,2.000000000000001 L 1780.5070505940266,12.000000000000002 L 1775.6512084088974,12.000000000000002 z" fill="#89d1fa" stroke="black" stroke-linecap="round" stroke-linejoin="round" stroke-width="0.5" /><path d="M 1774.4668566564271,7.000000000000001 L1775.6393648913727,7.000000000000001 z" fill="none" stroke="gray" stroke-linecap="round" stroke-linejoin="round" stroke-width="1.0" /><path d="M 1771.1151411969354,2.000000000000001 L 1774.4550131389024,2.000000000000001 L 1774.4550131389024,12.000000000000002 L 1771.1151411969354,12.000000000000002 z" fill="#89d1fa" stroke="black" stroke-linecap="round" stroke-linejoin="round" stroke-width="0.5" /><path d="M 1766.2948295643805,7.000000000000001 L1771.1032976794108,7.000000000000001 z" fill="none" stroke="gray" stroke-linecap="round" stroke-linejoin="round" stroke-width="1.0" /><path d="M 1762.3035641585552,2.000000000000001 L 1766.2829860468557,2.000000000000001 L 1766.2829860468557,12.000000000000002 L 1762.3035641585552,12.000000000000002 z" fill="#89d1fa" stroke="black" stroke-linecap="round" stroke-linejoin="round" stroke-width="0.5" /><path d="M 1760.9297161256895,7.000000000000001 L1762.2917206410305,7.000000000000001 z" fill="none" stroke="gray" stroke-linecap="round" stroke-linejoin="round" stroke-width="1.0" /><path d="M 1759.9940782412377,2.000000000000001 L 1760.9178726081648,2.000000000000001 L 1760.9178726081648,12.000000000000002 L 1759.9940782412377,12.000000000000002 z" fill="#89d1fa" stroke="black" stroke-linecap="round" stroke-linejoin="round" stroke-width="0.5" /><path d="M 1758.868944076391,7.000000000000001 L1759.982234723713,7.000000000000001 z" fill="none" stroke="gray" stroke-linecap="round" stroke-linejoin="round" stroke-width="1.0" /><path d="M 1757.578000666198,2.000000000000001 L 1758.8571005588663,2.000000000000001 L 1758.8571005588663,12.000000000000002 L 1757.578000666198,12.000000000000002 z" fill="#89d1fa" stroke="black" stroke-linecap="round" stroke-linejoin="round" stroke-width="0.5" /><path d="M 1756.5120840889745,7.000000000000001 L1757.5661571486735,7.000000000000001 z" fill="none" stroke="gray" stroke-linecap="round" stroke-linejoin="round" stroke-width="1.0" /><path d="M 1755.1500795736335,2.000000000000001 L 1756.5002405714497,2.000000000000001 L 1756.5002405714497,12.000000000000002 L 1755.1500795736335,12.000000000000002 z" fill="#89d1fa" stroke="black" stroke-linecap="round" stroke-linejoin="round" stroke-width="0.5" /><path d="M 1754.1433805840336,7.000000000000001 L1755.1382360561088,7.000000000000001 z" fill="none" stroke="gray" stroke-linecap="round" stroke-linejoin="round" stroke-width="1.0" /><path d="M 1752.2247307450311,2.000000000000001 L 1754.1315370665088,2.000000000000001 L 1754.1315370665088,12.000000000000002 L 1752.2247307450311,12.000000000000002 z" fill="#89d1fa" stroke="black" stroke-linecap="round" stroke-linejoin="round" stroke-width="0.5" /><path d="M 1746.1845368074319,7.000000000000001 L1752.2128872275066,7.000000000000001 z" fill="none" stroke="gray" stroke-linecap="round" stroke-linejoin="round" stroke-width="1.0" /><path d="M 1746.0542581146601,2.000000000000001 L 1746.172693289907,2.000000000000001 L 1746.172693289907,12.000000000000002 L 1746.0542581146601,12.000000000000002 z" fill="#89d1fa" stroke="black" stroke-linecap="round" stroke-linejoin="round" stroke-width="0.5" /><path d="M 1744.2895740034792,7.000000000000001 L1746.0424145971353,7.000000000000001 z" fill="none" stroke="gray" stroke-linecap="round" stroke-linejoin="round" stroke-width="1.0" /><path d="M 1742.7499167252674,2.000000000000001 L 1744.2777304859544,2.000000000000001 L 1744.2777304859544,12.000000000000002 L 1742.7499167252674,12.000000000000002 z" fill="#89d1fa" stroke="black" stroke-linecap="round" stroke-linejoin="round" stroke-width="0.5" /><path d="M 1741.4589733150744,7.000000000000001 L1742.7380732077427,7.000000000000001 z" fill="none" stroke="gray" stroke-linecap="round" stroke-linejoin="round" stroke-width="1.0" /><path d="M 1741.44712979755,2.000000000000001 L 1739.6888032865763,2.000000000000001 L 1737.3848032865762,7.000000000000001 L 1739.6888032865763,12.000000000000002 L 1741.44712979755,12.000000000000002 z" fill="#89d1fa" stroke="black" stroke-linecap="round" stroke-linejoin="round" stroke-width="0.5" /><path d="M 1791.7820792775456,-12.0 L 1887.5961360524077,-12.0 L 1887.5961360524077,-2.0 L 1791.7820792775456,-2.0 z" fill="#d3d3d3" stroke="black" stroke-linecap="round" stroke-linejoin="round" stroke-width="0.5" /><path d="M 1797.703838039898,-24.000000000000004 L 1800.7713090787965,-24.000000000000004 L 1800.7713090787965,-14.0 L 1797.703838039898,-14.0 z" fill="#89d1fa" stroke="black" stroke-linecap="round" stroke-linejoin="round" stroke-width="0.5" /><path d="M 1800.7831525963213,-19.0 L1801.7424775158222,-19.0 z" fill="none" stroke="gray" stroke-linecap="round" stroke-linejoin="round" stroke-width="1.0" /><path d="M 1801.7543210333467,-24.000000000000004 L 1820.8989312705874,-24.000000000000004 L 1823.2029312705874,-19.0 L 1820.8989312705874,-14.0 L 1801.7543210333467,-14.0 z" fill="#89d1fa" stroke="black" stroke-linecap="round" stroke-linejoin="round" stroke-width="0.5" /><path d="M 1847.7308560642512,-24.000000000000004 L 1851.3312853917614,-24.000000000000004 L 1851.3312853917614,-14.0 L 1847.7308560642512,-14.0 z" fill="#89d1fa" stroke="black" stroke-linecap="round" stroke-linejoin="round" stroke-width="0.5" /><path d="M 1851.3431289092862,-19.0 L1860.8890040341985,-19.0 z" fill="none" stroke="gray" stroke-linecap="round" stroke-linejoin="round" stroke-width="1.0" /><path d="M 1860.900847551723,-24.000000000000004 L 1868.8533337281171,-24.000000000000004 L 1871.1573337281172,-19.0 L 1868.8533337281171,-14.0 L 1860.900847551723,-14.0 z" fill="#89d1fa" stroke="black" stroke-linecap="round" stroke-linejoin="round" stroke-width="0.5" /></g><g id="NC_001664.4" transform="translate(51.20193197379622,136)"><text dominant-baseline="middle" fill="black" font-family="'Liberation Sans', 'Arial', 'Helvetica', 'Nimbus Sans L', sans-serif" font-size="10" font-weight="normal" stroke="none" text-anchor="middle" x="0" y="-9">NC_001664.4</text><text dominant-baseline="middle" fill="black" font-family="'Liberation Sans', 'Arial', 'Helvetica', 'Nimbus Sans L', sans-serif" font-size="10" font-weight="normal" stroke="none" text-anchor="middle" x="0" y="9">159,378 bp</text></g></svg>