<?xml version="1.0" encoding="utf-8" ?>
<svg baseProfile="full" height="196px" version="1.1" viewBox="0 0 2209.3967261904763 196" width="2209.3967261904763px" xmlns="http://www.w3.org/2000/svg" xmlns:ev="http://www.w3.org/2001/xml-events" xmlns:xlink="http://www.w3.org/1999/xlink"><defs /><g id="legend" transform="translate(2027.6998511904762,76.28571428571428)"><path d="M 0,-8.0 L 153.9970238095238,-8.0 L 153.9970238095238,35.42857142857143 L 0,35.42857142857143 z" fill="none" stroke="none" stroke-width="0" /><path d="M 0,-8.0 L 16,-8.0 L 16,8.0 L 0,8.0 z" fill="#d3d3d3" stroke="black" stroke-width="1.0" transform="translate(0,0.0)" /><text alignment-baseline="central" dominant-baseline="central" fill="black" font-family="'Liberation Sans', 'Arial', 'Helvetica', 'Nimbus Sans L', sans-serif" font-size="16" font-style="normal" font-weight="normal" stroke="none" text-anchor="start" transform="translate(25.142857142857142,0.0)" x="0" y="0">repeat_region</text><path d="M 0,-8.0 L 16,-8.0 L 16,8.0 L 0,8.0 z" fill="#89d1fa" stroke="black" stroke-width="1.0" transform="translate(0,27.428571428571427)" /><text alignment-baseline="central" dominant-baseline="central" fill="black" font-family="'Liberation Sans', 'Arial', 'Helvetica', 'Nimbus Sans L', sans-serif" font-size="16" font-style="normal" font-weight="normal" stroke="none" text-anchor="start" transform="translate(25.142857142857142,27.428571428571427)" x="0" y="0">CDS</text></g><g id="length_bar" transform="translate(120,176.0)"><line fill="none" stroke="black" stroke-width="3" x1="1304.150128921623" x2="1920.0" y1="0" y2="0" /><text dominant-baseline="middle" fill="black" font-family="'Liberation Sans', 'Arial', 'Helvetica', 'Nimbus Sans L', sans-serif" font-size="16" font-weight="normal" stroke="none" text-anchor="end" x="1294.150128921623" y="0">50 kbp</text></g><g id="comparison1" transform="translate(120,58.0)"><path d="M 1012.8857470668788,0L1489.5944828947531,0 L1489.0262407935156,60L1011.3201820940818,60 z" fill="#d3d3d3" fill-opacity="0.7" stroke="none" stroke-width="0" /><path d="M 346.7088591978484,0L810.1044943681607,0 L806.6602514280074,60L342.98629359586465,60 z" fill="#d3d3d3" fill-opacity="0.7" stroke="none" stroke-width="0" /><path d="M 903.0062795316876,0L1012.8857470668788,0 L1010.7519399928445,60L900.5129723527888,60 z" fill="#d3d3d3" fill-opacity="0.7" stroke="none" stroke-width="0" /><path d="M 146.29334912469005,0L252.7981543851857,0 L247.8695239152695,60L141.24875087901106,60 z" fill="#d3d3d3" fill-opacity="0.7" stroke="none" stroke-width="0" /><path d="M 813.5719308634664,0L903.0874569747215,0 L898.8082460490766,60L809.095574719025,60 z" fill="#d3d3d3" fill-opacity="0.7" stroke="none" stroke-width="0" /><path d="M 252.78655760760947,0L313.76241410365543,0 L308.5786545270612,60L247.44044314494738,60 z" fill="#d3d3d3" fill-opacity="0.7" stroke="none" stroke-width="0" /><path d="M 1621.1019406096946,0L1680.326683691723,0 L1683.5273943027746,60L1624.47660288439,60 z" fill="#d3d3d3" fill-opacity="0.7" stroke="none" stroke-width="0" /><path d="M 313.7972044363843,0L345.39842333172953,0 L341.50190606610164,60L309.61076773134954,60 z" fill="#d3d3d3" fill-opacity="0.7" stroke="none" stroke-width="0" /><path d="M 115.01684000148043,0L146.3049459022663,0 L140.80807333111267,60L109.53156420790307,60 z" fill="#d3d3d3" fill-opacity="0.7" stroke="none" stroke-width="0" /><path d="M 1618.6550205411006,0L1649.5720295594458,0 L1655.1964666839383,60L1624.47660288439,60 z" fill="#d3d3d3" fill-opacity="0.7" stroke="none" stroke-width="0" /><path d="M 1616.242890805236,0L1647.1483030460045,0 L1655.1964666839383,60L1624.47660288439,60 z" fill="#d3d3d3" fill-opacity="0.7" stroke="none" stroke-width="0" /><path d="M 1622.3311990327795,0L1651.9841592953107,0 L1654.0019985935824,60L1624.47660288439,60 z" fill="#d3d3d3" fill-opacity="0.7" stroke="none" stroke-width="0" /><path d="M 1617.4489556731683,0L1648.3659646915135,0 L1655.1964666839383,60L1624.47660288439,60 z" fill="#d3d3d3" fill-opacity="0.7" stroke="none" stroke-width="0" /><path d="M 1619.8842789641856,0L1650.7896912049546,0 L1655.1964666839383,60L1624.47660288439,60 z" fill="#d3d3d3" fill-opacity="0.7" stroke="none" stroke-width="0" /><path d="M 1623.5604574558645,0L1651.9841592953107,0 L1652.7843369480736,60L1624.47660288439,60 z" fill="#d3d3d3" fill-opacity="0.7" stroke="none" stroke-width="0" /><path d="M 31.844751224447,0L58.41296865168955,0 L46.13198119841593,60L19.436199217834364,60 z" fill="#d3d3d3" fill-opacity="0.7" stroke="none" stroke-width="0" /><path d="M 1786.2980371837102,0L1812.8662546109529,0 L46.13198119841593,60L19.436199217834364,60 z" fill="#d3d3d3" fill-opacity="0.7" stroke="none" stroke-width="0" /><path d="M 31.844751224447,0L58.41296865168955,0 L1824.161515970243,60L1797.4657339896614,60 z" fill="#d3d3d3" fill-opacity="0.7" stroke="none" stroke-width="0" /><path d="M 1786.2980371837102,0L1812.8662546109529,0 L1824.161515970243,60L1797.4657339896614,60 z" fill="#d3d3d3" fill-opacity="0.7" stroke="none" stroke-width="0" /><path d="M 1615.3963260421679,0L1645.9190446229195,0 L1655.1964666839383,60L1624.8361029892546,60 z" fill="#d3d3d3" fill-opacity="0.7" stroke="none" stroke-width="0" /><path d="M 1624.7665223237968,0L1651.8913850747006,0 L1651.4507075268023,60L1624.47660288439,60 z" fill="#d3d3d3" fill-opacity="0.7" stroke="none" stroke-width="0" /><path d="M 1615.3963260421679,0L1644.701382977411,0 L1655.1964666839383,60L1626.0421678571868,60 z" fill="#d3d3d3" fill-opacity="0.7" stroke="none" stroke-width="0" /><path d="M 1615.407922819744,0L1643.4953181094784,0 L1655.1964666839383,60L1627.2598295026958,60 z" fill="#d3d3d3" fill-opacity="0.7" stroke="none" stroke-width="0" /><path d="M 1552.6693561321044,0L1574.6684431942954,0 L1580.4436384272797,60L1558.282196479021,60 z" fill="#d3d3d3" fill-opacity="0.7" stroke="none" stroke-width="0" /><path d="M 1627.2134423923906,0L1651.9841592953107,0 L1649.1313520115473,60L1624.47660288439,60 z" fill="#d3d3d3" fill-opacity="0.7" stroke="none" stroke-width="0" /><path d="M 1625.9957807468818,0L1651.9609657401581,0 L1650.3142233243273,60L1624.47660288439,60 z" fill="#d3d3d3" fill-opacity="0.7" stroke="none" stroke-width="0" /><path d="M 1615.3963260421679,0L1642.289253241546,0 L1655.1964666839383,60L1628.4542975930517,60 z" fill="#d3d3d3" fill-opacity="0.7" stroke="none" stroke-width="0" /><path d="M 1628.419507260323,0L1651.9841592953107,0 L1647.9136903660387,60L1624.47660288439,60 z" fill="#d3d3d3" fill-opacity="0.7" stroke="none" stroke-width="0" /><path d="M 1629.6603624609843,0L1651.9841592953107,0 L1646.69602872053,60L1624.47660288439,60 z" fill="#d3d3d3" fill-opacity="0.7" stroke="none" stroke-width="0" /><path d="M 1615.3963260421679,0L1641.0715915960375,0 L1655.1964666839383,60L1629.6603624609843,60 z" fill="#d3d3d3" fill-opacity="0.7" stroke="none" stroke-width="0" /><path d="M 1615.3963260421679,0L1639.8423331729523,0 L1655.1964666839383,60L1630.8664273289169,60 z" fill="#d3d3d3" fill-opacity="0.7" stroke="none" stroke-width="0" /><path d="M 1630.8664273289169,0L1651.9841592953107,0 L1645.4783670750212,60L1624.47660288439,60 z" fill="#d3d3d3" fill-opacity="0.7" stroke="none" stroke-width="0" /><path d="M 1734.3212800868525,0L1754.1169794095513,0 L1761.2374008413833,60L1741.2213627447352,60 z" fill="#d3d3d3" fill-opacity="0.7" stroke="none" stroke-width="0" /><path d="M 1632.0840889744254,0L1651.9841592953107,0 L1644.2723022070888,60L1624.47660288439,60 z" fill="#d3d3d3" fill-opacity="0.7" stroke="none" stroke-width="0" /><path d="M 1615.3963260421679,0L1638.6246715274435,0 L1655.1964666839383,60L1632.072492196849,60 z" fill="#d3d3d3" fill-opacity="0.7" stroke="none" stroke-width="0" /><path d="M 1633.2901538423578,0L1651.9841592953107,0 L1643.0662373391563,60L1624.47660288439,60 z" fill="#d3d3d3" fill-opacity="0.7" stroke="none" stroke-width="0" /><path d="M 1594.7888522891299,0L1611.418631333506,0 L1622.1572473691353,60L1605.2491456629286,60 z" fill="#d3d3d3" fill-opacity="0.7" stroke="none" stroke-width="0" /><path d="M 1507.6274720258584,0L1526.8897195800484,0 L1532.1546565996769,60L1512.1038281702997,60 z" fill="#d3d3d3" fill-opacity="0.7" stroke="none" stroke-width="0" /><path d="M 1615.3151485991339,0L1637.4186066595114,0 L1655.1964666839383,60L1633.1973796217478,60 z" fill="#d3d3d3" fill-opacity="0.7" stroke="none" stroke-width="0" /><path d="M 1699.1714472531676,0L1717.6799042649,0 L1724.4756159245962,60L1705.5380781425417,60 z" fill="#d3d3d3" fill-opacity="0.7" stroke="none" stroke-width="0" /><path d="M 1577.5676375883636,0L1594.8236426218587,0 L1604.8664520029117,60L1587.378511417891,60 z" fill="#d3d3d3" fill-opacity="0.7" stroke="none" stroke-width="0" /><path d="M 1634.5310090430191,0L1651.9841592953107,0 L1641.8601724712241,60L1624.47660288439,60 z" fill="#d3d3d3" fill-opacity="0.7" stroke="none" stroke-width="0" /><path d="M 1635.7370739109515,0L1651.9841592953107,0 L1640.6425108257151,60L1624.47660288439,60 z" fill="#d3d3d3" fill-opacity="0.7" stroke="none" stroke-width="0" /><path d="M 1718.097388257646,0L1734.170521978361,0 L1740.3516044265148,60L1724.2668739282233,60 z" fill="#d3d3d3" fill-opacity="0.7" stroke="none" stroke-width="0" /><path d="M 1615.3151485991339,0L1634.99488014607,0 L1655.1964666839383,60L1635.6211061351887,60 z" fill="#d3d3d3" fill-opacity="0.7" stroke="none" stroke-width="0" /><path d="M 1636.9547355564603,0L1651.9841592953107,0 L1639.4248491802066,60L1624.47660288439,60 z" fill="#d3d3d3" fill-opacity="0.7" stroke="none" stroke-width="0" /><path d="M 1615.3963260421679,0L1633.765621722985,0 L1655.1964666839383,60L1636.908348446155,60 z" fill="#d3d3d3" fill-opacity="0.7" stroke="none" stroke-width="0" /><path d="M 1638.1608004243928,0L1651.9841592953107,0 L1638.2303810898504,60L1624.47660288439,60 z" fill="#d3d3d3" fill-opacity="0.7" stroke="none" stroke-width="0" /><path d="M 1615.3963260421679,0L1632.5479600774763,0 L1655.1964666839383,60L1638.1260100916638,60 z" fill="#d3d3d3" fill-opacity="0.7" stroke="none" stroke-width="0" /><path d="M 94.46735013632383,0L108.75458011029276,0 L99.69749682322316,60L85.41026684925423,60 z" fill="#d3d3d3" fill-opacity="0.7" stroke="none" stroke-width="0" /><path d="M 94.46735013632383,0L108.75458011029276,0 L1877.7270315950504,60L1863.4398016210814,60 z" fill="#d3d3d3" fill-opacity="0.7" stroke="none" stroke-width="0" /><path d="M 1848.920636095587,0L1863.207866069556,0 L99.69749682322316,60L85.41026684925423,60 z" fill="#d3d3d3" fill-opacity="0.7" stroke="none" stroke-width="0" /><path d="M 1848.920636095587,0L1863.207866069556,0 L1877.7270315950504,60L1863.4398016210814,60 z" fill="#d3d3d3" fill-opacity="0.7" stroke="none" stroke-width="0" /><path d="M 81.38618503028734,0L94.304995250256,0 L84.26218586920315,60L71.2042143183192,60 z" fill="#d3d3d3" fill-opacity="0.7" stroke="none" stroke-width="0" /><path d="M 1835.8394709895506,0L1848.7582812095193,0 L84.26218586920315,60L71.2042143183192,60 z" fill="#d3d3d3" fill-opacity="0.7" stroke="none" stroke-width="0" /><path d="M 81.38618503028734,0L94.304995250256,0 L1862.2917206410305,60L1849.2337490901464,60 z" fill="#d3d3d3" fill-opacity="0.7" stroke="none" stroke-width="0" /><path d="M 1835.8394709895506,0L1848.7582812095193,0 L1862.2917206410305,60L1849.2337490901464,60 z" fill="#d3d3d3" fill-opacity="0.7" stroke="none" stroke-width="0" /><path d="M 1639.366865292325,0L1651.9841592953107,0 L1637.0127194443417,60L1624.47660288439,60 z" fill="#d3d3d3" fill-opacity="0.7" stroke="none" stroke-width="0" /><path d="M 1640.6077204929863,0L1651.9725625177346,0 L1635.7950577988329,60L1624.47660288439,60 z" fill="#d3d3d3" fill-opacity="0.7" stroke="none" stroke-width="0" /><path d="M 1615.3963260421679,0L1630.1242335640352,0 L1655.1964666839383,60L1640.5381398275288,60 z" fill="#d3d3d3" fill-opacity="0.7" stroke="none" stroke-width="0" /><path d="M 1489.629273227482,0L1502.907583552315,0 L1503.0351481056541,60L1489.6176764499057,60 z" fill="#d3d3d3" fill-opacity="0.7" stroke="none" stroke-width="0" /><path d="M 1641.813785360919,0L1651.9841592953107,0 L1634.5889929309005,60L1624.47660288439,60 z" fill="#d3d3d3" fill-opacity="0.7" stroke="none" stroke-width="0" /><path d="M 1615.3963260421679,0L1628.89497514095,0 L1655.1964666839383,60L1641.7558014730375,60 z" fill="#d3d3d3" fill-opacity="0.7" stroke="none" stroke-width="0" /><path d="M 1495.740775010178,0L1506.6997298197564,0 L1507.662262358587,60L1496.5641462180936,60 z" fill="#d3d3d3" fill-opacity="0.7" stroke="none" stroke-width="0" /><path d="M 1643.0314470064275,0L1651.9725625177346,0 L1633.3713312853918,60L1624.47660288439,60 z" fill="#d3d3d3" fill-opacity="0.7" stroke="none" stroke-width="0" /><path d="M 104.64932084829194,0L112.53512960015792,0 L104.96243384285133,60L96.91427020491753,60 z" fill="#d3d3d3" fill-opacity="0.7" stroke="none" stroke-width="0" /><path d="M 1859.1026068075553,0L1864.054430832624,0 L101.87769100756258,60L96.91427020491753,60 z" fill="#d3d3d3" fill-opacity="0.7" stroke="none" stroke-width="0" /><path d="M 104.64932084829194,0L109.60114487336072,0 L1879.9072257793898,60L1874.9438049767448,60 z" fill="#d3d3d3" fill-opacity="0.7" stroke="none" stroke-width="0" /><path d="M 1859.1026068075553,0L1864.054430832624,0 L1879.9072257793898,60L1874.9438049767448,60 z" fill="#d3d3d3" fill-opacity="0.7" stroke="none" stroke-width="0" /><path d="M 1690.3347027400473,0L1699.0438826998286,0 L1705.0626102619144,60L1696.2838496366753,60 z" fill="#d3d3d3" fill-opacity="0.7" stroke="none" stroke-width="0" /><path d="M 1644.23751187436,0L1651.9841592953107,0 L1632.1768631950356,60L1624.47660288439,60 z" fill="#d3d3d3" fill-opacity="0.7" stroke="none" stroke-width="0" /><path d="M 1615.3963260421679,0L1626.459651849933,0 L1655.1964666839383,60L1644.1679312089022,60 z" fill="#d3d3d3" fill-opacity="0.7" stroke="none" stroke-width="0" /><path d="M 25.582491333259313,0L31.56642856261643,0 L17.00087592681693,60L11.016938697459812,60 z" fill="#d3d3d3" fill-opacity="0.7" stroke="none" stroke-width="0" /><path d="M 1780.0357772925224,0L1786.0197145218795,0 L17.00087592681693,60L11.016938697459812,60 z" fill="#d3d3d3" fill-opacity="0.7" stroke="none" stroke-width="0" /><path d="M 25.582491333259313,0L31.56642856261643,0 L1795.0304106986443,60L1789.046473469287,60 z" fill="#d3d3d3" fill-opacity="0.7" stroke="none" stroke-width="0" /><path d="M 1780.0357772925224,0L1786.0197145218795,0 L1795.0304106986443,60L1789.046473469287,60 z" fill="#d3d3d3" fill-opacity="0.7" stroke="none" stroke-width="0" /><path d="M 1527.6087197897775,0L1535.2741897676945,0 L1550.1760489532057,60L1542.1394820928483,60 z" fill="#d3d3d3" fill-opacity="0.7" stroke="none" stroke-width="0" /><path d="M 1615.3963260421679,0L1625.241990204424,0 L1655.1964666839383,60L1645.3739960768348,60 z" fill="#d3d3d3" fill-opacity="0.7" stroke="none" stroke-width="0" /><path d="M 1645.4435767422924,0L1651.9841592953107,0 L1630.970798327103,60L1624.47660288439,60 z" fill="#d3d3d3" fill-opacity="0.7" stroke="none" stroke-width="0" /><path d="M 16.513811268613445,0L25.559297778106764,0 L10.645841815019061,60L1.739516636441023,60 z" fill="#d3d3d3" fill-opacity="0.7" stroke="none" stroke-width="0" /><path d="M 1770.9670972278768,0L1780.01258373737,0 L10.645841815019061,60L1.739516636441023,60 z" fill="#d3d3d3" fill-opacity="0.7" stroke="none" stroke-width="0" /><path d="M 16.513811268613445,0L25.559297778106764,0 L1788.6753765868464,60L1779.7690514082683,60 z" fill="#d3d3d3" fill-opacity="0.7" stroke="none" stroke-width="0" /><path d="M 1770.9670972278768,0L1780.01258373737,0 L1788.6753765868464,60L1779.7690514082683,60 z" fill="#d3d3d3" fill-opacity="0.7" stroke="none" stroke-width="0" /><path d="M 1646.6844319429538,0L1651.9841592953107,0 L1629.7647334591709,60L1624.47660288439,60 z" fill="#d3d3d3" fill-opacity="0.7" stroke="none" stroke-width="0" /><path d="M 69.42990734914936,0L74.24257004330286,0 L61.88040514699532,60L57.09093600799437,60 z" fill="#d3d3d3" fill-opacity="0.7" stroke="none" stroke-width="0" /><path d="M 1823.8831933084127,0L1828.695856002566,0 L61.88040514699532,60L57.09093600799437,60 z" fill="#d3d3d3" fill-opacity="0.7" stroke="none" stroke-width="0" /><path d="M 69.42990734914936,0L74.24257004330286,0 L1839.9099399188224,60L1835.1204707798215,60 z" fill="#d3d3d3" fill-opacity="0.7" stroke="none" stroke-width="0" /><path d="M 1823.8831933084127,0L1828.695856002566,0 L1839.9099399188224,60L1835.1204707798215,60 z" fill="#d3d3d3" fill-opacity="0.7" stroke="none" stroke-width="0" /><path d="M 1497.051210876297,0L1502.8959867747387,0 L1502.3277446735015,60L1496.4829687750596,60 z" fill="#d3d3d3" fill-opacity="0.7" stroke="none" stroke-width="0" /><path d="M 1611.4534216662348,0L1615.0484227148797,0 L1626.564022848119,60L1622.8646508012878,60 z" fill="#d3d3d3" fill-opacity="0.7" stroke="none" stroke-width="0" /><path d="M 1533.4187053554906,0L1537.1528677350507,0 L1554.9191309819016,60L1551.0574040490026,60 z" fill="#d3d3d3" fill-opacity="0.7" stroke="none" stroke-width="0" /><path d="M 1686.5309596950294,0L1689.0706539842333,0 L1693.7673489026242,60L1691.2624449461491,60 z" fill="#d3d3d3" fill-opacity="0.7" stroke="none" stroke-width="0" /><path d="M 1612.9494059735741,0L1615.3151485991339,0 L1631.6550082041033,60L1629.2892655785433,60 z" fill="#d3d3d3" fill-opacity="0.7" stroke="none" stroke-width="0" /><path d="M 1612.9494059735741,0L1615.3151485991339,0 L1630.448943336171,60L1628.083200710611,60 z" fill="#d3d3d3" fill-opacity="0.7" stroke="none" stroke-width="0" /><path d="M 1574.7612174149056,0L1577.5560408107874,0 L1585.9405109984332,60L1583.145687602551,60 z" fill="#d3d3d3" fill-opacity="0.7" stroke="none" stroke-width="0" /><path d="M 1612.810244642659,0L1615.0484227148797,0 L1642.2776564639698,60L1640.039478391749,60 z" fill="#d3d3d3" fill-opacity="0.7" stroke="none" stroke-width="0" /><path d="M 1612.9494059735741,0L1615.0484227148797,0 L1644.6897861998345,60L1642.5907694585292,60 z" fill="#d3d3d3" fill-opacity="0.7" stroke="none" stroke-width="0" /><path d="M 1612.810244642659,0L1615.0832130476083,0 L1639.8887202832573,60L1637.6273486558841,60 z" fill="#d3d3d3" fill-opacity="0.7" stroke="none" stroke-width="0" /><path d="M 1612.810244642659,0L1615.0832130476083,0 L1635.0528640339514,60L1632.7798956290019,60 z" fill="#d3d3d3" fill-opacity="0.7" stroke="none" stroke-width="0" /><path d="M 1612.810244642659,0L1615.0832130476083,0 L1637.4765905473926,60L1635.203622142443,60 z" fill="#d3d3d3" fill-opacity="0.7" stroke="none" stroke-width="0" /><path d="M 1613.1233576372183,0L1615.3151485991339,0 L1629.2428784682384,60L1627.0510875063226,60 z" fill="#d3d3d3" fill-opacity="0.7" stroke="none" stroke-width="0" /><path d="M 1612.9494059735741,0L1615.2919550439815,0 L1643.727253661004,60L1641.3731078130206,60 z" fill="#d3d3d3" fill-opacity="0.7" stroke="none" stroke-width="0" /><path d="M 1613.0421801941843,0L1615.3151485991339,0 L1628.036813600306,60L1625.7638451953565,60 z" fill="#d3d3d3" fill-opacity="0.7" stroke="none" stroke-width="0" /><path d="M 1612.9494059735741,0L1615.0832130476083,0 L1632.62913752051,60L1630.495330446476,60 z" fill="#d3d3d3" fill-opacity="0.7" stroke="none" stroke-width="0" /><path d="M 1612.9494059735741,0L1615.2919550439815,0 L1634.0439443848156,60L1631.7013953144085,60 z" fill="#d3d3d3" fill-opacity="0.7" stroke="none" stroke-width="0" /><path d="M 1612.9494059735741,0L1615.0832130476083,0 L1645.930641400496,60L1643.7968343264617,60 z" fill="#d3d3d3" fill-opacity="0.7" stroke="none" stroke-width="0" /><path d="M 808.4925422850587,0L810.2320589214996,0 L804.5728314642782,60L802.8101212726846,60 z" fill="#d3d3d3" fill-opacity="0.7" stroke="none" stroke-width="0" /><path d="M 1612.9494059735741,0L1615.3151485991339,0 L1647.38023859753,60L1645.002899194394,60 z" fill="#d3d3d3" fill-opacity="0.7" stroke="none" stroke-width="0" /><path d="M 345.39842333172953,0L346.6740688651196,0 L342.18611594310175,60L340.91047040971165,60 z" fill="#d3d3d3" fill-opacity="0.7" stroke="none" stroke-width="0" /><path d="M 810.1508814784657,0L812.0759465561272,0 L804.9555251242953,60L802.9260890484474,60 z" fill="#d3d3d3" fill-opacity="0.7" stroke="none" stroke-width="0" /></g><g id="NC_001664.4" transform="translate(135.86439172434214,40)"><line fill="none" stroke="lightgray" stroke-width="2.0" x1="0" x2="1848.2712165513158" y1="0" y2="0" /><path d="M 0.011596777576273488,-12.0 L 93.80633381447623,-12.0 L 93.80633381447623,-2.0 L 0.011596777576273488,-2.0 z" fill="#d3d3d3" stroke="black" stroke-linecap="round" stroke-linejoin="round" stroke-width="1.0" /><path d="M 5.7983887881367435,-12.0 L 8.801954180391578,-12.0 L 8.801954180391578,-2.0 L 5.7983887881367435,-2.0 z" fill="#89d1fa" stroke="black" stroke-linecap="round" stroke-linejoin="round" stroke-width="1.0" /><path d="M 8.813550957967848,-7.0 L9.752889941646004,-7.0 z" fill="none" stroke="gray" stroke-linecap="round" stroke-linejoin="round" stroke-width="1.0" /><path d="M 9.764486719222276,-12.0 L 28.51025090985356,-12.0 L 30.76625090985356,-7.0 L 28.51025090985356,-2.0 L 9.764486719222276,-2.0 z" fill="#89d1fa" stroke="black" stroke-linecap="round" stroke-linejoin="round" stroke-width="1.0" /><path d="M 54.78317727031595,-12.0 L 58.30859765350309,-12.0 L 58.30859765350309,-2.0 L 54.78317727031595,-2.0 z" fill="#89d1fa" stroke="black" stroke-linecap="round" stroke-linejoin="round" stroke-width="1.0" /><path d="M 58.320194431079365,-7.0 L67.66719715755579,-7.0 z" fill="none" stroke="gray" stroke-linecap="round" stroke-linejoin="round" stroke-width="1.0" /><path d="M 67.67879393513208,-12.0 L 75.46560331618491,-12.0 L 77.72160331618491,-7.0 L 75.46560331618491,-2.0 L 67.67879393513208,-2.0 z" fill="#89d1fa" stroke="black" stroke-linecap="round" stroke-linejoin="round" stroke-width="1.0" /><path d="M 113.78758157839546,2.000000000000001 L 103.27552946691834,2.000000000000001 L 101.01952946691834,7.000000000000001 L 103.27552946691834,12.000000000000002 L 113.78758157839546,12.000000000000002 z" fill="#89d1fa" stroke="black" stroke-linecap="round" stroke-linejoin="round" stroke-width="1.0" /><path d="M 130.71887683975476,2.000000000000001 L 119.96329239917588,2.000000000000001 L 117.70729239917588,7.000000000000001 L 119.96329239917588,12.000000000000002 L 130.71887683975476,12.000000000000002 z" fill="#89d1fa" stroke="black" stroke-linecap="round" stroke-linejoin="round" stroke-width="1.0" /><path d="M 151.7786249182674,2.000000000000001 L 135.38700657561964,2.000000000000001 L 133.13100657561964,7.000000000000001 L 135.38700657561964,12.000000000000002 L 151.7786249182674,12.000000000000002 z" fill="#89d1fa" stroke="black" stroke-linecap="round" stroke-linejoin="round" stroke-width="1.0" /><path d="M 185.82676388220636,2.000000000000001 L 198.1541384457851,2.000000000000001 L 198.1541384457851,12.000000000000002 L 185.82676388220636,12.000000000000002 z" fill="#89d1fa" stroke="black" stroke-linecap="round" stroke-linejoin="round" stroke-width="1.0" /><path d="M 184.62069901427392,7.000000000000001 L185.8151671046301,7.000000000000001 z" fill="none" stroke="gray" stroke-linecap="round" stroke-linejoin="round" stroke-width="1.0" /><path d="M 173.29064732225473,2.000000000000001 L 184.60910223669762,2.000000000000001 L 184.60910223669762,12.000000000000002 L 173.29064732225473,12.000000000000002 z" fill="#89d1fa" stroke="black" stroke-linecap="round" stroke-linejoin="round" stroke-width="1.0" /><path d="M 172.27013089554262,7.000000000000001 L173.27905054467846,7.000000000000001 z" fill="none" stroke="gray" stroke-linecap="round" stroke-linejoin="round" stroke-width="1.0" /><path d="M 172.25853411796638,2.000000000000001 L 155.4378350049965,2.000000000000001 L 153.1818350049965,7.000000000000001 L 155.4378350049965,12.000000000000002 L 172.25853411796638,12.000000000000002 z" fill="#89d1fa" stroke="black" stroke-linecap="round" stroke-linejoin="round" stroke-width="1.0" /><path d="M 204.09168856483709,-12.0 L 219.37001626016263,-12.0 L 221.62601626016263,-7.0 L 219.37001626016263,-2.0 L 204.09168856483709,-2.0 z" fill="#89d1fa" stroke="black" stroke-linecap="round" stroke-linejoin="round" stroke-width="1.0" /><path d="M 250.8035086420667,2.000000000000001 L 222.7571288352641,2.000000000000001 L 220.5011288352641,7.000000000000001 L 222.7571288352641,12.000000000000002 L 250.8035086420667,12.000000000000002 z" fill="#89d1fa" stroke="black" stroke-linecap="round" stroke-linejoin="round" stroke-width="1.0" /><path d="M 251.97478317727033,-12.0 L 252.3574768372874,-12.0 L 252.3574768372874,-2.0 L 251.97478317727033,-2.0 z" fill="#89d1fa" stroke="black" stroke-linecap="round" stroke-linejoin="round" stroke-width="1.0" /><path d="M 252.3690736148636,-7.0 L253.3779932639994,-7.0 z" fill="none" stroke="gray" stroke-linecap="round" stroke-linejoin="round" stroke-width="1.0" /><path d="M 253.3895900415757,-12.0 L 262.85793217118817,-12.0 L 265.1139321711882,-7.0 L 262.85793217118817,-2.0 L 253.3895900415757,-2.0 z" fill="#89d1fa" stroke="black" stroke-linecap="round" stroke-linejoin="round" stroke-width="1.0" /><path d="M 266.09965826517146,-12.0 L 267.56622386715514,-12.0 L 269.8222238671552,-7.0 L 267.56622386715514,-2.0 L 266.09965826517146,-2.0 z" fill="#89d1fa" stroke="black" stroke-linecap="round" stroke-linejoin="round" stroke-width="1.0" /><path d="M 270.94711129205376,-12.0 L 289.9132142566342,-12.0 L 292.16921425663423,-7.0 L 289.9132142566342,-2.0 L 270.94711129205376,-2.0 z" fill="#89d1fa" stroke="black" stroke-linecap="round" stroke-linejoin="round" stroke-width="1.0" /><path d="M 298.31550637205913,2.000000000000001 L 301.9916848637379,2.000000000000001 L 301.9916848637379,12.000000000000002 L 298.31550637205913,12.000000000000002 z" fill="#89d1fa" stroke="black" stroke-linecap="round" stroke-linejoin="round" stroke-width="1.0" /><path d="M 297.48053838656745,7.000000000000001 L298.30390959448295,7.000000000000001 z" fill="none" stroke="gray" stroke-linecap="round" stroke-linejoin="round" stroke-width="1.0" /><path d="M 296.62237684592327,2.000000000000001 L 297.4689416089912,2.000000000000001 L 297.4689416089912,12.000000000000002 L 296.62237684592327,12.000000000000002 z" fill="#89d1fa" stroke="black" stroke-linecap="round" stroke-linejoin="round" stroke-width="1.0" /><path d="M 294.7205053234144,7.000000000000001 L296.61078006834697,7.000000000000001 z" fill="none" stroke="gray" stroke-linecap="round" stroke-linejoin="round" stroke-width="1.0" /><path d="M 294.7089085458381,2.000000000000001 L 292.55190791665126,7.000000000000001 L 294.7089085458381,12.000000000000002 z" fill="#89d1fa" stroke="black" stroke-linecap="round" stroke-linejoin="round" stroke-width="1.0" /><path d="M 315.0728499697743,2.000000000000001 L 317.72851203474096,2.000000000000001 L 317.72851203474096,12.000000000000002 L 315.0728499697743,12.000000000000002 z" fill="#89d1fa" stroke="black" stroke-linecap="round" stroke-linejoin="round" stroke-width="1.0" /><path d="M 314.0871238757912,7.000000000000001 L315.0612531921981,7.000000000000001 z" fill="none" stroke="gray" stroke-linecap="round" stroke-linejoin="round" stroke-width="1.0" /><path d="M 314.0755270982148,2.000000000000001 L 307.33242769902665,2.000000000000001 L 305.0764276990266,7.000000000000001 L 307.33242769902665,12.000000000000002 L 314.0755270982148,12.000000000000002 z" fill="#89d1fa" stroke="black" stroke-linecap="round" stroke-linejoin="round" stroke-width="1.0" /><path d="M 341.3859382903389,2.000000000000001 L 333.4135804680657,2.000000000000001 L 331.15758046806565,7.000000000000001 L 333.4135804680657,12.000000000000002 L 341.3859382903389,12.000000000000002 z" fill="#89d1fa" stroke="black" stroke-linecap="round" stroke-linejoin="round" stroke-width="1.0" /><path d="M 357.9577334468337,2.000000000000001 L 346.6455036825938,2.000000000000001 L 344.3895036825938,7.000000000000001 L 346.6455036825938,12.000000000000002 L 357.9577334468337,12.000000000000002 z" fill="#89d1fa" stroke="black" stroke-linecap="round" stroke-linejoin="round" stroke-width="1.0" /><path d="M 375.5732385851931,2.000000000000001 L 363.1129278409021,2.000000000000001 L 360.85692784090213,7.000000000000001 L 363.1129278409021,12.000000000000002 L 375.5732385851931,12.000000000000002 z" fill="#89d1fa" stroke="black" stroke-linecap="round" stroke-linejoin="round" stroke-width="1.0" /><path d="M 390.6954365446538,2.000000000000001 L 377.85243214034574,2.000000000000001 L 375.5964321403457,7.000000000000001 L 377.85243214034574,12.000000000000002 L 390.6954365446538,12.000000000000002 z" fill="#89d1fa" stroke="black" stroke-linecap="round" stroke-linejoin="round" stroke-width="1.0" /><path d="M 398.8827615135028,2.000000000000001 L 394.0763239695523,2.000000000000001 L 391.8203239695523,7.000000000000001 L 394.0763239695523,12.000000000000002 L 398.8827615135028,12.000000000000002 z" fill="#89d1fa" stroke="black" stroke-linecap="round" stroke-linejoin="round" stroke-width="1.0" /><path d="M 407.4411833647927,2.000000000000001 L 401.45187450806225,2.000000000000001 L 399.1958745080623,7.000000000000001 L 401.45187450806225,12.000000000000002 L 407.4411833647927,12.000000000000002 z" fill="#89d1fa" stroke="black" stroke-linecap="round" stroke-linejoin="round" stroke-width="1.0" /><path d="M 414.0513465832686,2.000000000000001 L 413.24579730313246,2.000000000000001 L 410.98979730313243,7.000000000000001 L 413.24579730313246,12.000000000000002 L 414.0513465832686,12.000000000000002 z" fill="#89d1fa" stroke="black" stroke-linecap="round" stroke-linejoin="round" stroke-width="1.0" /><path d="M 416.2779278779131,2.000000000000001 L 414.26008857964155,7.000000000000001 L 416.2779278779131,12.000000000000002 z" fill="#89d1fa" stroke="black" stroke-linecap="round" stroke-linejoin="round" stroke-width="1.0" /><path d="M 427.49201179416957,2.000000000000001 L 418.7194763191335,2.000000000000001 L 416.46347631913346,7.000000000000001 L 418.7194763191335,12.000000000000002 L 427.49201179416957,12.000000000000002 z" fill="#89d1fa" stroke="black" stroke-linecap="round" stroke-linejoin="round" stroke-width="1.0" /><path d="M 439.0308054825617,2.000000000000001 L 430.9888669948308,2.000000000000001 L 428.73286699483083,7.000000000000001 L 430.9888669948308,12.000000000000002 L 439.0308054825617,12.000000000000002 z" fill="#89d1fa" stroke="black" stroke-linecap="round" stroke-linejoin="round" stroke-width="1.0" /><path d="M 452.5874384692254,2.000000000000001 L 441.13604737407013,2.000000000000001 L 438.8800473740701,7.000000000000001 L 441.13604737407013,12.000000000000002 L 452.5874384692254,12.000000000000002 z" fill="#89d1fa" stroke="black" stroke-linecap="round" stroke-linejoin="round" stroke-width="1.0" /><path d="M 481.0691241965531,2.000000000000001 L 455.31890634985257,2.000000000000001 L 453.0629063498526,7.000000000000001 L 455.31890634985257,12.000000000000002 L 481.0691241965531,12.000000000000002 z" fill="#89d1fa" stroke="black" stroke-linecap="round" stroke-linejoin="round" stroke-width="1.0" /><path d="M 491.7613531218772,2.000000000000001 L 483.5802533032311,2.000000000000001 L 481.32425330323105,7.000000000000001 L 483.5802533032311,12.000000000000002 L 491.7613531218772,12.000000000000002 z" fill="#89d1fa" stroke="black" stroke-linecap="round" stroke-linejoin="round" stroke-width="1.0" /><path d="M 486.27607732829983,-12.0 L 521.6980076736124,-12.0 L 523.9540076736124,-7.0 L 521.6980076736124,-2.0 L 486.27607732829983,-2.0 z" fill="#89d1fa" stroke="black" stroke-linecap="round" stroke-linejoin="round" stroke-width="1.0" /><path d="M 524.1511528924091,-12.0 L 594.189464302898,-12.0 L 596.445464302898,-7.0 L 594.189464302898,-2.0 L 524.1511528924091,-2.0 z" fill="#89d1fa" stroke="black" stroke-linecap="round" stroke-linejoin="round" stroke-width="1.0" /><path d="M 600.3651751236785,2.000000000000001 L 599.5248355108133,2.000000000000001 L 597.2688355108133,7.000000000000001 L 599.5248355108133,12.000000000000002 L 600.3651751236785,12.000000000000002 z" fill="#89d1fa" stroke="black" stroke-linecap="round" stroke-linejoin="round" stroke-width="1.0" /><path d="M 616.7630186165292,2.000000000000001 L 602.6327719012546,2.000000000000001 L 600.3767719012546,7.000000000000001 L 602.6327719012546,12.000000000000002 L 616.7630186165292,12.000000000000002 z" fill="#89d1fa" stroke="black" stroke-linecap="round" stroke-linejoin="round" stroke-width="1.0" /><path d="M 625.8201019035987,2.000000000000001 L 618.4391797377154,2.000000000000001 L 616.1831797377155,7.000000000000001 L 618.4391797377154,12.000000000000002 L 625.8201019035987,12.000000000000002 z" fill="#89d1fa" stroke="black" stroke-linecap="round" stroke-linejoin="round" stroke-width="1.0" /><path d="M 629.728215946803,2.000000000000001 L 628.261650344819,2.000000000000001 L 626.0056503448191,7.000000000000001 L 628.261650344819,12.000000000000002 L 629.728215946803,12.000000000000002 z" fill="#89d1fa" stroke="black" stroke-linecap="round" stroke-linejoin="round" stroke-width="1.0" /><path d="M 629.7050223916503,-12.0 L 644.3223337651283,-12.0 L 646.5783337651283,-7.0 L 644.3223337651283,-2.0 L 629.7050223916503,-2.0 z" fill="#89d1fa" stroke="black" stroke-linecap="round" stroke-linejoin="round" stroke-width="1.0" /><path d="M 646.6131240978572,-12.0 L 653.5765622709945,-12.0 L 655.8325622709945,-7.0 L 653.5765622709945,-2.0 L 646.6131240978572,-2.0 z" fill="#89d1fa" stroke="black" stroke-linecap="round" stroke-linejoin="round" stroke-width="1.0" /><path d="M 691.597024316222,2.000000000000001 L 658.6104172619267,2.000000000000001 L 656.3544172619268,7.000000000000001 L 658.6104172619267,12.000000000000002 L 691.597024316222,12.000000000000002 z" fill="#89d1fa" stroke="black" stroke-linecap="round" stroke-linejoin="round" stroke-width="1.0" /><path d="M 720.4961940362955,2.000000000000001 L 693.8414275386456,2.000000000000001 L 691.5854275386456,7.000000000000001 L 693.8414275386456,12.000000000000002 L 720.4961940362955,12.000000000000002 z" fill="#89d1fa" stroke="black" stroke-linecap="round" stroke-linejoin="round" stroke-width="1.0" /><path d="M 745.2437173840631,2.000000000000001 L 722.2071454902107,2.000000000000001 L 719.9511454902107,7.000000000000001 L 722.2071454902107,12.000000000000002 L 745.2437173840631,12.000000000000002 z" fill="#89d1fa" stroke="black" stroke-linecap="round" stroke-linejoin="round" stroke-width="1.0" /><path d="M 784.7423418088506,2.000000000000001 L 747.580894827097,2.000000000000001 L 745.3248948270971,7.000000000000001 L 747.580894827097,12.000000000000002 L 784.7423418088506,12.000000000000002 z" fill="#89d1fa" stroke="black" stroke-linecap="round" stroke-linejoin="round" stroke-width="1.0" /><path d="M 819.3123357637219,2.000000000000001 L 803.6165240756504,2.000000000000001 L 801.3605240756505,7.000000000000001 L 803.6165240756504,12.000000000000002 L 819.3123357637219,12.000000000000002 z" fill="#89d1fa" stroke="black" stroke-linecap="round" stroke-linejoin="round" stroke-width="1.0" /><path d="M 851.8644904203215,2.000000000000001 L 824.166013940807,2.000000000000001 L 821.9100139408071,7.000000000000001 L 824.166013940807,12.000000000000002 L 851.8644904203215,12.000000000000002 z" fill="#89d1fa" stroke="black" stroke-linecap="round" stroke-linejoin="round" stroke-width="1.0" /><path d="M 852.606684185203,-12.0 L 857.5174927273401,-12.0 L 859.7734927273401,-7.0 L 857.5174927273401,-2.0 L 852.606684185203,-2.0 z" fill="#89d1fa" stroke="black" stroke-linecap="round" stroke-linejoin="round" stroke-width="1.0" /><path d="M 872.8894481661054,2.000000000000001 L 862.0294927273401,2.000000000000001 L 859.7734927273401,7.000000000000001 L 862.0294927273401,12.000000000000002 L 872.8894481661054,12.000000000000002 z" fill="#89d1fa" stroke="black" stroke-linecap="round" stroke-linejoin="round" stroke-width="1.0" /><path d="M 873.724416151597,-12.0 L 874.4255944335467,-12.0 L 876.6815944335467,-7.0 L 874.4255944335467,-2.0 L 873.724416151597,-2.0 z" fill="#89d1fa" stroke="black" stroke-linecap="round" stroke-linejoin="round" stroke-width="1.0" /><path d="M 903.6093119656539,2.000000000000001 L 883.1820150264629,2.000000000000001 L 880.9260150264629,7.000000000000001 L 883.1820150264629,12.000000000000002 L 903.6093119656539,12.000000000000002 z" fill="#89d1fa" stroke="black" stroke-linecap="round" stroke-linejoin="round" stroke-width="1.0" /><path d="M 903.4121667468571,-12.0 L 905.3256350469422,-7.0 L 903.4121667468571,-2.0 z" fill="#89d1fa" stroke="black" stroke-linecap="round" stroke-linejoin="round" stroke-width="1.0" /><path d="M 929.7136582898454,2.000000000000001 L 907.7903770433152,2.000000000000001 L 905.5343770433152,7.000000000000001 L 907.7903770433152,12.000000000000002 L 929.7136582898454,12.000000000000002 z" fill="#89d1fa" stroke="black" stroke-linecap="round" stroke-linejoin="round" stroke-width="1.0" /><path d="M 931.5459491468968,-12.0 L 938.0919033272883,-12.0 L 940.3479033272882,-7.0 L 938.0919033272883,-2.0 L 931.5459491468968,-2.0 z" fill="#89d1fa" stroke="black" stroke-linecap="round" stroke-linejoin="round" stroke-width="1.0" /><path d="M 937.750225150203,-12.0 L 954.8376501474272,-12.0 L 957.0936501474272,-7.0 L 954.8376501474272,-2.0 L 937.750225150203,-2.0 z" fill="#89d1fa" stroke="black" stroke-linecap="round" stroke-linejoin="round" stroke-width="1.0" /><path d="M 958.183747239597,-12.0 L 966.4344277237008,-12.0 L 968.6904277237007,-7.0 L 966.4344277237008,-2.0 L 958.183747239597,-2.0 z" fill="#89d1fa" stroke="black" stroke-linecap="round" stroke-linejoin="round" stroke-width="1.0" /><path d="M 977.9098658968381,2.000000000000001 L 971.1551697200734,2.000000000000001 L 968.8991697200735,7.000000000000001 L 971.1551697200734,12.000000000000002 L 977.9098658968381,12.000000000000002 z" fill="#89d1fa" stroke="black" stroke-linecap="round" stroke-linejoin="round" stroke-width="1.0" /><path d="M 977.9794465622957,-12.0 L 994.1275325758417,-12.0 L 996.3835325758416,-7.0 L 994.1275325758417,-2.0 L 977.9794465622957,-2.0 z" fill="#89d1fa" stroke="black" stroke-linecap="round" stroke-linejoin="round" stroke-width="1.0" /><path d="M 987.8599010572807,-12.0 L 994.1275325758417,-12.0 L 996.3835325758416,-7.0 L 994.1275325758417,-2.0 L 987.8599010572807,-2.0 z" fill="#89d1fa" stroke="black" stroke-linecap="round" stroke-linejoin="round" stroke-width="1.0" /><path d="M 1014.4745055948284,2.000000000000001 L 1000.7617428722997,2.000000000000001 L 998.5057428722997,7.000000000000001 L 1000.7617428722997,12.000000000000002 L 1014.4745055948284,12.000000000000002 z" fill="#89d1fa" stroke="black" stroke-linecap="round" stroke-linejoin="round" stroke-width="1.0" /><path d="M 1030.4316715397806,2.000000000000001 L 1017.6234574682013,2.000000000000001 L 1015.3674574682013,7.000000000000001 L 1017.6234574682013,12.000000000000002 L 1030.4316715397806,12.000000000000002 z" fill="#89d1fa" stroke="black" stroke-linecap="round" stroke-linejoin="round" stroke-width="1.0" /><path d="M 1042.8402235463934,2.000000000000001 L 1034.7634947259337,2.000000000000001 L 1032.5074947259336,7.000000000000001 L 1034.7634947259337,12.000000000000002 L 1042.8402235463934,12.000000000000002 z" fill="#89d1fa" stroke="black" stroke-linecap="round" stroke-linejoin="round" stroke-width="1.0" /><path d="M 1089.6796081769617,2.000000000000001 L 1045.1078203239695,2.000000000000001 L 1042.8518203239694,7.000000000000001 L 1045.1078203239695,12.000000000000002 L 1089.6796081769617,12.000000000000002 z" fill="#89d1fa" stroke="black" stroke-linecap="round" stroke-linejoin="round" stroke-width="1.0" /><path d="M 1089.8071727303009,-12.0 L 1114.444099929679,-12.0 L 1116.700099929679,-7.0 L 1114.444099929679,-2.0 L 1089.8071727303009,-2.0 z" fill="#89d1fa" stroke="black" stroke-linecap="round" stroke-linejoin="round" stroke-width="1.0" /><path d="M 1116.6537128193743,-12.0 L 1126.60911960719,-12.0 L 1128.86511960719,-7.0 L 1126.60911960719,-2.0 L 1116.6537128193743,-2.0 z" fill="#89d1fa" stroke="black" stroke-linecap="round" stroke-linejoin="round" stroke-width="1.0" /><path d="M 1178.9863922918441,2.000000000000001 L 1189.1103791159308,2.000000000000001 L 1189.1103791159308,12.000000000000002 L 1178.9863922918441,12.000000000000002 z" fill="#89d1fa" stroke="black" stroke-linecap="round" stroke-linejoin="round" stroke-width="1.0" /><path d="M 1141.9114943804977,7.000000000000001 L1178.974795514268,7.000000000000001 z" fill="none" stroke="gray" stroke-linecap="round" stroke-linejoin="round" stroke-width="1.0" /><path d="M 1141.8998976029216,2.000000000000001 L 1131.0747324968852,2.000000000000001 L 1128.818732496885,7.000000000000001 L 1131.0747324968852,12.000000000000002 L 1141.8998976029216,12.000000000000002 z" fill="#89d1fa" stroke="black" stroke-linecap="round" stroke-linejoin="round" stroke-width="1.0" /><path d="M 1142.0274621562605,-12.0 L 1142.763430770939,-12.0 L 1145.0194307709392,-7.0 L 1142.763430770939,-2.0 L 1142.0274621562605,-2.0 z" fill="#89d1fa" stroke="black" stroke-linecap="round" stroke-linejoin="round" stroke-width="1.0" /><path d="M 1144.4048015593967,-12.0 L 1149.6983037615505,-12.0 L 1151.9543037615506,-7.0 L 1149.6983037615505,-2.0 L 1144.4048015593967,-2.0 z" fill="#89d1fa" stroke="black" stroke-linecap="round" stroke-linejoin="round" stroke-width="1.0" /><path d="M 1151.6875778772965,-12.0 L 1164.8436952761635,-12.0 L 1167.0996952761636,-7.0 L 1164.8436952761635,-2.0 L 1151.6875778772965,-2.0 z" fill="#89d1fa" stroke="black" stroke-linecap="round" stroke-linejoin="round" stroke-width="1.0" /><path d="M 1166.5894370628075,-12.0 L 1176.0229888596914,-12.0 L 1178.2789888596915,-7.0 L 1176.0229888596914,-2.0 L 1166.5894370628075,-2.0 z" fill="#89d1fa" stroke="black" stroke-linecap="round" stroke-linejoin="round" stroke-width="1.0" /><path d="M 1188.774072566219,-12.0 L 1198.8338503522211,-12.0 L 1201.0898503522212,-7.0 L 1198.8338503522211,-2.0 L 1188.774072566219,-2.0 z" fill="#89d1fa" stroke="black" stroke-linecap="round" stroke-linejoin="round" stroke-width="1.0" /><path d="M 1201.078253574645,-12.0 L 1202.8231418384592,-12.0 L 1205.0791418384592,-7.0 L 1202.8231418384592,-2.0 L 1201.078253574645,-2.0 z" fill="#89d1fa" stroke="black" stroke-linecap="round" stroke-linejoin="round" stroke-width="1.0" /><path d="M 1205.102335393612,-12.0 L 1222.433292719938,-12.0 L 1224.689292719938,-7.0 L 1222.433292719938,-2.0 L 1205.102335393612,-2.0 z" fill="#89d1fa" stroke="black" stroke-linecap="round" stroke-linejoin="round" stroke-width="1.0" /><path d="M 1224.7704701629718,-12.0 L 1239.526942867365,-12.0 L 1241.7829428673651,-7.0 L 1239.526942867365,-2.0 L 1224.7704701629718,-2.0 z" fill="#89d1fa" stroke="black" stroke-linecap="round" stroke-linejoin="round" stroke-width="1.0" /><path d="M 1241.0407491024835,-12.0 L 1241.4983950553315,-12.0 L 1243.7543950553315,-7.0 L 1241.4983950553315,-2.0 L 1241.0407491024835,-2.0 z" fill="#89d1fa" stroke="black" stroke-linecap="round" stroke-linejoin="round" stroke-width="1.0" /><path d="M 1256.6732052753002,2.000000000000001 L 1246.926540483857,2.000000000000001 L 1244.670540483857,7.000000000000001 L 1246.926540483857,12.000000000000002 L 1256.6732052753002,12.000000000000002 z" fill="#89d1fa" stroke="black" stroke-linecap="round" stroke-linejoin="round" stroke-width="1.0" /><path d="M 1256.8123666062156,-12.0 L 1281.7276164674242,-12.0 L 1283.9836164674243,-7.0 L 1281.7276164674242,-2.0 L 1256.8123666062156,-2.0 z" fill="#89d1fa" stroke="black" stroke-linecap="round" stroke-linejoin="round" stroke-width="1.0" /><path d="M 1283.6125195849836,-12.0 L 1304.4225101841917,-12.0 L 1306.6785101841917,-7.0 L 1304.4225101841917,-2.0 L 1283.6125195849836,-2.0 z" fill="#89d1fa" stroke="black" stroke-linecap="round" stroke-linejoin="round" stroke-width="1.0" /><path d="M 1315.77038380399,2.000000000000001 L 1309.3288006217847,2.000000000000001 L 1307.0728006217846,7.000000000000001 L 1309.3288006217847,12.000000000000002 L 1315.77038380399,12.000000000000002 z" fill="#89d1fa" stroke="black" stroke-linecap="round" stroke-linejoin="round" stroke-width="1.0" /><path d="M 1337.2128255425196,2.000000000000001 L 1316.9594802669726,2.000000000000001 L 1314.7034802669725,7.000000000000001 L 1316.9594802669726,12.000000000000002 L 1337.2128255425196,12.000000000000002 z" fill="#89d1fa" stroke="black" stroke-linecap="round" stroke-linejoin="round" stroke-width="1.0" /><path d="M 1335.3805346854683,-12.0 L 1361.826559186745,-12.0 L 1364.0825591867451,-7.0 L 1361.826559186745,-2.0 L 1335.3805346854683,-2.0 z" fill="#89d1fa" stroke="black" stroke-linecap="round" stroke-linejoin="round" stroke-width="1.0" /><path d="M 1394.1066163317173,-12.0 L 1401.4241829823459,-12.0 L 1401.4241829823459,-2.0 L 1394.1066163317173,-2.0 z" fill="#89d1fa" stroke="black" stroke-linecap="round" stroke-linejoin="round" stroke-width="1.0" /><path d="M 1401.435779759922,-7.0 L1402.5258768520919,-7.0 z" fill="none" stroke="gray" stroke-linecap="round" stroke-linejoin="round" stroke-width="1.0" /><path d="M 1402.537473629668,-12.0 L 1404.822038812194,-12.0 L 1404.822038812194,-2.0 L 1402.537473629668,-2.0 z" fill="#89d1fa" stroke="black" stroke-linecap="round" stroke-linejoin="round" stroke-width="1.0" /><path d="M 1404.83363558977,-7.0 L1405.761377795872,-7.0 z" fill="none" stroke="gray" stroke-linecap="round" stroke-linejoin="round" stroke-width="1.0" /><path d="M 1405.7729745734484,-12.0 L 1410.4402507864836,-12.0 L 1412.6962507864837,-7.0 L 1410.4402507864836,-2.0 L 1405.7729745734484,-2.0 z" fill="#89d1fa" stroke="black" stroke-linecap="round" stroke-linejoin="round" stroke-width="1.0" /><path d="M 1422.1012374008415,2.000000000000001 L 1415.4509122222635,2.000000000000001 L 1413.1949122222634,7.000000000000001 L 1415.4509122222635,12.000000000000002 L 1422.1012374008415,12.000000000000002 z" fill="#89d1fa" stroke="black" stroke-linecap="round" stroke-linejoin="round" stroke-width="1.0" /><path d="M 1431.7033692339958,2.000000000000001 L 1425.2269957190622,2.000000000000001 L 1422.970995719062,7.000000000000001 L 1425.2269957190622,12.000000000000002 L 1431.7033692339958,12.000000000000002 z" fill="#89d1fa" stroke="black" stroke-linecap="round" stroke-linejoin="round" stroke-width="1.0" /><path d="M 1433.1181760983013,-12.0 L 1434.2716287057256,-12.0 L 1436.5276287057256,-7.0 L 1434.2716287057256,-2.0 L 1433.1181760983013,-2.0 z" fill="#89d1fa" stroke="black" stroke-linecap="round" stroke-linejoin="round" stroke-width="1.0" /><path d="M 1449.6551809220673,2.000000000000001 L 1439.978096796082,2.000000000000001 L 1437.7220967960818,7.000000000000001 L 1439.978096796082,12.000000000000002 L 1449.6551809220673,12.000000000000002 z" fill="#89d1fa" stroke="black" stroke-linecap="round" stroke-linejoin="round" stroke-width="1.0" /><path d="M 1460.0922807407135,2.000000000000001 L 1452.2242939166267,2.000000000000001 L 1449.9682939166266,7.000000000000001 L 1452.2242939166267,12.000000000000002 L 1460.0922807407135,12.000000000000002 z" fill="#89d1fa" stroke="black" stroke-linecap="round" stroke-linejoin="round" stroke-width="1.0" /><path d="M 1578.4026055738555,2.000000000000001 L 1579.0868154508557,2.000000000000001 L 1579.0868154508557,12.000000000000002 L 1578.4026055738555,12.000000000000002 z" fill="#89d1fa" stroke="black" stroke-linecap="round" stroke-linejoin="round" stroke-width="1.0" /><path d="M 1577.3936859247199,7.000000000000001 L1578.3910087962793,7.000000000000001 z" fill="none" stroke="gray" stroke-linecap="round" stroke-linejoin="round" stroke-width="1.0" /><path d="M 1575.1323142973465,2.000000000000001 L 1577.3820891471435,2.000000000000001 L 1577.3820891471435,12.000000000000002 L 1575.1323142973465,12.000000000000002 z" fill="#89d1fa" stroke="black" stroke-linecap="round" stroke-linejoin="round" stroke-width="1.0" /><path d="M 1509.2858112192655,7.000000000000001 L1575.1207175197699,7.000000000000001 z" fill="none" stroke="gray" stroke-linecap="round" stroke-linejoin="round" stroke-width="1.0" /><path d="M 1509.2742144416893,2.000000000000001 L 1463.9138457135102,2.000000000000001 L 1461.6578457135101,7.000000000000001 L 1463.9138457135102,12.000000000000002 L 1509.2742144416893,12.000000000000002 z" fill="#89d1fa" stroke="black" stroke-linecap="round" stroke-linejoin="round" stroke-width="1.0" /><path d="M 1479.1457862985308,-12.0 L 1487.089578938278,-12.0 L 1487.089578938278,-2.0 L 1479.1457862985308,-2.0 z" fill="#d3d3d3" stroke="black" stroke-linecap="round" stroke-linejoin="round" stroke-width="1.0" /><path d="M 1520.0592175876236,-12.0 L 1529.0815105419642,-12.0 L 1529.0815105419642,-2.0 L 1520.0592175876236,-2.0 z" fill="#d3d3d3" stroke="black" stroke-linecap="round" stroke-linejoin="round" stroke-width="1.0" /><path d="M 1578.4026055738555,2.000000000000001 L 1579.0868154508557,2.000000000000001 L 1579.0868154508557,12.000000000000002 L 1578.4026055738555,12.000000000000002 z" fill="#89d1fa" stroke="black" stroke-linecap="round" stroke-linejoin="round" stroke-width="1.0" /><path d="M 1577.3936859247199,7.000000000000001 L1578.3910087962793,7.000000000000001 z" fill="none" stroke="gray" stroke-linecap="round" stroke-linejoin="round" stroke-width="1.0" /><path d="M 1575.1323142973465,2.000000000000001 L 1577.3820891471435,2.000000000000001 L 1577.3820891471435,12.000000000000002 L 1575.1323142973465,12.000000000000002 z" fill="#89d1fa" stroke="black" stroke-linecap="round" stroke-linejoin="round" stroke-width="1.0" /><path d="M 1573.9030558742613,7.000000000000001 L1575.1207175197699,7.000000000000001 z" fill="none" stroke="gray" stroke-linecap="round" stroke-linejoin="round" stroke-width="1.0" /><path d="M 1573.8914590966851,2.000000000000001 L 1546.3089503929336,2.000000000000001 L 1544.0529503929336,7.000000000000001 L 1546.3089503929336,12.000000000000002 L 1573.8914590966851,12.000000000000002 z" fill="#89d1fa" stroke="black" stroke-linecap="round" stroke-linejoin="round" stroke-width="1.0" /><path d="M 1580.8727191976016,-12.0 L 1583.3196392661955,-12.0 L 1583.3196392661955,-2.0 L 1580.8727191976016,-2.0 z" fill="#89d1fa" stroke="black" stroke-linecap="round" stroke-linejoin="round" stroke-width="1.0" /><path d="M 1583.3312360437717,-7.0 L1584.490913801399,-7.0 z" fill="none" stroke="gray" stroke-linecap="round" stroke-linejoin="round" stroke-width="1.0" /><path d="M 1584.5025105789753,-12.0 L 1585.1573017506198,-12.0 L 1587.41330175062,-7.0 L 1585.1573017506198,-2.0 L 1584.5025105789753,-2.0 z" fill="#89d1fa" stroke="black" stroke-linecap="round" stroke-linejoin="round" stroke-width="1.0" /><path d="M 1624.418618996509,-12.0 L 1634.5773961533243,-12.0 L 1634.5773961533243,-2.0 L 1624.418618996509,-2.0 z" fill="#d3d3d3" stroke="black" stroke-linecap="round" stroke-linejoin="round" stroke-width="1.0" /><path d="M 1657.423047978583,2.000000000000001 L 1642.5969946087323,2.000000000000001 L 1640.3409946087322,7.000000000000001 L 1642.5969946087323,12.000000000000002 L 1657.423047978583,12.000000000000002 z" fill="#89d1fa" stroke="black" stroke-linecap="round" stroke-linejoin="round" stroke-width="1.0" /><path d="M 1658.281209519227,-12.0 L 1695.0599628409636,-12.0 L 1697.3159628409637,-7.0 L 1695.0599628409636,-2.0 L 1658.281209519227,-2.0 z" fill="#89d1fa" stroke="black" stroke-linecap="round" stroke-linejoin="round" stroke-width="1.0" /><path d="M 1738.658474900379,2.000000000000001 L 1743.413153706651,2.000000000000001 L 1743.413153706651,12.000000000000002 L 1738.658474900379,12.000000000000002 z" fill="#89d1fa" stroke="black" stroke-linecap="round" stroke-linejoin="round" stroke-width="1.0" /><path d="M 1737.4987971427518,7.000000000000001 L1738.6468781228025,7.000000000000001 z" fill="none" stroke="gray" stroke-linecap="round" stroke-linejoin="round" stroke-width="1.0" /><path d="M 1734.2169090886662,2.000000000000001 L 1737.487200365175,2.000000000000001 L 1737.487200365175,12.000000000000002 L 1734.2169090886662,12.000000000000002 z" fill="#89d1fa" stroke="black" stroke-linecap="round" stroke-linejoin="round" stroke-width="1.0" /><path d="M 1729.497020615123,7.000000000000001 L1734.20531231109,7.000000000000001 z" fill="none" stroke="gray" stroke-linecap="round" stroke-linejoin="round" stroke-width="1.0" /><path d="M 1725.5889065719186,2.000000000000001 L 1729.4854238375465,2.000000000000001 L 1729.4854238375465,12.000000000000002 L 1725.5889065719186,12.000000000000002 z" fill="#89d1fa" stroke="black" stroke-linecap="round" stroke-linejoin="round" stroke-width="1.0" /><path d="M 1724.243680373071,7.000000000000001 L1725.5773097943422,7.000000000000001 z" fill="none" stroke="gray" stroke-linecap="round" stroke-linejoin="round" stroke-width="1.0" /><path d="M 1723.327534944545,2.000000000000001 L 1724.2320835954945,2.000000000000001 L 1724.2320835954945,12.000000000000002 L 1723.327534944545,12.000000000000002 z" fill="#89d1fa" stroke="black" stroke-linecap="round" stroke-linejoin="round" stroke-width="1.0" /><path d="M 1722.2258410747993,7.000000000000001 L1723.3159381669689,7.000000000000001 z" fill="none" stroke="gray" stroke-linecap="round" stroke-linejoin="round" stroke-width="1.0" /><path d="M 1720.9617923189855,2.000000000000001 L 1722.214244297223,2.000000000000001 L 1722.214244297223,12.000000000000002 L 1720.9617923189855,12.000000000000002 z" fill="#89d1fa" stroke="black" stroke-linecap="round" stroke-linejoin="round" stroke-width="1.0" /><path d="M 1719.918082337121,7.000000000000001 L1720.9501955414091,7.000000000000001 z" fill="none" stroke="gray" stroke-linecap="round" stroke-linejoin="round" stroke-width="1.0" /><path d="M 1718.5844529158496,2.000000000000001 L 1719.9064855595445,2.000000000000001 L 1719.9064855595445,12.000000000000002 L 1718.5844529158496,12.000000000000002 z" fill="#89d1fa" stroke="black" stroke-linecap="round" stroke-linejoin="round" stroke-width="1.0" /><path d="M 1717.5987268218662,7.000000000000001 L1718.5728561382732,7.000000000000001 z" fill="none" stroke="gray" stroke-linecap="round" stroke-linejoin="round" stroke-width="1.0" /><path d="M 1715.7200488545097,2.000000000000001 L 1717.58713004429,2.000000000000001 L 1717.58713004429,12.000000000000002 L 1715.7200488545097,12.000000000000002 z" fill="#89d1fa" stroke="black" stroke-linecap="round" stroke-linejoin="round" stroke-width="1.0" /><path d="M 1709.8056922906103,7.000000000000001 L1715.7084520769338,7.000000000000001 z" fill="none" stroke="gray" stroke-linecap="round" stroke-linejoin="round" stroke-width="1.0" /><path d="M 1709.6781277372713,2.000000000000001 L 1709.794095513034,2.000000000000001 L 1709.794095513034,12.000000000000002 L 1709.6781277372713,12.000000000000002 z" fill="#89d1fa" stroke="black" stroke-linecap="round" stroke-linejoin="round" stroke-width="1.0" /><path d="M 1707.9502078784067,7.000000000000001 L1709.6665309596954,7.000000000000001 z" fill="none" stroke="gray" stroke-linecap="round" stroke-linejoin="round" stroke-width="1.0" /><path d="M 1706.4426267934912,2.000000000000001 L 1707.9386111008303,2.000000000000001 L 1707.9386111008303,12.000000000000002 L 1706.4426267934912,12.000000000000002 z" fill="#89d1fa" stroke="black" stroke-linecap="round" stroke-linejoin="round" stroke-width="1.0" /><path d="M 1705.1785780376772,7.000000000000001 L1706.4310300159148,7.000000000000001 z" fill="none" stroke="gray" stroke-linecap="round" stroke-linejoin="round" stroke-width="1.0" /><path d="M 1705.1669812601012,2.000000000000001 L 1703.4452865514393,2.000000000000001 L 1701.1892865514392,7.000000000000001 L 1703.4452865514393,12.000000000000002 L 1705.1669812601012,12.000000000000002 z" fill="#89d1fa" stroke="black" stroke-linecap="round" stroke-linejoin="round" stroke-width="1.0" /><path d="M 1754.4532859592634,-12.0 L 1848.2712165513158,-12.0 L 1848.2712165513158,-2.0 L 1754.4532859592634,-2.0 z" fill="#d3d3d3" stroke="black" stroke-linecap="round" stroke-linejoin="round" stroke-width="1.0" /><path d="M 1760.2516747474,-12.0 L 1763.255240139655,-12.0 L 1763.255240139655,-2.0 L 1760.2516747474,-2.0 z" fill="#89d1fa" stroke="black" stroke-linecap="round" stroke-linejoin="round" stroke-width="1.0" /><path d="M 1763.266836917231,-7.0 L1764.2061759009096,-7.0 z" fill="none" stroke="gray" stroke-linecap="round" stroke-linejoin="round" stroke-width="1.0" /><path d="M 1764.2177726784855,-12.0 L 1782.963536869117,-12.0 L 1785.219536869117,-7.0 L 1782.963536869117,-2.0 L 1764.2177726784855,-2.0 z" fill="#89d1fa" stroke="black" stroke-linecap="round" stroke-linejoin="round" stroke-width="1.0" /><path d="M 1809.2364632295792,-12.0 L 1812.7618836127665,-12.0 L 1812.7618836127665,-2.0 L 1809.2364632295792,-2.0 z" fill="#89d1fa" stroke="black" stroke-linecap="round" stroke-linejoin="round" stroke-width="1.0" /><path d="M 1812.7734803903427,-7.0 L1822.1204831168193,-7.0 z" fill="none" stroke="gray" stroke-linecap="round" stroke-linejoin="round" stroke-width="1.0" /><path d="M 1822.1320798943952,-12.0 L 1829.918889275448,-12.0 L 1832.174889275448,-7.0 L 1829.918889275448,-2.0 L 1822.1320798943952,-2.0 z" fill="#89d1fa" stroke="black" stroke-linecap="round" stroke-linejoin="round" stroke-width="1.0" /></g><g id="NC_001664.4" transform="translate(90.86439172434214,40)"><text dominant-baseline="middle" fill="black" font-family="'Liberation Sans', 'Arial', 'Helvetica', 'Nimbus Sans L', sans-serif" font-size="10" font-weight="normal" stroke="none" text-anchor="middle" x="0" y="-9">NC_001664.4</text><text dominant-baseline="middle" fill="black" font-family="'Liberation Sans', 'Arial', 'Helvetica', 'Nimbus Sans L', sans-serif" font-size="10" font-weight="normal" stroke="none" text-anchor="middle" x="0" y="9">159,378 bp</text></g><g id="NC_000898.1" transform="translate(120.0,136)"><line fill="none" stroke="lightgray" stroke-width="2.0" x1="0" x2="1880.0" y1="0" y2="0" /><path d="M 0.011596777576273488,-12.0 L 101.97046522817277,-12.0 L 101.97046522817277,-2.0 L 0.011596777576273488,-2.0 z" fill="#d3d3d3" stroke="black" stroke-linecap="round" stroke-linejoin="round" stroke-width="1.0" /><path d="M 0.6726130994238622,-12.0 L 4.093662484424541,-12.0 L 4.093662484424541,-2.0 L 0.6726130994238622,-2.0 z" fill="#d3d3d3" stroke="black" stroke-linecap="round" stroke-linejoin="round" stroke-width="1.0" /><path d="M 6.749324549391169,-12.0 L 9.752889941646002,-12.0 L 9.752889941646002,-2.0 L 6.749324549391169,-2.0 z" fill="#89d1fa" stroke="black" stroke-linecap="round" stroke-linejoin="round" stroke-width="1.0" /><path d="M 9.764486719222276,-7.0 L11.051729030188632,-7.0 z" fill="none" stroke="gray" stroke-linecap="round" stroke-linejoin="round" stroke-width="1.0" /><path d="M 11.063325807764906,-12.0 L 32.24441328941362,-12.0 L 34.50041328941362,-7.0 L 32.24441328941362,-2.0 L 11.063325807764906,-2.0 z" fill="#89d1fa" stroke="black" stroke-linecap="round" stroke-linejoin="round" stroke-width="1.0" /><path d="M 38.559285441109346,2.000000000000001 L 33.82242856261643,2.000000000000001 L 31.56642856261643,7.000000000000001 L 33.82242856261643,12.000000000000002 L 38.559285441109346,12.000000000000002 z" fill="#89d1fa" stroke="black" stroke-linecap="round" stroke-linejoin="round" stroke-width="1.0" /><path d="M 35.0338650579222,-12.0 L 38.34431829453347,-12.0 L 40.60031829453347,-7.0 L 38.34431829453347,-2.0 L 35.0338650579222,-2.0 z" fill="#89d1fa" stroke="black" stroke-linecap="round" stroke-linejoin="round" stroke-width="1.0" /><path d="M 40.99460873212677,-12.0 L 41.52183535043241,-12.0 L 43.77783535043241,-7.0 L 41.52183535043241,-2.0 L 40.99460873212677,-2.0 z" fill="#89d1fa" stroke="black" stroke-linecap="round" stroke-linejoin="round" stroke-width="1.0" /><path d="M 58.28540409835055,-12.0 L 61.810824481537686,-12.0 L 61.810824481537686,-2.0 L 58.28540409835055,-2.0 z" fill="#89d1fa" stroke="black" stroke-linecap="round" stroke-linejoin="round" stroke-width="1.0" /><path d="M 61.82242125911396,-7.0 L73.37281172508234,-7.0 z" fill="none" stroke="gray" stroke-linecap="round" stroke-linejoin="round" stroke-width="1.0" /><path d="M 73.38440850265862,-12.0 L 81.27558888189792,-12.0 L 83.53158888189792,-7.0 L 81.27558888189792,-2.0 L 73.38440850265862,-2.0 z" fill="#89d1fa" stroke="black" stroke-linecap="round" stroke-linejoin="round" stroke-width="1.0" /><path d="M 85.21312163045758,-12.0 L 87.3005415941868,-7.0 L 85.21312163045758,-2.0 z" fill="#89d1fa" stroke="black" stroke-linecap="round" stroke-linejoin="round" stroke-width="1.0" /><path d="M 95.66181822667998,-12.0 L 101.01952946691834,-12.0 L 101.01952946691834,-2.0 L 95.66181822667998,-2.0 z" fill="#d3d3d3" stroke="black" stroke-linecap="round" stroke-linejoin="round" stroke-width="1.0" /><path d="M 110.07661275398793,2.000000000000001 L 105.58328820459677,2.000000000000001 L 103.32728820459677,7.000000000000001 L 105.58328820459677,12.000000000000002 L 110.07661275398793,12.000000000000002 z" fill="#89d1fa" stroke="black" stroke-linecap="round" stroke-linejoin="round" stroke-width="1.0" /><path d="M 108.01238634541126,-12.0 L 110.28535475036085,-12.0 L 110.28535475036085,-2.0 L 108.01238634541126,-2.0 z" fill="#d3d3d3" stroke="black" stroke-linecap="round" stroke-linejoin="round" stroke-width="1.0" /><path d="M 110.41291930369987,-12.0 L 110.9401459220055,-12.0 L 113.1961459220055,-7.0 L 110.9401459220055,-2.0 L 110.41291930369987,-2.0 z" fill="#89d1fa" stroke="black" stroke-linecap="round" stroke-linejoin="round" stroke-width="1.0" /><path d="M 124.2594717297704,2.000000000000001 L 113.85179061647976,2.000000000000001 L 111.59579061647976,7.000000000000001 L 113.85179061647976,12.000000000000002 L 124.2594717297704,12.000000000000002 z" fill="#89d1fa" stroke="black" stroke-linecap="round" stroke-linejoin="round" stroke-width="1.0" /><path d="M 141.5386703184179,2.000000000000001 L 130.3308115523644,2.000000000000001 L 128.0748115523644,7.000000000000001 L 130.3308115523644,12.000000000000002 L 141.5386703184179,12.000000000000002 z" fill="#89d1fa" stroke="black" stroke-linecap="round" stroke-linejoin="round" stroke-width="1.0" /><path d="M 162.81875717087973,2.000000000000001 L 146.427138828232,2.000000000000001 L 144.171138828232,7.000000000000001 L 146.427138828232,12.000000000000002 L 162.81875717087973,12.000000000000002 z" fill="#89d1fa" stroke="black" stroke-linecap="round" stroke-linejoin="round" stroke-width="1.0" /><path d="M 184.26119890940944,2.000000000000001 L 196.66975091602205,2.000000000000001 L 196.66975091602205,12.000000000000002 L 184.26119890940944,12.000000000000002 z" fill="#89d1fa" stroke="black" stroke-linecap="round" stroke-linejoin="round" stroke-width="1.0" /><path d="M 183.24068248269737,7.000000000000001 L184.24960213183317,7.000000000000001 z" fill="none" stroke="gray" stroke-linecap="round" stroke-linejoin="round" stroke-width="1.0" /><path d="M 183.2290857051211,2.000000000000001 L 166.44317692488002,2.000000000000001 L 164.18717692488002,7.000000000000001 L 166.44317692488002,12.000000000000002 L 183.2290857051211,12.000000000000002 z" fill="#89d1fa" stroke="black" stroke-linecap="round" stroke-linejoin="round" stroke-width="1.0" /><path d="M 180.93292374501894,-12.0 L 181.07745670330755,-12.0 L 183.33345670330755,-7.0 L 181.07745670330755,-2.0 L 180.93292374501894,-2.0 z" fill="#89d1fa" stroke="black" stroke-linecap="round" stroke-linejoin="round" stroke-width="1.0" /><path d="M 211.0381583330249,2.000000000000001 L 198.9605412487509,2.000000000000001 L 196.7045412487509,7.000000000000001 L 198.9605412487509,12.000000000000002 L 211.0381583330249,12.000000000000002 z" fill="#89d1fa" stroke="black" stroke-linecap="round" stroke-linejoin="round" stroke-width="1.0" /><path d="M 214.4592077180256,2.000000000000001 L 213.06222278149943,2.000000000000001 L 210.80622278149943,7.000000000000001 L 213.06222278149943,12.000000000000002 L 214.4592077180256,12.000000000000002 z" fill="#89d1fa" stroke="black" stroke-linecap="round" stroke-linejoin="round" stroke-width="1.0" /><path d="M 215.02744981926298,-12.0 L 230.3057775145885,-12.0 L 232.5617775145885,-7.0 L 230.3057775145885,-2.0 L 215.02744981926298,-2.0 z" fill="#89d1fa" stroke="black" stroke-linecap="round" stroke-linejoin="round" stroke-width="1.0" /><path d="M 261.32178590374673,2.000000000000001 L 233.69289008968997,2.000000000000001 L 231.43689008968997,7.000000000000001 L 233.69289008968997,12.000000000000002 L 261.32178590374673,12.000000000000002 z" fill="#89d1fa" stroke="black" stroke-linecap="round" stroke-linejoin="round" stroke-width="1.0" /><path d="M 262.49306043895035,-12.0 L 262.8757540989674,-12.0 L 262.8757540989674,-2.0 L 262.49306043895035,-2.0 z" fill="#89d1fa" stroke="black" stroke-linecap="round" stroke-linejoin="round" stroke-width="1.0" /><path d="M 262.8873508765437,-7.0 L263.75710919476415,-7.0 z" fill="none" stroke="gray" stroke-linecap="round" stroke-linejoin="round" stroke-width="1.0" /><path d="M 263.76870597234046,-12.0 L 268.29682085446046,-12.0 L 270.55282085446044,-7.0 L 268.29682085446046,-2.0 L 263.76870597234046,-2.0 z" fill="#89d1fa" stroke="black" stroke-linecap="round" stroke-linejoin="round" stroke-width="1.0" /><path d="M 270.6919821853757,-12.0 L 273.4457900983259,-12.0 L 275.7017900983259,-7.0 L 273.4457900983259,-2.0 L 270.6919821853757,-2.0 z" fill="#89d1fa" stroke="black" stroke-linecap="round" stroke-linejoin="round" stroke-width="1.0" /><path d="M 276.641129082004,-12.0 L 278.14248501671665,-12.0 L 280.3984850167166,-7.0 L 278.14248501671665,-2.0 L 276.641129082004,-2.0 z" fill="#89d1fa" stroke="black" stroke-linecap="round" stroke-linejoin="round" stroke-width="1.0" /><path d="M 281.5233724416152,-12.0 L 300.5242657389245,-12.0 L 302.78026573892447,-7.0 L 300.5242657389245,-2.0 L 281.5233724416152,-2.0 z" fill="#89d1fa" stroke="black" stroke-linecap="round" stroke-linejoin="round" stroke-width="1.0" /><path d="M 309.99346139136657,2.000000000000001 L 313.66963988304525,2.000000000000001 L 313.66963988304525,12.000000000000002 L 309.99346139136657,12.000000000000002 z" fill="#89d1fa" stroke="black" stroke-linecap="round" stroke-linejoin="round" stroke-width="1.0" /><path d="M 308.1611705343153,7.000000000000001 L309.9818646137903,7.000000000000001 z" fill="none" stroke="gray" stroke-linecap="round" stroke-linejoin="round" stroke-width="1.0" /><path d="M 307.3030089936711,2.000000000000001 L 308.1495737567391,2.000000000000001 L 308.1495737567391,12.000000000000002 L 307.3030089936711,12.000000000000002 z" fill="#89d1fa" stroke="black" stroke-linecap="round" stroke-linejoin="round" stroke-width="1.0" /><path d="M 305.3315568057046,7.000000000000001 L307.29141221609484,7.000000000000001 z" fill="none" stroke="gray" stroke-linecap="round" stroke-linejoin="round" stroke-width="1.0" /><path d="M 305.3199600281284,2.000000000000001 L 303.1629593989415,7.000000000000001 L 305.3199600281284,12.000000000000002 z" fill="#89d1fa" stroke="black" stroke-linecap="round" stroke-linejoin="round" stroke-width="1.0" /><path d="M 326.9363534303021,2.000000000000001 L 329.5920154952688,2.000000000000001 L 329.5920154952688,12.000000000000002 L 326.9363534303021,12.000000000000002 z" fill="#89d1fa" stroke="black" stroke-linecap="round" stroke-linejoin="round" stroke-width="1.0" /><path d="M 325.9390305587426,7.000000000000001 L326.9247566527259,7.000000000000001 z" fill="none" stroke="gray" stroke-linecap="round" stroke-linejoin="round" stroke-width="1.0" /><path d="M 325.92743378116637,2.000000000000001 L 319.1843343819781,2.000000000000001 L 316.9283343819781,7.000000000000001 L 319.1843343819781,12.000000000000002 L 325.92743378116637,12.000000000000002 z" fill="#89d1fa" stroke="black" stroke-linecap="round" stroke-linejoin="round" stroke-width="1.0" /><path d="M 353.52776441269725,2.000000000000001 L 345.52061625769517,2.000000000000001 L 343.2646162576952,7.000000000000001 L 345.52061625769517,12.000000000000002 L 353.52776441269725,12.000000000000002 z" fill="#89d1fa" stroke="black" stroke-linecap="round" stroke-linejoin="round" stroke-width="1.0" /><path d="M 370.1691402346497,2.000000000000001 L 358.85691047040973,2.000000000000001 L 356.60091047040976,7.000000000000001 L 358.85691047040973,12.000000000000002 L 370.1691402346497,12.000000000000002 z" fill="#89d1fa" stroke="black" stroke-linecap="round" stroke-linejoin="round" stroke-width="1.0" /><path d="M 387.9006131487718,2.000000000000001 L 375.02281841173493,2.000000000000001 L 372.76681841173496,7.000000000000001 L 375.02281841173493,12.000000000000002 L 387.9006131487718,12.000000000000002 z" fill="#89d1fa" stroke="black" stroke-linecap="round" stroke-linejoin="round" stroke-width="1.0" /><path d="M 405.3537634010634,2.000000000000001 L 390.1798067039243,2.000000000000001 L 387.92380670392436,7.000000000000001 L 390.1798067039243,12.000000000000002 L 405.3537634010634,12.000000000000002 z" fill="#89d1fa" stroke="black" stroke-linecap="round" stroke-linejoin="round" stroke-width="1.0" /><path d="M 411.2101360770816,2.000000000000001 L 406.403698533131,2.000000000000001 L 404.147698533131,7.000000000000001 L 406.403698533131,12.000000000000002 L 411.2101360770816,12.000000000000002 z" fill="#89d1fa" stroke="black" stroke-linecap="round" stroke-linejoin="round" stroke-width="1.0" /><path d="M 421.96034889028704,2.000000000000001 L 413.7792490716409,2.000000000000001 L 411.5232490716409,7.000000000000001 L 413.7792490716409,12.000000000000002 L 421.96034889028704,12.000000000000002 z" fill="#89d1fa" stroke="black" stroke-linecap="round" stroke-linejoin="round" stroke-width="1.0" /><path d="M 426.49468892261,2.000000000000001 L 425.654349309745,2.000000000000001 L 423.398349309745,7.000000000000001 L 425.654349309745,12.000000000000002 L 426.49468892261,12.000000000000002 z" fill="#89d1fa" stroke="black" stroke-linecap="round" stroke-linejoin="round" stroke-width="1.0" /><path d="M 428.7212702172545,2.000000000000001 L 426.7034309189829,7.000000000000001 L 428.7212702172545,12.000000000000002 z" fill="#89d1fa" stroke="black" stroke-linecap="round" stroke-linejoin="round" stroke-width="1.0" /><path d="M 439.935354133511,2.000000000000001 L 431.16281865847486,2.000000000000001 L 428.9068186584749,7.000000000000001 L 431.16281865847486,12.000000000000002 L 439.935354133511,12.000000000000002 z" fill="#89d1fa" stroke="black" stroke-linecap="round" stroke-linejoin="round" stroke-width="1.0" /><path d="M 451.4741478219031,2.000000000000001 L 443.4322093341722,2.000000000000001 L 441.17620933417226,7.000000000000001 L 443.4322093341722,12.000000000000002 L 451.4741478219031,12.000000000000002 z" fill="#89d1fa" stroke="black" stroke-linecap="round" stroke-linejoin="round" stroke-width="1.0" /><path d="M 464.09144182488865,2.000000000000001 L 453.5793897134115,2.000000000000001 L 451.32338971341153,7.000000000000001 L 453.5793897134115,12.000000000000002 L 464.09144182488865,12.000000000000002 z" fill="#89d1fa" stroke="black" stroke-linecap="round" stroke-linejoin="round" stroke-width="1.0" /><path d="M 493.4312890928606,2.000000000000001 L 467.68107124616006,2.000000000000001 L 465.4250712461601,7.000000000000001 L 467.68107124616006,12.000000000000002 L 493.4312890928606,12.000000000000002 z" fill="#89d1fa" stroke="black" stroke-linecap="round" stroke-linejoin="round" stroke-width="1.0" /><path d="M 504.1235180181847,2.000000000000001 L 495.94241819953857,2.000000000000001 L 493.6864181995386,7.000000000000001 L 495.94241819953857,12.000000000000002 L 504.1235180181847,12.000000000000002 z" fill="#89d1fa" stroke="black" stroke-linecap="round" stroke-linejoin="round" stroke-width="1.0" /><path d="M 498.63824222460744,-12.0 L 534.0601725699199,-12.0 L 536.3161725699199,-7.0 L 534.0601725699199,-2.0 L 498.63824222460744,-2.0 z" fill="#89d1fa" stroke="black" stroke-linecap="round" stroke-linejoin="round" stroke-width="1.0" /><path d="M 536.5133177887166,-12.0 L 606.5516291992055,-12.0 L 608.8076291992055,-7.0 L 606.5516291992055,-2.0 L 536.5133177887166,-2.0 z" fill="#89d1fa" stroke="black" stroke-linecap="round" stroke-linejoin="round" stroke-width="1.0" /><path d="M 612.7853239078673,2.000000000000001 L 611.9101939622734,2.000000000000001 L 609.6541939622734,7.000000000000001 L 611.9101939622734,12.000000000000002 L 612.7853239078673,12.000000000000002 z" fill="#89d1fa" stroke="black" stroke-linecap="round" stroke-linejoin="round" stroke-width="1.0" /><path d="M 629.183167400718,2.000000000000001 L 615.0529206854436,2.000000000000001 L 612.7969206854436,7.000000000000001 L 615.0529206854436,12.000000000000002 L 629.183167400718,12.000000000000002 z" fill="#89d1fa" stroke="black" stroke-linecap="round" stroke-linejoin="round" stroke-width="1.0" /><path d="M 638.2402506877876,2.000000000000001 L 630.8593285219043,2.000000000000001 L 628.6033285219044,7.000000000000001 L 630.8593285219043,12.000000000000002 L 638.2402506877876,12.000000000000002 z" fill="#89d1fa" stroke="black" stroke-linecap="round" stroke-linejoin="round" stroke-width="1.0" /><path d="M 642.1483647309917,2.000000000000001 L 640.6817991290079,2.000000000000001 L 638.4257991290079,7.000000000000001 L 640.6817991290079,12.000000000000002 L 642.1483647309917,12.000000000000002 z" fill="#89d1fa" stroke="black" stroke-linecap="round" stroke-linejoin="round" stroke-width="1.0" /><path d="M 642.1251711758392,-12.0 L 656.7424825493172,-12.0 L 658.9984825493171,-7.0 L 656.7424825493172,-2.0 L 642.1251711758392,-2.0 z" fill="#89d1fa" stroke="black" stroke-linecap="round" stroke-linejoin="round" stroke-width="1.0" /><path d="M 659.0332728820459,-12.0 L 665.9967110551834,-12.0 L 668.2527110551833,-7.0 L 665.9967110551834,-2.0 L 659.0332728820459,-2.0 z" fill="#89d1fa" stroke="black" stroke-linecap="round" stroke-linejoin="round" stroke-width="1.0" /><path d="M 704.0171731004108,2.000000000000001 L 671.0305660461157,2.000000000000001 L 668.7745660461158,7.000000000000001 L 671.0305660461157,12.000000000000002 L 704.0171731004108,12.000000000000002 z" fill="#89d1fa" stroke="black" stroke-linecap="round" stroke-linejoin="round" stroke-width="1.0" /><path d="M 732.9163428204844,2.000000000000001 L 706.2615763228346,2.000000000000001 L 704.0055763228346,7.000000000000001 L 706.2615763228346,12.000000000000002 L 732.9163428204844,12.000000000000002 z" fill="#89d1fa" stroke="black" stroke-linecap="round" stroke-linejoin="round" stroke-width="1.0" /><path d="M 757.663866168252,2.000000000000001 L 734.6272942743994,2.000000000000001 L 732.3712942743995,7.000000000000001 L 734.6272942743994,12.000000000000002 L 757.663866168252,12.000000000000002 z" fill="#89d1fa" stroke="black" stroke-linecap="round" stroke-linejoin="round" stroke-width="1.0" /><path d="M 797.1624905930395,2.000000000000001 L 760.0010436112858,2.000000000000001 L 757.7450436112858,7.000000000000001 L 760.0010436112858,12.000000000000002 L 797.1624905930395,12.000000000000002 z" fill="#89d1fa" stroke="black" stroke-linecap="round" stroke-linejoin="round" stroke-width="1.0" /><path d="M 830.9439036727241,2.000000000000001 L 815.2133016519239,2.000000000000001 L 812.9573016519239,7.000000000000001 L 815.2133016519239,12.000000000000002 L 830.9439036727241,12.000000000000002 z" fill="#89d1fa" stroke="black" stroke-linecap="round" stroke-linejoin="round" stroke-width="1.0" /><path d="M 863.4960583293238,2.000000000000001 L 835.7975818498094,2.000000000000001 L 833.5415818498094,7.000000000000001 L 835.7975818498094,12.000000000000002 L 863.4960583293238,12.000000000000002 z" fill="#89d1fa" stroke="black" stroke-linecap="round" stroke-linejoin="round" stroke-width="1.0" /><path d="M 863.9599294323747,-12.0 L 869.7752866254611,-12.0 L 872.0312866254611,-7.0 L 869.7752866254611,-2.0 L 863.9599294323747,-2.0 z" fill="#89d1fa" stroke="black" stroke-linecap="round" stroke-linejoin="round" stroke-width="1.0" /><path d="M 884.5210160751076,2.000000000000001 L 873.6610606363423,2.000000000000001 L 871.4050606363423,7.000000000000001 L 873.6610606363423,12.000000000000002 L 884.5210160751076,12.000000000000002 z" fill="#89d1fa" stroke="black" stroke-linecap="round" stroke-linejoin="round" stroke-width="1.0" /><path d="M 885.3559840605993,-12.0 L 886.0571623425491,-12.0 L 888.313162342549,-7.0 L 886.0571623425491,-2.0 L 885.3559840605993,-2.0 z" fill="#89d1fa" stroke="black" stroke-linecap="round" stroke-linejoin="round" stroke-width="1.0" /><path d="M 916.1338317480291,2.000000000000001 L 892.6797758614308,2.000000000000001 L 890.4237758614308,7.000000000000001 L 892.6797758614308,12.000000000000002 L 916.1338317480291,12.000000000000002 z" fill="#89d1fa" stroke="black" stroke-linecap="round" stroke-linejoin="round" stroke-width="1.0" /><path d="M 943.386259052272,2.000000000000001 L 921.4629778057416,2.000000000000001 L 919.2069778057416,7.000000000000001 L 921.4629778057416,12.000000000000002 L 943.386259052272,12.000000000000002 z" fill="#89d1fa" stroke="black" stroke-linecap="round" stroke-linejoin="round" stroke-width="1.0" /><path d="M 945.2185499093231,-12.0 L 951.7645040897147,-12.0 L 954.0205040897147,-7.0 L 951.7645040897147,-2.0 L 945.2185499093231,-2.0 z" fill="#89d1fa" stroke="black" stroke-linecap="round" stroke-linejoin="round" stroke-width="1.0" /><path d="M 951.4228259126295,-12.0 L 968.5102509098535,-12.0 L 970.7662509098535,-7.0 L 968.5102509098535,-2.0 L 951.4228259126295,-2.0 z" fill="#89d1fa" stroke="black" stroke-linecap="round" stroke-linejoin="round" stroke-width="1.0" /><path d="M 971.891138334752,-12.0 L 980.1418188188558,-12.0 L 982.3978188188557,-7.0 L 980.1418188188558,-2.0 L 971.891138334752,-2.0 z" fill="#89d1fa" stroke="black" stroke-linecap="round" stroke-linejoin="round" stroke-width="1.0" /><path d="M 991.6172569919933,2.000000000000001 L 984.8625608152288,2.000000000000001 L 982.6065608152288,7.000000000000001 L 984.8625608152288,12.000000000000002 L 991.6172569919933,12.000000000000002 z" fill="#89d1fa" stroke="black" stroke-linecap="round" stroke-linejoin="round" stroke-width="1.0" /><path d="M 991.686837657451,-12.0 L 1007.8349236709969,-12.0 L 1010.0909236709969,-7.0 L 1007.8349236709969,-2.0 L 991.686837657451,-2.0 z" fill="#89d1fa" stroke="black" stroke-linecap="round" stroke-linejoin="round" stroke-width="1.0" /><path d="M 1028.8081226791023,2.000000000000001 L 1015.060569623845,2.000000000000001 L 1012.804569623845,7.000000000000001 L 1015.060569623845,12.000000000000002 L 1028.8081226791023,12.000000000000002 z" fill="#89d1fa" stroke="black" stroke-linecap="round" stroke-linejoin="round" stroke-width="1.0" /><path d="M 1046.852708587784,2.000000000000001 L 1031.9570745524754,2.000000000000001 L 1029.7010745524753,7.000000000000001 L 1031.9570745524754,12.000000000000002 L 1046.852708587784,12.000000000000002 z" fill="#89d1fa" stroke="black" stroke-linecap="round" stroke-linejoin="round" stroke-width="1.0" /><path d="M 1057.1854374082436,2.000000000000001 L 1049.1087085877841,2.000000000000001 L 1046.852708587784,7.000000000000001 L 1049.1087085877841,12.000000000000002 L 1057.1854374082436,12.000000000000002 z" fill="#89d1fa" stroke="black" stroke-linecap="round" stroke-linejoin="round" stroke-width="1.0" /><path d="M 1104.024822038812,2.000000000000001 L 1059.45303418582,2.000000000000001 L 1057.1970341858198,7.000000000000001 L 1059.45303418582,12.000000000000002 L 1104.024822038812,12.000000000000002 z" fill="#89d1fa" stroke="black" stroke-linecap="round" stroke-linejoin="round" stroke-width="1.0" /><path d="M 1104.152386592151,-12.0 L 1128.7893137915294,-12.0 L 1131.0453137915295,-7.0 L 1128.7893137915294,-2.0 L 1104.152386592151,-2.0 z" fill="#89d1fa" stroke="black" stroke-linecap="round" stroke-linejoin="round" stroke-width="1.0" /><path d="M 1130.9989266812242,-12.0 L 1140.9543334690402,-12.0 L 1143.2103334690403,-7.0 L 1140.9543334690402,-2.0 L 1130.9989266812242,-2.0 z" fill="#89d1fa" stroke="black" stroke-linecap="round" stroke-linejoin="round" stroke-width="1.0" /><path d="M 1193.435977151881,2.000000000000001 L 1203.5599639759675,2.000000000000001 L 1203.5599639759675,12.000000000000002 L 1193.435977151881,12.000000000000002 z" fill="#89d1fa" stroke="black" stroke-linecap="round" stroke-linejoin="round" stroke-width="1.0" /><path d="M 1156.256708242348,7.000000000000001 L1193.4243803743045,7.000000000000001 z" fill="none" stroke="gray" stroke-linecap="round" stroke-linejoin="round" stroke-width="1.0" /><path d="M 1156.2451114647718,2.000000000000001 L 1145.4199463587352,2.000000000000001 L 1143.163946358735,7.000000000000001 L 1145.4199463587352,12.000000000000002 L 1156.2451114647718,12.000000000000002 z" fill="#89d1fa" stroke="black" stroke-linecap="round" stroke-linejoin="round" stroke-width="1.0" /><path d="M 1156.3726760181107,-12.0 L 1157.1782252982468,-12.0 L 1159.434225298247,-7.0 L 1157.1782252982468,-2.0 L 1156.3726760181107,-2.0 z" fill="#89d1fa" stroke="black" stroke-linecap="round" stroke-linejoin="round" stroke-width="1.0" /><path d="M 1158.7500154212466,-12.0 L 1164.1130982888583,-12.0 L 1166.3690982888584,-7.0 L 1164.1130982888583,-2.0 L 1158.7500154212466,-2.0 z" fill="#89d1fa" stroke="black" stroke-linecap="round" stroke-linejoin="round" stroke-width="1.0" /><path d="M 1166.1023724046042,-12.0 L 1179.2584898034715,-12.0 L 1181.5144898034716,-7.0 L 1179.2584898034715,-2.0 L 1166.1023724046042,-2.0 z" fill="#89d1fa" stroke="black" stroke-linecap="round" stroke-linejoin="round" stroke-width="1.0" /><path d="M 1181.0042315901155,-12.0 L 1190.4377833869992,-12.0 L 1192.6937833869993,-7.0 L 1190.4377833869992,-2.0 L 1181.0042315901155,-2.0 z" fill="#89d1fa" stroke="black" stroke-linecap="round" stroke-linejoin="round" stroke-width="1.0" /><path d="M 1203.2236574262556,-12.0 L 1213.283435212258,-12.0 L 1215.539435212258,-7.0 L 1213.283435212258,-2.0 L 1203.2236574262556,-2.0 z" fill="#89d1fa" stroke="black" stroke-linecap="round" stroke-linejoin="round" stroke-width="1.0" /><path d="M 1215.5278384346816,-12.0 L 1217.272726698496,-12.0 L 1219.528726698496,-7.0 L 1217.272726698496,-2.0 L 1215.5278384346816,-2.0 z" fill="#89d1fa" stroke="black" stroke-linecap="round" stroke-linejoin="round" stroke-width="1.0" /><path d="M 1219.5519202536486,-12.0 L 1236.9176679127033,-12.0 L 1239.1736679127034,-7.0 L 1236.9176679127033,-2.0 L 1219.5519202536486,-2.0 z" fill="#89d1fa" stroke="black" stroke-linecap="round" stroke-linejoin="round" stroke-width="1.0" /><path d="M 1239.2548453557374,-12.0 L 1254.0113180601304,-12.0 L 1256.2673180601305,-7.0 L 1254.0113180601304,-2.0 L 1239.2548453557374,-2.0 z" fill="#89d1fa" stroke="black" stroke-linecap="round" stroke-linejoin="round" stroke-width="1.0" /><path d="M 1255.525124295249,-12.0 L 1256.1219315790122,-12.0 L 1258.3779315790123,-7.0 L 1256.1219315790122,-2.0 L 1255.525124295249,-2.0 z" fill="#89d1fa" stroke="black" stroke-linecap="round" stroke-linejoin="round" stroke-width="1.0" /><path d="M 1271.3199353541336,2.000000000000001 L 1261.5732705626906,2.000000000000001 L 1259.3172705626905,7.000000000000001 L 1261.5732705626906,12.000000000000002 L 1271.3199353541336,12.000000000000002 z" fill="#89d1fa" stroke="black" stroke-linecap="round" stroke-linejoin="round" stroke-width="1.0" /><path d="M 1271.4590966850487,-12.0 L 1296.3743465462574,-12.0 L 1298.6303465462574,-7.0 L 1296.3743465462574,-2.0 L 1271.4590966850487,-2.0 z" fill="#89d1fa" stroke="black" stroke-linecap="round" stroke-linejoin="round" stroke-width="1.0" /><path d="M 1298.259249663817,-12.0 L 1319.0692402630245,-12.0 L 1321.3252402630246,-7.0 L 1319.0692402630245,-2.0 L 1298.259249663817,-2.0 z" fill="#89d1fa" stroke="black" stroke-linecap="round" stroke-linejoin="round" stroke-width="1.0" /><path d="M 1330.4171138828233,2.000000000000001 L 1323.975530700618,2.000000000000001 L 1321.719530700618,7.000000000000001 L 1323.975530700618,12.000000000000002 L 1330.4171138828233,12.000000000000002 z" fill="#89d1fa" stroke="black" stroke-linecap="round" stroke-linejoin="round" stroke-width="1.0" /><path d="M 1352.416200945014,2.000000000000001 L 1331.6062103458062,2.000000000000001 L 1329.350210345806,7.000000000000001 L 1331.6062103458062,12.000000000000002 L 1352.416200945014,12.000000000000002 z" fill="#89d1fa" stroke="black" stroke-linecap="round" stroke-linejoin="round" stroke-width="1.0" /><path d="M 1350.0272647643017,-12.0 L 1376.4732892655784,-12.0 L 1378.7292892655785,-7.0 L 1376.4732892655784,-2.0 L 1350.0272647643017,-2.0 z" fill="#89d1fa" stroke="black" stroke-linecap="round" stroke-linejoin="round" stroke-width="1.0" /><path d="M 1381.6168868820707,-12.0 L 1382.144113500376,-12.0 L 1384.4001135003762,-7.0 L 1382.144113500376,-2.0 L 1381.6168868820707,-2.0 z" fill="#89d1fa" stroke="black" stroke-linecap="round" stroke-linejoin="round" stroke-width="1.0" /><path d="M 1401.2966184290067,-12.0 L 1401.6846837163969,-12.0 L 1403.940683716397,-7.0 L 1401.6846837163969,-2.0 L 1401.2966184290067,-2.0 z" fill="#89d1fa" stroke="black" stroke-linecap="round" stroke-linejoin="round" stroke-width="1.0" /><path d="M 1408.8345238535844,-12.0 L 1416.1520905042132,-12.0 L 1416.1520905042132,-2.0 L 1408.8345238535844,-2.0 z" fill="#89d1fa" stroke="black" stroke-linecap="round" stroke-linejoin="round" stroke-width="1.0" /><path d="M 1416.1636872817892,-7.0 L1417.2537843739592,-7.0 z" fill="none" stroke="gray" stroke-linecap="round" stroke-linejoin="round" stroke-width="1.0" /><path d="M 1417.2653811515352,-12.0 L 1419.5847366667901,-12.0 L 1419.5847366667901,-2.0 L 1417.2653811515352,-2.0 z" fill="#89d1fa" stroke="black" stroke-linecap="round" stroke-linejoin="round" stroke-width="1.0" /><path d="M 1419.5963334443663,-7.0 L1420.5240756504681,-7.0 z" fill="none" stroke="gray" stroke-linecap="round" stroke-linejoin="round" stroke-width="1.0" /><path d="M 1420.5356724280446,-12.0 L 1425.376900304724,-12.0 L 1427.632900304724,-7.0 L 1425.376900304724,-2.0 L 1420.5356724280446,-2.0 z" fill="#89d1fa" stroke="black" stroke-linecap="round" stroke-linejoin="round" stroke-width="1.0" /><path d="M 1437.0378869190818,2.000000000000001 L 1430.3875617405035,2.000000000000001 L 1428.1315617405035,7.000000000000001 L 1430.3875617405035,12.000000000000002 L 1437.0378869190818,12.000000000000002 z" fill="#89d1fa" stroke="black" stroke-linecap="round" stroke-linejoin="round" stroke-width="1.0" /><path d="M 1446.640018752236,2.000000000000001 L 1440.1636452373023,2.000000000000001 L 1437.9076452373022,7.000000000000001 L 1440.1636452373023,12.000000000000002 L 1446.640018752236,12.000000000000002 z" fill="#89d1fa" stroke="black" stroke-linecap="round" stroke-linejoin="round" stroke-width="1.0" /><path d="M 1447.5097770704567,-12.0 L 1449.219875001542,-12.0 L 1451.4758750015421,-7.0 L 1449.219875001542,-2.0 L 1447.5097770704567,-2.0 z" fill="#89d1fa" stroke="black" stroke-linecap="round" stroke-linejoin="round" stroke-width="1.0" /><path d="M 1464.6266207730364,2.000000000000001 L 1454.949536647051,2.000000000000001 L 1452.693536647051,7.000000000000001 L 1454.949536647051,12.000000000000002 L 1464.6266207730364,12.000000000000002 z" fill="#89d1fa" stroke="black" stroke-linecap="round" stroke-linejoin="round" stroke-width="1.0" /><path d="M 1475.1333012571401,2.000000000000001 L 1467.1957337675958,2.000000000000001 L 1464.9397337675957,7.000000000000001 L 1467.1957337675958,12.000000000000002 L 1475.1333012571401,12.000000000000002 z" fill="#89d1fa" stroke="black" stroke-linecap="round" stroke-linejoin="round" stroke-width="1.0" /><path d="M 1529.6265590880491,2.000000000000001 L 1478.9664630075133,2.000000000000001 L 1476.7104630075132,7.000000000000001 L 1478.9664630075133,12.000000000000002 L 1529.6265590880491,12.000000000000002 z" fill="#89d1fa" stroke="black" stroke-linecap="round" stroke-linejoin="round" stroke-width="1.0" /><path d="M 1496.5061623302122,-12.0 L 1503.881712868722,-12.0 L 1503.881712868722,-2.0 L 1496.5061623302122,-2.0 z" fill="#d3d3d3" stroke="black" stroke-linecap="round" stroke-linejoin="round" stroke-width="1.0" /><path d="M 1548.1698064325105,-12.0 L 1552.3794366926977,-12.0 L 1552.3794366926977,-2.0 L 1548.1698064325105,-2.0 z" fill="#d3d3d3" stroke="black" stroke-linecap="round" stroke-linejoin="round" stroke-width="1.0" /><path d="M 1553.747856446698,-12.0 L 1554.849550316444,-12.0 L 1554.849550316444,-2.0 L 1553.747856446698,-2.0 z" fill="#d3d3d3" stroke="black" stroke-linecap="round" stroke-linejoin="round" stroke-width="1.0" /><path d="M 1604.3098066792504,2.000000000000001 L 1605.4115005489964,2.000000000000001 L 1605.4115005489964,12.000000000000002 L 1604.3098066792504,12.000000000000002 z" fill="#89d1fa" stroke="black" stroke-linecap="round" stroke-linejoin="round" stroke-width="1.0" /><path d="M 1603.3124838076908,7.000000000000001 L1604.2982099016742,7.000000000000001 z" fill="none" stroke="gray" stroke-linecap="round" stroke-linejoin="round" stroke-width="1.0" /><path d="M 1600.8423701839447,2.000000000000001 L 1603.3008870301146,2.000000000000001 L 1603.3008870301146,12.000000000000002 L 1600.8423701839447,12.000000000000002 z" fill="#89d1fa" stroke="black" stroke-linecap="round" stroke-linejoin="round" stroke-width="1.0" /><path d="M 1599.578321428131,7.000000000000001 L1600.8307734063683,7.000000000000001 z" fill="none" stroke="gray" stroke-linecap="round" stroke-linejoin="round" stroke-width="1.0" /><path d="M 1599.5667246505545,2.000000000000001 L 1567.8441663520734,2.000000000000001 L 1565.5881663520734,7.000000000000001 L 1567.8441663520734,12.000000000000002 L 1599.5667246505545,12.000000000000002 z" fill="#89d1fa" stroke="black" stroke-linecap="round" stroke-linejoin="round" stroke-width="1.0" /><path d="M 1607.1974042957427,-12.0 L 1609.8182760279803,-12.0 L 1609.8182760279803,-2.0 L 1607.1974042957427,-2.0 z" fill="#89d1fa" stroke="black" stroke-linecap="round" stroke-linejoin="round" stroke-width="1.0" /><path d="M 1609.8298728055565,-7.0 L1611.070728006218,-7.0 z" fill="none" stroke="gray" stroke-linecap="round" stroke-linejoin="round" stroke-width="1.0" /><path d="M 1611.082324783794,-12.0 L 1611.667535289981,-12.0 L 1613.9235352899811,-7.0 L 1611.667535289981,-2.0 L 1611.082324783794,-2.0 z" fill="#89d1fa" stroke="black" stroke-linecap="round" stroke-linejoin="round" stroke-width="1.0" /><path d="M 1624.4881996619663,-12.0 L 1654.75578913604,-12.0 L 1654.75578913604,-2.0 L 1624.4881996619663,-2.0 z" fill="#d3d3d3" stroke="black" stroke-linecap="round" stroke-linejoin="round" stroke-width="1.0" /><path d="M 1655.6255474542606,2.000000000000001 L 1648.6273189483943,2.000000000000001 L 1646.3713189483942,7.000000000000001 L 1648.6273189483943,12.000000000000002 L 1655.6255474542606,12.000000000000002 z" fill="#89d1fa" stroke="black" stroke-linecap="round" stroke-linejoin="round" stroke-width="1.0" /><path d="M 1676.4881503139766,2.000000000000001 L 1661.6620969441258,2.000000000000001 L 1659.4060969441257,7.000000000000001 L 1661.6620969441258,12.000000000000002 L 1676.4881503139766,12.000000000000002 z" fill="#89d1fa" stroke="black" stroke-linecap="round" stroke-linejoin="round" stroke-width="1.0" /><path d="M 1677.3463118546208,-12.0 L 1717.2909854546801,-12.0 L 1719.5469854546802,-7.0 L 1717.2909854546801,-2.0 L 1677.3463118546208,-2.0 z" fill="#89d1fa" stroke="black" stroke-linecap="round" stroke-linejoin="round" stroke-width="1.0" /><path d="M 1762.0027881614171,2.000000000000001 L 1766.4791443058589,2.000000000000001 L 1766.4791443058589,12.000000000000002 L 1762.0027881614171,12.000000000000002 z" fill="#89d1fa" stroke="black" stroke-linecap="round" stroke-linejoin="round" stroke-width="1.0" /><path d="M 1760.4836102989254,7.000000000000001 L1761.9911913838412,7.000000000000001 z" fill="none" stroke="gray" stroke-linecap="round" stroke-linejoin="round" stroke-width="1.0" /><path d="M 1757.20172224484,2.000000000000001 L 1760.472013521349,2.000000000000001 L 1760.472013521349,12.000000000000002 L 1757.20172224484,12.000000000000002 z" fill="#89d1fa" stroke="black" stroke-linecap="round" stroke-linejoin="round" stroke-width="1.0" /><path d="M 1752.5282208816018,7.000000000000001 L1757.190125467264,7.000000000000001 z" fill="none" stroke="gray" stroke-linecap="round" stroke-linejoin="round" stroke-width="1.0" /><path d="M 1748.6201068383978,2.000000000000001 L 1752.5166241040256,2.000000000000001 L 1752.5166241040256,12.000000000000002 L 1748.6201068383978,12.000000000000002 z" fill="#89d1fa" stroke="black" stroke-linecap="round" stroke-linejoin="round" stroke-width="1.0" /><path d="M 1747.2284935292448,7.000000000000001 L1748.6085100608213,7.000000000000001 z" fill="none" stroke="gray" stroke-linecap="round" stroke-linejoin="round" stroke-width="1.0" /><path d="M 1746.3123481007192,2.000000000000001 L 1747.2168967516686,2.000000000000001 L 1747.2168967516686,12.000000000000002 L 1746.3123481007192,12.000000000000002 z" fill="#89d1fa" stroke="black" stroke-linecap="round" stroke-linejoin="round" stroke-width="1.0" /><path d="M 1745.0482993449054,7.000000000000001 L1746.3007513231428,7.000000000000001 z" fill="none" stroke="gray" stroke-linecap="round" stroke-linejoin="round" stroke-width="1.0" /><path d="M 1743.7842505890917,2.000000000000001 L 1745.036702567329,2.000000000000001 L 1745.036702567329,12.000000000000002 L 1743.7842505890917,12.000000000000002 z" fill="#89d1fa" stroke="black" stroke-linecap="round" stroke-linejoin="round" stroke-width="1.0" /><path d="M 1742.6825567193457,7.000000000000001 L1743.7726538115153,7.000000000000001 z" fill="none" stroke="gray" stroke-linecap="round" stroke-linejoin="round" stroke-width="1.0" /><path d="M 1741.3489272980742,2.000000000000001 L 1742.6709599417693,2.000000000000001 L 1742.6709599417693,12.000000000000002 L 1741.3489272980742,12.000000000000002 z" fill="#89d1fa" stroke="black" stroke-linecap="round" stroke-linejoin="round" stroke-width="1.0" /><path d="M 1739.6210074392093,7.000000000000001 L1741.337330520498,7.000000000000001 z" fill="none" stroke="gray" stroke-linecap="round" stroke-linejoin="round" stroke-width="1.0" /><path d="M 1737.742329471853,2.000000000000001 L 1739.609410661633,2.000000000000001 L 1739.609410661633,12.000000000000002 L 1737.742329471853,12.000000000000002 z" fill="#89d1fa" stroke="black" stroke-linecap="round" stroke-linejoin="round" stroke-width="1.0" /><path d="M 1731.885956795835,7.000000000000001 L1737.7307326942769,7.000000000000001 z" fill="none" stroke="gray" stroke-linecap="round" stroke-linejoin="round" stroke-width="1.0" /><path d="M 1731.758392242496,2.000000000000001 L 1731.8743600182586,2.000000000000001 L 1731.8743600182586,12.000000000000002 L 1731.758392242496,12.000000000000002 z" fill="#89d1fa" stroke="black" stroke-linecap="round" stroke-linejoin="round" stroke-width="1.0" /><path d="M 1729.891311052716,7.000000000000001 L1731.7467954649196,7.000000000000001 z" fill="none" stroke="gray" stroke-linecap="round" stroke-linejoin="round" stroke-width="1.0" /><path d="M 1728.3837299678005,2.000000000000001 L 1729.8797142751398,2.000000000000001 L 1729.8797142751398,12.000000000000002 L 1728.3837299678005,12.000000000000002 z" fill="#89d1fa" stroke="black" stroke-linecap="round" stroke-linejoin="round" stroke-width="1.0" /><path d="M 1726.8993424380374,7.000000000000001 L1728.372133190224,7.000000000000001 z" fill="none" stroke="gray" stroke-linecap="round" stroke-linejoin="round" stroke-width="1.0" /><path d="M 1726.8877456604612,2.000000000000001 L 1726.2793415991218,2.000000000000001 L 1724.0233415991217,7.000000000000001 L 1726.2793415991218,12.000000000000002 L 1726.8877456604612,12.000000000000002 z" fill="#89d1fa" stroke="black" stroke-linecap="round" stroke-linejoin="round" stroke-width="1.0" /><path d="M 1777.2293571190644,2.000000000000001 L 1775.7627915170806,2.000000000000001 L 1773.5067915170805,7.000000000000001 L 1775.7627915170806,12.000000000000002 L 1777.2293571190644,12.000000000000002 z" fill="#89d1fa" stroke="black" stroke-linecap="round" stroke-linejoin="round" stroke-width="1.0" /><path d="M 1778.0295347718272,-12.0 L 1880.0,-12.0 L 1880.0,-2.0 L 1778.0295347718272,-2.0 z" fill="#d3d3d3" stroke="black" stroke-linecap="round" stroke-linejoin="round" stroke-width="1.0" /><path d="M 1778.702147871251,-12.0 L 1782.1231972562518,-12.0 L 1782.1231972562518,-2.0 L 1778.702147871251,-2.0 z" fill="#d3d3d3" stroke="black" stroke-linecap="round" stroke-linejoin="round" stroke-width="1.0" /><path d="M 1784.7788593212185,-12.0 L 1787.7824247134731,-12.0 L 1787.7824247134731,-2.0 L 1784.7788593212185,-2.0 z" fill="#89d1fa" stroke="black" stroke-linecap="round" stroke-linejoin="round" stroke-width="1.0" /><path d="M 1787.7940214910495,-7.0 L1789.0812638020159,-7.0 z" fill="none" stroke="gray" stroke-linecap="round" stroke-linejoin="round" stroke-width="1.0" /><path d="M 1789.0928605795923,-12.0 L 1810.2739480612408,-12.0 L 1812.529948061241,-7.0 L 1810.2739480612408,-2.0 L 1789.0928605795923,-2.0 z" fill="#89d1fa" stroke="black" stroke-linecap="round" stroke-linejoin="round" stroke-width="1.0" /><path d="M 1816.5888202129368,2.000000000000001 L 1811.8519633344438,2.000000000000001 L 1809.5959633344437,7.000000000000001 L 1811.8519633344438,12.000000000000002 L 1816.5888202129368,12.000000000000002 z" fill="#89d1fa" stroke="black" stroke-linecap="round" stroke-linejoin="round" stroke-width="1.0" /><path d="M 1813.0633998297494,-12.0 L 1816.3738530663607,-12.0 L 1818.6298530663607,-7.0 L 1816.3738530663607,-2.0 L 1813.0633998297494,-2.0 z" fill="#89d1fa" stroke="black" stroke-linecap="round" stroke-linejoin="round" stroke-width="1.0" /><path d="M 1819.024143503954,-12.0 L 1819.5513701222596,-12.0 L 1821.8073701222597,-7.0 L 1819.5513701222596,-2.0 L 1819.024143503954,-2.0 z" fill="#89d1fa" stroke="black" stroke-linecap="round" stroke-linejoin="round" stroke-width="1.0" /><path d="M 1836.3149388701777,-12.0 L 1839.840359253365,-12.0 L 1839.840359253365,-2.0 L 1836.3149388701777,-2.0 z" fill="#89d1fa" stroke="black" stroke-linecap="round" stroke-linejoin="round" stroke-width="1.0" /><path d="M 1839.8519560309412,-7.0 L1851.4023464969096,-7.0 z" fill="none" stroke="gray" stroke-linecap="round" stroke-linejoin="round" stroke-width="1.0" /><path d="M 1851.413943274486,-12.0 L 1859.305123653725,-12.0 L 1861.5611236537252,-7.0 L 1859.305123653725,-2.0 L 1851.413943274486,-2.0 z" fill="#89d1fa" stroke="black" stroke-linecap="round" stroke-linejoin="round" stroke-width="1.0" /><path d="M 1863.2426564022849,-12.0 L 1865.330076366014,-7.0 L 1863.2426564022849,-2.0 z" fill="#89d1fa" stroke="black" stroke-linecap="round" stroke-linejoin="round" stroke-width="1.0" /><path d="M 1873.6913529985072,-12.0 L 1879.0490642387456,-12.0 L 1879.0490642387456,-2.0 L 1873.6913529985072,-2.0 z" fill="#d3d3d3" stroke="black" stroke-linecap="round" stroke-linejoin="round" stroke-width="1.0" /></g><g id="NC_000898.1" transform="translate(75.0,136)"><text dominant-baseline="middle" fill="black" font-family="'Liberation Sans', 'Arial', 'Helvetica', 'Nimbus Sans L', sans-serif" font-size="10" font-weight="normal" stroke="none" text-anchor="middle" x="0" y="-9">NC_000898.1</text><text dominant-baseline="middle" fill="black" font-family="'Liberation Sans', 'Arial', 'Helvetica', 'Nimbus Sans L', sans-serif" font-size="10" font-weight="normal" stroke="none" text-anchor="middle" x="0" y="9">162,114 bp</text></g></svg>