<?xml version="1.0" encoding="utf-8" ?>
<svg baseProfile="full" height="1000px" version="1.1" viewBox="0 0 1483.3217261904763 1000" width="1483.3217261904763px" xmlns="http://www.w3.org/2000/svg" xmlns:ev="http://www.w3.org/2001/xml-events" xmlns:xlink="http://www.w3.org/1999/xlink"><defs /><g id="Axis" transform="translate(700.0,500.0)"><circle cx="0" cy="0" fill="none" r="390" stroke="gray" stroke-width="5.0" /></g><g id="NC_012920.1" transform="translate(700.0,500.0)"><text alignment-baseline="middle" dominant-baseline="middle" fill="black" font-family="'Liberation Sans', 'Arial', 'Helvetica', 'Nimbus Sans L', sans-serif" font-size="18.0" font-style="normal" font-weight="normal" stroke="none" text-anchor="start" x="103.17730712886552" y="-436.47072444052384">tRNA-Phe</text><line stroke="gray" stroke-width="1.5" x1="96.35048849897821" x2="103.17730712886552" y1="-408.0283640459426" y2="-436.47072444052384" /><line stroke="gray" stroke-width="1.5" x1="96.35048849897821" x2="89.62836139439834" y1="-408.0283640459426" y2="-379.5612688799466" /><text alignment-baseline="middle" dominant-baseline="middle" fill="black" font-family="'Liberation Sans', 'Arial', 'Helvetica', 'Nimbus Sans L', sans-serif" font-size="18.0" font-style="normal" font-weight="normal" stroke="none" text-anchor="start" x="260.57271446324614" y="-365.0398751879793">tRNA-Val</text><line stroke="gray" stroke-width="1.5" x1="243.6683782396027" x2="260.57271446324614" y1="-341.16899616770854" y2="-365.0398751879793" /><line stroke="gray" stroke-width="1.5" x1="243.6683782396027" x2="226.6682588275374" y1="-341.16899616770854" y2="-317.3665080629847" /><text alignment-baseline="middle" dominant-baseline="middle" fill="black" font-family="'Liberation Sans', 'Arial', 'Helvetica', 'Nimbus Sans L', sans-serif" font-size="18.0" font-style="normal" font-weight="normal" stroke="none" text-anchor="start" x="423.93749555290475" y="-146.38732822321344">tRNA-Leu</text><line stroke="gray" stroke-width="1.5" x1="396.34262183634" x2="423.93749555290475" y1="-136.68609518124345" y2="-146.38732822321344" /><line stroke="gray" stroke-width="1.5" x1="396.34262183634" x2="368.6908110105489" y1="-136.68609518124345" y2="-127.14985598255205" /><text alignment-baseline="middle" dominant-baseline="middle" fill="black" font-family="'Liberation Sans', 'Arial', 'Helvetica', 'Nimbus Sans L', sans-serif" font-size="18.0" font-style="normal" font-weight="normal" stroke="none" text-anchor="start" x="447.72442860792427" y="26.364484210917194">tRNA-Ile</text><line stroke="gray" stroke-width="1.5" x1="418.5329709852705" x2="447.72442860792427" y1="24.509481802818815" y2="26.364484210917194" /><line stroke="gray" stroke-width="1.5" x1="418.5329709852705" x2="389.3329962653679" y1="24.509481802818815" y2="22.799517956110524" /><text alignment-baseline="middle" dominant-baseline="middle" fill="black" font-family="'Liberation Sans', 'Arial', 'Helvetica', 'Nimbus Sans L', sans-serif" font-size="18.0" font-style="normal" font-weight="normal" stroke="none" text-anchor="start" x="445.7570207507036" y="49.527047675555295">tRNA-Met</text><line stroke="gray" stroke-width="1.5" x1="416.6691786179897" x2="445.7570207507036" y1="46.44736903000809" y2="49.527047675555295" /><line stroke="gray" stroke-width="1.5" x1="416.6691786179897" x2="387.5992359237114" y1="46.44736903000809" y2="43.20685491163543" /><text alignment-baseline="middle" dominant-baseline="middle" fill="black" font-family="'Liberation Sans', 'Arial', 'Helvetica', 'Nimbus Sans L', sans-serif" font-size="18.0" font-style="normal" font-weight="normal" stroke="none" text-anchor="start" x="386.4406784580147" y="227.630955787892">tRNA-Trp</text><line stroke="gray" stroke-width="1.5" x1="361.3196986024369" x2="386.4406784580147" y1="212.64674439512152" y2="227.630955787892" /><line stroke="gray" stroke-width="1.5" x1="361.3196986024369" x2="336.1113475371506" y1="212.64674439512152" y2="197.81092501871768" /><text alignment-baseline="middle" dominant-baseline="middle" fill="black" font-family="'Liberation Sans', 'Arial', 'Helvetica', 'Nimbus Sans L', sans-serif" font-size="18.0" font-style="normal" font-weight="normal" stroke="none" text-anchor="start" x="123.32234134479721" y="431.21207094101305">tRNA-Asp</text><line stroke="gray" stroke-width="1.5" x1="115.11769518335176" x2="123.32234134479721" y1="403.13580683892735" y2="431.21207094101305" /><line stroke="gray" stroke-width="1.5" x1="115.11769518335176" x2="107.08622807753652" y1="403.13580683892735" y2="375.01005287342076" /><text alignment-baseline="hanging" dominant-baseline="hanging" fill="black" font-family="'Liberation Sans', 'Arial', 'Helvetica', 'Nimbus Sans L', sans-serif" font-size="18.0" font-style="normal" font-weight="normal" stroke="none" text-anchor="start" x="2.218376821266163e-12" y="448.49999999999994">tRNA-Lys</text><line stroke="gray" stroke-width="1.5" x1="-7.074504716693956" x2="2.218376821266163e-12" y1="419.1903074774195" y2="448.49999999999994" /><line stroke="gray" stroke-width="1.5" x1="-7.074504716693956" x2="-6.580934620180424" y1="419.1903074774195" y2="389.9444720720181" /><text alignment-baseline="hanging" dominant-baseline="hanging" fill="black" font-family="'Liberation Sans', 'Arial', 'Helvetica', 'Nimbus Sans L', sans-serif" font-size="18.0" font-style="normal" font-weight="normal" stroke="none" text-anchor="end" x="-31.36386533296921" y="447.4020093287192">ATP8</text><line stroke="gray" stroke-width="1.5" x1="-29.229541806235627" x2="-31.36386533296921" y1="418.2298367952692" y2="447.4020093287192" /><line stroke="gray" stroke-width="1.5" x1="-29.229541806235627" x2="-27.190271447661047" y1="418.2298367952692" y2="389.0510109723435" /><text alignment-baseline="middle" dominant-baseline="middle" fill="black" font-family="'Liberation Sans', 'Arial', 'Helvetica', 'Nimbus Sans L', sans-serif" font-size="18.0" font-style="normal" font-weight="normal" stroke="none" text-anchor="end" x="-274.70322058832846" y="354.52840591185367">tRNA-Gly</text><line stroke="gray" stroke-width="1.5" x1="-256.9305035155937" x2="-274.70322058832846" y1="331.2963610775456" y2="354.52840591185367" /><line stroke="gray" stroke-width="1.5" x1="-256.9305035155937" x2="-239.00511954938952" y1="331.2963610775456" y2="308.1826614674843" /><text alignment-baseline="middle" dominant-baseline="middle" fill="black" font-family="'Liberation Sans', 'Arial', 'Helvetica', 'Nimbus Sans L', sans-serif" font-size="18.0" font-style="normal" font-weight="normal" stroke="none" text-anchor="end" x="-326.62074025132" y="307.3615819156319">tRNA-Arg</text><line stroke="gray" stroke-width="1.5" x1="-305.40561108176337" x2="-326.62074025132" y1="287.2246076153203" y2="307.3615819156319" /><line stroke="gray" stroke-width="1.5" x1="-305.40561108176337" x2="-284.0982428667566" y1="287.2246076153203" y2="267.18568150262354" /><text alignment-baseline="middle" dominant-baseline="middle" fill="black" font-family="'Liberation Sans', 'Arial', 'Helvetica', 'Nimbus Sans L', sans-serif" font-size="18.0" font-style="normal" font-weight="normal" stroke="none" text-anchor="end" x="-347.01774897784327" y="284.1318917234574">ND4L</text><line stroke="gray" stroke-width="1.5" x1="-324.38542643449364" x2="-347.01774897784327" y1="265.6024427916876" y2="284.1318917234574" /><line stroke="gray" stroke-width="1.5" x1="-324.38542643449364" x2="-301.75388505534295" y1="265.6024427916876" y2="247.07203980622106" /><text alignment-baseline="middle" dominant-baseline="middle" fill="black" font-family="'Liberation Sans', 'Arial', 'Helvetica', 'Nimbus Sans L', sans-serif" font-size="18.0" font-style="normal" font-weight="normal" stroke="none" text-anchor="end" x="-444.9830381044097" y="56.056630289105144">tRNA-His</text><line stroke="gray" stroke-width="1.5" x1="-417.28753187357313" x2="-444.9830381044097" y1="40.51762879120287" y2="56.056630289105144" /><line stroke="gray" stroke-width="1.5" x1="-417.28753187357313" x2="-388.1744482544866" y1="40.51762879120287" y2="37.69081748018871" /><text alignment-baseline="middle" dominant-baseline="middle" fill="black" font-family="'Liberation Sans', 'Arial', 'Helvetica', 'Nimbus Sans L', sans-serif" font-size="18.0" font-style="normal" font-weight="normal" stroke="none" text-anchor="end" x="-446.8541722682367" y="38.387481376993236">tRNA-Ser</text><line stroke="gray" stroke-width="1.5" x1="-418.14789559838476" x2="-446.8541722682367" y1="30.379267710764722" y2="38.387481376993236" /><line stroke="gray" stroke-width="1.5" x1="-418.14789559838476" x2="-388.97478660314863" y1="30.379267710764722" y2="28.25978391699044" /><text alignment-baseline="middle" dominant-baseline="middle" fill="black" font-family="'Liberation Sans', 'Arial', 'Helvetica', 'Nimbus Sans L', sans-serif" font-size="18.0" font-style="normal" font-weight="normal" stroke="none" text-anchor="end" x="-447.99470682766093" y="21.28362408985086">tRNA-Leu</text><line stroke="gray" stroke-width="1.5" x1="-418.76961433947" x2="-447.99470682766093" y1="20.064212069541437" y2="21.28362408985086" /><line stroke="gray" stroke-width="1.5" x1="-418.76961433947" x2="-389.55312961811165" y1="20.064212069541437" y2="18.664383320503664" /><text alignment-baseline="middle" dominant-baseline="middle" fill="black" font-family="'Liberation Sans', 'Arial', 'Helvetica', 'Nimbus Sans L', sans-serif" font-size="18.0" font-style="normal" font-weight="normal" stroke="none" text-anchor="end" x="-109.18541146388415" y="-435.00666192997807">tRNA-Thr</text><line stroke="gray" stroke-width="1.5" x1="-102.142917950354" x2="-109.18541146388415" y1="-406.6170026112868" y2="-435.00666192997807" /><line stroke="gray" stroke-width="1.5" x1="-102.142917950354" x2="-95.01666786079443" y1="-406.6170026112868" y2="-378.2483745221273" /><text alignment-baseline="middle" dominant-baseline="middle" fill="black" font-family="'Liberation Sans', 'Arial', 'Helvetica', 'Nimbus Sans L', sans-serif" font-size="18.0" font-style="normal" font-weight="normal" stroke="none" text-anchor="end" x="310.9057720858463" y="26.107487119670864">tRNA-Gln</text><line stroke="gray" stroke-width="1.5" x1="330.3286356459503" x2="310.9057720858463" y1="27.84317640437232" y2="26.107487119670864" /><line stroke="gray" stroke-width="1.5" x1="330.3286356459503" x2="388.62192428935333" y1="27.84317640437232" y2="32.756678122790966" /><text alignment-baseline="middle" dominant-baseline="middle" fill="black" font-family="'Liberation Sans', 'Arial', 'Helvetica', 'Nimbus Sans L', sans-serif" font-size="18.0" font-style="normal" font-weight="normal" stroke="none" text-anchor="end" x="283.4090248250681" y="130.47346338510343">tRNA-Ala</text><line stroke="gray" stroke-width="1.5" x1="280.76428799872116" x2="283.4090248250681" y1="176.24887115828903" y2="130.47346338510343" /><line stroke="gray" stroke-width="1.5" x1="280.76428799872116" x2="330.310927057319" y1="176.24887115828903" y2="207.35161312739885" /><text alignment-baseline="middle" dominant-baseline="middle" fill="black" font-family="'Liberation Sans', 'Arial', 'Helvetica', 'Nimbus Sans L', sans-serif" font-size="18.0" font-style="normal" font-weight="normal" stroke="none" text-anchor="end" x="274.7347462392635" y="147.8675732161974">tRNA-Asn</text><line stroke="gray" stroke-width="1.5" x1="275.8480551577172" x2="274.7347462392635" y1="183.84803633899654" y2="147.8675732161974" /><line stroke="gray" stroke-width="1.5" x1="275.8480551577172" x2="324.5271237149614" y1="183.84803633899654" y2="216.291807457643" /><text alignment-baseline="middle" dominant-baseline="middle" fill="black" font-family="'Liberation Sans', 'Arial', 'Helvetica', 'Nimbus Sans L', sans-serif" font-size="18.0" font-style="normal" font-weight="normal" stroke="none" text-anchor="end" x="263.3719405919267" y="167.26990437267136">tRNA-Cys</text><line stroke="gray" stroke-width="1.5" x1="268.642827513717" x2="263.3719405919267" y1="194.2248213422664" y2="167.26990437267136" /><line stroke="gray" stroke-width="1.5" x1="268.642827513717" x2="316.0503853102553" y1="194.2248213422664" y2="228.49978981443107" /><text alignment-baseline="middle" dominant-baseline="middle" fill="black" font-family="'Liberation Sans', 'Arial', 'Helvetica', 'Nimbus Sans L', sans-serif" font-size="18.0" font-style="normal" font-weight="normal" stroke="none" text-anchor="end" x="248.2207209040179" y="189.0250610736303">tRNA-Tyr</text><line stroke="gray" stroke-width="1.5" x1="263.77428580257003" x2="248.2207209040179" y1="200.78689237433824" y2="189.0250610736303" /><line stroke="gray" stroke-width="1.5" x1="263.77428580257003" x2="310.3226891794942" y1="200.78689237433824" y2="236.21987338157442" /><text alignment-baseline="middle" dominant-baseline="middle" fill="black" font-family="'Liberation Sans', 'Arial', 'Helvetica', 'Nimbus Sans L', sans-serif" font-size="18.0" font-style="normal" font-weight="normal" stroke="none" text-anchor="end" x="93.7682740537606" y="297.5760588168659">tRNA-Ser</text><line stroke="gray" stroke-width="1.5" x1="99.6315188488496" x2="93.7682740537606" y1="316.17370297333605" y2="297.5760588168659" /><line stroke="gray" stroke-width="1.5" x1="99.6315188488496" x2="117.21355158688186" y1="316.17370297333605" y2="371.9690623215718" /><text alignment-baseline="middle" dominant-baseline="middle" fill="black" font-family="'Liberation Sans', 'Arial', 'Helvetica', 'Nimbus Sans L', sans-serif" font-size="18.0" font-style="normal" font-weight="normal" stroke="none" text-anchor="start" x="-202.4206771813472" y="-237.42339701353112">tRNA-Glu</text><line stroke="gray" stroke-width="1.5" x1="-215.0517603774226" x2="-202.4206771813472" y1="-252.27958767718727" y2="-237.42339701353112" /><line stroke="gray" stroke-width="1.5" x1="-215.0517603774226" x2="-253.00207103226188" y1="-252.27958767718727" y2="-296.7995149143379" /><text alignment-baseline="middle" dominant-baseline="middle" fill="black" font-family="'Liberation Sans', 'Arial', 'Helvetica', 'Nimbus Sans L', sans-serif" font-size="18.0" font-style="normal" font-weight="normal" stroke="none" text-anchor="start" x="-67.95440149629599" y="-304.50976883719215">tRNA-Pro</text><line stroke="gray" stroke-width="1.5" x1="-72.32491243216963" x2="-67.95440149629599" y1="-323.514075492364" y2="-304.50976883719215" /><line stroke="gray" stroke-width="1.5" x1="-72.32491243216963" x2="-85.08813227314074" y1="-323.514075492364" y2="-380.6047946968988" /><path d="M 80.49645412651051,-362.64858540749697 L94.72976692597209,-378.3203288988724 L88.52497186091314,-398.81826059249664 z" fill="#e8b441" stroke="gray" stroke-linecap="round" stroke-linejoin="round" stroke-miterlimit="4" stroke-width="2.0" /><path d="M 90.2301029969884,-360.350113276176A390,390 0 0 1 201.5417151102224,-312.04905495038753 L222.49691782167145,-320.30473234071394 L221.6429885332892,-343.1720578063317A390,390 0 0 0 99.22943085495577,-396.2905445215689 z" fill="#71ee7d" stroke="gray" stroke-linecap="round" stroke-linejoin="round" stroke-miterlimit="4" stroke-width="2.0" /><path d="M 211.92831422514206,-305.09025755453007 L230.80080357484778,-314.37396372664915 L233.06552141820086,-335.51920712689787 z" fill="#e8b441" stroke="gray" stroke-linecap="round" stroke-linejoin="round" stroke-miterlimit="4" stroke-width="2.0" /><path d="M 219.83776540504252,-299.44120044963336 A371.475,371.475 0 0 1 293.74865705876573,-227.38821891463868 A371.475,371.475 0 0 1 344.9792992870788,-137.77865831977084 L 366.84545936485,-132.37979053991654 L 379.3866834679423,-151.52036177423616 A408.52500000000003,408.52500000000003 0 0 0 323.04642337958757,-250.06735885888088 A408.52500000000003,408.52500000000003 0 0 0 241.76384174465306,-329.30672700366506 z" fill="#71ee7d" stroke="gray" stroke-linecap="round" stroke-linejoin="round" stroke-miterlimit="4" stroke-width="2.0" /><path d="M 349.42030004501964,-126.09175048927052 L370.461606300608,-121.89420928482754 L384.2706186846804,-138.6678305905626 z" fill="#e8b441" stroke="gray" stroke-linecap="round" stroke-linejoin="round" stroke-miterlimit="4" stroke-width="2.0" /><path d="M 352.9526350487349,-115.83657901178945A390,390 0 0 1 371.4493416191321,4.366032033014501 L389.59795176143933,17.70412334150422 L408.49678251552854,4.801489296149806A390,390 0 0 0 388.155260066719,-127.3898336113905 z" fill="#89d1fa" stroke="gray" stroke-linecap="round" stroke-linejoin="round" stroke-miterlimit="4" stroke-width="2.0" /><path d="M 371.092049052771,16.86317748278277 L389.0014030156673,27.891010233450082 L408.10385447010776,18.545069200225672 z" fill="#e8b441" stroke="gray" stroke-linecap="round" stroke-linejoin="round" stroke-miterlimit="4" stroke-width="2.0" /><path d="M 369.70196094225594,36.25100964732808 L389.03288120805485,27.448448753244204 L406.5751224010636,39.866595911366055 z" fill="#e8b441" stroke="gray" stroke-linecap="round" stroke-linejoin="round" stroke-miterlimit="4" stroke-width="2.0" /><path d="M 369.6881874952076,36.39120294120846 L387.00995844925654,48.20054004992791 L406.55997522438844,40.020771738494346 z" fill="#e8b441" stroke="gray" stroke-linecap="round" stroke-linejoin="round" stroke-miterlimit="4" stroke-width="2.0" /><path d="M 368.6269854229169,45.911014397556336 A371.475,371.475 0 0 1 354.36938073739157,111.42718528616639 A371.475,371.475 0 0 1 328.5668993099547,173.31320867966795 L 338.6337665672451,193.4610351995475 L 361.3373512096352,190.59904051648522 A408.52500000000003,408.52500000000003 0 0 0 389.71330847497916,122.54065783439297 A408.52500000000003,408.52500000000003 0 0 0 405.3929314755963,50.49006570229949 z" fill="#89d1fa" stroke="gray" stroke-linecap="round" stroke-linejoin="round" stroke-miterlimit="4" stroke-width="2.0" /><path d="M 322.548662655301,184.271636027569 L333.5330554886564,202.12793200446305 L354.71887047918926,202.65043437152602 z" fill="#e8b441" stroke="gray" stroke-linecap="round" stroke-linejoin="round" stroke-miterlimit="4" stroke-width="2.0" /><path d="M 312.01041041838516,201.60153624303285 L332.9953338140845,203.01258004874083 L343.1295589640509,221.70877607829598 z" fill="#e8b441" stroke="gray" stroke-linecap="round" stroke-linejoin="round" stroke-miterlimit="4" stroke-width="2.0" /><path d="M 306.2310135601582,210.27658442850506 L327.48969868840095,211.7793598370256 L336.7737393220637,231.24905216678115 z" fill="#e8b441" stroke="gray" stroke-linecap="round" stroke-linejoin="round" stroke-miterlimit="4" stroke-width="2.0" /><path d="M 298.29086075644346,221.39611110898053 L318.88501939220623,224.52693470323837 L328.0416552675848,243.47761300436443 z" fill="#e8b441" stroke="gray" stroke-linecap="round" stroke-linejoin="round" stroke-miterlimit="4" stroke-width="2.0" /><path d="M 292.7436392867603,228.6806447475238 L313.2543786442787,232.31808853420532 L321.94116761457366,251.48868805567577 z" fill="#e8b441" stroke="gray" stroke-linecap="round" stroke-linejoin="round" stroke-miterlimit="4" stroke-width="2.0" /><path d="M 291.6999869489148,230.01041984876028 A371.475,371.475 0 0 1 218.11700063766705,300.6969398877015 A371.475,371.475 0 0 1 128.07800787694651,348.69714584904887 L 122.06980054814768,370.4037847999605 L 140.85219238960784,383.47533887336346 A408.52500000000003,408.52500000000003 0 0 0 239.87145214483596,330.6877107951363 A408.52500000000003,408.52500000000003 0 0 0 320.7934239674417,252.95109164469963 z" fill="#89d1fa" stroke="gray" stroke-linecap="round" stroke-linejoin="round" stroke-miterlimit="4" stroke-width="2.0" /><path d="M 107.00122157552819,355.73081706023834 L122.06980054814768,370.4037847999605 L117.67325942295619,391.21053109774243 z" fill="#e8b441" stroke="gray" stroke-linecap="round" stroke-linejoin="round" stroke-miterlimit="4" stroke-width="2.0" /><path d="M 106.596458840892,355.85231569793393 L102.24236207344151,376.3595347505405 L117.22812665179461,391.34414770980135 z" fill="#e8b441" stroke="gray" stroke-linecap="round" stroke-linejoin="round" stroke-miterlimit="4" stroke-width="2.0" /><path d="M 97.38584987495304,358.48245684988984A390,390 0 0 1 14.682474572034897,371.184725662899 L2.2923312498591026,389.99326304109525 L16.14686836137171,408.20577441667893A390,390 0 0 0 107.09887427192999,394.2366126511912 z" fill="#89d1fa" stroke="gray" stroke-linecap="round" stroke-linejoin="round" stroke-miterlimit="4" stroke-width="2.0" /><path d="M -1.3382456109003802,371.47258946480144 L-11.75572770214425,389.8227839239172 L-1.4717189264232529,408.522349043968 z" fill="#e8b441" stroke="gray" stroke-linecap="round" stroke-linejoin="round" stroke-miterlimit="4" stroke-width="2.0" /><path d="M -11.33813408099239,371.30192881341384A390,390 0 0 1 -27.970287171106488,370.420488985917 L-42.43511015475139,387.6844869557642 L-30.75997460549506,407.3653146590531A390,390 0 0 0 -12.468971600881396,408.33466712026353 z" fill="#89d1fa" stroke="gray" stroke-linecap="round" stroke-linejoin="round" stroke-miterlimit="4" stroke-width="2.0" /><path d="M -33.97215235380204,369.9183267823454A390,390 0 0 1 -115.5011713893071,353.0625369997473 L-133.66576578643637,366.3788518142464 L-127.02097326015664,388.2761233671761A390,390 0 0 0 -37.3604510137613,406.8130680362276 z" fill="#89d1fa" stroke="gray" stroke-linecap="round" stroke-linejoin="round" stroke-miterlimit="4" stroke-width="2.0" /><path d="M -127.18429647146661,349.0241114250677A390,390 0 0 1 -213.74606754671518,303.8195093033281 L-235.01188742391298,311.23851427715374 L-235.06457297132195,334.12171758030047A390,390 0 0 0 -139.86934441350266,383.83491518924774 z" fill="#89d1fa" stroke="gray" stroke-linecap="round" stroke-linejoin="round" stroke-miterlimit="4" stroke-width="2.0" /><path d="M -223.84882277127713,296.45468484898896 L-242.95862097984468,305.07557832703054 L-246.1749520765489,326.0223437053186 z" fill="#e8b441" stroke="gray" stroke-linecap="round" stroke-linejoin="round" stroke-miterlimit="4" stroke-width="2.0" /><path d="M -231.41808648330206,290.58448835649665A390,390 0 0 1 -258.6195895578884,266.66380242153105 L-280.78383852364635,270.666651111523 L-284.413669356313,293.26019216436094A390,390 0 0 0 -254.49915547638733,319.56666829756455 z" fill="#89d1fa" stroke="gray" stroke-linecap="round" stroke-linejoin="round" stroke-miterlimit="4" stroke-width="2.0" /><path d="M -267.44660619377316,257.80998518372564 L-287.3694956088822,263.66412913685593 L-294.12107085351954,283.5233170393204 z" fill="#e8b441" stroke="gray" stroke-linecap="round" stroke-linejoin="round" stroke-miterlimit="4" stroke-width="2.0" /><path d="M -273.7194445674603,251.1400830028553A390,390 0 0 1 -292.67810581743635,228.76451210823228 L-315.18161333158497,229.69664912161704 L-321.86909799870296,251.5809201400245A390,390 0 0 0 -301.0195466503041,276.1881752708566 z" fill="#89d1fa" stroke="gray" stroke-linecap="round" stroke-linejoin="round" stroke-miterlimit="4" stroke-width="2.0" /><path d="M -299.6286635943367,219.58219321628022 A371.475,371.475 0 0 1 -343.86466153808044,140.53743334180191 A371.475,371.475 0 0 1 -367.6549809698966,53.136527860079255 L -387.64813893609494,42.76587868128105 L -404.323981696553,58.43623405084832 A408.52500000000003,408.52500000000003 0 0 0 -378.16087449988373,154.55429021053806 A408.52500000000003,408.52500000000003 0 0 0 -329.51288725991355,241.48277941632918 z" fill="#89d1fa" stroke="gray" stroke-linecap="round" stroke-linejoin="round" stroke-miterlimit="4" stroke-width="2.0" /><path d="M -369.2348523366304,40.73449944392021 L-388.6343181148922,32.60930516543954 L-406.06142553555947,44.797257918641904 z" fill="#e8b441" stroke="gray" stroke-linecap="round" stroke-linejoin="round" stroke-miterlimit="4" stroke-width="2.0" /><path d="M -370.1741880044349,31.06036317008116 L-389.2665776105242,23.906726153736543 L-407.09444822534965,34.15824716079791 z" fill="#e8b441" stroke="gray" stroke-linecap="round" stroke-linejoin="round" stroke-miterlimit="4" stroke-width="2.0" /><path d="M -370.77641517402435,22.77115666143406 L-389.76908499313316,13.418658040792584 L-407.75674004702415,25.04229564603903 z" fill="#e8b441" stroke="gray" stroke-linecap="round" stroke-linejoin="round" stroke-miterlimit="4" stroke-width="2.0" /><path d="M -371.2550534559594,12.781271783854937 A371.475,371.475 0 0 1 -355.71571026710603,-107.05143200428608 A371.475,371.475 0 0 1 -302.53747615804457,-215.55683970804694 L -309.8293371216674,-236.86659084545502 L -332.7118176121278,-237.05594708050307 A408.52500000000003,408.52500000000003 0 0 0 -391.1939175903345,-117.72847771599966 A408.52500000000003,408.52500000000003 0 0 0 -408.28311653030704,14.056044297730233 z" fill="#89d1fa" stroke="gray" stroke-linecap="round" stroke-linejoin="round" stroke-miterlimit="4" stroke-width="2.0" /><path d="M -244.66228824911067,-279.5246685602348A390,390 0 0 0 -287.35313534185514,-235.4184598416307 L-309.8293371216674,-236.86659084545502 L-316.01302810560975,-258.89851620378806A390,390 0 0 1 -269.0643012503343,-307.4037693615181 z" fill="#89d1fa" stroke="gray" stroke-linecap="round" stroke-linejoin="round" stroke-miterlimit="4" stroke-width="2.0" /><path d="M -237.2654104633579,-285.8300205063392 L-256.86329474972246,-293.4642189608764 L-260.9296771237453,-314.33800155421557 z" fill="#e8b441" stroke="gray" stroke-linecap="round" stroke-linejoin="round" stroke-miterlimit="4" stroke-width="2.0" /><path d="M -236.83157548346773,-286.1895883483858 A371.475,371.475 0 0 1 -175.413255249483,-327.4505542945068 A371.475,371.475 0 0 1 -107.03569594335774,-355.7204456014879 L -99.74251953251205,-377.0297465682336 L -117.71117217917819,-391.1991252152846 A408.52500000000003,408.52500000000003 0 0 0 -192.90854054995637,-360.1096646965836 A408.52500000000003,408.52500000000003 0 0 0 -260.4525725133149,-314.7334318057052 z" fill="#89d1fa" stroke="gray" stroke-linecap="round" stroke-linejoin="round" stroke-miterlimit="4" stroke-width="2.0" /><path d="M -95.00474985471773,-359.1208336062425 L-90.27593666127939,-379.4077691085525 L-104.48028921030637,-394.9386595302247 z" fill="#e8b441" stroke="gray" stroke-linecap="round" stroke-linejoin="round" stroke-miterlimit="4" stroke-width="2.0" /><path d="M -76.36569905323417,-363.54085827195667 L-89.98815777428743,-379.47612765546916 L-83.98222546799244,-399.7995265510495 z" fill="#e8b441" stroke="gray" stroke-linecap="round" stroke-linejoin="round" stroke-miterlimit="4" stroke-width="2.0" /><path d="M 123.67280561849743,-365.45461530495425A385.8134765625,385.8134765625 0 0 1 193.76208487458345,-333.6289753038508" fill="none" id="id1" stroke="none" /><text><textPath dominant-baseline="auto" font-family="'Liberation Sans', 'Arial', 'Helvetica', 'Nimbus Sans L', sans-serif" font-size="18.0" font-style="normal" font-weight="normal" startOffset="50%" text-anchor="middle" xlink:href="#id1">s-rRNA</textPath></text><path d="M 286.8446114527367,-257.77490009773385A385.65234375,385.65234375 0 0 1 328.42399618869763,-202.15194524741648" fill="none" id="id2" stroke="none" /><text><textPath dominant-baseline="auto" font-family="'Liberation Sans', 'Arial', 'Helvetica', 'Nimbus Sans L', sans-serif" font-size="18.0" font-style="normal" font-weight="normal" startOffset="50%" text-anchor="middle" xlink:href="#id2">l-rRNA</textPath></text><path d="M 378.6795088111692,-74.15581065423348A385.8720703125,385.8720703125 0 0 1 384.68901627328546,-30.192969478785475" fill="none" id="id3" stroke="none" /><text><textPath dominant-baseline="auto" font-family="'Liberation Sans', 'Arial', 'Helvetica', 'Nimbus Sans L', sans-serif" font-size="18.0" font-style="normal" font-weight="normal" startOffset="50%" text-anchor="middle" xlink:href="#id3">ND1</textPath></text><path d="M 366.22166050858215,145.8321649339519A394.189453125,394.189453125 1 0 0 380.53273679594105,102.85991046845028" fill="none" id="id4" stroke="none" /><text><textPath dominant-baseline="auto" font-family="'Liberation Sans', 'Arial', 'Helvetica', 'Nimbus Sans L', sans-serif" font-size="18.0" font-style="normal" font-weight="normal" startOffset="50%" text-anchor="middle" xlink:href="#id4">ND2</textPath></text><path d="M 199.30514956819766,340.160226687881A394.248046875,394.248046875 1 0 0 251.39331429860397,303.69873886915553" fill="none" id="id5" stroke="none" /><text><textPath dominant-baseline="auto" font-family="'Liberation Sans', 'Arial', 'Helvetica', 'Nimbus Sans L', sans-serif" font-size="18.0" font-style="normal" font-weight="normal" startOffset="50%" text-anchor="middle" xlink:href="#id5">COX1</textPath></text><path d="M 21.629280796736705,393.65428573428244A394.248046875,394.248046875 1 0 0 84.59237478284518,385.06577696979366" fill="none" id="id6" stroke="none" /><text><textPath dominant-baseline="auto" font-family="'Liberation Sans', 'Arial', 'Helvetica', 'Nimbus Sans L', sans-serif" font-size="18.0" font-style="normal" font-weight="normal" startOffset="50%" text-anchor="middle" xlink:href="#id6">COX2</textPath></text><path d="M -115.09241469194482,377.07460607302846A394.248046875,394.248046875 1 0 0 -57.02877457031111,390.10157822772373" fill="none" id="id7" stroke="none" /><text><textPath dominant-baseline="auto" font-family="'Liberation Sans', 'Arial', 'Helvetica', 'Nimbus Sans L', sans-serif" font-size="18.0" font-style="normal" font-weight="normal" startOffset="50%" text-anchor="middle" xlink:href="#id7">ATP6</textPath></text><path d="M -215.71794147314824,329.99589723410134A394.248046875,394.248046875 1 0 0 -159.75821042312893,360.428684578727" fill="none" id="id8" stroke="none" /><text><textPath dominant-baseline="auto" font-family="'Liberation Sans', 'Arial', 'Helvetica', 'Nimbus Sans L', sans-serif" font-size="18.0" font-style="normal" font-weight="normal" startOffset="50%" text-anchor="middle" xlink:href="#id8">COX3</textPath></text><path d="M -281.664521176999,275.85615812391075A394.248046875,394.248046875 1 0 0 -248.04184688713258,306.44210653494156" fill="none" id="id9" stroke="none" /><text><textPath dominant-baseline="auto" font-family="'Liberation Sans', 'Arial', 'Helvetica', 'Nimbus Sans L', sans-serif" font-size="18.0" font-style="normal" font-weight="normal" startOffset="50%" text-anchor="middle" xlink:href="#id9">ND3</textPath></text><path d="M -374.9755940737802,121.36774204363597A394.1279296875,394.1279296875 1 0 0 -358.36649539538377,164.04353061850787" fill="none" id="id10" stroke="none" /><text><textPath dominant-baseline="auto" font-family="'Liberation Sans', 'Arial', 'Helvetica', 'Nimbus Sans L', sans-serif" font-size="18.0" font-style="normal" font-weight="normal" startOffset="50%" text-anchor="middle" xlink:href="#id10">ND4</textPath></text><path d="M -373.6839095593378,-95.98111498462286A385.8134765625,385.8134765625 0 0 1 -360.13646686947146,-138.39712398751942" fill="none" id="id11" stroke="none" /><text><textPath dominant-baseline="auto" font-family="'Liberation Sans', 'Arial', 'Helvetica', 'Nimbus Sans L', sans-serif" font-size="18.0" font-style="normal" font-weight="normal" startOffset="50%" text-anchor="middle" xlink:href="#id11">ND5</textPath></text><path d="M -296.38018479452705,-246.9075847375171A385.751953125,385.751953125 0 0 1 -265.9916598817482,-279.37968110280417" fill="none" id="id12" stroke="none" /><text><textPath dominant-baseline="auto" font-family="'Liberation Sans', 'Arial', 'Helvetica', 'Nimbus Sans L', sans-serif" font-size="18.0" font-style="normal" font-weight="normal" startOffset="50%" text-anchor="middle" xlink:href="#id12">ND6</textPath></text><path d="M -202.8892493598263,-328.086150018495A385.751953125,385.751953125 0 0 1 -148.82796855721975,-355.88594396924896" fill="none" id="id13" stroke="none" /><text><textPath dominant-baseline="auto" font-family="'Liberation Sans', 'Arial', 'Helvetica', 'Nimbus Sans L', sans-serif" font-size="18.0" font-style="normal" font-weight="normal" startOffset="50%" text-anchor="middle" xlink:href="#id13">CYTB</textPath></text></g><g id="NC_012920.1" transform="translate(700.0,500.0)"><text fill="black" font-family="'Liberation Sans', 'Arial', 'Helvetica', 'Nimbus Sans L', sans-serif" font-size="28.0" font-weight="bold" stroke="none" text-anchor="middle" x="2.388061258337339e-14" y="-90.0"><tspan font-style="italic">Homo sapiens</tspan></text><text fill="black" font-family="'Liberation Sans', 'Arial', 'Helvetica', 'Nimbus Sans L', sans-serif" font-size="28.0" font-weight="bold" stroke="none" text-anchor="middle" x="2.388061258337339e-14" y="-30.0"><tspan font-style="normal">mitochondrion</tspan></text><text alignment-baseline="middle" dominant-baseline="middle" fill="black" font-family="'Liberation Sans', 'Arial', 'Helvetica', 'Nimbus Sans L', sans-serif" font-size="28.0" font-style="normal" font-weight="normal" stroke="none" text-anchor="middle" x="2.388061258337339e-14" y="30.0">NC_012920.1</text><text alignment-baseline="middle" dominant-baseline="middle" fill="black" font-family="'Liberation Sans', 'Arial', 'Helvetica', 'Nimbus Sans L', sans-serif" font-size="28.0" font-style="normal" font-weight="normal" stroke="none" text-anchor="middle" x="2.388061258337339e-14" y="90.0">16,569 bp</text><text alignment-baseline="middle" dominant-baseline="middle" fill="black" font-family="'Liberation Sans', 'Arial', 'Helvetica', 'Nimbus Sans L', sans-serif" font-size="28.0" font-style="normal" font-weight="normal" stroke="none" text-anchor="middle" x="2.388061258337339e-14" y="150.0">44.36% GC</text></g><g id="tick" transform="translate(700.0,500.0)"><path d="M 2.1970163576703517e-14,-358.8 L2.2447775828370983e-14,-366.59999999999997 z" stroke="gray" stroke-width="2.0" /><path d="M 132.82409380270735,-333.3094659704246 L135.71157410276618,-340.5553239263033 z" stroke="gray" stroke-width="2.0" /><path d="M 246.77551713147145,-260.4597553260289 L252.1402022865034,-266.121923920073 z" stroke="gray" stroke-width="2.0" /><path d="M 325.6631739211839,-150.60191616171667 L332.74280813686175,-153.8758708608844 z" stroke="gray" stroke-width="2.0" /><path d="M 358.27809817456694,-19.345396569090592 L366.06675248270966,-19.76594866841865 z" stroke="gray" stroke-width="2.0" /><path d="M 339.98611020069035,114.65986599767176 L347.3771125963575,117.15247178022983 z" stroke="gray" stroke-width="2.0" /><path d="M 273.3862765654219,232.3733715073538 L279.32945649075714,237.4249665401223 z" stroke="gray" stroke-width="2.0" /><path d="M 167.94161469152579,317.0694782769276 L171.59251935873286,323.9622930220782 z" stroke="gray" stroke-width="2.0" /><path d="M 38.6345144437379,356.7139109898808 L39.474395192514805,364.4685612287912 z" stroke="gray" stroke-width="2.0" /><path d="M -96.16207524186643,345.6736832406795 L-98.25255513842873,353.18832852852034 z" stroke="gray" stroke-width="2.0" /><path d="M -217.29521648094106,285.51747563765855 L-222.01902553487454,291.72437728195547 z" stroke="gray" stroke-width="2.0" /><path d="M -307.5533794024493,184.79274557766888 L-314.2393224329373,188.8099791771834 z" stroke="gray" stroke-width="2.0" /><path d="M -354.1119889038403,57.81123865276116 L-361.8100756191411,59.068004710429875 z" stroke="gray" stroke-width="2.0" /><path d="M -350.3556390772825,-77.38453441579242 L-357.9720660137451,-79.06680690309224 z" stroke="gray" stroke-width="2.0" /><path d="M -296.8180610436281,-201.58491669343977 L-303.2706275880548,-205.96719749112322 z" stroke="gray" stroke-width="2.0" /><path d="M -201.10628632309957,-297.14256107352156 L-205.47816211273215,-303.60218196642415 z" stroke="gray" stroke-width="2.0" /><path d="M -76.81978119521064,-350.4799013026567 L-78.48977643858477,-358.09902959184484 z" stroke="gray" stroke-width="2.0" /><path d="M 108.95495959667693,-324.97142014059796A390,390 0 0 1 144.41641064670256,-310.84000299966783" fill="none" id="id14" stroke="none" /><text><textPath font-family="'Liberation Sans', 'Arial', 'Helvetica', 'Nimbus Sans L', sans-serif" font-size="14" font-style="normal" font-weight="normal" startOffset="50%" text-anchor="middle" xlink:href="#id14">1 kbp</textPath></text><path d="M 221.35345194478774,-261.68732571723274A390,390 0 0 1 249.37198178525514,-235.14085529614988" fill="none" id="id15" stroke="none" /><text><textPath font-family="'Liberation Sans', 'Arial', 'Helvetica', 'Nimbus Sans L', sans-serif" font-size="14" font-style="normal" font-weight="normal" startOffset="50%" text-anchor="middle" xlink:href="#id15">2 kbp</textPath></text><path d="M 302.4545329137844,-161.2416281510919A390,390 0 0 1 318.7392081617372,-126.02747442260065" fill="none" id="id16" stroke="none" /><text><textPath font-family="'Liberation Sans', 'Arial', 'Helvetica', 'Nimbus Sans L', sans-serif" font-size="14" font-style="normal" font-weight="normal" startOffset="50%" text-anchor="middle" xlink:href="#id16">3 kbp</textPath></text><path d="M 340.643278279387,-37.94422343364806A390,390 0 0 1 342.7484746258589,1.0441602163971433" fill="none" id="id17" stroke="none" /><text><textPath font-family="'Liberation Sans', 'Arial', 'Helvetica', 'Nimbus Sans L', sans-serif" font-size="14" font-style="normal" font-weight="normal" startOffset="50%" text-anchor="middle" xlink:href="#id17">4 kbp</textPath></text><path d="M 326.1373039259013,130.96379547886423A390,390 1 0 0 338.8397603621535,93.29883994993655" fill="none" id="id18" stroke="none" /><text><textPath font-family="'Liberation Sans', 'Arial', 'Helvetica', 'Nimbus Sans L', sans-serif" font-size="14" font-style="normal" font-weight="normal" startOffset="50%" text-anchor="middle" xlink:href="#id18">5 kbp</textPath></text><path d="M 254.54810005085878,242.32688975593172A390,390 1 0 0 280.1744644843973,212.1775817308858" fill="none" id="id19" stroke="none" /><text><textPath font-family="'Liberation Sans', 'Arial', 'Helvetica', 'Nimbus Sans L', sans-serif" font-size="14" font-style="normal" font-weight="normal" startOffset="50%" text-anchor="middle" xlink:href="#id19">6 kbp</textPath></text><path d="M 146.7608156655999,319.34044486011055A390,390 1 0 0 181.72030339012383,300.82351649112616" fill="none" id="id20" stroke="none" /><text><textPath font-family="'Liberation Sans', 'Arial', 'Helvetica', 'Nimbus Sans L', sans-serif" font-size="14" font-style="normal" font-weight="normal" startOffset="50%" text-anchor="middle" xlink:href="#id20">7 kbp</textPath></text><path d="M 18.05217027298287,350.98600525764664A390,390 1 0 0 57.51322539269672,346.71210772514763" fill="none" id="id21" stroke="none" /><text><textPath font-family="'Liberation Sans', 'Arial', 'Helvetica', 'Nimbus Sans L', sans-serif" font-size="14" font-style="normal" font-weight="normal" startOffset="50%" text-anchor="middle" xlink:href="#id21">8 kbp</textPath></text><path d="M -113.13454108091976,332.74259173225056A390,390 1 0 0 -74.95010193101345,343.36502291121064" fill="none" id="id22" stroke="none" /><text><textPath font-family="'Liberation Sans', 'Arial', 'Helvetica', 'Nimbus Sans L', sans-serif" font-size="14" font-style="normal" font-weight="normal" startOffset="50%" text-anchor="middle" xlink:href="#id22">9 kbp</textPath></text><path d="M -231.62597181477133,264.3226549487354A390,390 1 0 0 -193.04812446962305,293.6826150405339" fill="none" id="id23" stroke="none" /><text><textPath font-family="'Liberation Sans', 'Arial', 'Helvetica', 'Nimbus Sans L', sans-serif" font-size="14" font-style="normal" font-weight="normal" startOffset="50%" text-anchor="middle" xlink:href="#id23">10 kbp</textPath></text><path d="M -313.0199166264033,159.79858739514884A390,390 1 0 0 -288.05154537884715,201.35382773402512" fill="none" id="id24" stroke="none" /><text><textPath font-family="'Liberation Sans', 'Arial', 'Helvetica', 'Nimbus Sans L', sans-serif" font-size="14" font-style="normal" font-weight="normal" startOffset="50%" text-anchor="middle" xlink:href="#id24">11 kbp</textPath></text><path d="M -349.9375802970086,32.569105516734034A390,390 1 0 0 -342.12638368076193,80.41513742952591" fill="none" id="id25" stroke="none" /><text><textPath font-family="'Liberation Sans', 'Arial', 'Helvetica', 'Nimbus Sans L', sans-serif" font-size="14" font-style="normal" font-weight="normal" startOffset="50%" text-anchor="middle" xlink:href="#id25">12 kbp</textPath></text><path d="M -338.98496774801805,-50.66358425719292A390,390 0 0 1 -328.78794125212283,-96.83024742352544" fill="none" id="id26" stroke="none" /><text><textPath font-family="'Liberation Sans', 'Arial', 'Helvetica', 'Nimbus Sans L', sans-serif" font-size="14" font-style="normal" font-weight="normal" startOffset="50%" text-anchor="middle" xlink:href="#id26">13 kbp</textPath></text><path d="M -296.1470287188816,-172.5530194168982A390,390 0 0 1 -269.58401128633966,-211.66498999049705" fill="none" id="id27" stroke="none" /><text><textPath font-family="'Liberation Sans', 'Arial', 'Helvetica', 'Nimbus Sans L', sans-serif" font-size="14" font-style="normal" font-weight="normal" startOffset="50%" text-anchor="middle" xlink:href="#id27">14 kbp</textPath></text><path d="M -211.23023844494946,-269.92479229481734A390,390 0 0 1 -172.07550822399057,-296.42474019279473" fill="none" id="id28" stroke="none" /><text><textPath font-family="'Liberation Sans', 'Arial', 'Helvetica', 'Nimbus Sans L', sans-serif" font-size="14" font-style="normal" font-weight="normal" startOffset="50%" text-anchor="middle" xlink:href="#id28">15 kbp</textPath></text><path d="M -96.3002286550962,-328.94357128523836A390,390 0 0 1 -50.11719134870917,-339.0661797646993" fill="none" id="id29" stroke="none" /><text><textPath font-family="'Liberation Sans', 'Arial', 'Helvetica', 'Nimbus Sans L', sans-serif" font-size="14" font-style="normal" font-weight="normal" startOffset="50%" text-anchor="middle" xlink:href="#id29">16 kbp</textPath></text></g><g id="legend" transform="translate(1403.787351190476,464.57142857142856)"><path d="M 0,-8.0 L 75.74702380952381,-8.0 L 75.74702380952381,62.85714285714286 L 0,62.85714285714286 z" fill="none" stroke="none" stroke-width="0" /><path d="M 0,-8.0 L 16,-8.0 L 16,8.0 L 0,8.0 z" fill="#e8b441" stroke="gray" stroke-width="2.0" transform="translate(0,0.0)" /><text alignment-baseline="central" dominant-baseline="central" fill="black" font-family="'Liberation Sans', 'Arial', 'Helvetica', 'Nimbus Sans L', sans-serif" font-size="16" font-style="normal" font-weight="normal" stroke="none" text-anchor="start" transform="translate(25.142857142857142,0.0)" x="0" y="0">tRNA</text><path d="M 0,-8.0 L 16,-8.0 L 16,8.0 L 0,8.0 z" fill="#71ee7d" stroke="gray" stroke-width="2.0" transform="translate(0,27.428571428571427)" /><text alignment-baseline="central" dominant-baseline="central" fill="black" font-family="'Liberation Sans', 'Arial', 'Helvetica', 'Nimbus Sans L', sans-serif" font-size="16" font-style="normal" font-weight="normal" stroke="none" text-anchor="start" transform="translate(25.142857142857142,27.428571428571427)" x="0" y="0">rRNA</text><path d="M 0,-8.0 L 16,-8.0 L 16,8.0 L 0,8.0 z" fill="#89d1fa" stroke="gray" stroke-width="2.0" transform="translate(0,54.857142857142854)" /><text alignment-baseline="central" dominant-baseline="central" fill="black" font-family="'Liberation Sans', 'Arial', 'Helvetica', 'Nimbus Sans L', sans-serif" font-size="16" font-style="normal" font-weight="normal" stroke="none" text-anchor="start" transform="translate(25.142857142857142,54.857142857142854)" x="0" y="0">CDS</text></g></svg>