<?xml version="1.0" encoding="utf-8" ?>
<svg baseProfile="full" height="1000px" version="1.1" viewBox="0 0 1601.00234375 1000" width="1601.00234375px" xmlns="http://www.w3.org/2000/svg" xmlns:ev="http://www.w3.org/2001/xml-events" xmlns:xlink="http://www.w3.org/1999/xlink"><defs /><g id="Axis" transform="translate(700.0,500.0)"><circle cx="0" cy="0" fill="none" r="390.0" stroke="gray" stroke-width="3.0" /></g><g id="label_leaders" transform="translate(700.0,500.0)"><line stroke="gray" stroke-linecap="round" stroke-width="1.5" x1="396.34262183634" x2="423.99443266213115" y1="-136.68609518124345" y2="-146.22233437993484" /><line stroke="gray" stroke-linecap="round" stroke-width="1.5" x1="396.34262183634" x2="368.6908110105489" y1="-136.68609518124345" y2="-127.14985598255205" /><line stroke="gray" stroke-linecap="round" stroke-width="1.5" x1="415.38709023086955" x2="444.3675848981395" y1="-56.781403377615206" y2="-60.74289663651836" /><line stroke="gray" stroke-linecap="round" stroke-width="1.5" x1="415.38709023086955" x2="386.4065955635996" y1="-56.781403377615206" y2="-52.81991011871182" /><line stroke="gray" stroke-linecap="round" stroke-width="1.5" x1="397.7715818941991" x2="425.5230876077478" y1="132.47011412913665" y2="141.71221511489034" /><line stroke="gray" stroke-linecap="round" stroke-width="1.5" x1="397.7715818941991" x2="370.0200761806503" y1="132.47011412913665" y2="123.22801314338292" /><line stroke="gray" stroke-linecap="round" stroke-width="1.5" x1="56.66326084814081" x2="60.616511604987835" y1="415.4032226283946" y2="445.1348428117709" /><line stroke="gray" stroke-linecap="round" stroke-width="1.5" x1="56.66326084814081" x2="52.710010091293775" y1="415.4032226283946" y2="386.4216024450182" /><line stroke="gray" stroke-linecap="round" stroke-width="1.5" x1="-29.229541806235627" x2="-31.2688121648102" y1="418.2298367952692" y2="448.1586626181949" /><line stroke="gray" stroke-linecap="round" stroke-width="1.5" x1="-29.229541806235627" x2="-27.190271447661047" y1="418.2298367952692" y2="389.0510109723435" /><line stroke="gray" stroke-linecap="round" stroke-width="1.5" x1="-91.7800262239835" x2="-107.70657452508392" y1="409.0806635448868" y2="435.37517591621196" /><line stroke="gray" stroke-linecap="round" stroke-width="1.5" x1="-91.7800262239835" x2="-85.37676858044976" y1="409.0806635448868" y2="380.54015213477845" /><line stroke="gray" stroke-linecap="round" stroke-width="1.5" x1="-200.2985117886915" x2="-214.27282656464672" y1="368.30838800553454" y2="394.00432205243226" /><line stroke="gray" stroke-linecap="round" stroke-width="1.5" x1="-200.2985117886915" x2="-186.3241970127363" y1="368.30838800553454" y2="342.6124539586368" /><line stroke="gray" stroke-linecap="round" stroke-width="1.5" x1="-282.1184551344811" x2="-301.8011380508402" y1="310.1285858680779" y2="331.76546395189723" /><line stroke="gray" stroke-linecap="round" stroke-width="1.5" x1="-282.1184551344811" x2="-262.435772218122" y1="310.1285858680779" y2="288.4917077842585" /><line stroke="gray" stroke-linecap="round" stroke-width="1.5" x1="-324.38542643449364" x2="-347.0169678136443" y1="265.6024427916876" y2="284.13284577715416" /><line stroke="gray" stroke-linecap="round" stroke-width="1.5" x1="-324.38542643449364" x2="-301.75388505534295" y1="265.6024427916876" y2="247.07203980622106" /><line stroke="gray" stroke-linecap="round" stroke-width="1.5" x1="-390.7028686720781" x2="-417.96120834687423" y1="152.0586430013397" y2="162.66738553631686" /><line stroke="gray" stroke-linecap="round" stroke-width="1.5" x1="-390.7028686720781" x2="-363.44452899728196" y1="152.0586430013397" y2="141.4499004663625" /><line stroke="gray" stroke-linecap="round" stroke-width="1.5" x1="-418.76961433947" x2="-447.98609906082834" y1="20.064212069541437" y2="21.46404081857921" /><line stroke="gray" stroke-linecap="round" stroke-width="1.5" x1="-418.76961433947" x2="-389.55312961811165" y1="20.064212069541437" y2="18.664383320503664" /><line stroke="gray" stroke-linecap="round" stroke-width="1.5" x1="-306.11265865329824" x2="-327.4693557686446" y1="-286.4709456685081" y2="-306.45729071514813" /><line stroke="gray" stroke-linecap="round" stroke-width="1.5" x1="-306.11265865329824" x2="-284.75596153795186" y1="-286.4709456685081" y2="-266.48460062186797" /></g><g id="NC_012920.1" transform="translate(700.0,500.0)"><path d="M 349.42030004501964,-126.09175048927052 L370.461606300608,-121.89420928482754 L384.27061868468036,-138.66783059056257 z" data-gbdraw-feature-id="f6bb0489e" fill="#e8b441" id="f6bb0489e" stroke="gray" stroke-linecap="round" stroke-linejoin="round" stroke-miterlimit="4" stroke-width="2.0" /><path d="M 352.9526350487349,-115.83657901178945 A371.475,371.475 0 0 1 368.0522822743286,-50.31096438807301 A371.475,371.475 0 0 1 371.092049052771,16.86317748278277 L 408.1038544701077,18.54506920022567 A408.525,408.525 0 0 0 404.7609088528705,-55.328855849350624 A408.525,408.525 0 0 0 388.15526006671894,-127.38983361139049 z" data-gbdraw-feature-id="f406d90f1" fill="#54bcf8" id="f406d90f1" stroke="gray" stroke-linecap="round" stroke-linejoin="round" stroke-miterlimit="4" stroke-width="2.0" /><path d="M 368.6269854229169,45.911014397556336 A371.475,371.475 0 0 1 352.4441225620694,117.37468251907224 A371.475,371.475 0 0 1 322.548662655301,184.271636027569 L 354.7188704791892,202.650434371526 A408.525,408.525 0 0 0 387.5960297992312,129.0813437676936 A408.525,408.525 0 0 0 405.39293147559624,50.49006570229948 z" data-gbdraw-feature-id="fbe3a7c0c" fill="#54bcf8" id="fbe3a7c0c" stroke="gray" stroke-linecap="round" stroke-linejoin="round" stroke-miterlimit="4" stroke-width="2.0" /><path d="M 97.38584987495304,358.48245684988984A371.475,371.475 0 0 1 2.1834455154907957,371.4685830466433 L2.40121698422741,408.51794303554726A408.525,408.525 0 0 0 107.09887427192997,394.23661265119114 z" data-gbdraw-feature-id="f77c8cbef" fill="#54bcf8" id="f77c8cbef" stroke="gray" stroke-linecap="round" stroke-linejoin="round" stroke-miterlimit="4" stroke-width="2.0" /><path d="M -11.33813408099239,371.30192881341384A371.475,371.475 0 0 1 -40.41944242240071,369.2694738253654 L-44.450777887102085,406.099500086163A408.525,408.525 0 0 0 -12.468971600881394,408.3346671202635 z" data-gbdraw-feature-id="f31dbd2ba" fill="#54bcf8" id="f31dbd2ba" stroke="gray" stroke-linecap="round" stroke-linejoin="round" stroke-miterlimit="4" stroke-width="2.0" /><path d="M -33.97215235380204,369.9183267823454A371.475,371.475 0 0 1 -127.31664191158066,348.97585635306973 L-140.0148896612921,383.78184727542305A408.525,408.525 0 0 0 -37.36045101376129,406.81306803622755 z" data-gbdraw-feature-id="f00bf02dc" fill="#54bcf8" id="f00bf02dc" stroke="gray" stroke-linecap="round" stroke-linejoin="round" stroke-miterlimit="4" stroke-width="2.0" /><path d="M -127.18429647146661,349.0241114250677A371.475,371.475 0 0 1 -223.84882277127713,296.45468484898896 L-246.17495207654883,326.0223437053185A408.525,408.525 0 0 0 -139.86934441350263,383.8349151892477 z" data-gbdraw-feature-id="fb3d5165e" fill="#54bcf8" id="fb3d5165e" stroke="gray" stroke-linecap="round" stroke-linejoin="round" stroke-miterlimit="4" stroke-width="2.0" /><path d="M -231.41808648330206,290.58448835649665A371.475,371.475 0 0 1 -267.44660619377316,257.80998518372564 L-294.1210708535195,283.5233170393203A408.525,408.525 0 0 0 -254.49915547638727,319.5666682975645 z" data-gbdraw-feature-id="f9b1f5604" fill="#54bcf8" id="f9b1f5604" stroke="gray" stroke-linecap="round" stroke-linejoin="round" stroke-miterlimit="4" stroke-width="2.0" /><path d="M -273.7194445674603,251.1400830028553A371.475,371.475 0 0 1 -300.2104866983347,218.78605828834023 L-330.15273996483523,240.60723995489383A408.525,408.525 0 0 0 -301.01954665030405,276.18817527085656 z" data-gbdraw-feature-id="f63cda8a2" fill="#54bcf8" id="f63cda8a2" stroke="gray" stroke-linecap="round" stroke-linejoin="round" stroke-miterlimit="4" stroke-width="2.0" /><path d="M -299.6286635943367,219.58219321628022 A371.475,371.475 0 0 1 -346.18091386991114,134.7310301942103 A371.475,371.475 0 0 1 -369.2348523366304,40.73449944392021 L -406.0614255355594,44.7972579186419 A408.525,408.525 0 0 0 -380.70814412465285,148.16877073851472 A408.525,408.525 0 0 0 -329.51288725991355,241.48277941632915 z" data-gbdraw-feature-id="fa61b27c5" fill="#54bcf8" id="fa61b27c5" stroke="gray" stroke-linecap="round" stroke-linejoin="round" stroke-miterlimit="4" stroke-width="2.0" /><path d="M -370.77641517402435,22.77115666143406 L-389.76908499313316,13.418658040792584 L-407.7567400470241,25.042295646039026 z" data-gbdraw-feature-id="fcb99f355" fill="#e8b441" id="fcb99f355" stroke="gray" stroke-linecap="round" stroke-linejoin="round" stroke-miterlimit="4" stroke-width="2.0" /><path d="M -371.2550534559594,12.781271783854937 A371.475,371.475 0 0 1 -353.8638959779887,-113.02220466916756 A371.475,371.475 0 0 1 -295.11244360838816,-225.6154277802959 L -324.54623063494654,-248.1177539106141 A408.525,408.525 0 0 0 -389.1574079128012,-124.29476051543622 A408.525,408.525 0 0 0 -408.283116530307,14.056044297730232 z" data-gbdraw-feature-id="f088dccd3" fill="#54bcf8" id="f088dccd3" stroke="gray" stroke-linecap="round" stroke-linejoin="round" stroke-miterlimit="4" stroke-width="2.0" /><path d="M -244.66228824911067,-279.5246685602348A371.475,371.475 0 0 0 -295.11244360838816,-225.6154277802959 L-324.54623063494654,-248.1177539106141A408.525,408.525 0 0 1 -269.06430125033427,-307.403769361518 z" data-gbdraw-feature-id="f6b2a293e" fill="#54bcf8" id="f6b2a293e" stroke="gray" stroke-linecap="round" stroke-linejoin="round" stroke-miterlimit="4" stroke-width="2.0" /><path d="M -236.83157548346773,-286.1895883483858 A371.475,371.475 0 0 1 -169.87812789527342,-330.3560159703424 A371.475,371.475 0 0 1 -95.00474985471773,-359.1208336062425 L -104.48028921030635,-394.93865953022464 A408.525,408.525 0 0 0 -186.82135324965765,-363.3049099516364 A408.525,408.525 0 0 0 -260.45257251331486,-314.73343180570515 z" data-gbdraw-feature-id="f2e5a9636" fill="#54bcf8" id="f2e5a9636" stroke="gray" stroke-linecap="round" stroke-linejoin="round" stroke-miterlimit="4" stroke-width="2.0" /><path d="M -385.61099932862635,-5.489072018667106A385.6500651041667,385.6500651041667 0 0 1 -317.40106803522434,-219.04916052098196" fill="none" id="id1" stroke="none" /><text><textPath dominant-baseline="auto" font-family="'Liberation Sans', 'Arial', 'Helvetica', 'Nimbus Sans L', sans-serif" font-size="14.0" font-style="normal" font-weight="normal" startOffset="50%" text-anchor="middle" xlink:href="#id1">NADH dehydrogenase subunit 5</textPath></text><path d="M -218.94171191204805,-317.4751950938368A385.6500651041667,385.6500651041667 0 0 1 -130.85892081645716,-362.7697831374606" fill="none" id="id2" stroke="none" /><text><textPath dominant-baseline="auto" font-family="'Liberation Sans', 'Arial', 'Helvetica', 'Nimbus Sans L', sans-serif" font-size="14.0" font-style="normal" font-weight="normal" startOffset="50%" text-anchor="middle" xlink:href="#id2">cytochrome b</textPath></text></g><g id="tick" transform="translate(700.0,500.0)"><path d="M 2.2029865108161957e-14,-359.7750000000001 L2.250747735982942e-14,-367.57500000000005 z" stroke="gray" stroke-width="2.0" /><path d="M 133.18502884021473,-334.2151982149095 L136.07250914027355,-341.46105617078825 z" stroke="gray" stroke-width="2.0" /><path d="M 247.4461027758505,-261.1675264002845 L252.81078793088244,-266.8296949943286 z" stroke="gray" stroke-width="2.0" /><path d="M 326.54812819814373,-151.01116049911266 L333.6277624138216,-154.2851151982804 z" stroke="gray" stroke-width="2.0" /><path d="M 359.2516799630849,-19.397965581506604 L367.04033427122755,-19.81851768083466 z" stroke="gray" stroke-width="2.0" /><path d="M 340.9099855001488,114.97144172049155 L348.300987895816,117.46404750304961 z" stroke="gray" stroke-width="2.0" /><path d="M 274.12917405608886,233.00482088644992 L280.0723539814241,238.05641591921844 z" stroke="gray" stroke-width="2.0" /><path d="M 168.39797777492672,317.93108012007156 L172.04888244213376,324.8238948652221 z" stroke="gray" stroke-width="2.0" /><path d="M 38.73949953733502,357.6832422697447 L39.57938028611193,365.4378925086551 z" stroke="gray" stroke-width="2.0" /><path d="M -96.42338522893674,346.6130139016597 L-98.51386512549904,354.1276591895005 z" stroke="gray" stroke-width="2.0" /><path d="M -217.8856926126828,286.2933383431957 L-222.60950166661627,292.50023998749265 z" stroke="gray" stroke-width="2.0" /><path d="M -308.38912228126037,185.29489977760826 L-315.07506531174835,189.31213337712276 z" stroke="gray" stroke-width="2.0" /><path d="M -355.074249743253,57.96833440996976 L-362.7723364585538,59.22510046763848 z" stroke="gray" stroke-width="2.0" /><path d="M -351.30769244434043,-77.59481847670492 L-358.92411938080306,-79.27709096400474 z" stroke="gray" stroke-width="2.0" /><path d="M -297.62463186168156,-202.13270179315023 L-304.0771984061082,-206.51498259083368 z" stroke="gray" stroke-width="2.0" /><path d="M -201.65277079680368,-297.9500136851345 L-206.02464658643626,-304.40963457803707 z" stroke="gray" stroke-width="2.0" /><path d="M -77.02853060063242,-351.43229233880527 L-78.69852584400655,-359.0514206279934 z" stroke="gray" stroke-width="2.0" /><path d="M 99.74125851158689,-319.7290337547734A334.92532552083344,334.92532552083344 0 0 1 147.49920250541183,-300.6974541553416" fill="none" id="id3" stroke="none" /><text dominant-baseline="text-after-edge"><textPath dominant-baseline="text-after-edge" font-family="'Liberation Sans', 'Arial', 'Helvetica', 'Nimbus Sans L', sans-serif" font-size="14.0" font-style="normal" font-weight="normal" startOffset="50%" text-anchor="middle" xlink:href="#id3">1 kbp</textPath></text><path d="M 211.0316018859039,-260.0781357221433A334.92532552083344,334.92532552083344 0 0 1 248.32165500619604,-224.74725655771638" fill="none" id="id4" stroke="none" /><text dominant-baseline="text-after-edge"><textPath dominant-baseline="text-after-edge" font-family="'Liberation Sans', 'Arial', 'Helvetica', 'Nimbus Sans L', sans-serif" font-size="14.0" font-style="normal" font-weight="normal" startOffset="50%" text-anchor="middle" xlink:href="#id4">2 kbp</textPath></text><path d="M 292.2739854179278,-163.55699655825538A334.92532552083344,334.92532552083344 0 0 1 313.9100604535674,-116.77091941606821" fill="none" id="id5" stroke="none" /><text dominant-baseline="text-after-edge"><textPath dominant-baseline="text-after-edge" font-family="'Liberation Sans', 'Arial', 'Helvetica', 'Nimbus Sans L', sans-serif" font-size="14.0" font-style="normal" font-weight="normal" startOffset="50%" text-anchor="middle" xlink:href="#id5">3 kbp</textPath></text><path d="M 332.02999966831715,-43.9437480819919A334.92532552083344,334.92532552083344 0 0 1 334.83128516622054,7.936255362155975" fill="none" id="id6" stroke="none" /><text dominant-baseline="text-after-edge"><textPath dominant-baseline="text-after-edge" font-family="'Liberation Sans', 'Arial', 'Helvetica', 'Nimbus Sans L', sans-serif" font-size="14.0" font-style="normal" font-weight="normal" startOffset="50%" text-anchor="middle" xlink:href="#id6">4 kbp</textPath></text><path d="M 308.175306227311,131.16003319204876A334.92532552083344,334.92532552083344 1 0 0 324.6652265719005,82.26459949609402" fill="none" id="id7" stroke="none" /><text dominant-baseline="text-before-edge"><textPath dominant-baseline="text-before-edge" font-family="'Liberation Sans', 'Arial', 'Helvetica', 'Nimbus Sans L', sans-serif" font-size="14.0" font-style="normal" font-weight="normal" startOffset="50%" text-anchor="middle" xlink:href="#id7">5 kbp</textPath></text><path d="M 237.74650179899413,235.90585952361826A334.92532552083344,334.92532552083344 1 0 0 271.1301919295963,196.63009103251846" fill="none" id="id8" stroke="none" /><text dominant-baseline="text-before-edge"><textPath dominant-baseline="text-before-edge" font-family="'Liberation Sans', 'Arial', 'Helvetica', 'Nimbus Sans L', sans-serif" font-size="14.0" font-style="normal" font-weight="normal" startOffset="50%" text-anchor="middle" xlink:href="#id8">6 kbp</textPath></text><path d="M 133.60763056857326,307.1220844047004A334.92532552083344,334.92532552083344 1 0 0 179.00250423329697,283.07786411771013" fill="none" id="id9" stroke="none" /><text dominant-baseline="text-before-edge"><textPath dominant-baseline="text-before-edge" font-family="'Liberation Sans', 'Arial', 'Helvetica', 'Nimbus Sans L', sans-serif" font-size="14.0" font-style="normal" font-weight="normal" startOffset="50%" text-anchor="middle" xlink:href="#id9">7 kbp</textPath></text><path d="M 10.326515168327669,334.7660926075318A334.92532552083344,334.92532552083344 1 0 0 61.587017749972986,329.214235597279" fill="none" id="id10" stroke="none" /><text dominant-baseline="text-before-edge"><textPath dominant-baseline="text-before-edge" font-family="'Liberation Sans', 'Arial', 'Helvetica', 'Nimbus Sans L', sans-serif" font-size="14.0" font-style="normal" font-weight="normal" startOffset="50%" text-anchor="middle" xlink:href="#id10">8 kbp</textPath></text><path d="M -114.2827032555013,314.824454913927A334.92532552083344,334.92532552083344 1 0 0 -64.7137651567129,328.6139106527264" fill="none" id="id11" stroke="none" /><text dominant-baseline="text-before-edge"><textPath dominant-baseline="text-before-edge" font-family="'Liberation Sans', 'Arial', 'Helvetica', 'Nimbus Sans L', sans-serif" font-size="14.0" font-style="normal" font-weight="normal" startOffset="50%" text-anchor="middle" xlink:href="#id11">9 kbp</textPath></text><path d="M -227.6470455662925,245.66602597871486A334.92532552083344,334.92532552083344 1 0 0 -176.12620678764696,284.87634678546283" fill="none" id="id12" stroke="none" /><text dominant-baseline="text-before-edge"><textPath dominant-baseline="text-before-edge" font-family="'Liberation Sans', 'Arial', 'Helvetica', 'Nimbus Sans L', sans-serif" font-size="14.0" font-style="normal" font-weight="normal" startOffset="50%" text-anchor="middle" xlink:href="#id12">10 kbp</textPath></text><path d="M -301.6847122383248,145.46926849652962A334.92532552083344,334.92532552083344 1 0 0 -270.0778894212394,198.0729848338865" fill="none" id="id13" stroke="none" /><text dominant-baseline="text-before-edge"><textPath dominant-baseline="text-before-edge" font-family="'Liberation Sans', 'Arial', 'Helvetica', 'Nimbus Sans L', sans-serif" font-size="14.0" font-style="normal" font-weight="normal" startOffset="50%" text-anchor="middle" xlink:href="#id13">11 kbp</textPath></text><path d="M -334.1969632936207,22.07630858088851A334.92532552083344,334.92532552083344 1 0 0 -323.8659471158992,85.35702650606939" fill="none" id="id14" stroke="none" /><text dominant-baseline="text-before-edge"><textPath dominant-baseline="text-before-edge" font-family="'Liberation Sans', 'Arial', 'Helvetica', 'Nimbus Sans L', sans-serif" font-size="14.0" font-style="normal" font-weight="normal" startOffset="50%" text-anchor="middle" xlink:href="#id14">12 kbp</textPath></text><path d="M -332.4869500376326,-40.34106753556552A334.92532552083344,334.92532552083344 0 0 1 -318.54660413312706,-103.45547192144578" fill="none" id="id15" stroke="none" /><text dominant-baseline="text-after-edge"><textPath dominant-baseline="text-after-edge" font-family="'Liberation Sans', 'Arial', 'Helvetica', 'Nimbus Sans L', sans-serif" font-size="14.0" font-style="normal" font-weight="normal" startOffset="50%" text-anchor="middle" xlink:href="#id15">13 kbp</textPath></text><path d="M -294.1316175879179,-160.192275751208A334.92532552083344,334.92532552083344 0 0 1 -257.35099647555967,-214.34887050850705" fill="none" id="id16" stroke="none" /><text dominant-baseline="text-after-edge"><textPath dominant-baseline="text-after-edge" font-family="'Liberation Sans', 'Arial', 'Helvetica', 'Nimbus Sans L', sans-serif" font-size="14.0" font-style="normal" font-weight="normal" startOffset="50%" text-anchor="middle" xlink:href="#id16">14 kbp</textPath></text><path d="M -213.61282567774413,-257.9622731742104A334.92532552083344,334.92532552083344 0 0 1 -160.08442862028014,-294.19032850954613" fill="none" id="id17" stroke="none" /><text dominant-baseline="text-after-edge"><textPath dominant-baseline="text-after-edge" font-family="'Liberation Sans', 'Arial', 'Helvetica', 'Nimbus Sans L', sans-serif" font-size="14.0" font-style="normal" font-weight="normal" startOffset="50%" text-anchor="middle" xlink:href="#id17">15 kbp</textPath></text><path d="M -102.77280461086443,-318.7675082370431A334.92532552083344,334.92532552083344 0 0 1 -39.98162966673406,-332.5303639736203" fill="none" id="id18" stroke="none" /><text dominant-baseline="text-after-edge"><textPath dominant-baseline="text-after-edge" font-family="'Liberation Sans', 'Arial', 'Helvetica', 'Nimbus Sans L', sans-serif" font-size="14.0" font-style="normal" font-weight="normal" startOffset="50%" text-anchor="middle" xlink:href="#id18">16 kbp</textPath></text></g><g id="gc_content" transform="translate(700.0,500.0)"><path d="M1.842539663803047e-14 -300.90956267323685L1.842539663803047e-14 -300.90956267323685L11.719339215896891 -308.89530616511115L22.94342913036742 -301.9332484615528L34.947291448416905 -305.86475519685706L45.6595437261947 -298.70273192390016L56.594213227926105 -294.8967282425224L66.3095128091743 -286.38800356659743L77.45073017850632 -284.88670591510663L91.02501919243805 -290.78382262961406L101.77251882223436 -286.52884094690785L114.19842302517185 -286.57011166756274L120.88803857894965 -272.79866629288006L133.3635436910559 -272.55645551739934L140.31406507265518 -261.18616702592686L145.63990017182306 -248.05612909663012L156.29990745488354 -244.48411343152338L164.73645956511703 -237.3452918440718L170.58098935893736 -226.89180196696267L176.67067289715945 -217.32206395399888L180.200622960835 -205.2487089541488L183.07573244814006 -193.22767928461954L196.5882440957858 -192.3295083974268L203.7385544278809 -184.73813617306402L211.07939312311143 -177.28721156442444L225.12683518215675 -174.96905245006838L229.03418817348964 -164.46682883245825L239.31640882594888 -158.4539163947158L246.23026722832853 -149.92369073611013L252.83987713394785 -141.0961148201157L260.8204357449751 -132.8417057675475L273.6922557827852 -126.56812762466576L281.20750768127704 -117.31633835812933L287.2275789261072 -107.23328437687275L292.8848919203977 -96.86149290286838L295.1334922591266 -85.33717604468906L304.28413132614145 -75.6092263112704L302.6053187224124 -63.116354167538994L308.5157974307559 -52.23088201852677L305.2656055330745 -39.84308885790884L307.81412364333164 -28.356980942666937L303.6241889850368 -16.39433270917425L295.18922621166223 -4.729856330202529L290.1064746736139 6.354222474148819L282.72421851174414 16.933020351668684L284.3924684889911 27.88601416272205L278.75171875801834 38.0501704899745L271.51170000139643 47.609477500406356L267.65958180238897 57.471223365126725L275.68963851182804 70.22703934673355L275.25095401847943 81.34432657591556L269.57601913598177 90.91415591087492L260.0334909702681 98.8259799764431L256.68109928641167 108.85990319969807L263.799523433122 123.88057757993639L255.54776978370168 132.05362949589383L252.00617865933862 142.57981275046834L255.55432819664088 157.66727827610788L251.49063811644191 168.6491814584074L245.42664563399222 178.43379120248238L240.47032243471267 189.17168973269193L234.08767806775737 198.97027628567085L236.61106257199728 217.09280459642332L225.51819887505098 223.2420771101908L210.8507445583098 225.1792002867979L204.64471728083788 235.87257979427656L194.76435432800213 242.47704257619435L183.92571132772443 247.65912346446282L173.33330308288768 252.89172666653255L161.26231658013617 255.54369732649167L147.66052208608423 254.91766713412375L138.77644839882282 262.00638937384247L121.88936746452342 252.86054381586047L113.7296434336701 260.7722800503158L104.45225792804392 266.6602214544442L94.47530340415864 271.02472986955354L85.05759472927471 277.42989811783735L74.15434525711568 279.2347072806057L64.34743779289253 285.540935319124L53.59103106627838 288.39596396211084L42.34356165154786 288.3463349025655L30.633423815010026 282.83954317520744L20.506259227745204 292.61531739276137L9.3169006666429 290.65815169310315L-1.705588816472742 290.1710422450736L-12.539526552006826 286.1131038003177L-23.223082546736975 283.5441804643811L-34.33298111008068 285.5942403350555L-44.34324410302765 279.0987855277426L-55.628471032153655 280.9331256776685L-67.40755494259213 283.53625447505357L-79.1238915022301 284.4265469429455L-92.92476477129166 290.8452068421735L-103.66973240736672 286.51940982184703L-115.16931953275359 284.1385000529969L-125.59966048336226 278.9921673714885L-134.68243538758577 271.20237658411986L-139.4303023163009 255.92142712376753L-149.67835583106788 251.53649494484608L-154.3021515967125 238.26164135906237L-161.40898853253404 229.65759499885607L-163.1170158581335 214.32942406924587L-162.7013243038086 197.75225332263946L-176.37176865067772 198.52186362084507L-181.14974499494755 188.95785671814875L-183.64428491997305 177.5654220737578L-194.00589618829358 173.84624188585295L-204.3441475583523 169.59186440130887L-212.12922052372878 162.87634266539152L-221.24177668949181 156.90847144916674L-225.9744992513933 147.7169626149547L-244.94241597704374 147.17309120377337L-253.66484036824053 139.6075422296237L-256.51816093883696 128.75721441041355L-265.81217387838336 121.03260656965448L-277.8033278198462 113.983754769051L-276.58985648375074 101.41350053191665L-285.04067284316864 92.41221674376767L-285.3015191308503 80.68019511960637L-285.70063980797903 69.2111587040912L-291.2133343056365 58.95625923989224L-285.7615375701645 46.65255332751484L-286.69825652530335 35.70711940143618L-279.03917648543234 24.052944299873722L-275.9665468771845 13.274635481268856L-278.16546913138694 2.82179506772671L-283.1215828926507 -7.866397629564142L-288.92001302011556 -19.009028457482337L-291.1316067359043 -30.275502519381632L-290.3995608299696 -41.380257492465695L-290.4856941618438 -52.69831401151283L-292.5946072341411 -64.62661058636807L-291.7668651109746 -76.15141646218758L-293.5054989162022 -88.61817804466324L-296.5026515038628 -101.94000849260459L-287.1249040035038 -111.05787298608148L-283.86764710901224 -122.363442282768L-268.19607561154515 -127.8745932839442L-258.68160931438496 -135.60541522194683L-255.54528736669332 -146.5716647395158L-249.80470828270666 -156.1545853301488L-245.27188456488142 -166.57716933871873L-232.67837403161687 -171.2648911149044L-226.51199238866423 -180.35640934150038L-211.37407610884804 -181.81492019264883L-210.80710080693336 -195.7120076894569L-202.78956946163996 -203.1166602515288L-198.37384792699606 -214.3660889544653L-193.39179342894448 -225.56741966716797L-184.70099195698333 -232.73716968089602L-176.86498939451505 -241.09955095920586L-167.2433234551469 -247.10868249075517L-162.7617931091155 -261.3104673661569L-151.79815757416114 -265.6486844034178L-145.4168525236779 -278.48850847107354L-129.60870504885708 -272.9646489339673L-115.92986783087647 -270.13941922749257L-104.24400844527938 -270.8049657854591L-93.0849679685973 -272.17276212499263L-83.06241119320127 -276.71560222974165L-72.35332105297596 -279.05457257654075L-62.39762101095895 -284.68073864814534L-51.0013711393254 -283.73459021624353L-41.52860785021061 -294.84235529782393L-29.54908045013151 -288.66761965165887L-18.947721826282102 -295.2511404735998L-7.756985550193803 -296.388393629175L-5.5276189914091404e-14 -300.90956267323685zM 1.791045943753004e-14 -292.5A 292.5 292.5 0 0 1 171.92718629554838 -236.63747085467213A 292.5 292.5 0 0 1 278.1840310163324 -90.38747085467212A 292.5 292.5 0 0 1 278.1840310163324 90.38747085467219A 292.5 292.5 0 0 1 171.92718629554838 236.63747085467213A 292.5 292.5 0 0 1 1.791045943753004e-14 292.5A 292.5 292.5 0 0 1 -171.9271862955485 236.63747085467207A 292.5 292.5 0 0 1 -278.1840310163324 90.38747085467203A 292.5 292.5 0 0 1 -278.1840310163324 -90.38747085467207A 292.5 292.5 0 0 1 -171.92718629554844 -236.6374708546721A 292.5 292.5 0 0 1 -5.3731378312590116e-14 -292.5z" fill="#a1a1a1" fill-opacity="1.0" fill-rule="evenodd" stroke="none" /></g><g id="skew" transform="translate(700.0,500.0)"><clipPath id="clipper_circle_8852444d698d"><path d="M 1.3134336920855365e-14 -214.50000000000003A 214.50000000000003 214.50000000000003 0 0 1 126.07993661673551 -173.53414529342626A 214.50000000000003 214.50000000000003 0 0 1 204.00162274531047 -66.28414529342622A 214.50000000000003 214.50000000000003 0 0 1 204.00162274531047 66.28414529342629A 214.50000000000003 214.50000000000003 0 0 1 126.07993661673551 173.53414529342626A 214.50000000000003 214.50000000000003 0 0 1 1.3134336920855365e-14 214.50000000000003A 214.50000000000003 214.50000000000003 0 0 1 -126.07993661673558 173.5341452934262A 214.50000000000003 214.50000000000003 0 0 1 -204.00162274531047 66.28414529342616A 214.50000000000003 214.50000000000003 0 0 1 -204.00162274531047 -66.2841452934262A 214.50000000000003 214.50000000000003 0 0 1 -126.07993661673552 -173.53414529342623A 214.50000000000003 214.50000000000003 0 0 1 -3.940301076256609e-14 -214.50000000000003z" fill="white" stroke="none" /></clipPath><path d="M1.3521465320220184e-14 -220.82228655044628L1.3521465320220184e-14 -220.82228655044628L8.225941516251853 -216.81723485844614L16.456717301420188 -216.56876509599874L24.49532225848326 -214.3873083016424L33.95185209746605 -222.11152691767185L44.13941580948961 -229.99823774088267L55.21275273792992 -238.46156242372842L63.305464958994385 -232.8562343702353L73.16333699512516 -233.7238156775754L82.13025915849381 -231.2283142412624L91.54512765627962 -229.72381544444585L100.62077256089017 -227.06309804210704L110.55939173241426 -225.95137397183177L118.38421032159557 -220.36506542860155L124.11501808495436 -211.39461722089584L129.86841221347632 -203.14000270240942L135.18976138420462 -194.77566444470818L146.48945606503608 -194.84736711086978L152.08627382681757 -187.08086851719037L159.06681564772362 -181.17727903881152L165.41549855431788 -174.588147079588L174.32851672913952 -170.55199855099949L177.7484705957189 -161.17185702860846L186.90603319426097 -156.98381997077175L191.7975361029448 -149.06545071375768L194.75510737051317 -139.85141329158444L193.10682923266813 -127.85806675185276L194.07167662682383 -118.16557872740208L196.04409856925997 -109.40149534592715L196.03694286695784 -99.84601785331405L198.63911514879035 -91.86003749172988L193.64194840719313 -80.78505629875907L193.25570562288888 -72.14991024188457L194.36694828937675 -64.28010901771094L196.91566380440509 -56.937714996030486L200.02522561299676 -49.702731737679315L208.75501023659143 -43.5413865690427L207.04244141153478 -35.05171994513746L208.25166575226288 -27.18088599888449L209.64953819893694 -19.313694540653252L207.24554778619108 -11.190322069725907L208.97907724629567 -3.348499618629455L208.84610901000914 4.574370982250381L207.56334230997882 12.43145818245227L201.12126570723711 19.720882531576972L194.41460582411256 26.537984878831825L193.99384693462875 34.01675025718589L194.18786087572963 41.69555168559111L198.75418756307974 50.62909953984947L198.10678373763707 58.546074692902714L199.1288143861273 67.15592928284941L200.20581461527195 76.08841365975661L201.63696534090178 85.51537526336851L200.57378195807266 94.18969235802082L202.50669193326365 104.64479376841676L199.00711165102646 112.59405172589575L191.63941270837745 118.23421197903545L188.3324196702802 126.2953907841609L185.06878421626197 134.5515060748076L179.78825768196427 141.4347024424509L174.98970139063044 148.73806908692853L168.59835261945318 154.6905238606776L159.93806352075782 158.32383234462606L152.8273415872169 163.21279126927573L149.11150714796588 171.86525181462247L144.93422459598173 180.43970247719443L140.13433946120298 188.69329050136778L131.80036878750914 192.29554993260595L120.34543191944815 190.70491656844706L111.76644548448242 192.95097392495634L102.85485667652543 194.18734186029994L95.32666235738593 197.75598302989985L90.05925807344602 206.4981244854542L81.4748900334664 208.00040755717825L72.40055036301482 207.69808508155955L62.668226561155 204.40314313405966L54.2776850547767 204.38739558131454L45.62540057932361 202.46213373190068L37.73515939562122 203.06882425353996L30.396566038149082 206.99105292206073L22.137504105210873 204.39640002268138L14.15790177993862 202.02704339887592L6.3368594907758835 197.6901904430718L-1.1647162058817704 198.15263334065267L-8.680208988662248 198.05544691670272L-16.717131153406118 204.10921948318722L-24.37143510871372 202.73047287771158L-32.74627804628627 206.10685163308247L-40.87180262647049 206.40947074202842L-48.20049079539955 202.74562154978148L-57.96433593725423 208.364320857619L-66.24632315541504 207.34435656728903L-73.94050630844659 204.3546340621137L-81.47788912137993 201.0171224103591L-89.41185756671348 198.60888027283022L-97.30453832167194 195.93662654908007L-105.14898258106356 192.9987759885385L-112.47382938346664 189.0137866564511L-118.1342238030912 182.41387934478425L-123.85744527547389 176.22812250591824L-123.29359620964892 162.00299722269938L-127.74037055642198 155.2596220460516L-134.47892606139197 151.36780236248305L-138.20926287069113 144.16650761153105L-142.45128089543152 137.73595964702804L-149.41235328946235 133.88652933251277L-153.30036697884674 127.22896818918369L-156.60406908679315 120.24320815586056L-162.52840993491756 115.26794239111142L-168.61164803597404 110.21951853809588L-174.21418058549904 104.67619250845989L-177.56905418240092 97.72729714712028L-181.76922193257516 91.23758955673705L-190.25268536034673 86.62800533196992L-190.61969109743498 78.21197929742753L-187.04261527037727 68.58041218271454L-190.73370319560317 61.837225348368264L-193.71816917377475 54.78141068006335L-197.68581143679722 47.88951147640065L-203.6193072918313 41.22281246347493L-205.53114664207303 33.554385452696756L-209.678499722809 26.114617215523793L-208.58429420925467 17.979792205649655L-207.8266450076185 9.99694704662511L-210.4184116836121 2.134548325145466L-214.25746698903984 -5.953041139495378L-212.2913404152933 -13.967367954363269L-207.67158109239386 -21.596286116300053L-203.56007286018857 -29.006132812547907L-197.18531027766792 -35.772272467506134L-194.91160843680836 -43.05095277141684L-190.69449079002453 -49.771435079417216L-184.74657325080494 -55.780572363843646L-179.37925184453437 -61.672036872798984L-172.69713721139019 -66.79802574439314L-167.70257802191367 -72.28955090671317L-162.77362850798323 -77.60967976637374L-162.68956652236523 -85.28471072611757L-158.79064492908614 -91.07665186139907L-156.99715608391537 -98.13996691588228L-154.69015641370842 -105.0583046877632L-154.50278414118986 -113.72308497950434L-155.93067078983353 -124.15720507023083L-154.08285592903445 -132.53546825376344L-151.90194427260707 -141.02482493106868L-146.1572900045469 -146.39303538120762L-140.51183314880802 -151.83943064419077L-133.87480983935654 -156.1482774344902L-129.04651533174362 -162.60833478624323L-123.1428942974823 -167.86644219741024L-118.12202459865233 -174.53000376150598L-111.62709629742609 -179.21483996340774L-102.7775462843945 -179.8619982809871L-93.6078717026578 -179.26888197074732L-87.79660812842046 -184.90556098321827L-82.91294224721597 -193.20348141672005L-77.0629193519554 -200.1939636596823L-72.77531993180482 -212.78902783800172L-65.32152119367491 -217.61328398747565L-56.44434460380946 -217.696330017061L-47.62942934614636 -217.30285398651952L-37.88561720376475 -210.76806039261797L-29.907674934350784 -212.33674268425918L-22.30666491200244 -217.91581208024587L-14.076724587993569 -219.34927200445304L-5.768077499541418 -220.39376164300788zM 1.3134336920855365e-14 -214.50000000000003A 214.50000000000003 214.50000000000003 0 0 1 126.07993661673551 -173.53414529342626A 214.50000000000003 214.50000000000003 0 0 1 204.00162274531047 -66.28414529342622A 214.50000000000003 214.50000000000003 0 0 1 204.00162274531047 66.28414529342629A 214.50000000000003 214.50000000000003 0 0 1 126.07993661673551 173.53414529342626A 214.50000000000003 214.50000000000003 0 0 1 1.3134336920855365e-14 214.50000000000003A 214.50000000000003 214.50000000000003 0 0 1 -126.07993661673558 173.5341452934262A 214.50000000000003 214.50000000000003 0 0 1 -204.00162274531047 66.28414529342616A 214.50000000000003 214.50000000000003 0 0 1 -204.00162274531047 -66.2841452934262A 214.50000000000003 214.50000000000003 0 0 1 -126.07993661673552 -173.53414529342623A 214.50000000000003 214.50000000000003 0 0 1 -3.940301076256609e-14 -214.50000000000003z" fill="#6dded3" fill-opacity="1.0" fill-rule="evenodd" stroke="none" /><path clip-path="url(#clipper_circle_8852444d698d)" clip-rule="nonzero" d="M1.3521465320220184e-14 -220.82228655044628L1.3521465320220184e-14 -220.82228655044628L8.225941516251853 -216.81723485844614L16.456717301420188 -216.56876509599874L24.49532225848326 -214.3873083016424L33.95185209746605 -222.11152691767185L44.13941580948961 -229.99823774088267L55.21275273792992 -238.46156242372842L63.305464958994385 -232.8562343702353L73.16333699512516 -233.7238156775754L82.13025915849381 -231.2283142412624L91.54512765627962 -229.72381544444585L100.62077256089017 -227.06309804210704L110.55939173241426 -225.95137397183177L118.38421032159557 -220.36506542860155L124.11501808495436 -211.39461722089584L129.86841221347632 -203.14000270240942L135.18976138420462 -194.77566444470818L146.48945606503608 -194.84736711086978L152.08627382681757 -187.08086851719037L159.06681564772362 -181.17727903881152L165.41549855431788 -174.588147079588L174.32851672913952 -170.55199855099949L177.7484705957189 -161.17185702860846L186.90603319426097 -156.98381997077175L191.7975361029448 -149.06545071375768L194.75510737051317 -139.85141329158444L193.10682923266813 -127.85806675185276L194.07167662682383 -118.16557872740208L196.04409856925997 -109.40149534592715L196.03694286695784 -99.84601785331405L198.63911514879035 -91.86003749172988L193.64194840719313 -80.78505629875907L193.25570562288888 -72.14991024188457L194.36694828937675 -64.28010901771094L196.91566380440509 -56.937714996030486L200.02522561299676 -49.702731737679315L208.75501023659143 -43.5413865690427L207.04244141153478 -35.05171994513746L208.25166575226288 -27.18088599888449L209.64953819893694 -19.313694540653252L207.24554778619108 -11.190322069725907L208.97907724629567 -3.348499618629455L208.84610901000914 4.574370982250381L207.56334230997882 12.43145818245227L201.12126570723711 19.720882531576972L194.41460582411256 26.537984878831825L193.99384693462875 34.01675025718589L194.18786087572963 41.69555168559111L198.75418756307974 50.62909953984947L198.10678373763707 58.546074692902714L199.1288143861273 67.15592928284941L200.20581461527195 76.08841365975661L201.63696534090178 85.51537526336851L200.57378195807266 94.18969235802082L202.50669193326365 104.64479376841676L199.00711165102646 112.59405172589575L191.63941270837745 118.23421197903545L188.3324196702802 126.2953907841609L185.06878421626197 134.5515060748076L179.78825768196427 141.4347024424509L174.98970139063044 148.73806908692853L168.59835261945318 154.6905238606776L159.93806352075782 158.32383234462606L152.8273415872169 163.21279126927573L149.11150714796588 171.86525181462247L144.93422459598173 180.43970247719443L140.13433946120298 188.69329050136778L131.80036878750914 192.29554993260595L120.34543191944815 190.70491656844706L111.76644548448242 192.95097392495634L102.85485667652543 194.18734186029994L95.32666235738593 197.75598302989985L90.05925807344602 206.4981244854542L81.4748900334664 208.00040755717825L72.40055036301482 207.69808508155955L62.668226561155 204.40314313405966L54.2776850547767 204.38739558131454L45.62540057932361 202.46213373190068L37.73515939562122 203.06882425353996L30.396566038149082 206.99105292206073L22.137504105210873 204.39640002268138L14.15790177993862 202.02704339887592L6.3368594907758835 197.6901904430718L-1.1647162058817704 198.15263334065267L-8.680208988662248 198.05544691670272L-16.717131153406118 204.10921948318722L-24.37143510871372 202.73047287771158L-32.74627804628627 206.10685163308247L-40.87180262647049 206.40947074202842L-48.20049079539955 202.74562154978148L-57.96433593725423 208.364320857619L-66.24632315541504 207.34435656728903L-73.94050630844659 204.3546340621137L-81.47788912137993 201.0171224103591L-89.41185756671348 198.60888027283022L-97.30453832167194 195.93662654908007L-105.14898258106356 192.9987759885385L-112.47382938346664 189.0137866564511L-118.1342238030912 182.41387934478425L-123.85744527547389 176.22812250591824L-123.29359620964892 162.00299722269938L-127.74037055642198 155.2596220460516L-134.47892606139197 151.36780236248305L-138.20926287069113 144.16650761153105L-142.45128089543152 137.73595964702804L-149.41235328946235 133.88652933251277L-153.30036697884674 127.22896818918369L-156.60406908679315 120.24320815586056L-162.52840993491756 115.26794239111142L-168.61164803597404 110.21951853809588L-174.21418058549904 104.67619250845989L-177.56905418240092 97.72729714712028L-181.76922193257516 91.23758955673705L-190.25268536034673 86.62800533196992L-190.61969109743498 78.21197929742753L-187.04261527037727 68.58041218271454L-190.73370319560317 61.837225348368264L-193.71816917377475 54.78141068006335L-197.68581143679722 47.88951147640065L-203.6193072918313 41.22281246347493L-205.53114664207303 33.554385452696756L-209.678499722809 26.114617215523793L-208.58429420925467 17.979792205649655L-207.8266450076185 9.99694704662511L-210.4184116836121 2.134548325145466L-214.25746698903984 -5.953041139495378L-212.2913404152933 -13.967367954363269L-207.67158109239386 -21.596286116300053L-203.56007286018857 -29.006132812547907L-197.18531027766792 -35.772272467506134L-194.91160843680836 -43.05095277141684L-190.69449079002453 -49.771435079417216L-184.74657325080494 -55.780572363843646L-179.37925184453437 -61.672036872798984L-172.69713721139019 -66.79802574439314L-167.70257802191367 -72.28955090671317L-162.77362850798323 -77.60967976637374L-162.68956652236523 -85.28471072611757L-158.79064492908614 -91.07665186139907L-156.99715608391537 -98.13996691588228L-154.69015641370842 -105.0583046877632L-154.50278414118986 -113.72308497950434L-155.93067078983353 -124.15720507023083L-154.08285592903445 -132.53546825376344L-151.90194427260707 -141.02482493106868L-146.1572900045469 -146.39303538120762L-140.51183314880802 -151.83943064419077L-133.87480983935654 -156.1482774344902L-129.04651533174362 -162.60833478624323L-123.1428942974823 -167.86644219741024L-118.12202459865233 -174.53000376150598L-111.62709629742609 -179.21483996340774L-102.7775462843945 -179.8619982809871L-93.6078717026578 -179.26888197074732L-87.79660812842046 -184.90556098321827L-82.91294224721597 -193.20348141672005L-77.0629193519554 -200.1939636596823L-72.77531993180482 -212.78902783800172L-65.32152119367491 -217.61328398747565L-56.44434460380946 -217.696330017061L-47.62942934614636 -217.30285398651952L-37.88561720376475 -210.76806039261797L-29.907674934350784 -212.33674268425918L-22.30666491200244 -217.91581208024587L-14.076724587993569 -219.34927200445304L-5.768077499541418 -220.39376164300788zM 1.3134336920855365e-14 -214.50000000000003A 214.50000000000003 214.50000000000003 0 0 1 126.07993661673551 -173.53414529342626A 214.50000000000003 214.50000000000003 0 0 1 204.00162274531047 -66.28414529342622A 214.50000000000003 214.50000000000003 0 0 1 204.00162274531047 66.28414529342629A 214.50000000000003 214.50000000000003 0 0 1 126.07993661673551 173.53414529342626A 214.50000000000003 214.50000000000003 0 0 1 1.3134336920855365e-14 214.50000000000003A 214.50000000000003 214.50000000000003 0 0 1 -126.07993661673558 173.5341452934262A 214.50000000000003 214.50000000000003 0 0 1 -204.00162274531047 66.28414529342616A 214.50000000000003 214.50000000000003 0 0 1 -204.00162274531047 -66.2841452934262A 214.50000000000003 214.50000000000003 0 0 1 -126.07993661673552 -173.53414529342623A 214.50000000000003 214.50000000000003 0 0 1 -3.940301076256609e-14 -214.50000000000003z" fill="#ad72e3" fill-opacity="1.0" fill-rule="evenodd" stroke="none" /></g><g id="label_text" transform="translate(700.0,500.0)"><text dominant-baseline="middle" font-family="'Liberation Sans', 'Arial', 'Helvetica', 'Nimbus Sans L', sans-serif" font-size="14.0" font-weight="normal" text-anchor="start" x="423.99443266213115" y="-146.22233437993484">tRNA-Leu</text><text dominant-baseline="middle" font-family="'Liberation Sans', 'Arial', 'Helvetica', 'Nimbus Sans L', sans-serif" font-size="14.0" font-weight="normal" text-anchor="start" x="444.3675848981395" y="-60.74289663651836">NADH dehydrogenase subunit 1</text><text dominant-baseline="middle" font-family="'Liberation Sans', 'Arial', 'Helvetica', 'Nimbus Sans L', sans-serif" font-size="14.0" font-weight="normal" text-anchor="start" x="425.5230876077478" y="141.71221511489034">NADH dehydrogenase subunit 2</text><text dominant-baseline="hanging" font-family="'Liberation Sans', 'Arial', 'Helvetica', 'Nimbus Sans L', sans-serif" font-size="14.0" font-weight="normal" text-anchor="start" x="60.616511604987835" y="444.3848428117709">cytochrome c oxidase subunit II</text><text dominant-baseline="hanging" font-family="'Liberation Sans', 'Arial', 'Helvetica', 'Nimbus Sans L', sans-serif" font-size="14.0" font-weight="normal" text-anchor="end" x="-31.2688121648102" y="447.4086626181949">ATP synthase F0 subunit 8</text><text dominant-baseline="middle" font-family="'Liberation Sans', 'Arial', 'Helvetica', 'Nimbus Sans L', sans-serif" font-size="14.0" font-weight="normal" text-anchor="end" x="-107.70657452508392" y="435.37517591621196">ATP synthase F0 subunit 6</text><text dominant-baseline="middle" font-family="'Liberation Sans', 'Arial', 'Helvetica', 'Nimbus Sans L', sans-serif" font-size="14.0" font-weight="normal" text-anchor="end" x="-214.27282656464672" y="394.00432205243226">cytochrome c oxidase subunit III</text><text dominant-baseline="middle" font-family="'Liberation Sans', 'Arial', 'Helvetica', 'Nimbus Sans L', sans-serif" font-size="14.0" font-weight="normal" text-anchor="end" x="-301.8011380508402" y="331.76546395189723">NADH dehydrogenase subunit 3</text><text dominant-baseline="middle" font-family="'Liberation Sans', 'Arial', 'Helvetica', 'Nimbus Sans L', sans-serif" font-size="14.0" font-weight="normal" text-anchor="end" x="-347.0169678136443" y="284.13284577715416">NADH dehydrogenase subunit 4L</text><text dominant-baseline="middle" font-family="'Liberation Sans', 'Arial', 'Helvetica', 'Nimbus Sans L', sans-serif" font-size="14.0" font-weight="normal" text-anchor="end" x="-417.96120834687423" y="162.66738553631686">NADH dehydrogenase subunit 4</text><text dominant-baseline="middle" font-family="'Liberation Sans', 'Arial', 'Helvetica', 'Nimbus Sans L', sans-serif" font-size="14.0" font-weight="normal" text-anchor="end" x="-447.98609906082834" y="21.46404081857921">tRNA-Leu</text><text dominant-baseline="middle" font-family="'Liberation Sans', 'Arial', 'Helvetica', 'Nimbus Sans L', sans-serif" font-size="14.0" font-weight="normal" text-anchor="end" x="-327.4693557686446" y="-306.45729071514813">NADH dehydrogenase subunit 6</text></g><g id="NC_012920.1_definition" transform="translate(700.0,500.0)"><text dominant-baseline="middle" font-family="'Liberation Sans', 'Arial', 'Helvetica', 'Nimbus Sans L', sans-serif" font-size="18.0" font-weight="bold" text-anchor="middle" x="2.388061258337339e-14" y="-60.0"><tspan>Homo sapiens</tspan></text><text dominant-baseline="middle" font-family="'Liberation Sans', 'Arial', 'Helvetica', 'Nimbus Sans L', sans-serif" font-size="18.0" font-weight="bold" text-anchor="middle" x="2.388061258337339e-14" y="-20.0"><tspan>mitochondrion</tspan></text><text dominant-baseline="middle" font-family="'Liberation Sans', 'Arial', 'Helvetica', 'Nimbus Sans L', sans-serif" font-size="18.0" font-weight="normal" text-anchor="middle" x="2.388061258337339e-14" y="20.0">NC_012920.1</text><text dominant-baseline="middle" font-family="'Liberation Sans', 'Arial', 'Helvetica', 'Nimbus Sans L', sans-serif" font-size="18.0" font-weight="normal" text-anchor="middle" x="2.388061258337339e-14" y="60.0">16,569 bp</text><text dominant-baseline="middle" font-family="'Liberation Sans', 'Arial', 'Helvetica', 'Nimbus Sans L', sans-serif" font-size="18.0" font-weight="normal" text-anchor="middle" x="2.388061258337339e-14" y="100.0">44.36% GC</text></g><g id="legend" transform="translate(1407.7620163690476,405.7142857142857)"><path d="M 0,-12.0 L 155.24032738095238,-12.0 L 155.24032738095238,176.57142857142856 L 0,176.57142857142856 z" fill="none" stroke="none" stroke-width="0" /><g data-legend-key="tRNA"><path d="M 0,-12.0 L 24.0,-12.0 L 24.0,12.0 L 0,12.0 z" fill="#e8b441" stroke="gray" stroke-width="2.0" transform="translate(0.0,0.0)" /><text dominant-baseline="central" font-family="'Liberation Sans', 'Arial', 'Helvetica', 'Nimbus Sans L', sans-serif" font-size="20.0" font-weight="normal" text-anchor="start" transform="translate(37.714285714285715,0.0)" x="0" y="0">tRNA</text></g><g data-legend-key="CDS"><path d="M 0,-12.0 L 24.0,-12.0 L 24.0,12.0 L 0,12.0 z" fill="#54bcf8" stroke="gray" stroke-width="2.0" transform="translate(0.0,41.14285714285714)" /><text dominant-baseline="central" font-family="'Liberation Sans', 'Arial', 'Helvetica', 'Nimbus Sans L', sans-serif" font-size="20.0" font-weight="normal" text-anchor="start" transform="translate(37.714285714285715,41.14285714285714)" x="0" y="0">CDS</text></g><g data-legend-key="GC content"><path d="M 0,-12.0 L 24.0,-12.0 L 24.0,12.0 L 0,12.0 z" fill="#a1a1a1" stroke="none" stroke-width="0.0" transform="translate(0.0,82.28571428571428)" /><text dominant-baseline="central" font-family="'Liberation Sans', 'Arial', 'Helvetica', 'Nimbus Sans L', sans-serif" font-size="20.0" font-weight="normal" text-anchor="start" transform="translate(37.714285714285715,82.28571428571428)" x="0" y="0">GC content</text></g><g data-legend-key="GC skew (+)"><path d="M 0,-12.0 L 24.0,-12.0 L 24.0,12.0 L 0,12.0 z" fill="#6dded3" stroke="none" stroke-width="0.0" transform="translate(0.0,123.42857142857142)" /><text dominant-baseline="central" font-family="'Liberation Sans', 'Arial', 'Helvetica', 'Nimbus Sans L', sans-serif" font-size="20.0" font-weight="normal" text-anchor="start" transform="translate(37.714285714285715,123.42857142857142)" x="0" y="0">GC skew (+)</text></g><g data-legend-key="GC skew (-)"><path d="M 0,-12.0 L 24.0,-12.0 L 24.0,12.0 L 0,12.0 z" fill="#ad72e3" stroke="none" stroke-width="0.0" transform="translate(0.0,164.57142857142856)" /><text dominant-baseline="central" font-family="'Liberation Sans', 'Arial', 'Helvetica', 'Nimbus Sans L', sans-serif" font-size="20.0" font-weight="normal" text-anchor="start" transform="translate(37.714285714285715,164.57142857142856)" x="0" y="0">GC skew (-)</text></g></g></svg>